<svg width="361" height="472" viewBox="0 0 361 472" fill="none" xmlns="http://www.w3.org/2000/svg">
<mask id="mask0_28_123" style="mask-type:luminance" maskUnits="userSpaceOnUse" x="58" y="439" width="30" height="33">
<path d="M58.3698 439.26H87.7031V472H58.3698V439.26Z" fill="white"/>
</mask>
<g mask="url(#mask0_28_123)">
<path fill-rule="evenodd" clip-rule="evenodd" d="M87.4636 450.865L68.2188 471.604L69.8698 456.156L58.5365 460L75.9167 440.438L87.4636 450.865Z" fill="#55AD0B"/>
</g>
<mask id="mask1_28_123" style="mask-type:luminance" maskUnits="userSpaceOnUse" x="0" y="0" width="351" height="453">
<path d="M0 0H350.37V452.594H0V0Z" fill="white"/>
</mask>
<g mask="url(#mask1_28_123)">
<path fill-rule="evenodd" clip-rule="evenodd" d="M349.943 0.114594H0.00518799V451.323H349.943V0.114594Z" fill="#0B2A28"/>
</g>
<path fill-rule="evenodd" clip-rule="evenodd" d="M17.6719 15.0469L330.995 15.7188L332.786 33.474L336.75 435.057L24.3229 434.99V33.4063L17.6719 15.0469Z" fill="#EAF1D9"/>
<mask id="mask2_28_123" style="mask-type:luminance" maskUnits="userSpaceOnUse" x="23" y="32" width="338" height="421">
<path d="M23.7031 32.5938H361V452.594H23.7031V32.5938Z" fill="white"/>
</mask>
<g mask="url(#mask2_28_123)">
<path fill-rule="evenodd" clip-rule="evenodd" d="M360.995 33.4062H24.3177V451.323H360.995V33.4062Z" fill="#1D3837"/>
</g>
<mask id="mask3_28_123" style="mask-type:luminance" maskUnits="userSpaceOnUse" x="354" y="417" width="7" height="35">
<path d="M354.37 417.927H360.995V451.323H354.37V417.927Z" fill="white"/>
</mask>
<g mask="url(#mask3_28_123)">
<path fill-rule="evenodd" clip-rule="evenodd" d="M369.88 469.214C369.88 469.214 356.88 444.167 370.547 441.042C376.047 439.781 389.385 441.698 393.01 437.422C398.396 431.068 392.802 418.135 392.802 418.135C392.802 418.135 389.849 424.307 386.943 425.411C380.656 427.812 353.672 415.641 355.057 432.521C356.448 449.396 369.88 469.214 369.88 469.214Z" fill="#EAD67F"/>
</g>
<mask id="mask4_28_123" style="mask-type:luminance" maskUnits="userSpaceOnUse" x="313" y="441" width="48" height="11">
<path d="M313.036 441.927H360.995V451.323H313.036V441.927Z" fill="white"/>
</mask>
<g mask="url(#mask4_28_123)">
<path fill-rule="evenodd" clip-rule="evenodd" d="M369.88 469.214C369.88 469.214 350.208 448.979 342.922 460.953C339.995 465.776 337.604 479.031 332.401 481.12C324.672 484.224 314.156 474.844 314.156 474.844C314.156 474.844 320.948 473.984 322.917 471.578C327.177 466.37 324.135 436.938 339.719 443.578C355.307 450.219 369.88 469.214 369.88 469.214Z" fill="#EAD67F"/>
</g>
<path fill-rule="evenodd" clip-rule="evenodd" d="M351.38 449.844C351.38 449.844 338.781 435.906 330.662 440.958C327.396 442.984 323.078 449.531 318.427 449.75C311.516 450.068 304.531 443.37 304.531 443.37C304.531 443.37 310.271 444.073 312.313 443.141C316.745 441.13 319.469 425.187 331.115 431.302C342.755 437.422 351.38 449.844 351.38 449.844Z" fill="#EAD67F"/>
<mask id="mask5_28_123" style="mask-type:luminance" maskUnits="userSpaceOnUse" x="345" y="397" width="16" height="49">
<path d="M345.036 397.927H360.995V445.927H345.036V397.927Z" fill="white"/>
</mask>
<g mask="url(#mask5_28_123)">
<path fill-rule="evenodd" clip-rule="evenodd" d="M357.328 445.552C357.328 445.552 348.073 429.208 355.427 423.099C358.385 420.641 365.963 418.609 367.635 414.266C370.12 407.812 365.963 399.073 365.963 399.073C365.963 399.073 364.818 404.74 363.292 406.385C359.984 409.953 343.989 407.505 346.125 420.479C348.255 433.453 357.328 445.552 357.328 445.552Z" fill="#EAD67F"/>
</g>
<path fill-rule="evenodd" clip-rule="evenodd" d="M311.531 388.359C311.531 388.359 325.167 397.891 336.495 413.583C347.818 429.276 352.563 445.219 352.563 445.219C352.563 445.219 338.927 435.682 327.604 419.995C316.281 404.302 311.531 388.359 311.531 388.359Z" fill="#EAD67F"/>
<mask id="mask6_28_123" style="mask-type:luminance" maskUnits="userSpaceOnUse" x="24" y="417" width="7" height="35">
<path d="M24.3177 417.927H30.3698V451.323H24.3177V417.927Z" fill="white"/>
</mask>
<g mask="url(#mask6_28_123)">
<path fill-rule="evenodd" clip-rule="evenodd" d="M15.4167 469.214C15.4167 469.214 28.4167 444.167 14.75 441.042C9.25002 439.781 -4.08332 441.698 -7.71352 437.422C-13.0989 431.068 -7.50519 418.135 -7.50519 418.135C-7.50519 418.135 -4.55207 424.307 -1.64582 425.411C4.64585 427.812 31.625 415.641 30.2396 432.521C28.849 449.396 15.4167 469.214 15.4167 469.214Z" fill="#EAD67F"/>
</g>
<mask id="mask7_28_123" style="mask-type:luminance" maskUnits="userSpaceOnUse" x="24" y="441" width="48" height="11">
<path d="M24.3177 441.927H71.7032V451.323H24.3177V441.927Z" fill="white"/>
</mask>
<g mask="url(#mask7_28_123)">
<path fill-rule="evenodd" clip-rule="evenodd" d="M15.4167 469.214C15.4167 469.214 35.0938 448.979 42.375 460.953C45.3021 465.776 47.6927 479.031 52.8959 481.12C60.625 484.224 71.1406 474.844 71.1406 474.844C71.1406 474.844 64.349 473.984 62.3802 471.578C58.1198 466.37 61.1615 436.938 45.5781 443.578C29.9948 450.219 15.4167 469.214 15.4167 469.214Z" fill="#EAD67F"/>
</g>
<path fill-rule="evenodd" clip-rule="evenodd" d="M33.9219 449.844C33.9219 449.844 46.5156 435.906 54.6354 440.958C57.901 442.984 62.2188 449.531 66.875 449.75C73.7813 450.068 80.7656 443.37 80.7656 443.37C80.7656 443.37 75.0313 444.073 72.9844 443.141C68.5521 441.13 65.8281 425.187 54.1823 431.302C42.5417 437.422 33.9219 449.844 33.9219 449.844Z" fill="#EAD67F"/>
<mask id="mask8_28_123" style="mask-type:luminance" maskUnits="userSpaceOnUse" x="24" y="397" width="16" height="49">
<path d="M24.3177 397.927H39.7032V445.927H24.3177V397.927Z" fill="white"/>
</mask>
<g mask="url(#mask8_28_123)">
<path fill-rule="evenodd" clip-rule="evenodd" d="M27.9688 445.552C27.9688 445.552 37.224 429.208 29.8698 423.099C26.9115 420.641 19.3386 418.609 17.6615 414.266C15.1771 407.812 19.3333 399.073 19.3333 399.073C19.3333 399.073 20.4792 404.74 22.0052 406.385C25.3125 409.953 41.3073 407.505 39.1771 420.479C37.0417 433.453 27.9688 445.552 27.9688 445.552Z" fill="#EAD67F"/>
</g>
<path fill-rule="evenodd" clip-rule="evenodd" d="M73.7656 388.359C73.7656 388.359 60.1302 397.891 48.8073 413.583C37.4844 429.276 32.7344 445.219 32.7344 445.219C32.7344 445.219 46.3698 435.682 57.6927 419.995C69.0156 404.302 73.7656 388.359 73.7656 388.359Z" fill="#EAD67F"/>
<mask id="mask9_28_123" style="mask-type:luminance" maskUnits="userSpaceOnUse" x="24" y="33" width="7" height="35">
<path d="M24.3177 33.4062H30.3698V67.2604H24.3177V33.4062Z" fill="white"/>
</mask>
<g mask="url(#mask9_28_123)">
<path fill-rule="evenodd" clip-rule="evenodd" d="M15.4167 15.099C15.4167 15.099 28.4167 40.1458 14.75 43.2761C9.25002 44.5365 -4.08332 42.6198 -7.71352 46.8958C-13.0989 53.25 -7.50519 66.1823 -7.50519 66.1823C-7.50519 66.1823 -4.55207 60.0104 -1.64582 58.9011C4.64585 56.5052 31.625 68.6771 30.2396 51.7969C28.849 34.9167 15.4167 15.099 15.4167 15.099Z" fill="#EAD67F"/>
</g>
<mask id="mask10_28_123" style="mask-type:luminance" maskUnits="userSpaceOnUse" x="24" y="33" width="48" height="9">
<path d="M24.3177 33.4062H71.7032V41.9271H24.3177V33.4062Z" fill="white"/>
</mask>
<g mask="url(#mask10_28_123)">
<path fill-rule="evenodd" clip-rule="evenodd" d="M15.4167 15.1042C15.4167 15.1042 35.0938 35.3385 42.375 23.3594C45.3021 18.5417 47.6927 5.28645 52.8959 3.19791C60.625 0.0885314 71.1406 9.47395 71.1406 9.47395C71.1406 9.47395 64.349 10.3281 62.3802 12.7344C58.1198 17.9479 61.1615 47.3802 45.5781 40.7396C29.9948 34.0989 15.4167 15.1042 15.4167 15.1042Z" fill="#EAD67F"/>
</g>
<path fill-rule="evenodd" clip-rule="evenodd" d="M33.9219 34.4739C33.9219 34.4739 46.5156 48.4062 54.6354 43.3594C57.901 41.3281 62.2188 34.7864 66.875 34.5677C73.7813 34.25 80.7656 40.9479 80.7656 40.9479C80.7656 40.9479 75.0313 40.2448 72.9844 41.1771C68.5521 43.1875 65.8281 59.1302 54.1823 53.0104C42.5417 46.8958 33.9219 34.4739 33.9219 34.4739Z" fill="#EAD67F"/>
<mask id="mask11_28_123" style="mask-type:luminance" maskUnits="userSpaceOnUse" x="24" y="37" width="16" height="49">
<path d="M24.3177 37.9271H39.7032V85.9271H24.3177V37.9271Z" fill="white"/>
</mask>
<g mask="url(#mask11_28_123)">
<path fill-rule="evenodd" clip-rule="evenodd" d="M27.9688 38.7656C27.9688 38.7656 37.224 55.1093 29.8698 61.2187C26.9115 63.6718 19.3386 65.7083 17.6615 70.0521C15.1771 76.5052 19.3333 85.2448 19.3333 85.2448C19.3333 85.2448 20.4792 79.5781 22.0052 77.9323C25.3125 74.3646 41.3073 76.8073 39.1771 63.8333C37.0417 50.8593 27.9688 38.7656 27.9688 38.7656Z" fill="#EAD67F"/>
</g>
<path fill-rule="evenodd" clip-rule="evenodd" d="M73.7656 95.9583C73.7656 95.9583 60.1302 86.4219 48.8073 70.7344C37.4844 55.0416 32.7344 39.0989 32.7344 39.0989C32.7344 39.0989 46.3698 48.6302 57.6927 64.3229C69.0156 80.0156 73.7656 95.9583 73.7656 95.9583Z" fill="#EAD67F"/>
<mask id="mask12_28_123" style="mask-type:luminance" maskUnits="userSpaceOnUse" x="354" y="33" width="7" height="35">
<path d="M354.37 33.4062H360.995V67.2604H354.37V33.4062Z" fill="white"/>
</mask>
<g mask="url(#mask12_28_123)">
<path fill-rule="evenodd" clip-rule="evenodd" d="M369.88 15.099C369.88 15.099 356.88 40.1458 370.547 43.2761C376.047 44.5365 389.385 42.6198 393.01 46.8958C398.396 53.25 392.802 66.1823 392.802 66.1823C392.802 66.1823 389.849 60.0104 386.943 58.9011C380.656 56.5052 353.672 68.6771 355.057 51.7969C356.448 34.9167 369.88 15.099 369.88 15.099Z" fill="#EAD67F"/>
</g>
<mask id="mask13_28_123" style="mask-type:luminance" maskUnits="userSpaceOnUse" x="313" y="33" width="48" height="9">
<path d="M313.036 33.4062H360.995V41.9271H313.036V33.4062Z" fill="white"/>
</mask>
<g mask="url(#mask13_28_123)">
<path fill-rule="evenodd" clip-rule="evenodd" d="M369.88 15.1042C369.88 15.1042 350.208 35.3385 342.922 23.3594C339.995 18.5417 337.604 5.28645 332.401 3.19791C324.672 0.0885314 314.156 9.47395 314.156 9.47395C314.156 9.47395 320.948 10.3281 322.917 12.7344C327.177 17.9479 324.135 47.3802 339.719 40.7396C355.307 34.0989 369.88 15.1042 369.88 15.1042Z" fill="#EAD67F"/>
</g>
<path fill-rule="evenodd" clip-rule="evenodd" d="M351.38 34.4739C351.38 34.4739 338.781 48.4062 330.662 43.3594C327.396 41.3281 323.078 34.7864 318.427 34.5677C311.516 34.25 304.531 40.9479 304.531 40.9479C304.531 40.9479 310.271 40.2448 312.313 41.1771C316.745 43.1875 319.469 59.1302 331.115 53.0104C342.755 46.8958 351.38 34.4739 351.38 34.4739Z" fill="#EAD67F"/>
<mask id="mask14_28_123" style="mask-type:luminance" maskUnits="userSpaceOnUse" x="345" y="37" width="16" height="49">
<path d="M345.036 37.9271H360.995V85.9271H345.036V37.9271Z" fill="white"/>
</mask>
<g mask="url(#mask14_28_123)">
<path fill-rule="evenodd" clip-rule="evenodd" d="M357.328 38.7656C357.328 38.7656 348.073 55.1093 355.427 61.2187C358.385 63.6718 365.963 65.7083 367.635 70.0521C370.12 76.5052 365.963 85.2448 365.963 85.2448C365.963 85.2448 364.818 79.5781 363.292 77.9323C359.984 74.3646 343.989 76.8073 346.125 63.8333C348.255 50.8593 357.328 38.7656 357.328 38.7656Z" fill="#EAD67F"/>
</g>
<path fill-rule="evenodd" clip-rule="evenodd" d="M311.531 95.9583C311.531 95.9583 325.167 86.4219 336.495 70.7344C347.818 55.0416 352.563 39.0989 352.563 39.0989C352.563 39.0989 338.927 48.6302 327.604 64.3229C316.281 80.0156 311.531 95.9583 311.531 95.9583Z" fill="#EAD67F"/>
<path fill-rule="evenodd" clip-rule="evenodd" d="M173.958 157.849C173.958 145.542 183.953 135.547 196.271 135.547C208.583 135.547 218.583 145.542 218.583 157.849C224.74 147.193 238.396 143.531 249.063 149.688C259.724 155.844 263.385 169.495 257.229 180.156C267.891 174 281.552 177.661 287.708 188.318C293.865 198.979 290.208 212.63 279.542 218.786C291.854 218.786 301.854 228.781 301.854 241.089C301.854 253.396 291.854 263.396 279.542 263.396C290.208 269.547 293.865 283.198 287.708 293.859C281.552 304.521 267.891 308.177 257.229 302.021C263.385 312.682 259.724 326.333 249.063 332.49C238.396 338.646 224.74 334.99 218.583 324.328C218.583 336.635 208.583 346.63 196.271 346.63C183.953 346.63 173.958 336.635 173.958 324.328C167.802 334.99 154.141 338.646 143.474 332.49C132.813 326.333 129.151 312.682 135.313 302.021C124.646 308.177 110.99 304.521 104.833 293.859C98.6719 283.198 102.333 269.547 113 263.396C100.682 263.396 90.6875 253.396 90.6875 241.089C90.6875 228.781 100.682 218.786 113 218.786C102.333 212.63 98.6719 198.979 104.833 188.318C110.99 177.661 124.646 174 135.313 180.156C129.151 169.495 132.813 155.844 143.474 149.688C154.141 143.531 167.802 147.193 173.958 157.849Z" fill="#0B2A28"/>
<path fill-rule="evenodd" clip-rule="evenodd" d="M197.693 262.177L198.964 263.151C199.38 263.51 200.01 263.464 200.37 263.047C200.729 262.635 200.682 262 200.271 261.641L193.609 255.135C193.031 254.635 192.177 254.63 191.594 255.12C191.005 255.609 190.859 256.453 191.25 257.109C191.25 257.109 192.323 259.224 193.646 262.188C194.656 264.458 195.833 267.219 196.635 269.964C197.526 272.995 198.094 275.969 197.198 277.979C195.786 281.167 191.88 284.906 187.443 288.063C183.188 291.083 178.406 293.557 174.615 294.333C171.026 295.078 166.276 294.615 161.911 293.49C158.755 292.677 155.802 291.51 153.641 290.125C152.594 289.453 151.729 288.76 151.214 288C150.594 287.135 150.396 285.958 150.406 284.609C150.411 283.24 150.604 281.729 150.943 280.161C151.99 275.276 154.172 269.927 155.589 266.495C155.776 266.12 155.62 265.672 155.25 265.49C154.88 265.307 154.427 265.458 154.245 265.828C151.984 269.74 148.255 276.198 146.875 281.729C146.339 283.875 146.203 285.901 146.49 287.62C146.667 288.667 147.047 289.599 147.563 290.427C149.234 292.964 153.198 295.401 158.005 296.99C163.719 298.88 170.583 299.646 175.51 298.599C179.766 297.682 185.156 294.927 189.901 291.479C194.99 287.786 199.313 283.292 200.901 279.594C202.063 276.88 201.641 272.865 200.354 268.828C199.625 266.531 198.667 264.214 197.693 262.177Z" fill="#EAD67F"/>
<path fill-rule="evenodd" clip-rule="evenodd" d="M205.974 212.88C206.792 214.505 207.401 215.708 207.401 215.708C207.609 216.214 208.198 216.458 208.703 216.245C209.214 216.036 209.453 215.453 209.245 214.943C209.245 214.943 207.636 210 206.396 206.411C205.688 204.375 205.099 202.786 205.099 202.786C204.761 201.969 203.875 201.516 203.011 201.714C202.146 201.917 201.552 202.714 201.609 203.599C201.609 203.599 201.974 211.448 202.542 221.932C203.271 235.526 204.255 253.552 204.859 264.682C204.958 266.453 205.037 268.047 205.146 269.417C205.203 270.156 205.281 270.828 205.339 271.438C205.531 273.313 205.609 275.802 205.656 278.313C205.755 283.573 205.677 288.854 205.677 288.854C205.636 289.266 205.938 289.635 206.349 289.677C206.761 289.719 207.13 289.417 207.172 289.005C207.172 289.005 208.146 283.755 208.823 278.49C209.156 275.87 209.38 273.266 209.443 271.292C209.448 270.156 209.474 268.771 209.427 267.182C209.307 262.906 208.927 257.167 208.547 250.865C207.984 241.589 207.297 231.109 206.672 222.354C206.422 218.859 206.188 215.641 205.974 212.88Z" fill="#EAD67F"/>
<path fill-rule="evenodd" clip-rule="evenodd" d="M208.24 185.031C208.24 185.229 208.224 185.75 208.12 186.125C207.531 188.177 205.781 191.031 203.641 194.052C198.339 201.536 190.641 209.911 190.641 209.911C190.349 210.208 190.354 210.682 190.651 210.969C190.953 211.26 191.427 211.255 191.714 210.953C191.714 210.953 205.224 197.781 209.813 189.818C210.833 188.052 211.396 186.479 211.469 185.307C211.531 184.323 211.25 183.526 210.766 182.911C210.307 182.323 209.594 181.891 208.568 181.703C205.385 181.13 195.464 182.552 184.182 185.229C180.911 186.005 177.536 186.917 174.172 187.87C164.094 190.724 154.172 194.12 147.974 197.12C144.833 198.641 142.589 200.141 141.531 201.401C138.932 204.479 139.807 207.901 143.474 211.292C149.458 216.823 163.823 222.734 170.807 227.943C177.839 233.182 186.969 240.505 194.953 245.969C199.266 248.922 203.266 251.339 206.448 252.646C210.495 254.312 217.365 255.479 221.964 254.339C225.167 253.542 227.365 251.698 227.776 248.714C228.432 243.984 227.396 232.365 225.766 219.818C225.031 214.172 224.214 208.328 223.344 202.859C222.125 195.24 220.891 188.349 220.026 183.693L223.219 188.38C223.516 188.844 224.135 188.979 224.599 188.677C225.057 188.38 225.193 187.766 224.896 187.302L218.672 177.094C218.333 176.573 217.682 176.365 217.109 176.583C216.536 176.807 216.198 177.406 216.302 178.01C216.302 178.01 217.859 189.141 219.661 202.682C220.719 210.656 221.911 219.464 222.75 227.344C223.724 236.578 224.302 244.5 223.776 248.146C223.656 248.948 223.146 249.479 222.453 249.849C221.583 250.312 220.469 250.547 219.25 250.651C215.542 250.969 210.932 250.021 208.036 248.818C205.068 247.578 201.354 245.286 197.333 242.516C189.411 237.052 180.365 229.729 173.391 224.495C167.479 220.052 156.224 215.104 149.354 210.323C147.656 209.146 146.245 207.995 145.333 206.849C144.609 205.943 144.214 205.089 144.917 204.255C145.859 203.141 148.104 201.932 151.109 200.568C155.729 198.464 162.073 196.214 168.87 194.094C174.026 192.479 179.453 190.979 184.583 189.62C190.891 187.953 196.755 186.521 201.229 185.714C204.38 185.146 206.776 184.828 208.042 184.995C208.104 185.005 208.193 185.021 208.24 185.031Z" fill="#EAD67F"/>
<path fill-rule="evenodd" clip-rule="evenodd" d="M238.422 281.813C238.677 281.682 238.922 281.557 239.167 281.427C241.781 280.057 243.88 278.661 245.104 277.318C246.714 275.563 247.104 272.755 246.583 269.818C246.094 267.068 244.885 264.229 243.859 262.484C243.266 261.479 242.677 260.786 242.276 260.469C241.208 259.625 239.557 259.516 237.823 260.828C235.891 262.292 233.49 265.87 232.708 268.219C232.036 270.234 231.562 273.13 231.677 275.891C231.734 277.26 231.937 278.594 232.307 279.786C225.781 282.74 217.99 285.776 213.5 288.854C212.224 289.75 210.948 290.849 209.724 292.089C206.677 295.188 203.865 299.109 201.344 301.953C200.057 303.406 198.932 304.604 197.844 305.063C196.594 305.589 194.901 305.052 193.495 304.161C192.031 303.229 190.745 301.911 190.76 300.51C190.776 299.271 192.089 296.948 193.625 294.5C196.365 290.12 199.958 285.484 199.958 285.484C200.224 285.161 200.177 284.688 199.859 284.427C199.542 284.161 199.068 284.203 198.802 284.526C198.802 284.526 193.823 290.156 190.698 294.813C189.182 297.073 188.156 299.172 188.062 300.401C187.901 302.635 189.51 305.078 191.771 306.708C194.042 308.349 196.927 309.031 199.083 308.271C200.391 307.813 201.854 306.708 203.411 305.198C206.031 302.667 209.016 298.906 212.151 295.792C213.417 294.536 214.693 293.38 216 292.5C220.396 289.49 228.042 286.563 234.443 283.693C235.526 285.109 236.911 286.536 238.375 287.651C240.37 289.172 242.521 290.073 244.276 289.995C246.536 289.896 250.234 288.224 252.797 285.74C254.646 283.943 255.875 281.75 255.906 279.573C255.984 273.641 254.839 259.953 253.318 245.224C252.24 234.729 251.036 223.693 249.88 214.589C249.141 208.771 248.443 203.74 247.922 200.135L250.625 204.25C250.911 204.719 251.526 204.865 251.995 204.573C252.464 204.286 252.615 203.672 252.323 203.203L246.859 193.703C246.531 193.177 245.885 192.943 245.297 193.146C244.708 193.354 244.344 193.938 244.417 194.552C244.417 194.552 244.911 200.302 245.703 208.865C245.974 211.76 246.281 214.974 246.625 218.396C247.729 229.411 249.115 242.573 250.135 254.12C251.115 265.224 251.807 274.823 251.719 279.505C251.693 281 250.411 282.354 249 283.464C247.359 284.755 245.406 285.698 244.099 285.75C242.88 285.797 241.464 284.75 240.135 283.563C239.521 283.021 238.943 282.422 238.422 281.813ZM240.052 264.703C239.885 264.849 239.714 265.016 239.573 265.167C238.432 266.438 237.281 268.281 236.839 269.599C236.38 270.958 236.042 272.818 235.995 274.688C235.969 275.797 236.031 276.911 236.26 277.911C236.542 277.771 236.823 277.625 237.099 277.484C239.161 276.401 240.865 275.375 241.839 274.318C242.63 273.458 242.484 272.026 242.234 270.583C241.906 268.708 241.161 266.776 240.437 265.375C240.328 265.156 240.187 264.922 240.052 264.703Z" fill="#EAD67F"/>
<path fill-rule="evenodd" clip-rule="evenodd" d="M263.391 217.318L258.026 206.974C257.76 206.5 257.193 206.271 256.667 206.432C256.141 206.589 255.797 207.094 255.839 207.641C255.839 207.641 256.141 216.292 256.568 226.797C256.734 230.906 256.891 235.297 257.12 239.562C257.417 245.01 257.781 250.245 258.063 254.422C258.161 255.823 258.24 257.104 258.349 258.229C258.443 259.193 258.568 260.036 258.651 260.755C258.839 262.167 258.969 264.042 259.068 265.943C259.281 269.943 259.375 273.948 259.375 273.948C259.339 274.359 259.646 274.724 260.063 274.76C260.474 274.797 260.839 274.49 260.87 274.073C260.87 274.073 261.635 270.083 262.167 266.068C262.432 264.062 262.609 262.078 262.667 260.562C262.682 259.828 262.719 258.969 262.703 257.984C262.688 256.844 262.609 255.552 262.531 254.141C262.297 249.958 261.953 244.708 261.49 239.26C261.13 235 260.661 230.63 260.24 226.536C259.677 221.078 259.141 216.13 258.755 212.641L262.078 218.057C262.286 218.417 262.745 218.547 263.104 218.344C263.464 218.135 263.594 217.677 263.391 217.318Z" fill="#EAD67F"/>
<path fill-rule="evenodd" clip-rule="evenodd" d="M234.729 191.281C235.594 192.724 236.26 193.797 236.26 193.797C236.5 194.292 237.094 194.5 237.594 194.266C238.089 194.026 238.302 193.432 238.062 192.932C238.062 192.932 236.875 189.521 235.724 186.583C234.854 184.354 234.005 182.427 234.005 182.427C233.62 181.625 232.724 181.203 231.859 181.422C230.995 181.641 230.406 182.438 230.453 183.328C230.453 183.328 230.63 189.203 230.937 196.688C231.448 209.323 232.281 226.542 232.344 227.776C232.339 227.969 232.323 229.057 232.401 230.599C232.464 231.818 232.594 233.307 232.745 234.88C233.214 239.88 233.906 245.578 233.906 245.578C233.906 245.995 234.245 246.328 234.661 246.328C235.073 246.323 235.411 245.984 235.406 245.573C235.406 245.573 236.042 239.865 236.464 234.865C236.594 233.286 236.714 231.797 236.76 230.578C236.828 228.87 236.792 227.724 236.792 227.724C236.792 227.693 236.792 227.656 236.792 227.625C236.792 227.625 235.844 209.583 235.052 196.479C234.937 194.625 234.828 192.875 234.729 191.281Z" fill="#EAD67F"/>
<path fill-rule="evenodd" clip-rule="evenodd" d="M173.307 229.531C173.219 229.641 173.344 229.667 173.495 229.667L173.453 229.599L173.443 229.594L173.359 229.557L173.307 229.531V229.526C173.339 229.49 173.385 229.521 173.443 229.594C173.568 229.635 173.703 229.656 173.844 229.651C173.797 229.646 173.635 229.667 173.495 229.667C173.589 229.807 173.708 230.016 173.844 230.193C175.109 231.833 177.479 235.625 179.026 239.323C179.526 240.51 179.943 241.682 180.167 242.781C180.38 243.813 180.458 244.755 180.094 245.474C179.557 246.547 178.37 247.443 176.891 248.359C171.557 251.656 162.615 254.438 157.344 258.198C152.208 261.88 146.703 268.292 142.323 272.203C141.01 273.38 139.833 274.318 138.807 274.76C137.87 275.167 136.661 274.703 135.609 274.073C134.906 273.651 134.271 273.109 133.818 272.5C133.557 272.151 133.313 271.813 133.234 271.438C132.948 270.135 133.391 267.469 133.964 264.609C135.036 259.276 136.672 253.427 136.672 253.427C136.818 253.036 136.615 252.604 136.229 252.464C135.839 252.318 135.406 252.516 135.26 252.906C135.26 252.906 131.995 259.979 130.208 265.635C129.359 268.328 128.953 270.74 129.089 272.089C129.375 274.245 131.068 276.474 133.297 277.87C135.625 279.328 138.464 279.766 140.578 278.854C141.943 278.26 143.557 277.083 145.297 275.51C149.557 271.656 154.849 265.292 159.844 261.651C164.995 257.87 173.807 255.063 179.01 251.719C181.198 250.318 182.807 248.786 183.573 247.167C184.135 245.964 184.297 244.495 184.016 242.87C183.75 241.297 183.115 239.536 182.214 237.823C180.198 234.005 177.052 230.328 175.469 228.755C175.005 228.297 174.656 227.995 174.464 227.88C174.125 227.677 173.859 227.641 173.714 227.656C173.161 227.693 172.745 228.172 172.781 228.719C172.807 229.073 173.016 229.375 173.307 229.531Z" fill="#EAD67F"/>
<path fill-rule="evenodd" clip-rule="evenodd" d="M183 220.328C181.958 220.255 180.885 220.198 179.833 220.182C177.229 220.141 174.734 220.37 172.958 221.078C170.974 221.865 168.953 223.083 166.927 224.547C163 227.38 159.036 231.151 155.214 234.13C151.526 237.01 147.26 241.339 143.552 244.5C141.734 246.047 140.099 247.318 138.75 247.818C137.755 248.193 136.422 247.859 135.271 247.307C134.552 246.964 133.859 246.557 133.411 246.005C133.182 245.724 132.964 245.443 132.927 245.109C132.719 243.401 133.385 240.458 134.302 237.234C135.557 232.818 137.292 227.964 138.422 224.839C138.583 224.458 138.406 224.016 138.026 223.854C137.646 223.687 137.203 223.865 137.036 224.25C135.297 227.76 132.427 233.531 130.651 238.349C129.604 241.193 129.005 243.74 129.042 245.385C129.104 247.646 130.88 249.859 133.302 251.177C135.547 252.391 138.281 252.698 140.281 251.99C141.542 251.526 143.042 250.604 144.646 249.359C148.693 246.224 153.688 240.927 157.927 237.589C161.693 234.615 165.589 230.849 169.448 228.016C171.161 226.76 172.859 225.693 174.542 225.01C175.891 224.458 177.802 224.354 179.786 224.37C183.302 224.396 187.036 224.875 189.021 224.854C190.339 224.839 191.224 224.495 191.609 224.187C192.443 223.521 192.75 222.672 192.344 221.573C192.229 221.266 191.74 220.5 190.573 220.016C189.76 219.677 188.276 219.193 187.057 218.495C186.589 218.224 186.115 217.984 185.948 217.599C185.365 216.245 184.641 213.599 183.885 210.557C183.198 207.792 182.521 204.693 181.87 201.906C181.734 201.318 181.599 200.745 181.469 200.187L183.198 202.469C183.505 202.927 184.125 203.042 184.583 202.734C185.036 202.427 185.156 201.807 184.849 201.349L179.578 192.656C179.172 192.062 178.406 191.833 177.74 192.104C177.073 192.38 176.693 193.083 176.823 193.792C176.823 193.792 177.266 197.12 178.026 201.396C178.448 203.76 178.99 206.406 179.542 208.948C180.474 213.281 181.5 217.302 182.26 219.151C182.432 219.557 182.682 219.953 183 220.328Z" fill="#EAD67F"/>
<path fill-rule="evenodd" clip-rule="evenodd" d="M242.792 247.932L245.219 250.849L243.182 254.698L239.052 251.63L242.792 247.932Z" fill="#EAD67F"/>
<path fill-rule="evenodd" clip-rule="evenodd" d="M234.193 247.974L238.109 251.339L234.708 255.62L231.219 252.51L234.193 247.974Z" fill="#EAD67F"/>
<path fill-rule="evenodd" clip-rule="evenodd" d="M267.547 230.312C267.547 230.312 265.844 236.214 265.609 237.943C265.484 238.865 265.901 240 266.135 240.682C266.307 241.188 266.714 242.073 267.016 242.036C267.323 242 267.74 240.469 267.948 240.464C268.151 240.458 268.458 241.526 268.25 242.005C267.943 242.745 266.719 244.833 266.083 244.875C265.448 244.917 264.646 243.266 264.432 242.266C264.156 240.974 263.995 238.786 264.427 237.125C264.943 235.135 267.547 230.312 267.547 230.312Z" fill="#EAD67F"/>
<path fill-rule="evenodd" clip-rule="evenodd" d="M215.792 226.344C215.792 226.344 214.089 232.245 213.854 233.974C213.729 234.896 214.141 236.031 214.375 236.714C214.552 237.224 214.958 238.104 215.26 238.068C215.563 238.031 215.984 236.5 216.188 236.495C216.396 236.49 216.698 237.557 216.495 238.042C216.182 238.776 214.964 240.865 214.328 240.906C213.688 240.948 212.891 239.297 212.677 238.297C212.401 237.005 212.234 234.818 212.672 233.156C213.188 231.167 215.792 226.344 215.792 226.344Z" fill="#EAD67F"/>
<path fill-rule="evenodd" clip-rule="evenodd" d="M198.651 219.151C198.651 219.151 196.948 225.052 196.714 226.781C196.589 227.703 197 228.839 197.234 229.521C197.412 230.031 197.818 230.911 198.12 230.875C198.422 230.839 198.844 229.307 199.047 229.302C199.255 229.297 199.557 230.365 199.354 230.849C199.042 231.583 197.823 233.672 197.188 233.714C196.547 233.755 195.75 232.104 195.537 231.104C195.26 229.813 195.099 227.625 195.531 225.964C196.047 223.974 198.651 219.151 198.651 219.151Z" fill="#EAD67F"/>
<path fill-rule="evenodd" clip-rule="evenodd" d="M213.552 193.13C213.552 193.13 211.849 199.031 211.615 200.76C211.49 201.682 211.901 202.818 212.135 203.5C212.313 204.01 212.719 204.891 213.021 204.854C213.323 204.818 213.745 203.286 213.948 203.281C214.156 203.276 214.458 204.344 214.255 204.828C213.943 205.562 212.724 207.651 212.089 207.693C211.448 207.734 210.651 206.083 210.438 205.083C210.161 203.792 210 201.604 210.432 199.943C210.948 197.953 213.552 193.13 213.552 193.13Z" fill="#EAD67F"/>
<path fill-rule="evenodd" clip-rule="evenodd" d="M228.568 193.057C228.568 193.057 226.87 198.958 226.635 200.688C226.505 201.609 226.922 202.745 227.156 203.427C227.333 203.932 227.74 204.813 228.042 204.776C228.344 204.74 228.766 203.208 228.969 203.203C229.177 203.203 229.479 204.266 229.276 204.75C228.964 205.484 227.745 207.573 227.104 207.62C226.469 207.661 225.672 206.01 225.458 205.005C225.182 203.714 225.016 201.526 225.448 199.87C225.969 197.88 228.568 193.057 228.568 193.057Z" fill="#EAD67F"/>
<path fill-rule="evenodd" clip-rule="evenodd" d="M188.052 264.161C188.052 264.161 186.354 270.062 186.12 271.792C185.99 272.714 186.406 273.849 186.641 274.531C186.818 275.036 187.224 275.917 187.526 275.88C187.828 275.844 188.25 274.312 188.453 274.307C188.661 274.307 188.964 275.37 188.76 275.854C188.448 276.589 187.229 278.677 186.589 278.719C185.953 278.76 185.156 277.115 184.943 276.109C184.667 274.818 184.5 272.63 184.932 270.974C185.453 268.979 188.052 264.161 188.052 264.161Z" fill="#EAD67F"/>
<path fill-rule="evenodd" clip-rule="evenodd" d="M147.781 246.708C147.781 246.708 146.078 252.609 145.844 254.339C145.719 255.26 146.135 256.396 146.37 257.078C146.542 257.589 146.948 258.469 147.25 258.432C147.557 258.396 147.974 256.865 148.182 256.859C148.385 256.854 148.693 257.922 148.484 258.401C148.177 259.141 146.953 261.229 146.318 261.271C145.682 261.312 144.88 259.661 144.667 258.661C144.391 257.37 144.229 255.182 144.662 253.521C145.177 251.531 147.781 246.708 147.781 246.708Z" fill="#EAD67F"/>
<path fill-rule="evenodd" clip-rule="evenodd" d="M147.646 219.406C147.646 219.406 145.943 225.307 145.708 227.036C145.583 227.958 146 229.094 146.234 229.776C146.406 230.281 146.813 231.161 147.115 231.125C147.422 231.089 147.839 229.557 148.047 229.552C148.25 229.552 148.557 230.615 148.349 231.099C148.042 231.833 146.818 233.922 146.182 233.969C145.547 234.005 144.745 232.359 144.531 231.354C144.255 230.063 144.094 227.875 144.526 226.219C145.042 224.224 147.646 219.406 147.646 219.406Z" fill="#EAD67F"/>
<path fill-rule="evenodd" clip-rule="evenodd" d="M194.333 185.948C194.333 185.948 192.635 191.849 192.401 193.578C192.271 194.5 192.688 195.635 192.922 196.318C193.099 196.828 193.505 197.708 193.807 197.672C194.109 197.635 194.531 196.104 194.734 196.099C194.943 196.094 195.245 197.161 195.042 197.646C194.729 198.38 193.51 200.469 192.87 200.51C192.234 200.552 191.438 198.901 191.224 197.901C190.948 196.609 190.781 194.422 191.214 192.76C191.734 190.771 194.333 185.948 194.333 185.948Z" fill="#EAD67F"/>
<path fill-rule="evenodd" clip-rule="evenodd" d="M145.391 183.344C145.391 183.344 143.693 189.245 143.453 190.974C143.328 191.896 143.745 193.031 143.979 193.714C144.156 194.224 144.563 195.104 144.865 195.068C145.167 195.031 145.583 193.5 145.792 193.495C146 193.49 146.302 194.557 146.099 195.036C145.786 195.776 144.563 197.865 143.927 197.906C143.292 197.948 142.495 196.297 142.281 195.297C142.005 194.005 141.839 191.818 142.271 190.156C142.792 188.167 145.391 183.344 145.391 183.344Z" fill="#EAD67F"/>
<path fill-rule="evenodd" clip-rule="evenodd" d="M209.141 310.964C209.141 310.964 212.537 307.005 213.323 305.755C213.745 305.089 213.813 304.068 213.865 303.464C213.901 303.01 213.885 302.188 213.635 302.115C213.38 302.036 212.516 303.073 212.349 303.005C212.188 302.938 212.318 302.01 212.646 301.708C213.146 301.25 214.844 300.063 215.359 300.25C215.88 300.438 215.938 301.984 215.755 302.833C215.526 303.922 214.896 305.667 213.979 306.797C212.875 308.151 209.141 310.964 209.141 310.964Z" fill="#EAD67F"/>
<path fill-rule="evenodd" clip-rule="evenodd" d="M137.807 289.667C137.807 289.667 141.208 285.708 141.995 284.458C142.417 283.792 142.484 282.771 142.536 282.161C142.573 281.714 142.557 280.891 142.302 280.818C142.052 280.74 141.188 281.776 141.021 281.708C140.859 281.641 140.99 280.714 141.318 280.411C141.818 279.948 143.51 278.766 144.031 278.953C144.552 279.141 144.609 280.688 144.427 281.536C144.198 282.625 143.568 284.37 142.646 285.5C141.547 286.854 137.807 289.667 137.807 289.667Z" fill="#EAD67F"/>
<path fill-rule="evenodd" clip-rule="evenodd" d="M125.135 262.255C125.135 262.255 127.438 257.594 127.885 256.188C128.13 255.443 127.938 254.438 127.833 253.839C127.76 253.391 127.536 252.599 127.276 252.589C127.01 252.573 126.432 253.786 126.255 253.76C126.078 253.734 125.974 252.807 126.219 252.432C126.589 251.865 127.932 250.302 128.484 250.359C129.031 250.417 129.474 251.901 129.516 252.766C129.563 253.88 129.391 255.724 128.781 257.042C128.052 258.62 125.135 262.255 125.135 262.255Z" fill="#EAD67F"/>
<path fill-rule="evenodd" clip-rule="evenodd" d="M231.38 265.594C231.38 265.594 228.875 261.031 227.979 259.854C227.505 259.224 226.568 258.792 226.01 258.526C225.599 258.323 224.818 258.042 224.656 258.245C224.49 258.448 225.151 259.62 225.026 259.745C224.901 259.87 224.073 259.411 223.911 259C223.656 258.37 223.156 256.385 223.521 255.979C223.891 255.573 225.37 256.083 226.109 256.557C227.057 257.167 228.474 258.38 229.203 259.635C230.083 261.141 231.38 265.594 231.38 265.594Z" fill="#EAD67F"/>
<path fill-rule="evenodd" clip-rule="evenodd" d="M211.865 178.885C211.865 178.885 208.271 175.094 207.104 174.177C206.479 173.687 205.464 173.505 204.854 173.38C204.406 173.292 203.578 173.208 203.469 173.448C203.365 173.687 204.302 174.651 204.219 174.807C204.13 174.958 203.208 174.724 202.943 174.365C202.542 173.818 201.542 172.026 201.792 171.536C202.047 171.052 203.609 171.177 204.443 171.453C205.516 171.807 207.198 172.63 208.229 173.661C209.464 174.901 211.865 178.885 211.865 178.885Z" fill="#EAD67F"/>
<path fill-rule="evenodd" clip-rule="evenodd" d="M227.437 270.443C228.214 270.891 225.974 272.432 224.911 272.99C223.432 273.771 218.521 275.167 218.547 275.115C218.651 274.917 215.214 276.104 215.083 275.724C214.958 275.339 217.786 272.828 217.786 272.828C217.786 272.828 215.99 271.182 215.88 270.302C215.776 269.422 216.568 268.375 217.141 267.547C217.75 266.672 218.552 265.594 219.521 265.057C220.495 264.526 222.25 264.255 222.958 264.344C223.464 264.401 224.203 265.307 223.786 265.589C223.12 266.036 219.911 266.5 218.948 267.021C218.375 267.333 217.792 268.177 218.005 268.724C218.224 269.276 219.333 270.151 220.24 270.313C221.807 270.604 226.656 270 227.437 270.443Z" fill="#EAD67F"/>
<path fill-rule="evenodd" clip-rule="evenodd" d="M174.344 272.375L172.214 276.943L176.151 280.411L178.802 275.979L174.344 272.375Z" fill="#EAD67F"/>
<path fill-rule="evenodd" clip-rule="evenodd" d="M159.208 242.01L156.104 246.068L160.781 250.094L164.219 245.38L159.208 242.01Z" fill="#EAD67F"/>
<path fill-rule="evenodd" clip-rule="evenodd" d="M167.552 241.104L164.661 245.375L169.146 249.25L172.052 244.906L167.552 241.104Z" fill="#EAD67F"/>
<path fill-rule="evenodd" clip-rule="evenodd" d="M157.177 190.115L155.813 187.099C155.813 187.099 162.76 183.536 166.349 182C172.078 179.542 190.188 172.354 190.188 172.354C190.188 172.354 184.682 172.958 182.094 173.859C176.188 175.906 159.484 182.125 154.755 184.651C153.432 185.359 153.745 188.995 153.745 188.995C153.745 188.995 155.318 191.891 155.833 191.578C156.406 191.229 157.177 190.115 157.177 190.115Z" fill="#EAD67F"/>
<path fill-rule="evenodd" clip-rule="evenodd" d="M160.734 204.458C160.734 204.458 159.115 205.839 159.464 206.589C159.839 207.385 161.964 208.182 162.979 209.234C164.307 210.609 167.432 214.854 167.432 214.854L168.901 207.589C168.901 207.589 169.448 204.505 169.875 204.047C170.281 203.615 171.474 204.865 171.474 204.865L172.401 204.469C172.401 204.469 171.818 201.594 171.349 201.01C170.99 200.557 169.87 200.453 169.604 200.964C168.87 202.375 166.958 209.49 166.958 209.49L160.734 204.458Z" fill="#EAD67F"/>
<path fill-rule="evenodd" clip-rule="evenodd" d="M222.562 296.74C222.562 296.74 220.937 298.125 221.292 298.87C221.661 299.667 223.792 300.464 224.807 301.516C226.135 302.896 229.26 307.135 229.26 307.135L230.729 299.87C230.729 299.87 231.271 296.786 231.703 296.328C232.109 295.896 233.297 297.146 233.297 297.146L234.224 296.75C234.224 296.75 233.641 293.875 233.177 293.292C232.818 292.839 231.693 292.734 231.427 293.245C230.698 294.656 228.781 301.771 228.781 301.771L222.562 296.74Z" fill="#EAD67F"/>
<path fill-rule="evenodd" clip-rule="evenodd" d="M173.521 267.396C173.521 267.396 187.234 255.323 190.328 252.88C190.781 252.521 191.552 253.01 192.078 252.76C192.609 252.505 193.568 252.021 193.505 251.365C193.422 250.453 191.984 248.437 191.563 247.302C191.234 246.432 191.573 245.021 190.964 244.573C190.349 244.125 188.51 244.109 187.885 244.62C187.266 245.135 187.141 246.625 187.234 247.651C187.339 248.839 188.531 251.745 188.531 251.745L177.286 262.937L173.521 267.396Z" fill="#EAD67F"/>
<path fill-rule="evenodd" clip-rule="evenodd" d="M224.573 236.042C224.573 236.042 238.286 223.964 241.38 221.526C241.839 221.167 242.609 221.656 243.135 221.406C243.667 221.151 244.625 220.667 244.563 220.01C244.474 219.099 243.042 217.078 242.615 215.948C242.292 215.073 242.63 213.667 242.016 213.219C241.406 212.771 239.568 212.755 238.943 213.266C238.323 213.781 238.198 215.271 238.286 216.297C238.396 217.484 239.589 220.391 239.589 220.391L228.339 231.583L224.573 236.042Z" fill="#EAD67F"/>
<path fill-rule="evenodd" clip-rule="evenodd" d="M124.219 234.078C124.219 234.078 137.932 222 141.026 219.562C141.479 219.198 142.25 219.687 142.776 219.437C143.307 219.187 144.266 218.698 144.203 218.042C144.12 217.135 142.682 215.115 142.26 213.984C141.932 213.109 142.271 211.698 141.661 211.25C141.047 210.807 139.208 210.786 138.589 211.302C137.964 211.812 137.839 213.302 137.932 214.328C138.036 215.516 139.229 218.427 139.229 218.427L127.984 229.615L124.219 234.078Z" fill="#EAD67F"/>
</svg>
