<svg xmlns="http://www.w3.org/2000/svg" enable-background="new 0 0 2000 2000" viewBox="0 0 2000 2000"><path fill="#e0e8f5" fill-rule="evenodd" d="M974.95,486.51c172.9,0,245.74,135.12,370.55,240.16c165.2,139.02,330.38,48.52,356.83,518.24
	c23.54,418.06-270.21,45.26-684.39,195.02s-836.02,210.06-710.85-274.47C432.27,680.93,573.24,486.51,974.95,486.51z" clip-rule="evenodd"/><path fill="#c4d1eb" fill-rule="evenodd" d="M1050.82,1343.83c-305.76,0-553.62,51.47-553.62,114.95c0,63.49,247.86,114.95,553.62,114.95
	c305.76,0,553.63-51.47,553.63-114.95C1604.45,1395.3,1356.58,1343.83,1050.82,1343.83z" clip-rule="evenodd"/><path fill="#b0c2e4" fill-rule="evenodd" d="M1445.79,849.03c15.6,28.62,17.52,57.43,5.77,86.45c-65.14,18.91-103.78,43.91-115.93,75.01
		c80.79-35.31,127.79-19.81,137.8,21.32c-21.8,13.82-54.02,75.52-60.04,106.79c-10.65,55.24-40.62,98.13-86.56,102.95
		c-15.92,17.59-29.12,25.3-39.59,23.12c-9.69,62.61-21.2,125.6-34.53,188.99c-7.91,1.28-17.48-2.26-21.5-7.43
		c5.72-24.54,9.69-41.87,11.82-53.67c10.39-45.78,19.78-90.27,28.18-133.46c-2.38-1.1-4.7-2.31-6.97-3.62
		c-43.67-25.14-16.17-48.54-56.2-71.33c-24.64-14.02-41.38-44.15-40.83-66.03c30.3,0.31,67.92,2.35,100.85,20.37
		c-9.89-31.58-47.54-41.74-99.81-51.94c-6.95-43.09-35.01-48.51-5.48-102.76c41.15-75.61-4.22-115.1,45.09-206.2
		c29.08-1.34,62.97,10.99,101.68,36.98c-9.36-32.66-40.07-54.93-92.15-66.81c19.77-24.95,31.65-61.67,31.75-78.95
		c23.2-7.46,42.17-1.18,56.9,18.8c-3.79-17.52-12.16-29.56-25.13-36.12c4.8-12.39,14.81-24.7,30.08-36.96
		c16.7,5.89,34.12,15.7,52.28,29.43c-11.33,3.09-17.95,13.17-19.87,30.21c15.52-9.54,33.53-8.53,54.02,3
		c-14.14,59.04,29.21,99,22,124.05c-38.63,16.64-65.61,39.73-80.95,69.28C1377.6,854.25,1413.38,847.09,1445.79,849.03z" clip-rule="evenodd"/><path fill="#9db2d9" fill-rule="evenodd" d="M1252.71,1453.67c13.33-63.39,24.84-126.39,34.53-188.99c38.61-235.78,53.8-487.39,32.83-601.59
		c16.23,188.38-9.45,431.55-77.04,729.49c-2.13,11.79-6.1,29.13-11.82,53.67C1235.23,1451.41,1244.8,1454.95,1252.71,1453.67z" clip-rule="evenodd"/><path fill="#c4d1eb" fill-rule="evenodd" d="M1407.72,676.38c-30.82,20.68-47.93,48.76-51.34,84.24c55.8,53.39,81.65,98.99,77.55,136.78
		c-62.98-78.19-118.59-87.29-150.36-51.03c14.74,25.43,14.79,104.7,4.4,139.44c-18.34,61.37-10.66,120.47,33.18,149.52
		c6.81,26.15,16.08,40.88,27.81,44.2c-23.19,68.31-44.74,137.97-64.67,209c7.32,5.45,18.84,6.93,25.62,3.82
		c7.15-27.78,12.27-47.39,16.33-60.41c13.62-51.69,27.55-101.56,41.81-149.59c2.99,0.14,5.98,0.14,8.95,0.01
		c57.33-2.39,41.89-40.5,94.3-42.43c32.26-1.19,65.02-22.79,76-45.17c-30.76-15.66-69.81-33.39-112.56-32.55
		c26.6-26.68,69.97-17.1,128.12,0.11c29.7-39.84,60.88-30.55,59.65-100.86c-1.73-98.01,64.86-113.99,63.04-231.93
		c-28.65-16.67-69.36-22.07-122.13-16.2c26.65-28.05,69.38-34.36,128.22-18.95c-6.82-35.59,0.52-78.92,9.52-96.42
		c-19.51-19.74-41.95-23.39-67.33-10.97c13.04-15.7,27.83-23.44,44.39-23.23c1.68-15.04-1.95-32.75-10.9-53.15
		c-19.96-2.86-42.72-2.13-68.29,2.17c9.8,9.1,11.19,22.75,4.15,40.98c-10.65-17.8-29.35-26.27-56.12-25.41
		c-16.81,67.05-81.62,84.56-87.53,113.66c30.25,37.15,45.32,74.67,45.25,112.58C1473.82,717.55,1441.47,691.49,1407.72,676.38z" clip-rule="evenodd"/><path fill="#b0c2e4" fill-rule="evenodd" d="M1284.29,1388.51c19.92-71.03,41.48-140.69,64.67-209c85.16-258.4,202.31-520.43,283.61-624.68
		c-115.57,181.65-217.68,440.69-306.32,777.09c-4.06,13.02-9.18,32.62-16.33,60.41C1303.13,1395.44,1291.61,1393.97,1284.29,1388.51
		z" clip-rule="evenodd"/><path fill="#9db2d9" fill-rule="evenodd" d="M701.97,870.44c-40.13,36.63-22.68,73.28,6.97,141.32c29.65,68.04,34.89,319.3,34.89,319.3l-24.42-3.48
			c0,0,3.5-258.24-29.65-328.03c-33.15-69.8-47.13-104.68-76.78-81.99C583.33,940.23,701.97,870.44,701.97,870.44z" clip-rule="evenodd"/><path fill="#9db2d9" fill-rule="evenodd" d="M592.04,1071.09c69.81-52.35,141.32-3.5,177.98,52.34c36.62,55.83,10.47,181.44,10.47,181.44
			s-13.97,0-13.97-5.22c0-5.23,38.39-148.3-52.33-212.87c-56.76-40.38-97.69-20.93-102.94-1.74c-5.23,19.19,22.68,54.09,22.68,54.09
			L592.04,1071.09z" clip-rule="evenodd"/><path fill="#9db2d9" fill-rule="evenodd" d="M752.58,963.49c-69.82,0-92.5,108.18-73.28,170.99c19.18,62.82,45.37,179.71,45.37,179.71l17.44-17.45
			c0,0-66.31-164.01-50.61-237.29c15.72-73.28,54.07-85.5,61.08-85.5C759.54,973.95,752.58,963.49,752.58,963.49z" clip-rule="evenodd"/><path fill="#c4d1eb" fill-rule="evenodd" d="M724,822.99c-4.85-21.72-33.81-45.2-72.51-65.15c5.78,32.03,24.18,84.4,5.12,95.15
				c-25.76,14.48-2.5-58.64-12.44-98.82c-36.35-17.75-80.09-32.26-120.33-39.47c0.08,0.15,0.11,0.29,0.15,0.45
				c22.68,57.58,52.33,80.26,40.12,88.98c-9.17,6.56-39.08-59.94-78.64-94.04c-29.65-1.58-54.76,2.43-69.58,14.2
				c-22.95,18.16-38.36,34.28-15.29,89.6c13.17,9.42,30.26,16.17,50.1,18.16c52.34,5.23,76.79,6.97,40.12,24.43
				c-17.94,8.55-47.98-0.48-72.39-5.98c7.89,14.58,17.63,31.07,29.45,49.87c7.51,11.91,15.75,22.26,24.54,31.21
				c16.87,3.24,31.58,3.27,39.35-0.07c24.42-10.47,87.22-43.63,102.94-29.66c15.37,13.66-116.33,22.31-107.2,57.03
				c63.84,36.78,136.89,19.28,149.79-14.49C674.68,899.04,738.67,888.36,724,822.99z" clip-rule="evenodd"/><path fill="#c4d1eb" fill-rule="evenodd" d="M674.95,1135.49c-132.58-55.84-62.73-132.46-179.64-81.85c-8.24,3.55-18.25,12.55-28.3,24.94
				c10.4,2.96,22.99,5.08,37.05,2.98c34.89-5.24,22.68,22.68-34.92,29.66c-10.82,1.31-19.64,3.14-26.96,5.69
				c-27.45,52.69-39.82,122,18.26,146.09c11.44,4.76,25.56,7.47,41.32,8.49c17.9-14.23-4.39-96.63,23.26-85.26
				c26.5,10.93-8.35,70.63-3.58,85.67c26.18-0.46,55.18-4.75,82.83-11.61c10.98-6.14,19.37-14.38,21.91-25.19
				c8.73-36.65-48.83-59.33-50.6-90.74c-1.59-28.87,21.14,63.53,81.24,77.12C711.22,1196.07,736.94,1161.59,674.95,1135.49z" clip-rule="evenodd"/><path fill="#c4d1eb" fill-rule="evenodd" d="M769.44,1036.77c-13.99-29.66,22.68-36.65,20.9-13.97c-1.5,20.11-1.7,68.96,18.91,82.27
				c35.54-3.86,83.9-18.18,120.48-40.01c0.47-2.95,0-5.99-1.54-9.09c-15.72-31.41-116.91-57.58-85.49-68.04
				c24.99-8.34,68.85,40.87,104.16,65.66c21.22-16.1,35.43-35.28,35.43-56.68c0-29-35.23-61.81-80.79-77.5
				c-20.49,2.07-39.55,13.27-69.28,30.14c-43.93,24.89-33.77-15.37,7.78-39.25c-35.89,1.85-71.62,17.17-98,53.78
				c0,0,2.5,15.65-14.06,39.86c-45.17,66.02,6.97,104.56,69.28,102.07C793.7,1088.59,779.07,1057.26,769.44,1036.77z" clip-rule="evenodd"/><path fill="#9db2d9" fill-rule="evenodd" d="M596.23,1068.13c-34.12,26.37-72,57.19-118.52,78.13c-46.56,20.94-37.24,89.18-37.24,89.18
			s-6.97-58.93,31.81-79.1c38.78-20.16,64.35-44.21,93.8-48.85c29.5-4.66,45.78-9.31,45.78-9.31s-9.31-18.61-3.88-25.59
			C613.4,1065.61,596.23,1068.13,596.23,1068.13z" clip-rule="evenodd"/><path fill="#9db2d9" fill-rule="evenodd" d="M428.07,758.51c124.85,33.35,216.34,113.22,233.44,132.62c17.05,19.37,17.05,24.81,17.05,24.81l-13.21,24.81
			l-6.19-3.1c0,0,10.09-20.93-16.29-48.07c-45.48-46.82-100.81-83.76-138.82-100.05C466.04,773.24,428.07,758.51,428.07,758.51z" clip-rule="evenodd"/><path fill="#9db2d9" fill-rule="evenodd" d="M772.72,1449.61H725c-33.92,0-61.41-27.5-61.41-61.42V1278.6h170.54v109.59
			C834.13,1422.11,806.64,1449.61,772.72,1449.61z" clip-rule="evenodd"/><rect width="170.54" height="12" x="663.59" y="1298.18" fill="#fff" fill-rule="evenodd" clip-rule="evenodd"/><rect width="170.54" height="7.06" x="663.59" y="1320.08" fill="#fff" fill-rule="evenodd" clip-rule="evenodd"/><path fill="#9db2d9" fill-rule="evenodd" d="M1341.72,859.52c0-176.54-120.97-324.92-280.39-358.65C901.92,534.6,780.94,682.99,780.94,859.52v570.89
	c0,1.73,0.02,3.51,0.04,5.3h560.72c0.02-1.79,0.01-3.54,0.01-5.3L1341.72,859.52z" clip-rule="evenodd"/><path fill="#c4d1eb" fill-rule="evenodd" d="M1061.33,565.09c-130.78,34.32-217.87,159.98-217.87,294.43v513.64h435.73V859.52
	C1279.19,725.08,1192.1,599.42,1061.33,565.09z" clip-rule="evenodd"/><path fill="#9db2d9" fill-rule="evenodd" d="M703.53,415.98c23.67,61.17,175.85,67.55,71.6,183.32v8.17h15.33v56.38l-30.02,26.76v235.75h27.58v65.51
	l-27.58,26.8v281.46h27.58v98.31l-27.58,26.76v10.49H646.63v-10.49l-27.59-26.76v-98.31h27.59v-281.46l-27.59-26.8v-65.51h27.59
	V690.62l-30.06-26.76v-56.38h15.29v-8.17C527.64,483.53,679.81,477.15,703.53,415.98L703.53,415.98z" clip-rule="evenodd"/><polygon fill="#b0c2e4" fill-rule="evenodd" points="332.59 1434.96 1519.22 1434.96 1718.48 1581.3 485.58 1566.83" clip-rule="evenodd"/><polygon fill="#c4d1eb" fill-rule="evenodd" points="480.98 1447.83 1458.99 1447.83 1623.21 1568.43 607.08 1556.51" clip-rule="evenodd"/><path fill="#fff" fill-rule="evenodd" d="M1159.69,1351.45l-11.14-11.81l-16.05,2.48c-1.82,0.27-3.17-1.66-2.29-3.28l7.79-14.24l-7.3-14.49
	c-0.84-1.67,0.59-3.55,2.4-3.2l15.96,3.01l11.53-11.43c1.31-1.3,3.54-0.54,3.79,1.3l2.06,16.1l14.43,7.42
	c1.65,0.85,1.6,3.22-0.07,4.01l-14.67,6.95l-2.61,16.02C1163.21,1352.09,1160.96,1352.79,1159.69,1351.45z" clip-rule="evenodd"/><path fill="#fff" fill-rule="evenodd" d="M895.5,1345.46l-7.53,0.36l-3.97,6.4c-0.45,0.72-1.54,0.61-1.85-0.19l-2.66-7.04l-7.31-1.81
	c-0.83-0.21-1.07-1.29-0.4-1.82l5.88-4.71l-0.54-7.51c-0.07-0.86,0.87-1.4,1.59-0.94l6.3,4.13l6.97-2.84
	c0.8-0.32,1.62,0.41,1.39,1.24l-1.98,7.26l4.86,5.76C896.8,1344.42,896.36,1345.41,895.5,1345.46z" clip-rule="evenodd"/><path fill="#fff" fill-rule="evenodd" d="M1069.44,636.62c13.54,0,26.56,2.25,38.7,6.38c-4.51-0.64-9.11-0.98-13.8-0.98c-53.51,0-96.9,43.39-96.9,96.9
	c0,53.51,43.39,96.91,96.9,96.91c47.12,0,86.38-33.65,95.09-78.23c-0.53,65.83-54.04,119.03-120,119.03
	c-66.27,0-120-53.72-120-120.01C949.45,690.36,1003.17,636.62,1069.44,636.62z" clip-rule="evenodd"/><path fill="#fff" fill-rule="evenodd" d="M1123.03,804.23l-29.26-31.02l-42.16,6.51c-4.78,0.73-8.33-4.36-6.03-8.6l20.46-37.4l-19.19-38.05
	c-2.18-4.37,1.57-9.32,6.32-8.4l41.9,7.9l30.28-30.01c3.45-3.43,9.28-1.4,9.92,3.4l5.43,42.28l37.92,19.48
	c4.31,2.25,4.2,8.47-0.19,10.54l-38.51,18.24l-6.85,42.08C1132.26,805.92,1126.34,807.75,1123.03,804.23z" clip-rule="evenodd"/><path fill="#fff" fill-rule="evenodd" d="M1202.17,949.2l-11.14-11.81l-16.05,2.48c-1.82,0.27-3.17-1.66-2.29-3.28l7.79-14.24l-7.3-14.49
	c-0.84-1.67,0.59-3.55,2.4-3.21l15.95,3.01l11.53-11.43c1.31-1.3,3.54-0.54,3.78,1.3l2.06,16.1l14.44,7.42
	c1.64,0.85,1.6,3.22-0.07,4.01l-14.67,6.95l-2.61,16.02C1205.7,949.85,1203.44,950.54,1202.17,949.2z" clip-rule="evenodd"/><path fill="#fff" fill-rule="evenodd" d="M1173.69,1006.06l-7.53,0.36l-3.97,6.4c-0.45,0.72-1.54,0.61-1.85-0.19l-2.66-7.04l-7.31-1.81
	c-0.84-0.21-1.07-1.29-0.4-1.82l5.88-4.71l-0.54-7.51c-0.07-0.86,0.88-1.41,1.59-0.94l6.3,4.13l6.97-2.84
	c0.8-0.32,1.62,0.41,1.39,1.24l-1.99,7.26l4.86,5.76C1174.99,1005.02,1174.55,1006.01,1173.69,1006.06z" clip-rule="evenodd"/><path fill="#fff" fill-rule="evenodd" d="M1228.89,1001.38l-2.98,1.01l-0.85,3.03c-0.09,0.34-0.55,0.43-0.77,0.14l-1.89-2.51l-3.14,0.13
	c-0.36,0.01-0.58-0.39-0.37-0.68l1.81-2.57l-1.09-2.95c-0.13-0.34,0.19-0.67,0.53-0.56l3.01,0.92l2.46-1.95
	c0.28-0.22,0.7-0.02,0.71,0.33l0.05,3.14l2.62,1.75C1229.29,1000.81,1229.22,1001.26,1228.89,1001.38z" clip-rule="evenodd"/><path fill="#fff" fill-rule="evenodd" d="M1229.64,952.55l-2.97,1.01l-0.85,3.04c-0.09,0.34-0.54,0.42-0.77,0.14l-1.88-2.51l-3.14,0.13
	c-0.36,0.01-0.58-0.39-0.37-0.68l1.81-2.57l-1.09-2.95c-0.13-0.34,0.19-0.67,0.53-0.56l3.01,0.92l2.46-1.95
	c0.28-0.22,0.7-0.02,0.71,0.33l0.05,3.14l2.62,1.75C1230.03,951.98,1229.98,952.43,1229.64,952.55z" clip-rule="evenodd"/><path fill="#fff" fill-rule="evenodd" d="M1249.85,890.07l-2.97,1.01l-0.85,3.03c-0.09,0.34-0.54,0.43-0.77,0.14l-1.88-2.51l-3.14,0.13
	c-0.36,0.01-0.58-0.39-0.37-0.68l1.81-2.57l-1.09-2.95c-0.13-0.34,0.19-0.67,0.53-0.56l3.01,0.92l2.46-1.95
	c0.28-0.22,0.7-0.03,0.71,0.33l0.05,3.14l2.62,1.75C1250.24,889.49,1250.18,889.95,1249.85,890.07z" clip-rule="evenodd"/><path fill="#fff" fill-rule="evenodd" d="M1269.14,983.73l-7.53,0.36l-3.97,6.4c-0.45,0.72-1.54,0.61-1.85-0.19l-2.66-7.04l-7.31-1.81
	c-0.84-0.21-1.07-1.29-0.4-1.81l5.88-4.71l-0.54-7.51c-0.07-0.86,0.88-1.41,1.59-0.94l6.3,4.13l6.97-2.84
	c0.8-0.32,1.62,0.41,1.39,1.24l-1.99,7.26l4.86,5.76C1270.43,982.69,1270,983.68,1269.14,983.73z" clip-rule="evenodd"/><path fill="#fff" fill-rule="evenodd" d="M1240.91,818.71l-7.53,0.36l-3.97,6.4c-0.45,0.72-1.54,0.61-1.85-0.19l-2.66-7.04l-7.31-1.81
	c-0.84-0.21-1.07-1.29-0.4-1.82l5.88-4.71l-0.54-7.51c-0.07-0.86,0.88-1.4,1.59-0.94l6.3,4.13l6.97-2.84
	c0.8-0.32,1.62,0.41,1.39,1.24l-1.99,7.26l4.86,5.76C1242.2,817.67,1241.77,818.67,1240.91,818.71z" clip-rule="evenodd"/><path fill="#fff" fill-rule="evenodd" d="M922.98,848.55l-11.14-11.81l-16.05,2.48c-1.82,0.27-3.17-1.66-2.29-3.28l7.79-14.24l-7.3-14.49
	c-0.84-1.67,0.59-3.55,2.4-3.2l15.95,3.01l11.53-11.43c1.31-1.3,3.54-0.54,3.78,1.3l2.06,16.1l14.44,7.42
	c1.64,0.85,1.6,3.22-0.07,4.01l-14.67,6.95l-2.61,16.02C926.5,849.2,924.25,849.89,922.98,848.55z" clip-rule="evenodd"/><path fill="#fff" fill-rule="evenodd" d="M919.42,872.15l-2.97,1.01l-0.85,3.04c-0.09,0.34-0.54,0.42-0.77,0.14l-1.88-2.51l-3.14,0.13
	c-0.36,0.01-0.58-0.39-0.37-0.68l1.81-2.57l-1.09-2.95c-0.13-0.34,0.19-0.67,0.53-0.56l3.01,0.92l2.46-1.95
	c0.28-0.22,0.7-0.02,0.71,0.33l0.05,3.14l2.62,1.75C919.81,871.58,919.75,872.03,919.42,872.15z" clip-rule="evenodd"/><path fill="#fff" fill-rule="evenodd" d="M962.86,868.14l-7.53,0.36l-3.97,6.4c-0.45,0.72-1.54,0.61-1.85-0.19l-2.66-7.04l-7.31-1.81
	c-0.83-0.21-1.07-1.29-0.4-1.82l5.88-4.71l-0.54-7.51c-0.07-0.86,0.88-1.4,1.59-0.94l6.3,4.13l6.97-2.84
	c0.8-0.32,1.62,0.41,1.39,1.24l-1.98,7.26l4.86,5.76C964.16,867.1,963.72,868.09,962.86,868.14z" clip-rule="evenodd"/><path fill="#fff" fill-rule="evenodd" d="M1237.44,1213.26l-11.14-11.81l-16.06,2.48c-1.81,0.27-3.17-1.66-2.29-3.28l7.79-14.24l-7.31-14.49
	c-0.83-1.67,0.59-3.55,2.41-3.2l15.95,3.01l11.53-11.43c1.31-1.3,3.54-0.54,3.79,1.3l2.06,16.1l14.44,7.42
	c1.64,0.85,1.6,3.22-0.07,4.01l-14.67,6.95l-2.61,16.02C1240.96,1213.91,1238.71,1214.6,1237.44,1213.26z" clip-rule="evenodd"/><path fill="#fff" fill-rule="evenodd" d="M1187.88,1107.19l-7.53,0.36l-3.97,6.4c-0.45,0.72-1.54,0.61-1.85-0.19l-2.66-7.04l-7.31-1.81
	c-0.84-0.21-1.08-1.29-0.4-1.82l5.88-4.71l-0.54-7.51c-0.07-0.86,0.88-1.4,1.59-0.94l6.3,4.13l6.97-2.84
	c0.8-0.32,1.62,0.41,1.39,1.24l-1.98,7.26l4.86,5.76C1189.18,1106.15,1188.74,1107.15,1187.88,1107.19z" clip-rule="evenodd"/><path fill="#fff" fill-rule="evenodd" d="M1180.57,702l-7.53,0.36l-3.97,6.4c-0.45,0.72-1.54,0.61-1.85-0.19l-2.66-7.04l-7.31-1.81
	c-0.83-0.21-1.07-1.29-0.4-1.82l5.88-4.71l-0.54-7.51c-0.07-0.86,0.88-1.41,1.59-0.94l6.3,4.13l6.97-2.84
	c0.8-0.32,1.62,0.41,1.39,1.24l-1.98,7.26l4.86,5.76C1181.87,700.96,1181.43,701.96,1180.57,702z" clip-rule="evenodd"/><path fill="#fff" fill-rule="evenodd" d="M1081.28,605.01l-7.53,0.36l-3.97,6.4c-0.45,0.72-1.54,0.61-1.85-0.19l-2.66-7.04l-7.31-1.81
	c-0.84-0.21-1.07-1.29-0.4-1.81l5.88-4.71l-0.54-7.51c-0.07-0.86,0.88-1.41,1.59-0.94l6.3,4.13l6.97-2.84
	c0.8-0.32,1.62,0.41,1.39,1.24l-1.99,7.26l4.86,5.76C1082.57,603.97,1082.14,604.97,1081.28,605.01z" clip-rule="evenodd"/><path fill="#fff" fill-rule="evenodd" stroke="#c4d1eb" stroke-miterlimit="2.613" stroke-width=".216" d="M937.52,720.58l-7.53,0.36l-3.97,6.4c-0.45,0.72-1.54,0.61-1.85-0.19l-2.66-7.04l-7.31-1.81
	c-0.84-0.21-1.07-1.29-0.4-1.82l5.88-4.71l-0.54-7.51c-0.07-0.86,0.88-1.4,1.59-0.93l6.3,4.13l6.97-2.84
	c0.8-0.32,1.62,0.41,1.39,1.24l-1.98,7.26l4.86,5.76C938.81,719.54,938.38,720.54,937.52,720.58z" clip-rule="evenodd"/><path fill="#fff" fill-rule="evenodd" d="M1040.87,746.89l-7.53,0.36l-3.97,6.4c-0.45,0.72-1.54,0.61-1.85-0.19l-2.66-7.04l-7.31-1.81
	c-0.84-0.21-1.07-1.29-0.4-1.82l5.88-4.71l-0.54-7.51c-0.07-0.86,0.88-1.41,1.59-0.94l6.3,4.13l6.97-2.84
	c0.8-0.32,1.62,0.41,1.39,1.24l-1.99,7.26l4.86,5.76C1042.16,745.85,1041.73,746.84,1040.87,746.89z" clip-rule="evenodd"/><path fill="#fff" fill-rule="evenodd" d="M982.28,963.67l-11.14-11.81l-16.05,2.48c-1.82,0.27-3.17-1.66-2.29-3.28l7.79-14.24l-7.3-14.49
	c-0.84-1.67,0.59-3.55,2.4-3.2l15.96,3.01l11.53-11.43c1.31-1.3,3.54-0.54,3.79,1.3l2.06,16.1l14.43,7.42
	c1.65,0.85,1.6,3.22-0.07,4.01l-14.67,6.95l-2.61,16.02C985.81,964.31,983.56,965,982.28,963.67z" clip-rule="evenodd"/><path fill="#fff" fill-rule="evenodd" d="M937.36,947.41l-7.53,0.36l-3.97,6.4c-0.45,0.72-1.54,0.61-1.85-0.19l-2.66-7.04l-7.31-1.81
	c-0.84-0.21-1.07-1.29-0.4-1.82l5.88-4.71l-0.54-7.51c-0.07-0.86,0.88-1.4,1.59-0.93l6.3,4.13l6.97-2.84
	c0.8-0.32,1.62,0.41,1.39,1.24l-1.99,7.26l4.86,5.76C938.66,946.37,938.22,947.37,937.36,947.41z" clip-rule="evenodd"/><path fill="#fff" fill-rule="evenodd" d="M893.08,937.48l-11.14-11.81l-16.05,2.48c-1.82,0.27-3.17-1.66-2.29-3.28l7.79-14.24l-7.3-14.49
	c-0.84-1.67,0.59-3.55,2.4-3.2l15.96,3.01l11.53-11.43c1.31-1.3,3.54-0.54,3.78,1.3l2.06,16.1l14.44,7.42
	c1.64,0.85,1.6,3.22-0.07,4.01l-14.67,6.95l-2.61,16.02C896.6,938.12,894.35,938.81,893.08,937.48z" clip-rule="evenodd"/><path fill="#fff" fill-rule="evenodd" d="M1020.12,897.6l-7.53,0.36l-3.97,6.4c-0.45,0.72-1.54,0.61-1.85-0.19l-2.66-7.04l-7.31-1.8
	c-0.84-0.21-1.08-1.29-0.4-1.82l5.88-4.71l-0.54-7.51c-0.07-0.86,0.88-1.41,1.59-0.94l6.3,4.13l6.97-2.84
	c0.8-0.32,1.62,0.41,1.39,1.24l-1.98,7.26l4.86,5.76C1021.41,896.56,1020.98,897.56,1020.12,897.6z" clip-rule="evenodd"/><path fill="#fff" fill-rule="evenodd" d="M898.85,1116.41l-11.14-11.81l-16.05,2.48c-1.82,0.27-3.17-1.66-2.29-3.28l7.79-14.24l-7.3-14.49
	c-0.84-1.67,0.59-3.55,2.4-3.2l15.96,3.01l11.53-11.43c1.31-1.3,3.54-0.54,3.78,1.29l2.06,16.1l14.44,7.42
	c1.64,0.85,1.6,3.22-0.07,4.01l-14.67,6.95l-2.61,16.02C902.37,1117.06,900.12,1117.75,898.85,1116.41z" clip-rule="evenodd"/><path fill="#fff" fill-rule="evenodd" d="M899.48,1001.43l-7.53,0.36l-3.97,6.4c-0.45,0.72-1.54,0.61-1.85-0.19l-2.66-7.04l-7.31-1.81
	c-0.84-0.21-1.07-1.29-0.4-1.82l5.88-4.71l-0.54-7.51c-0.07-0.86,0.88-1.4,1.59-0.94l6.3,4.13l6.97-2.84
	c0.8-0.32,1.62,0.41,1.39,1.24l-1.99,7.26l4.86,5.76C900.78,1000.39,900.34,1001.39,899.48,1001.43z" clip-rule="evenodd"/><path fill="#fff" fill-rule="evenodd" d="M1238.58,1083.69l-11.14-11.81l-16.06,2.48c-1.82,0.27-3.17-1.66-2.29-3.28l7.79-14.24l-7.31-14.49
	c-0.84-1.67,0.59-3.55,2.41-3.2l15.95,3.01l11.53-11.43c1.31-1.3,3.54-0.54,3.79,1.29l2.06,16.1l14.44,7.42
	c1.64,0.85,1.6,3.22-0.07,4.01l-14.67,6.95l-2.61,16.02C1242.1,1084.33,1239.85,1085.03,1238.58,1083.69z" clip-rule="evenodd"/><path fill="#fff" fill-rule="evenodd" d="M1129.59,1081.8l-11.14-11.81l-16.06,2.48c-1.82,0.27-3.17-1.66-2.29-3.28l7.79-14.24l-7.3-14.49
	c-0.84-1.67,0.59-3.56,2.4-3.2l15.96,3.01l11.53-11.43c1.31-1.3,3.54-0.54,3.79,1.3l2.06,16.1l14.43,7.42
	c1.65,0.85,1.6,3.22-0.07,4.01l-14.67,6.95l-2.61,16.02C1133.11,1082.45,1130.86,1083.14,1129.59,1081.8z" clip-rule="evenodd"/><path fill="#fff" fill-rule="evenodd" d="M954.95,1016.35l-7.53,0.36l-3.97,6.4c-0.45,0.72-1.54,0.61-1.85-0.19l-2.66-7.04l-7.31-1.81
	c-0.84-0.21-1.07-1.29-0.4-1.81l5.88-4.71l-0.54-7.51c-0.07-0.86,0.88-1.41,1.59-0.94l6.3,4.13l6.97-2.84
	c0.8-0.32,1.62,0.41,1.39,1.24l-1.99,7.26l4.86,5.76C956.24,1015.31,955.81,1016.31,954.95,1016.35z" clip-rule="evenodd"/><path fill="#fff" fill-rule="evenodd" d="M895.99,1184.46l-7.53,0.36l-3.97,6.4c-0.45,0.72-1.54,0.61-1.85-0.19l-2.66-7.04l-7.31-1.81
	c-0.84-0.21-1.07-1.29-0.4-1.82l5.88-4.71l-0.54-7.51c-0.07-0.86,0.88-1.41,1.59-0.94l6.3,4.13l6.97-2.84
	c0.8-0.32,1.62,0.41,1.39,1.24l-1.99,7.26l4.86,5.76C897.29,1183.42,896.86,1184.42,895.99,1184.46z" clip-rule="evenodd"/><path fill="#fff" fill-rule="evenodd" d="M1244.33,1131.08l-7.53,0.36l-3.97,6.4c-0.45,0.72-1.54,0.61-1.85-0.19l-2.66-7.04l-7.31-1.81
	c-0.83-0.21-1.07-1.29-0.4-1.81l5.88-4.71l-0.54-7.51c-0.07-0.86,0.88-1.41,1.59-0.94l6.3,4.13l6.97-2.84
	c0.8-0.32,1.62,0.41,1.39,1.24l-1.98,7.26l4.86,5.76C1245.62,1130.04,1245.19,1131.04,1244.33,1131.08z" clip-rule="evenodd"/><path fill="#fff" fill-rule="evenodd" d="M902.33,1255.1l-7.53,0.36l-3.97,6.4c-0.45,0.72-1.54,0.61-1.85-0.19l-2.66-7.04l-7.31-1.81
	c-0.84-0.21-1.07-1.29-0.4-1.82l5.88-4.71l-0.54-7.51c-0.07-0.86,0.88-1.41,1.59-0.94l6.3,4.13l6.97-2.84
	c0.8-0.32,1.62,0.41,1.39,1.24l-1.99,7.26l4.86,5.76C903.62,1254.06,903.19,1255.06,902.33,1255.1z" clip-rule="evenodd"/><path fill="#d36928" fill-rule="evenodd" d="M1236.6,1484.08c3.42,3.13,4.7,9.12,2.85,13.36c-1.85,4.25-6.11,5.16-9.53,2.03
		c-3.42-3.13-4.7-9.11-2.85-13.36C1228.91,1481.87,1233.19,1480.96,1236.6,1484.08L1236.6,1484.08z M1226.5,1472.34L1226.5,1472.34
		c-2.81-4.1-7.29-4.77-9.94-1.5c-2.66,3.28-2.53,9.33,0.27,13.44c2.81,4.11,7.29,4.77,9.95,1.5
		C1229.44,1482.5,1229.31,1476.45,1226.5,1472.34L1226.5,1472.34z M1301.79,1379.39c2.81,4.1,2.93,10.15,0.27,13.43
		c-2.65,3.28-7.13,2.61-9.94-1.5c-2.81-4.11-2.94-10.15-0.28-13.43C1294.5,1374.6,1298.97,1375.28,1301.79,1379.39L1301.79,1379.39
		L1301.79,1379.39z M1218.64,1457.84L1218.64,1457.84c2.03,4.83,1,10.47-2.31,12.59c-3.3,2.1-7.64-0.09-9.67-4.92
		c-2.04-4.83-1.01-10.47,2.3-12.59C1212.26,1450.8,1216.6,1453.01,1218.64,1457.84L1218.64,1457.84z M1311.96,1398.16
		L1311.96,1398.16c-2.03-4.83-6.38-7.04-9.68-4.92c-3.3,2.1-4.34,7.76-2.31,12.59c2.04,4.82,6.38,7.04,9.68,4.92
		C1312.97,1408.63,1314,1402.98,1311.96,1398.16L1311.96,1398.16z M1213.54,1441.56L1213.54,1441.56c-1.11-5.22-5.03-8.8-8.74-8.02
		c-3.73,0.79-5.85,5.68-4.74,10.89c1.12,5.21,5.03,8.8,8.75,8.01C1212.54,1451.66,1214.65,1446.78,1213.54,1441.56L1213.54,1441.56z
		 M1318.56,1419.23L1318.56,1419.23c1.11,5.21-1.01,10.09-4.73,10.88c-3.73,0.79-7.65-2.8-8.76-8.02
		c-1.11-5.22,1.01-10.09,4.73-10.88C1313.53,1410.42,1317.45,1414.01,1318.56,1419.23L1318.56,1419.23z M1211.58,1424.63
		L1211.58,1424.63c0.1,5.23-2.96,9.03-6.84,8.44c-3.88-0.59-7.13-5.32-7.23-10.56c-0.11-5.24,2.96-9.03,6.83-8.44
		C1208.22,1414.65,1211.47,1419.39,1211.58,1424.63L1211.58,1424.63z M1321.11,1441.16L1321.11,1441.16
		c-0.11-5.24-3.36-9.98-7.23-10.56c-3.87-0.59-6.94,3.2-6.83,8.44c0.11,5.24,3.35,9.97,7.23,10.56
		C1318.16,1450.17,1321.23,1446.39,1321.11,1441.16L1321.11,1441.16z M1212.85,1408.18L1212.85,1408.18
		c0.89-4.89-1.46-10.47-5.22-12.39c-3.76-1.91-7.58,0.53-8.47,5.43c-0.89,4.89,1.45,10.47,5.22,12.38
		C1208.14,1415.51,1211.96,1413.07,1212.85,1408.18L1212.85,1408.18z M1319.45,1462.44L1319.45,1462.44
		c-0.89,4.89-4.7,7.33-8.47,5.42c-3.76-1.91-6.11-7.49-5.22-12.38c0.9-4.89,4.71-7.34,8.47-5.42
		C1318.01,1451.98,1320.35,1457.55,1319.45,1462.44L1319.45,1462.44z M1217.29,1393.34L1217.29,1393.34
		c-1.84,4.25-6.11,5.16-9.53,2.03c-3.42-3.13-4.69-9.12-2.84-13.36c1.85-4.25,6.12-5.16,9.54-2.03
		C1217.87,1383.11,1219.14,1389.09,1217.29,1393.34L1217.29,1393.34z M1313.7,1481.65L1313.7,1481.65
		c1.85-4.25,0.57-10.23-2.85-13.36c-3.42-3.14-7.69-2.22-9.53,2.03c-1.85,4.25-0.57,10.24,2.85,13.36
		C1307.59,1486.81,1311.85,1485.9,1313.7,1481.65L1313.7,1481.65z M1224.61,1381.13L1224.61,1381.13c2.66-3.28,2.53-9.33-0.28-13.43
		c-2.8-4.11-7.28-4.79-9.94-1.5c-2.66,3.28-2.53,9.32,0.27,13.43C1217.47,1383.74,1221.95,1384.41,1224.61,1381.13L1224.61,1381.13z
		 M1304.24,1497.46L1304.24,1497.46c-2.66,3.28-7.13,2.61-9.95-1.5c-2.81-4.11-2.94-10.15-0.28-13.43c2.66-3.28,7.13-2.61,9.95,1.5
		C1306.77,1488.13,1306.89,1494.18,1304.24,1497.46L1304.24,1497.46z M1234.28,1372.38L1234.28,1372.38c-3.3,2.1-7.65-0.1-9.67-4.94
		c-2.04-4.82-1-10.47,2.3-12.58c3.3-2.11,7.65,0.1,9.67,4.92C1238.62,1364.61,1237.59,1370.27,1234.28,1372.38L1234.28,1372.38z
		 M1291.71,1508.81L1291.71,1508.81c3.31-2.11,4.34-7.77,2.3-12.6c-2.03-4.82-6.36-7.03-9.67-4.92c-3.3,2.11-4.34,7.76-2.3,12.59
		C1284.07,1508.71,1288.41,1510.91,1291.71,1508.81L1291.71,1508.81z M1245.66,1367.67L1245.66,1367.67
		c3.73-0.79,5.85-5.67,4.74-10.88c-1.12-5.22-5.04-8.81-8.75-8.02c-3.73,0.8-5.84,5.67-4.73,10.89
		C1238.02,1364.87,1241.94,1368.46,1245.66,1367.67L1245.66,1367.67z M1276.98,1514.89L1276.98,1514.89
		c-3.72,0.79-7.64-2.8-8.75-8.01c-1.11-5.22,1.01-10.1,4.73-10.89c3.72-0.79,7.64,2.81,8.76,8.02
		C1282.82,1509.23,1280.7,1514.1,1276.98,1514.89L1276.98,1514.89z M1257.97,1367.34L1257.97,1367.34
		c-3.88-0.59-7.12-5.32-7.22-10.56c-0.11-5.24,2.96-9.02,6.83-8.44c3.87,0.59,7.12,5.33,7.23,10.56
		C1264.91,1364.14,1261.85,1367.92,1257.97,1367.34L1257.97,1367.34z M1261.05,1515.33L1261.05,1515.33
		c3.88,0.58,6.95-3.2,6.83-8.44c-0.11-5.23-3.36-9.98-7.24-10.56c-3.88-0.59-6.94,3.2-6.82,8.44
		C1253.92,1510.01,1257.17,1514.74,1261.05,1515.33L1261.05,1515.33z M1270.37,1371.4L1270.37,1371.4c3.77,1.91,7.58-0.53,8.47-5.42
		c0.9-4.89-1.45-10.47-5.21-12.38c-3.76-1.92-7.58,0.52-8.46,5.42C1264.27,1363.91,1266.61,1369.48,1270.37,1371.4L1270.37,1371.4z
		 M1244.99,1510.07c3.76,1.92,7.58-0.52,8.47-5.41c0.89-4.9-1.45-10.47-5.22-12.39c-3.76-1.91-7.58,0.53-8.47,5.42
		C1238.88,1502.58,1241.23,1508.16,1244.99,1510.07L1244.99,1510.07L1244.99,1510.07z M1299.09,1340.31l-0.08-3.9l-0.08-3.9
		l2.54,2.33l2.54,2.33l-2.45,1.57L1299.09,1340.31c-1.41-1.29-2.88-1.58-3.28-0.65c-0.41,0.93,0.4,2.74,1.82,4.03
		c1.99,1.82,1.68,7.73-0.7,13.2s-5.92,8.42-7.91,6.6c-1.99-1.83-1.68-7.73,0.7-13.2c2.38-5.47,5.91-8.42,7.91-6.6
		c1.41,1.29,2.88,1.58,3.28,0.65C1301.31,1343.4,1300.49,1341.61,1299.09,1340.31L1299.09,1340.31L1299.09,1340.31z
		 M1288.71,1364.18c-3.42-3.13-7.69-2.22-9.54,2.03c-1.85,4.25-0.57,10.24,2.85,13.36c3.41,3.14,7.68,2.22,9.53-2.03
		C1293.4,1373.3,1292.12,1367.32,1288.71,1364.18L1288.71,1364.18z" clip-rule="evenodd"/><path fill="#f9af79" fill-rule="evenodd" d="M1201.89,1350.64c-18.6-0.74-18.26,2.53-20.66,2.35c-18.18-1.28-108.6-114.95-124.13-128.71l-133.83-144.01
		l-36.15,42.43c0,0,106.54,124.83,125.78,145.36c3.87,5.22,129.84,99.01,140.53,106.15c0,0,9.17,13.73,15.22,22.07
		c6.04,8.34,15.74,13.22,17.82,15.22c0.31,0.31,7.7,6.7,19.09,11.85c9.83,4.46,2.97-4.54,2.97-4.54s-16.4-11.73-15.14-12.99
		c0.97-1,9.51,5.98,20.3,10.99c2.81,1.36,5.55,2.61,8.07,3.73c6.66,3.02,10.81-0.46,4.43-4.8c-2.25-1.57-6.05-4.02-9.03-5.33
		c-3.24-1.43-5.64-3.83-8.13-5.44c-4.97-3.32-8.63-5.62-8.35-5.78c0.35-0.18-0.11-1.6,2.89-0.31c3.61,1.54,10.39,6.64,15.9,8.39
		c3.14,1.07,9.52,3.67,9.52,3.67s10.51,1.91,10.9,1.34c2.07-3.27-4.52-6.69-9.03-7.53c-2.43-2.01-9.24-4.52-9.24-4.52
		s-12.31-8.38-11.01-10.32c0.57-0.81,8.82,3.36,17.67,6.05c8.19,2.46,17.05,3.61,17.93,1.96c1.54-2.77-7.22-6.63-7.22-6.63
		s-6.27-2.24-8.28-3.2c-2.36-1.06-9.14-5.01-9.14-5.01s-22.81-14.61-21.42-16.28c1.38-1.77,6.54-4.92,8.31-4.58
		c1.76,0.36,4.5,2.86,6.26,3.2c1.79,0.44,4.57-0.71,5.41-2.92c0.84-2.22-6.72-7.51-6.72-7.51S1207.25,1350.8,1201.89,1350.64z" clip-rule="evenodd"/><path fill="#f9af79" fill-rule="evenodd" d="M908.26,968.92c8.42-3.56,29.27-33.32,32.84-36.78c0.57-3.38,1.51-7.55,2.81-12.49
			c-11.57-22.81-8.95-33.51,7.84-32.1c1.86,3.02,2.65,9.55,2.33,19.62c3.29,1.65,6.63,1.35,10.02-0.89
			c3.49-15.36,6.95-27.49,10.36-36.38c16.61-8.51,35.58-18.32,61.81,0.95c-2.05,5.95-5.35,28.12-9.32,33.7
			c-1.52,2.14-3.79,1.88-4.84,4.35c0.98,2.94,7.23,24.84,4.67,30.19c-1.28,2.68-8.6-4.06-10.48-2.41c-0.98,0.85-2.52,3.79-1.6,5.18
			c0.97,1.46-1.2,5.54-5.25,4.38c-1.89-0.54,3.55,3.99-0.09,6.22c-8.56,0.34-8.43,18.05-16.82,18.45c-4.56,0.22-10.8-3.99-16.7-6.68
			c-2.43,3.84-13.98,44.7-14.19,45.36C959.92,1051.38,888.9,1013.8,908.26,968.92z" clip-rule="evenodd"/><path fill="#20386f" fill-rule="evenodd" d="M1038.89,872.36c-25.73-15.39-47.82-10.97-64.43-2.48c-3.41,8.92-6.87,21.04-10.36,36.38
			c-3.39,2.25-6.73,2.55-10.01,0.91c0.3-10.08-0.47-16.61-2.33-19.62c-16.81-1.41-19.41,9.3-7.83,32.1
			c-0.58,2.17-0.81,12.51-2.61,15.46c-10.73,17.61-29.22,0.72-29.55,2.6c5.53-4.49,9.57-9.51,6.44-13.64
			c-1.91-2.52-11.12-3.24-10.95-7.64c0.71-18.01,7.17-19.29,16.66-41.57c9.31-21.83,25.81-39.19,45.68-38.52
			c17.35-12.08,41.26,12.92,66.47,8.46C1073.44,838.2,1063.15,884.57,1038.89,872.36z" clip-rule="evenodd"/><path fill="#ed7d57" fill-rule="evenodd" d="M955.17,952.18c7.44,4.94,14.33,8.95,20.66,12.05c-1.67,2.64-2.78,6.27-3.37,8.49
			C962.62,966.95,956.85,960.09,955.17,952.18z" clip-rule="evenodd"/><path fill="#6d96ce" fill-rule="evenodd" d="M954.64,820.12c-24.63,6.78-35.62,26.61-30.72,54.75c16.04-14.03,85.59-22.38,112.15-30.06
			c-10.5-18.88-31.37-32.63-58.28-28.02c0.25-4.45-2.22-9-6.63-11.43c-6.02-3.33-13.37-1.5-16.46,4.09
			C952.82,812.82,952.93,816.78,954.64,820.12z" clip-rule="evenodd"/><path fill="#20386f" fill-rule="evenodd" d="M953.97,897.21c8.46-1.11,12.7-1.66,12.7-1.66c-2.44,23.74-0.43,39.12,6.03,46.12
			c9-4.13,17.11-6.95,24.1-8.05c7.9-1.23,14.38-0.26,19.1,3.47c1.34,1.08,0.44,4.11-1.47,3.98c-10.32-0.74-22.16-0.07-23.78,6.69
			c-9.67,14.75-5.33,17.61,13.01,8.57c3.72,21.56-16.33,23.25-4.06,41.87c-29.28-3.95-41.1-30.45-45.43-49.1
			C950.91,935.1,949.94,914.45,953.97,897.21z" clip-rule="evenodd"/><path fill="#20386f" fill-rule="evenodd" d="M1008.97,883.42l19.81,13.81c0.01,3.68-1.35,5.66-4.04,5.95l-17.79-16.78
			C1005.47,883.82,1006.15,882.83,1008.97,883.42z" clip-rule="evenodd"/><path fill="#20386f" fill-rule="evenodd" d="M1004.1,894.15l16.68,12.04C1016.06,912.16,996.95,904.81,1004.1,894.15z" clip-rule="evenodd"/><path fill="#466fb5" fill-rule="evenodd" d="M959.96,1028.86c5.73-11.07,8.6-16.62,8.6-16.62c-21.23-20.56-40.84-42.08-58.82-64.51
		c-6.32,17.09-9.49,25.62-9.49,25.62c-135.16,39.77-88.66,358.77-97.75,469.13c5.07,17.72,7.6,26.57,7.6,26.57
		c27.15-42.89,52.77-59.01,76.83-48.39c141.79,45.86,225.9,61.05,252.35,45.54c-4.55-46.54,10.35-58.56,38.9-69.26
		c-121.42-25.3-182.14-37.95-182.14-37.95c-4.98-63.53-7.68-106.85-8.07-129.97c5.67,4,25.26-61.97,27.58-73.52
		c-20.18-22.4-37.91-42-53.22-58.81C960.63,1072.99,959.83,1050.38,959.96,1028.86z" clip-rule="evenodd"/><path fill="#6d96ce" fill-rule="evenodd" d="M959.96,1028.86c5.73-11.07,8.6-16.62,8.6-16.62c-9.82-9.52-19.29-19.23-28.42-29.15
		c-77.91,28.28-109.71,110.72-95.38,247.35c9.69,61.56,12.67,125.55,8.93,192.03c11.39-5.97,22.47-6.57,33.25-1.82
		c141.79,45.86,225.9,61.05,252.35,45.54c-4.55-46.54,10.35-58.56,38.9-69.26c-121.42-25.3-182.14-37.95-182.14-37.95
		c-4.98-63.53-7.41-95.42-7.8-118.54c5.68,4.01,2.35,5.42,7.59,7.31c1.64-24.93,36.49-42.61,42.38-71.66
		c-28.77-18.4-88.64-153.82-116.16-147.01c-0.66-9.08,18.33-9.49,38.14,11.42c0.73,0.78,2.4,3.51,2.21,2.43L959.96,1028.86z" clip-rule="evenodd"/><path fill="#466fb5" fill-rule="evenodd" d="M959.45,1027.51c5.52-10.67,8.28-16.01,8.28-16.01c-20.44-19.82-39.33-40.54-56.66-62.15
		c-6.09,16.45-9.14,24.67-9.14,24.67l-1.92,0.6c10.97,15.77,31.01,34.19,59.42,53.95L959.45,1027.51z" clip-rule="evenodd"/><path fill="#466fb5" fill-rule="evenodd" d="M990.57,1283.23c-1.52-23.81-2.13-31.7-2.34-44.02c-9.02-7.76-31.42-41.04-66.7-79.42
		C948.88,1219.16,971.9,1260.31,990.57,1283.23z" clip-rule="evenodd"/><path fill="#20386f" fill-rule="evenodd" d="M1168.14,1401.08c19.93,6.56,33.21,19.81,39.84,39.76c21.19,34.05,6.64,62.83-43.66,86.33
		c-212.18,1.58-318.28,2.37-318.28,2.37c0.31-36.05,0.47-54.07,0.47-54.07c-16.79,10.67-28.92,8.52-36.4-6.43
		c27.15-42.88,52.77-59.01,76.84-48.38c141.77,45.86,225.89,61.04,252.35,45.53C1135.31,1425.47,1146.22,1411.19,1168.14,1401.08z" clip-rule="evenodd"/><path fill="#0e2952" fill-rule="evenodd" d="M846.51,1475.47c-16.78,10.66-28.92,8.51-36.39-6.43c6.83-10.8,13.57-19.89,20.21-27.3
		c33.79,5.01,73.19,5.9,118.17,2.65c-6.52,11.17-41.94,15.36-106.26,12.58C846.65,1463.09,848.06,1469.26,846.51,1475.47z" clip-rule="evenodd"/><path fill="#f9af79" fill-rule="evenodd" d="M810.11,1469.04c-1.04,3.97-1.56,5.96-1.56,5.96c-12.73-8.74-25.07-1.94-37,20.4
		c-10.53,10.67-24.92,15.72-43.16,15.18c-4.67,1.24-8.06,4.24-10.2,9.01c-2.98-1.64-6.65-1.44-9.43,0.54
		c-2.78,1.97-4.19,5.35-3.62,8.71c10.28,3.64,21.11,5.48,32.02,5.46c30.14,7.18,52.99,5.12,68.55-6.17
		c14.09-2.97,27.54-2.86,40.34,0.36c0.29-33.44,0.44-50.16,0.44-50.16c-5.77,4.59-13.35,6.21-20.49,4.39
		C818.86,1480.89,812.98,1475.83,810.11,1469.04z" clip-rule="evenodd"/><path fill="#fff" fill-rule="evenodd" d="M1094.96,960.41l-11.14-11.81l-16.06,2.48c-1.82,0.27-3.17-1.66-2.29-3.28l7.79-14.24l-7.3-14.49
	c-0.84-1.67,0.59-3.55,2.4-3.2l15.96,3.01l11.53-11.43c1.31-1.3,3.54-0.54,3.78,1.3l2.06,16.1l14.44,7.42
	c1.64,0.85,1.6,3.22-0.07,4.01l-14.67,6.95l-2.61,16.02C1098.48,961.06,1096.23,961.75,1094.96,960.41z" clip-rule="evenodd"/><path fill="#fff" fill-rule="evenodd" d="M1046.46,1002.94l-7.53,0.36l-3.97,6.4c-0.45,0.72-1.54,0.62-1.85-0.19l-2.66-7.04l-7.31-1.81
	c-0.84-0.21-1.08-1.29-0.4-1.82l5.88-4.71l-0.54-7.51c-0.07-0.86,0.88-1.41,1.59-0.94l6.3,4.13l6.97-2.84
	c0.8-0.32,1.62,0.41,1.39,1.24l-1.98,7.26l4.86,5.76C1047.76,1001.9,1047.32,1002.89,1046.46,1002.94z" clip-rule="evenodd"/><path fill="#fff" fill-rule="evenodd" d="M1060.42,1074.84l-7.53,0.36l-3.97,6.4c-0.45,0.72-1.54,0.61-1.85-0.19l-2.66-7.04l-7.31-1.81
	c-0.84-0.21-1.08-1.29-0.4-1.82l5.88-4.71l-0.54-7.51c-0.07-0.86,0.88-1.41,1.59-0.94l6.3,4.13l6.97-2.84
	c0.8-0.32,1.62,0.41,1.39,1.24l-1.98,7.26l4.86,5.76C1061.71,1073.8,1061.28,1074.8,1060.42,1074.84z" clip-rule="evenodd"/><path fill="#fff" fill-rule="evenodd" d="M1118.67,1181.95l-7.53,0.36l-3.97,6.4c-0.45,0.72-1.54,0.61-1.85-0.19l-2.66-7.04l-7.31-1.81
	c-0.83-0.21-1.07-1.29-0.4-1.81l5.88-4.71l-0.54-7.51c-0.07-0.86,0.88-1.41,1.59-0.94l6.3,4.13l6.97-2.84
	c0.8-0.32,1.62,0.41,1.39,1.24l-1.98,7.26l4.86,5.76C1119.97,1180.91,1119.53,1181.91,1118.67,1181.95z" clip-rule="evenodd"/><path fill="#fff" fill-rule="evenodd" d="M1202.42,1275.41l-7.53,0.36l-3.97,6.4c-0.45,0.72-1.54,0.61-1.85-0.19l-2.66-7.04l-7.31-1.81
	c-0.84-0.21-1.08-1.29-0.4-1.82l5.88-4.71l-0.54-7.51c-0.07-0.86,0.88-1.41,1.59-0.94l6.3,4.13l6.97-2.84
	c0.8-0.32,1.62,0.41,1.39,1.24l-1.98,7.26l4.86,5.76C1203.72,1274.37,1203.28,1275.37,1202.42,1275.41z" clip-rule="evenodd"/><path fill="#fff" fill-rule="evenodd" d="M1180.47,1183.37l-7.53,0.36l-3.97,6.4c-0.45,0.72-1.54,0.61-1.85-0.19l-2.66-7.04l-7.31-1.81
	c-0.83-0.21-1.07-1.29-0.4-1.82l5.88-4.71l-0.54-7.51c-0.07-0.86,0.88-1.4,1.59-0.94l6.3,4.13l6.97-2.84
	c0.8-0.32,1.62,0.41,1.39,1.24l-1.98,7.26l4.86,5.76C1181.76,1182.33,1181.33,1183.33,1180.47,1183.37z" clip-rule="evenodd"/><path fill="#fff" fill-rule="evenodd" d="M1052.89,1155.96l-11.14-11.81l-16.05,2.48c-1.82,0.27-3.17-1.66-2.29-3.28l7.79-14.24l-7.3-14.49
	c-0.84-1.67,0.59-3.55,2.4-3.2l15.96,3.01l11.53-11.43c1.31-1.3,3.54-0.54,3.79,1.3l2.06,16.1l14.44,7.42
	c1.64,0.85,1.6,3.22-0.07,4.01l-14.67,6.95l-2.61,16.02C1056.41,1156.61,1054.17,1157.3,1052.89,1155.96z" clip-rule="evenodd"/><path fill="#fff" fill-rule="evenodd" d="M1018.97,1043.4l-7.53,0.36l-3.97,6.4c-0.45,0.72-1.54,0.61-1.85-0.19l-2.66-7.04l-7.31-1.81
	c-0.84-0.21-1.07-1.29-0.4-1.82l5.88-4.71l-0.54-7.51c-0.07-0.86,0.88-1.41,1.59-0.94l6.3,4.13l6.97-2.84
	c0.8-0.32,1.62,0.41,1.39,1.24l-1.99,7.26l4.86,5.76C1020.26,1042.36,1019.83,1043.36,1018.97,1043.4z" clip-rule="evenodd"/><path fill="#fff" fill-rule="evenodd" d="M1141.11,1250.11l-7.53,0.36l-3.97,6.4c-0.45,0.72-1.54,0.61-1.85-0.19l-2.66-7.04l-7.31-1.81
	c-0.84-0.21-1.07-1.29-0.4-1.82l5.88-4.71l-0.54-7.51c-0.07-0.86,0.88-1.4,1.59-0.94l6.3,4.13l6.97-2.84
	c0.8-0.32,1.62,0.41,1.39,1.24l-1.99,7.26l4.86,5.76C1142.41,1249.07,1141.97,1250.06,1141.11,1250.11z" clip-rule="evenodd"/><path fill="#fff" fill-rule="evenodd" d="M1037.8,1352.8l-7.53,0.36l-3.97,6.4c-0.45,0.72-1.54,0.61-1.85-0.19l-2.66-7.04l-7.31-1.81
	c-0.84-0.21-1.08-1.29-0.4-1.82l5.88-4.71l-0.54-7.51c-0.07-0.86,0.88-1.41,1.59-0.94l6.3,4.13l6.97-2.84
	c0.8-0.32,1.62,0.41,1.39,1.24l-1.98,7.26l4.86,5.76C1039.1,1351.76,1038.66,1352.76,1037.8,1352.8z" clip-rule="evenodd"/><path fill="#fff" fill-rule="evenodd" d="M1276.01,1342.26l-7.53,0.36l-3.97,6.4c-0.45,0.72-1.54,0.61-1.85-0.19l-2.66-7.04l-7.31-1.81
	c-0.84-0.21-1.07-1.29-0.4-1.82l5.88-4.71l-0.54-7.51c-0.07-0.86,0.88-1.4,1.59-0.94l6.3,4.13l6.97-2.84
	c0.8-0.32,1.62,0.41,1.39,1.24l-1.98,7.26l4.86,5.76C1277.31,1341.22,1276.88,1342.22,1276.01,1342.26z" clip-rule="evenodd"/><path fill="#fff" fill-rule="evenodd" d="M1046.53,1320.99l-7.53,0.36l-3.97,6.4c-0.45,0.72-1.54,0.61-1.85-0.19l-2.66-7.04l-7.31-1.81
	c-0.84-0.21-1.07-1.29-0.4-1.82l5.88-4.71l-0.54-7.51c-0.07-0.86,0.88-1.4,1.59-0.94l6.3,4.13l6.97-2.84
	c0.8-0.32,1.62,0.41,1.39,1.24l-1.99,7.26l4.86,5.76C1047.82,1319.95,1047.39,1320.95,1046.53,1320.99z" clip-rule="evenodd"/></svg>