<svg xmlns="http://www.w3.org/2000/svg" id="Muslim_Woman_Memorizes_Al-Quran_Verses" viewBox="0 0 1500 1500">
  <g id="Muslim_Woman_Memorizes_Al-Quran_Verses-2">
    <g id="Body">
      <path d="m1164.59,1281.98c12.79,36.56,30.23,119.63-.47,164.38-23.03-35.83-54.8-117.88.47-164.38Z" style="fill:#1c1c1c"/>
      <path d="m1207.14,1253.24c-55.6-17.38-87.56,1.93-96.59,13.77l-6.23,129.91c47.15,2.26,61.17,4.08,95.71,4.59,78,1.14,212.55-9.39,242.24-11.74,31.96-2.52,25.59-52.78-33.56-55.62-72.85-3.49-132.08-59.18-201.57-80.91Z" style="fill:#ce695a"/>
      <path d="m1229.02,1287.04c-56.37-14.7-87.37,6.13-95.82,18.38v130.06c47.2,0,61.29,1.14,95.82,0,77.97-2.6,211.86-19.57,241.4-23.33,31.8-4.05,23.03-53.95-36.19-53.95-72.93,0-134.76-52.78-205.21-71.16Z" style="fill:#fc958e"/>
      <path d="m1305.57,1319.4c6.26,2.97,11.74,5.57,16.23,7.51,3.81,1.64,7.73,3.36,11.73,5.12,12.13,5.34,25.04,11.02,38.03,15.76,17.28,6.29,34.83,10.96,51.11,10.96,4.55,0,11.85.62,19.04,1.53,7.19.91,14.19,2.09,18.15,3.17.51.14,1.03-.16,1.17-.66.14-.51-.16-1.03-.66-1.17-4.1-1.12-11.21-2.31-18.42-3.22-7.22-.91-14.61-1.55-19.28-1.55-15.95,0-33.25-4.58-50.46-10.85-12.93-4.71-25.75-10.35-37.88-15.68-4.01-1.77-7.94-3.5-11.78-5.15-4.4-1.9-9.82-4.47-16.03-7.42-14.81-7.03-34.15-16.2-54.95-23.46-29.53-10.31-62.34-16.89-89.9-8.02-.5.16-.78.69-.62,1.19s.7.77,1.2.61c26.94-8.67,59.25-2.27,88.7,8.01,20.7,7.22,39.83,16.3,54.62,23.32Z" style="fill:#1c1c1c;fill-rule:evenodd"/>
      <path d="m1105.76,1019.67c62.14,73.57,158.89,32.37,198.3,1.72,6.85-189.18-63.88-242.76-98.91-245.05-59.03,50.46-161.54,169.76-99.39,243.33Z" style="fill:#1c1c1c"/>
      <path d="m1185.25,1241.87c33.59-65.98,46.84-191.35-2.02-281.03-80.94-148.57-532.97,9.15-532.97,9.15-25.11,96.54-147.53,156.47-220.25,273.15-184.72,296.32,412.61,261.68,734.36,203.35-23-60.93-25.14-103.05,0-163.98,0,0,4.9-9.22,20.89-40.63Z" style="fill:#3b5570"/>
      <path d="m1174.4,1004.25c-29.7,29.7-121.48,49.12-162.22,55.41l175.93-87.97c68.54,125.67-2.29,286.74-23.42,310.73-81.34,21.48-234.57,8.95-299.88,0,79.21,7.43,217.63,18.28,286.17-45.69,61.46-57.37,43.98-186.4,23.42-232.48Z" style="fill:#1f3853"/>
      <path d="m1191.53,1075.08c-9.59-41.58-54.64-45.13-72.54-41.13,14.09-20.75,48.78-57.12,61.12-38.84,12.34,18.28,13.9,61.12,11.42,79.97Z" style="fill:#1f3853"/>
      <path d="m856.43,1282.53c120.96,10.06,188.6,12.84,308.16,0l-2.19,5.03c-121.01,12.12-189.28,11.24-305.97-5.03Z" style="fill:#1f3853"/>
      <path d="m855.82,1283.99c.08-.55.59-.92,1.14-.84,61.82,9.13,212.21,17.57,305.29,3.43.55-.09,1.06.29,1.14.83.08.55-.29,1.06-.84,1.14-93.35,14.19-243.95,5.72-305.88-3.42-.55-.08-.92-.59-.84-1.14Z" style="fill:#1c1c1c;fill-rule:evenodd"/>
    </g>
    <g id="Hand">
      <path d="m381.28,968.33c4.3,62.2,32.17,109.78,67.83,134.95,33.56-57.34-1.26-130.48-67.83-134.95Z" style="fill:#1c1c1c"/>
      <path d="m353.63,1001.39l65.12-45.55,59.4,97.1-74.83,14.85-49.69-66.4Z" style="fill:#fc958e"/>
      <path d="m281.05,1026.53l31.46,2.85c2.03,20.23-51.62,110.25-39.19,117.48,12.43,7.22,57.84-61.55,57.84-61.55,0,0-49.77,78.36-38.37,86.95,11.4,8.6,60.17-76.96,60.17-76.96,0,0-32.04,68.12-22.46,75.34,9.58,7.23,49.52-65.67,49.52-65.67,0,0-15.3,44.02-6.17,46.13,5.48,1.27,19.36-18.41,29.14-48.13,1.4-10.4,11.16-33.79-14.76-81.95-17.31-32.16-52.33-24.2-72.9-17.91-20.56,6.28-34.27,23.42-34.27,23.42Z" style="fill:#fc958e"/>
      <path d="m850.46,860.65c0-120.97-110.48-380.38-110.48-380.38,0,0-58.04,277.6-81.11,334.23-65.03,39.16-145.44,83.21-277.6,153.83,42.65,7.69,77.61,93.7,67.83,134.95,0,0,401.36-92.3,401.36-242.63Z" style="fill:#3b5570"/>
      <path d="m511.21,1086.45l-21.15,5.99c-11.49-87.51-54.62-132.38-74.21-142.45l21.13-11.42c53.08,35.41,72.87,118.38,74.23,147.89Z" style="fill:#f4f4f4"/>
      <path d="m550.08,1075.65l-21.13,6.28c-11.49-87.5-59.24-140.14-78.83-150.22l21.13-11.42c53.08,35.41,77.47,125.87,78.82,155.37Z" style="fill:#f4f4f4"/>
      <path d="m587.21,986.54c-4-58.26-5.71-106.24,11.99-137.66l29.7,179.93-81.11-1.71c32.56-7.43,40.62-22.89,39.41-40.56Z" style="fill:#1f3853"/>
    </g>
    <g id="Face">
      <path d="m947.86,277.67c0,41.61-35.82,133.93-164.48,112-119.08-20.29-113.82-224.25-78.85-273.2,79.82-84.75,137.76-65.9,243.33,3.36v157.84Z" style="fill:#fc958e"/>
      <ellipse cx="789.05" cy="299.47" rx="20.56" ry="17.14" style="fill:#1c1c1c" transform="rotate(-87.79 789.014 299.481)"/>
      <path d="m788.26,320.02c9.46.37,17.48-8.54,17.92-19.89.13-3.25-.38-6.35-1.4-9.13-12.54.65-24.27,11.58-30.36,19.41,2.87,5.58,7.94,9.37,13.84,9.6Z" style="fill:#ef292e"/>
      <path d="m784.76,205.81c-.63.04-1.11.58-1.07,1.21.72,11.99-2.53,25.07-10.71,37.68-2.89,4.45-3.53,8.4-2.38,11.5,1.16,3.11,4,5.04,7.35,5.67,6.69,1.27,15.78-2.45,20.35-12.57.26-.58,0-1.25-.57-1.51s-1.25,0-1.51.57c-4.17,9.26-12.28,12.33-17.84,11.27-2.78-.53-4.82-2.05-5.63-4.22-.81-2.19-.51-5.37,2.15-9.47,8.43-12.99,11.83-26.55,11.07-39.06-.04-.63-.58-1.11-1.21-1.07Z" style="fill:#1c1c1c;fill-rule:evenodd"/>
      <path d="m722.87,244.81c-18.72.75-23.14-17-23.09-27.7,0-1.38.43-2.76,1.17-3.94,19.04-30.38,51.45-7.69,52.3-.62.87,7.21-5.37,31.26-30.39,32.26Z" style="fill:#f4f4f4"/>
      <path d="m718.36,244.61c1.4.19,2.91.26,4.51.2,4.09-.16,7.68-.94,10.81-2.17,5.79-4.08,9.22-11.76,8.22-19.99-1.36-11.28-10.51-19.31-20.44-17.94-9.93,1.37-16.88,11.62-15.52,22.89.98,8.11,5.98,14.54,12.41,17.01Z" style="fill:#1c1c1c"/>
      <path d="m719.73,220.91c-.05,4.01-2.12,7.24-4.63,7.2-2.5-.04-4.49-3.32-4.44-7.33.05-4.01,2.12-7.24,4.63-7.2,2.5.04,4.49,3.32,4.44,7.33Z" style="fill:#f4f4f4"/>
      <path d="m722.22,197.28c-13.75,1.89-20.42,12.3-22.09,17.42,17.48-25.6,45.04-7.14,50.24-1.89,2.25,2.27,2.7,4.39,2.7,4.39,0,0,.35-1.29.73-2.67.61-2.22.39-4.53-1.25-6.09-5.01-4.76-17.67-12.9-30.33-11.16Z" style="fill:#1c1c1c"/>
      <path d="m695.75,204.57c-5.14,1.14-8.38-3.05-10.28-5.71,1.8,11.67,10.56,14.76,14.85,15.42,4-6.85,8.76-10.09,12.57-13.71-8.68,3.2-17.71-.76-20.56-4.57.57,4,1.33,6.85,3.43,8.57Z" style="fill:#1c1c1c"/>
      <path d="m741.75,237.84c-2.79,3.53-10.46,7.03-15.29,7.69-4.83.66-10.96.29-15.68-3.58,4.57,2.66,10.95,1.79,15.39,1.17,4.45-.61,12.64-2.96,15.58-5.29Z" style="fill:#1c1c1c"/>
      <path d="m822.92,171.43c8.56-3.9,18.85-6.42,27.18-4.59,2.24.49,4.62-1.21,4.5-3.62-.05-.94-.47-1.84-1.23-2.34-6.27-4.13-18.72-4.5-32.92-.45-8.41,3.62-5.43,11.56.05,11.66.85.02,1.65-.3,2.42-.66Z" style="fill:#1c1c1c"/>
      <path d="m733,184.75c-8.99-1.95-19.35-2.25-27.11,1.07-2.12.9-4.83-.61-4.83-3.03,0-.68.21-1.35.66-1.84,5.08-5.52,16.45-8.4,31.48-7.44,8.99,1.75,7.68,10.12,2.32,11.38-.83.2-1.69.05-2.52-.13Z" style="fill:#1c1c1c"/>
      <path d="m840.46,228.63c-18.72.75-23.14-17-23.09-27.7,0-1.38.43-2.76,1.17-3.94,19.04-30.39,51.45-7.69,52.3-.62.87,7.21-5.37,31.26-30.39,32.26Z" style="fill:#f4f4f4"/>
      <path d="m835.95,228.43c1.4.19,2.91.26,4.51.2,4.09-.16,7.68-.94,10.81-2.16,5.79-4.08,9.22-11.76,8.23-19.99-1.36-11.28-10.51-19.31-20.44-17.94-9.93,1.37-16.88,11.62-15.52,22.89.98,8.11,5.98,14.54,12.41,17.01Z" style="fill:#1c1c1c"/>
      <path d="m837.32,204.73c-.05,4.01-2.12,7.24-4.63,7.2-2.5-.04-4.49-3.32-4.44-7.33.05-4.01,2.12-7.24,4.63-7.2,2.5.04,4.49,3.32,4.44,7.33Z" style="fill:#f4f4f4"/>
      <path d="m839.81,181.1c-13.76,1.89-20.19,11.89-21.86,17.01,17.48-25.6,44.81-6.73,50.01-1.48,2.25,2.27,2.7,4.39,2.7,4.39,0,0,.17-.63.4-1.47.83-3.01.8-6.28-1.32-8.5-5.28-5.52-17.35-11.68-29.93-9.94Z" style="fill:#1c1c1c"/>
      <path d="m884.82,184.01c-1.83,11.88-10.09,16.56-14.28,17.14.91-4.57-7.62-12.95-11.42-16.57,8.68,3.2,15.99.38,18.85-3.43-.57,4-1.33,6.85-3.43,8.57,5.14,1.14,8.38-3.05,10.28-5.71Z" style="fill:#1c1c1c"/>
      <path d="m859.34,221.67c-2.79,3.53-10.46,7.03-15.29,7.69-4.83.66-10.96.29-15.68-3.58,4.57,2.66,10.95,1.79,15.39,1.17,4.45-.61,12.64-2.96,15.58-5.29Z" style="fill:#1c1c1c"/>
    </g>
    <g id="Headscarf">
      <path d="m773.05,86.41c-39.16,8.95-94.4,55.94-90.2,141.94-15.1-63.76-5.8-111.26,20.31-156.87,40.88-71.4,169.82-91.92,265.04,0,134.23,129.59,379.84,486.09,335.86,950.48-10.28-141.66-29.7-178.22-38.27-199.35-102.79,10.37-326.74,226.33-348.4,256.63-26.98,37.73-93.68,55.4-123.66,59.51-177.62-16.84-229.17-230.9-189.19-300.66,35.66-62.23,137.04-465.93,137.04-465.93,94.1,34.05,163.66-25.97,175.21-104.75,18.85-128.52-81.51-195.22-143.74-181Z" style="fill:#ef292e"/>
      <path d="m875.82,363.86c-9.82,24.61-41.77,75.7-90.97,83.18,28.24-1.92,85.96-21.24,90.97-83.18Z" style="fill:#c10a0f"/>
      <path d="m738.57,443.33c4.57,12.38,24.33,36.67,66.83,34.84-19.8,6.28-60.89,8.11-66.83-34.84Z" style="fill:#c10a0f"/>
      <path d="m892.23,142.88c.38-11.61-1.33-50.84-15.99-79.97,11.42,7.04,21.71,41.13,15.99,79.97Z" style="fill:#c10a0f"/>
      <path d="m909.93,180.01c13.71-42.95-12.19-94.25-27.42-114.81,59.41,47.52,48.36,125.47,35.99,158.22-1.14-19.42-5.14-33.7-8.57-43.41Z" style="fill:#c10a0f"/>
      <path d="m687.17,796.91c36.17,15.99,129.2,29.59,211.91-43.98-41.32,58.07-141.54,148.17-211.91,43.98Z" style="fill:#c10a0f"/>
      <path d="m730.01,749.5c19.42,5.33,70.49,8.34,119.38-22.28-21.14,26.66-74.6,68.43-119.38,22.28Z" style="fill:#c10a0f"/>
      <path d="m898.68,753.97c.37.41.34,1.04-.08,1.41-79.77,71.73-169.31,58.53-210.64,43.61-.52-.19-.79-.76-.6-1.28.19-.52.76-.79,1.28-.6,40.92,14.78,129.6,27.85,208.62-43.21.41-.37,1.04-.34,1.41.08Z" style="fill:#1c1c1c;fill-rule:evenodd"/>
      <path d="m849.08,727.24c.31.46.18,1.08-.28,1.39-20.05,13.37-43.97,19.78-65.68,22.38-21.71,2.6-41.28,1.4-52.71-.52-.54-.09-.91-.61-.82-1.15.09-.54.61-.91,1.15-.82,11.24,1.89,30.62,3.08,52.14.51,21.52-2.58,45.11-8.92,64.81-22.06.46-.31,1.08-.18,1.39.28Z" style="fill:#1c1c1c;fill-rule:evenodd"/>
      <path d="m773.99,416.49c-21.14-1.37-34.27-28.37-32.56-44.55,72.54,25.13,131.38,0,162.79-61.69-23.42,78.83-86.25,109.1-130.23,106.24Z" style="fill:#c10a0f"/>
      <path d="m800.12,981.97c-142.23,64.55-195.16-55.6-199.92-134.8-30.85,66.26,15.99,238.19,95.96,214.2,66.71-20.01,101.1-47.22,103.96-79.4Z" style="fill:#c10a0f"/>
      <path d="m772.35,98.3c35.91-6.25,89.03,8.6,119.88,45.73-20.56-42.27-61.69-84.54-119.88-75.97-58.19,8.57-77.19,61.12-80.41,95.97,14.68-25.87,34.07-57.66,80.41-65.73Z" style="fill:#1c1c1c"/>
    </g>
    <g id="Hand-2">
      <path d="m289.56,1349.47l-157.7,140.53h127.13l92.54-85.24-61.96-55.29Z" style="fill:#720000"/>
      <path d="m54.88,1050.82l233.33,199.33,239.69-200.85,484.39,5.07v25.31l-468.48,5.91-255.6,220.06-252.9-231.49,19.57-23.34Z" style="fill:#ef292e"/>
      <path d="m73.37,1044.63l3.9-3.07c12.39-9.74,27.69-15.03,43.46-15.03l388.36.14-225.22,169.88-210.5-151.92Z" style="fill:#f4f4f4"/>
      <path d="m281.05,1074.51c-11.42-1.07-11.42-26.28,0-47.98,0,0,16.57-20.57,33.13-26.28,16.56-5.71,43.98-2.29,43.98-2.29l-17.71,28.56c-28.56,5.14-40.56,49.74-59.4,47.98Z" style="fill:#fc958e"/>
      <path d="m362.73,1026.53c-26.96,0-43.03,10.09-46.84,15.42,3.62-6.47,14.39-18.05,19.42-19.42,5.03-1.37,20.18,1.71,27.42,4Z" style="fill:#fc958e"/>
      <path d="m61.2,1056.23l12.17-11.6c10.47-11.29,19.76-18.95,31.76-8.1l178.73,160.02,198.87-160.71c7.45-6.02,16.77-9.26,26.36-9.16l491.92,5.06c11.05.12,11.28,5.33,11.28,22.63l-484.39-5.07-239.7,200.84-227-193.91Z" style="fill:#e8e8e8"/>
      <path d="m591.01,1353.06s96.67-.51,205.81,132.82l38.25-2.81s-109.23-158.75-244.07-130.01Z" style="fill:#490000"/>
      <path d="m1012.29,1106.69h-452.32l-246.42,221.1,180.71,162.03,133.22-4.03-60.32-70.01c-19.78-22.96-6.18-58.71,23.86-62.72,8.17-1.09,16.42-1.46,24.66-1.1l.54.02c49.83,2.18,97.36,21.64,134.42,55.02l84.45,76.07,106.33-6.75-172.15-148.53,243.04-221.1h-.01Z" style="fill:#720000"/>
      <path d="m314.63,1327.78h454.63l13.65,11.79-468.27-11.79Z" style="fill:#490000"/>
      <path d="m543.81,1074.16l-254.24,230.27-254.25-230.27-23.87,27.47,253.05,225.49-179.63,162.7,47,.18,157.7-140.53,157.7,140.53,47-.18-179.63-162.69,247.37-220.44h450.29v-32.53h-468.48Z" style="fill:#490000"/>
      <path d="m770.42,1328.11c0,.56-.44,1.01-.99,1.01l-454.67,2.86c-.55,0-1-.45-1.01-1,0-.55.44-1,.99-1l454.67-2.86c.55,0,1,.44,1.01.99Z" style="fill:#1c1c1c;fill-rule:evenodd"/>
      <path d="m798.21,968.33c4.89,26.57,32.16,109.78,67.83,134.95,33.56-57.34-1.26-130.48-67.83-134.95Z" style="fill:#1c1c1c"/>
      <path d="m770.56,1001.39l65.12-45.56,59.41,97.1-74.83,14.85-49.69-66.4Z" style="fill:#fc958e"/>
      <path d="m697.21,1029.09l32.22.29c2.03,20.23-51.62,110.25-39.19,117.48,12.43,7.22,57.84-61.55,57.84-61.55,0,0-49.78,78.36-38.37,86.95,11.4,8.6,60.17-76.96,60.17-76.96,0,0-32.04,68.12-22.46,75.34,9.58,7.23,49.52-65.67,49.52-65.67,0,0-15.3,44.02-6.17,46.13,5.48,1.27,19.36-18.41,29.14-48.13,1.4-10.4,11.16-33.79-14.76-81.95-17.32-32.16-57.58-19.17-81.99-11.06-20.97,6.97-26.85,10.85-25.94,19.13Z" style="fill:#fc958e"/>
      <path d="m721.44,1023.67c2.89,0,5.07.52,8.57,5.71l-15.53-.13c.54-2.83,4.11-5.58,6.97-5.58Z" style="fill:#ce695a"/>
      <path d="m723.7,1017.39c5.17,4.57,6.28,7.42,6.28,11.99h-6.28c2.88-4,2.88-7.42,0-11.99Z" style="fill:#ce695a"/>
      <path d="m1267.39,860.65c0-120.97-49.64-278.29-110.48-380.38-32.67-54.83-92.31-81.84-158.72-76.91,37.06,84.84,100.69,354.51,77.61,411.15-65.03,39.16-145.44,83.21-277.59,153.83,42.65,7.69,77.61,93.7,67.83,134.95,0,0,401.36-92.3,401.36-242.63Z" style="fill:#3b5570"/>
      <path d="m1190.06,972.82c.32.45.22,1.07-.22,1.4-29.23,21.2-110.55,64.42-177.35,86.39-.52.17-1.09-.12-1.26-.64-.17-.53.11-1.09.64-1.26,66.62-21.91,147.75-65.05,176.79-86.11.45-.32,1.07-.23,1.4.22Z" style="fill:#1c1c1c;fill-rule:evenodd"/>
      <path d="m927.04,1087.02l-21.15,5.99c-11.49-87.51-54.62-132.38-74.21-142.45l21.13-11.42c53.08,35.41,72.87,118.39,74.23,147.89Z" style="fill:#f4f4f4"/>
      <path d="m964.77,1075.65l-21.14,6.28c-11.49-87.5-59.24-140.14-78.82-150.22l21.13-11.42c53.08,35.41,77.47,125.87,78.83,155.37Z" style="fill:#f4f4f4"/>
      <path d="m1302.35,915.14c-12.8-63.52-59.98-206.77-226.77-100.53l-131.83-449.21c-21.13-22.66-24.22-54.38,132.52,0,156.73,54.38,227.79,363.34,226.08,549.74Z" style="fill:#ef292e"/>
      <path d="m973.34,873.45c88.53-71.63,93.1-132.52,94.82-279.89,11.01,79.43,6.68,130.17,29.06,208.26-46.38,27.69-72.81,43.06-123.88,71.63Z" style="fill:#c10a0f"/>
      <path d="m1068.63,593.71c.55-.05,1.04.35,1.09.9.79,7.94,1.6,17.31,2.51,27.72,4.39,50.37,10.9,125.01,26.02,178.88.15.53-.16,1.08-.69,1.23-.54.15-1.09-.16-1.24-.69-15.18-54.08-21.7-128.98-26.09-179.33-.9-10.38-1.72-19.72-2.5-27.62-.05-.55.35-1.04.9-1.09Z" style="fill:#1c1c1c;fill-rule:evenodd"/>
      <path d="m1196.77,407.51l14.57,32.95c-36.37-12.54-96.92,7.45-110.06,36.01,7.28-32.27,66.01-59.12,95.49-68.96Z" style="fill:#c10a0f"/>
      <path d="m1137.31,493.42c-.37,2.76-.57,5.33-.61,7.6,0-2.59.21-5.12.61-7.6,2.89-21.25,16.55-54.3,55.37-60.37-17.25,7.74-50.45,29.97-55.37,60.37Z" style="fill:#c10a0f"/>
      <path d="m1266.36,823.18c8.38,10.09,19.42,23.99,29.13,49.12,3.04-31.66,6.48-91.91,2.9-116.78-.01-.1-.03-.21-.04-.31.01.1.03.21.04.31,8.18,56.09,18.21,168.94,5.67,266.44-5.14-56.55-8-118.24-37.7-198.78Z" style="fill:#c10a0f"/>
      <path d="m1297.78,844.89c-1.83,9.14-8.95,8.38-12,6.28,1.52,8.76,5.71,25.59,10.28,22.85,4.57-2.74,3.24-20.94,1.72-29.13Z" style="fill:#c10a0f"/>
    </g>
  </g>
</svg>
