<svg xmlns="http://www.w3.org/2000/svg" fill-rule="evenodd" stroke-linejoin="round" stroke-miterlimit="2" clip-rule="evenodd" viewBox="0 0 16667 16667"><g transform="matrix(1.83429 0 0 1.09377 -33670.87 -60.2)"><rect width="9086.17" height="15237.8" x="18356.4" y="55.059" fill="none"/><g transform="matrix(1.68237 0 0 2.82139 10227.3 -15284.2)"><g transform="translate(4101.45 4650.46)"><path fill="#9489d8" d="M5432.62,4665.75C5422.04,4667.14 5412.23,4668.44 5404.87,4668.43C5335.78,4668.3 5276.18,4676.24 5207.74,4667.2C5204.89,4666.83 5202.27,4668.84 5201.89,4671.69C5201.52,4674.54 5203.53,4677.15 5206.38,4677.53C5275.28,4686.63 5335.29,4678.72 5404.85,4678.85C5418.65,4678.87 5440.98,4674.36 5461,4673.19C5473.12,4672.48 5484.34,4672.86 5491.66,4677.02C5494.16,4678.43 5497.34,4677.56 5498.76,4675.06C5500.18,4672.56 5499.3,4669.38 5496.8,4667.96C5493.8,4666.25 5490.26,4665.01 5486.32,4664.15C5486.69,4663.48 5486.92,4662.73 5486.97,4661.91C5487.14,4659.04 5484.95,4656.57 5482.09,4656.4C5438.82,4653.79 5391.61,4656.84 5347.27,4656C5298.8,4655.07 5250.61,4650.54 5202.25,4648.78C5199.38,4648.68 5196.96,4650.93 5196.86,4653.8C5196.76,4656.67 5199,4659.09 5201.88,4659.19C5250.29,4660.95 5298.54,4665.48 5347.07,4666.41C5375.01,4666.95 5404.11,4665.92 5432.62,4665.75ZM1500.29,4652.17C1496.32,4652.89 1492.73,4654 1489.67,4655.6C1487.12,4656.92 1486.13,4660.07 1487.45,4662.62C1488.78,4665.17 1491.93,4666.16 1494.48,4664.84C1501.95,4660.95 1513.17,4660.98 1525.26,4662.13C1545.22,4664.02 1567.38,4669.35 1581.17,4669.82C1650.69,4672.22 1710.37,4682.31 1779.56,4675.72C1782.42,4675.45 1784.52,4672.9 1784.25,4670.04C1783.98,4667.18 1781.43,4665.08 1778.57,4665.35C1709.85,4671.9 1650.57,4661.79 1581.53,4659.41C1574.17,4659.16 1564.41,4657.5 1553.89,4655.73C1582.38,4656.93 1611.41,4659.01 1639.36,4659.49C1687.89,4660.33 1736.27,4657.56 1784.72,4657.56C1787.6,4657.56 1789.93,4655.23 1789.93,4652.35C1789.93,4649.48 1787.6,4647.14 1784.72,4647.14C1736.33,4647.14 1688.02,4649.92 1639.54,4649.08C1595.2,4648.32 1548.13,4643.55 1504.8,4644.58C1501.92,4644.65 1499.65,4647.04 1499.71,4649.91C1499.73,4650.73 1499.94,4651.49 1500.29,4652.17ZM5481.99,4643.93C5480.94,4644.01 5479.22,4644.13 5477.67,4644.16C5470.15,4644.31 5459.03,4643.91 5457.63,4643.86C5434.77,4643.03 5412.15,4640.27 5389.31,4639.44C5315.03,4636.73 5240.93,4638.56 5166.55,4635.86C5163.67,4635.75 5161.26,4638 5161.15,4640.87C5161.05,4643.74 5163.29,4646.16 5166.17,4646.27C5240.55,4648.97 5314.65,4647.14 5388.93,4649.85C5411.77,4650.68 5434.39,4653.44 5457.25,4654.27C5458.91,4654.33 5473.69,4654.85 5481.05,4654.47C5483.64,4654.34 5485.56,4653.99 5486.4,4653.66C5489.17,4652.6 5489.84,4650.52 5490.01,4649.2C5490.18,4647.79 5489.99,4646 5488.12,4644.4C5486.35,4642.89 5483.86,4642.77 5481.99,4643.93ZM5479.85,4650.17C5480.06,4650.81 5480.44,4651.47 5481.11,4652.1C5480.53,4651.54 5480.11,4650.88 5479.85,4650.17ZM1505.35,4632.12C1503.52,4630.89 1501.02,4630.92 1499.2,4632.37C1497.28,4633.9 1497.02,4635.69 1497.14,4637.1C1497.26,4638.43 1497.86,4640.52 1500.59,4641.69C1501.41,4642.04 1503.32,4642.47 1505.9,4642.69C1513.25,4643.34 1528.03,4643.36 1529.7,4643.36C1552.57,4643.36 1575.27,4641.42 1598.13,4641.42C1672.46,4641.42 1746.44,4645.94 1820.88,4645.94C1823.75,4645.94 1826.09,4643.6 1826.09,4640.73C1826.09,4637.86 1823.75,4635.52 1820.88,4635.52C1746.44,4635.52 1672.46,4631 1598.13,4631C1575.27,4631 1552.57,4632.94 1529.7,4632.94C1528.29,4632.94 1517.17,4632.93 1509.65,4632.51C1508.11,4632.43 1506.39,4632.24 1505.35,4632.12ZM1507.26,4638.43C1506.97,4639.14 1506.53,4639.78 1505.93,4640.32C1506.62,4639.72 1507.03,4639.07 1507.26,4638.43ZM5477.38,4625.82C5440.19,4625.87 5401.63,4623.06 5363.99,4622.36C5303.52,4621.24 5243.03,4623.78 5182.57,4621.58C5179.7,4621.47 5177.28,4623.72 5177.18,4626.59C5177.07,4629.47 5179.32,4631.88 5182.19,4631.99C5242.72,4634.19 5303.26,4631.66 5363.8,4632.78C5401.5,4633.48 5440.14,4636.29 5477.4,4636.24C5480.27,4636.24 5482.6,4633.9 5482.6,4631.03C5482.6,4628.15 5480.26,4625.82 5477.38,4625.82ZM1510.22,4624.61C1547.45,4626.01 1586.16,4624.6 1623.87,4625.28C1684.4,4626.36 1744.82,4631.09 1805.38,4631.09C1808.26,4631.09 1810.59,4628.75 1810.59,4625.88C1810.59,4623.01 1808.26,4620.67 1805.38,4620.67C1744.88,4620.67 1684.53,4615.94 1624.05,4614.86C1586.41,4614.19 1547.77,4615.6 1510.61,4614.2C1507.73,4614.09 1505.32,4616.33 1505.21,4619.21C1505.1,4622.08 1507.34,4624.5 1510.22,4624.61ZM5470.67,4606.84C5434.63,4606.52 5398.69,4602.35 5362.58,4602.94C5319.46,4603.64 5276.65,4607.49 5233.42,4606.63C5202.33,4606.01 5171.44,4602.01 5140.33,4602.61C5137.46,4602.66 5135.17,4605.04 5135.22,4607.91C5135.28,4610.79 5137.66,4613.08 5140.53,4613.02C5171.5,4612.43 5202.26,4616.43 5233.21,4617.05C5276.57,4617.91 5319.5,4614.05 5362.75,4613.35C5398.77,4612.77 5434.63,4616.94 5470.58,4617.26C5473.45,4617.28 5475.81,4614.97 5475.83,4612.09C5475.86,4609.22 5473.54,4606.86 5470.67,4606.84ZM1517.72,4605.88C1553.66,4606.88 1589.64,4604.01 1625.62,4605.9C1668.82,4608.17 1711.58,4613.59 1754.94,4614.3C1785.89,4614.81 1816.77,4611.93 1847.7,4613.65C1850.57,4613.81 1853.03,4611.61 1853.19,4608.74C1853.35,4605.87 1851.15,4603.41 1848.28,4603.25C1817.21,4601.52 1786.19,4604.4 1755.11,4603.89C1711.88,4603.18 1669.24,4597.77 1626.17,4595.5C1590.1,4593.6 1554.03,4596.46 1518.01,4595.47C1515.13,4595.39 1512.74,4597.66 1512.66,4600.53C1512.58,4603.41 1514.85,4605.8 1517.72,4605.88ZM5465.61,4587.68C5459.84,4585.75 5449.66,4584.78 5437.58,4584.51C5410.95,4583.89 5374.59,4586.31 5358.86,4586C5292.11,4584.68 5225.6,4581.8 5158.91,4579.37C5156.04,4579.27 5153.62,4581.51 5153.51,4584.39C5153.41,4587.26 5155.66,4589.68 5158.53,4589.78C5225.28,4592.21 5291.85,4595.1 5358.65,4596.41C5374.38,4596.72 5410.72,4594.31 5437.34,4594.92C5448.09,4595.17 5457.16,4595.84 5462.3,4597.56C5465.02,4598.47 5467.98,4597 5468.89,4594.28C5469.8,4591.55 5468.33,4588.6 5465.61,4587.68ZM1526.71,4586.5C1531.9,4584.97 1541,4584.62 1551.75,4584.77C1578.37,4585.12 1614.6,4588.86 1630.33,4589.12C1697.14,4590.23 1763.77,4589.77 1830.56,4589.77C1833.43,4589.77 1835.77,4587.43 1835.77,4584.56C1835.77,4581.69 1833.43,4579.35 1830.56,4579.35C1763.83,4579.35 1697.25,4579.82 1630.5,4578.71C1614.77,4578.44 1578.52,4574.71 1551.88,4574.35C1539.8,4574.19 1529.6,4574.79 1523.76,4576.51C1521.01,4577.32 1519.43,4580.22 1520.24,4582.98C1521.06,4585.73 1523.95,4587.31 1526.71,4586.5ZM5450.64,4567.5C5444.87,4565.33 5434.37,4564.36 5421.87,4564.27C5394.48,4564.06 5356.9,4567.64 5341.86,4567.94C5275.84,4569.28 5211.19,4564.47 5145.32,4562.08C5142.45,4561.97 5140.03,4564.22 5139.93,4567.09C5139.82,4569.97 5142.07,4572.38 5144.94,4572.49C5211.01,4574.89 5275.86,4579.69 5342.07,4578.36C5357.06,4578.06 5394.5,4574.48 5421.79,4574.68C5432.73,4574.76 5441.93,4575.35 5446.98,4577.25C5449.68,4578.26 5452.68,4576.89 5453.69,4574.2C5454.7,4571.51 5453.33,4568.51 5450.64,4567.5ZM1542.75,4566.76C1547.87,4565.05 1557.09,4564.79 1568.02,4565.11C1595.31,4565.9 1632.59,4570.84 1647.55,4571.68C1713.68,4575.43 1778.66,4572.98 1844.77,4572.98C1847.64,4572.98 1849.97,4570.65 1849.97,4567.77C1849.97,4564.9 1847.64,4562.56 1844.77,4562.56C1778.86,4562.56 1714.07,4565.01 1648.14,4561.28C1633.13,4560.43 1595.71,4555.49 1568.32,4554.7C1555.83,4554.34 1545.3,4554.93 1539.45,4556.88C1536.72,4557.79 1535.25,4560.74 1536.16,4563.47C1537.07,4566.2 1540.03,4567.67 1542.75,4566.76ZM5441.88,4554.03C5442.97,4555.81 5445.09,4556.83 5447.27,4556.43C5450.09,4555.91 5451.97,4553.19 5451.44,4550.36C5450.73,4546.48 5448.28,4544.43 5444.58,4543.74C5442.8,4543.41 5440.53,4543.52 5438.16,4543.85C5435.84,4544.18 5433.37,4544.78 5431.51,4544.71C5409.54,4543.91 5387.62,4542.03 5365.62,4541.67C5288.03,4540.4 5210.73,4544.43 5133.15,4541.61C5130.28,4541.5 5127.86,4543.75 5127.75,4546.62C5127.65,4549.5 5129.9,4551.91 5132.77,4552.02C5210.42,4554.84 5287.79,4550.81 5365.45,4552.08C5387.38,4552.44 5409.23,4554.32 5431.14,4555.12C5433.17,4555.19 5435.8,4554.76 5438.38,4554.35C5439.42,4554.19 5440.95,4554.08 5441.88,4554.03ZM1548.71,4543.72C1549.45,4543.78 1550.54,4543.88 1551.3,4544.02C1554.13,4544.55 1557.12,4545.22 1559.39,4545.22C1581.32,4545.22 1603.22,4544.13 1625.15,4544.57C1702.81,4546.12 1779.98,4552.97 1857.68,4552.97C1860.55,4552.97 1862.89,4550.63 1862.89,4547.76C1862.89,4544.88 1860.55,4542.55 1857.68,4542.55C1780.05,4542.55 1702.94,4535.71 1625.35,4534.16C1603.35,4533.72 1581.39,4534.8 1559.39,4534.8C1557.54,4534.8 1555.09,4534.11 1552.78,4533.7C1550.42,4533.28 1548.17,4533.1 1546.38,4533.36C1542.65,4533.91 1540.13,4535.87 1539.27,4539.73C1538.65,4542.54 1540.42,4545.32 1543.23,4545.94C1545.4,4546.43 1547.55,4545.48 1548.71,4543.72ZM1555.66,4522.97C1585.17,4531.01 1642,4524.03 1674.78,4525.2C1731.23,4527.22 1787.37,4534.56 1843.91,4536.82C1846.78,4536.94 1849.21,4534.7 1849.32,4531.83C1849.44,4528.95 1847.2,4526.53 1844.33,4526.41C1787.77,4524.15 1731.61,4516.81 1675.15,4514.79C1643.02,4513.64 1587.32,4520.8 1558.4,4512.92C1555.62,4512.16 1552.76,4513.8 1552,4516.57C1551.25,4519.35 1552.89,4522.21 1555.66,4522.97ZM5433.31,4522.87C5404.11,4529.7 5348.71,4520.52 5316.56,4520.5C5260.06,4520.47 5203.68,4525.76 5147.07,4525.97C5144.2,4525.98 5141.88,4528.32 5141.89,4531.19C5141.9,4534.07 5144.24,4536.39 5147.11,4536.38C5203.7,4536.18 5260.07,4530.88 5316.56,4530.92C5349.36,4530.94 5405.89,4539.98 5435.68,4533.02C5438.48,4532.36 5440.22,4529.56 5439.56,4526.76C5438.91,4523.96 5436.11,4522.22 5433.31,4522.87ZM5423.44,4505.18C5421.71,4505.08 5418.84,4504.89 5417.7,4504.8C5407.12,4503.93 5407.79,4503.23 5397.24,4502.12C5369.97,4499.27 5342.37,4497.02 5314.94,4496.54C5244.19,4495.3 5172.05,4494.11 5101.4,4497.18C5098.53,4497.31 5096.3,4499.74 5096.42,4502.61C5096.55,4505.48 5098.98,4507.72 5101.85,4507.59C5172.29,4504.53 5244.21,4505.72 5314.76,4506.95C5341.89,4507.43 5369.18,4509.66 5396.15,4512.48C5406.82,4513.6 5406.15,4514.31 5416.85,4515.18C5418.6,4515.33 5422.55,4515.67 5424.48,4515.69C5425.63,4515.7 5426.47,4515.56 5426.86,4515.45C5429.83,4514.64 5430.52,4512.44 5430.72,4511.22C5430.85,4510.46 5431.31,4506.6 5426.64,4505.15C5425.56,4504.81 5424.44,4504.85 5423.44,4505.18ZM5423.22,4514.98L5423.24,4514.99L5423.18,4514.96L5423.22,4514.98ZM1568.9,4495.6C1567.91,4495.22 1566.8,4495.15 1565.7,4495.45C1560.98,4496.73 1561.31,4500.6 1561.4,4501.36C1561.56,4502.6 1562.17,4504.82 1565.11,4505.73C1565.5,4505.86 1566.33,4506.03 1567.48,4506.06C1569.41,4506.11 1573.37,4505.91 1575.13,4505.83C1585.85,4505.34 1585.2,4504.62 1595.9,4503.89C1622.96,4502.04 1650.32,4500.8 1677.45,4501.32C1747.99,4502.65 1819.91,4504.07 1890.19,4509.69C1893.06,4509.92 1895.57,4507.78 1895.8,4504.92C1896.03,4502.05 1893.88,4499.54 1891.02,4499.31C1820.53,4493.67 1748.4,4492.23 1677.64,4490.9C1650.21,4490.38 1622.55,4491.63 1595.2,4493.49C1584.61,4494.22 1585.26,4494.94 1574.65,4495.42C1573.51,4495.48 1570.63,4495.55 1568.9,4495.6ZM1568.81,4505.38L1568.74,4505.4L1568.77,4505.39L1568.81,4505.38ZM5411.3,4480.84C5408.45,4480.72 5403.74,4480.38 5401.55,4480.3C5393.38,4480.01 5385.21,4479.71 5377.04,4479.41C5355.73,4478.64 5334.25,4478.42 5312.93,4478.38C5246.4,4478.25 5179.98,4481.29 5113.46,4478.87C5110.59,4478.77 5108.17,4481.01 5108.07,4483.89C5107.97,4486.76 5110.21,4489.18 5113.09,4489.28C5179.72,4491.7 5246.26,4488.67 5312.91,4488.79C5334.11,4488.83 5355.47,4489.05 5376.66,4489.82C5384.83,4490.12 5393,4490.42 5401.18,4490.71C5404.46,4490.83 5412.95,4491.39 5414.15,4491.24C5418.02,4490.74 5418.65,4487.64 5418.78,4486.73C5418.84,4486.27 5419.12,4481.73 5413.87,4480.7C5412.99,4480.52 5412.11,4480.58 5411.3,4480.84ZM1581.91,4471.71C1581.12,4471.43 1580.24,4471.33 1579.35,4471.47C1574.08,4472.31 1574.18,4476.87 1574.23,4477.33C1574.32,4478.24 1574.84,4481.36 1578.69,4482C1579.89,4482.2 1588.39,4481.95 1591.68,4481.95L1616.21,4481.95C1637.41,4481.95 1658.77,4482.51 1679.95,4483.23C1746.56,4485.53 1812.95,4490.99 1879.63,4490.99C1882.5,4490.99 1884.84,4488.65 1884.84,4485.78C1884.84,4482.9 1882.5,4480.57 1879.63,4480.57C1813.07,4480.57 1746.8,4475.12 1680.31,4472.82C1659.01,4472.09 1637.53,4471.53 1616.21,4471.53L1591.68,4471.53C1589.49,4471.53 1584.77,4471.69 1581.91,4471.71ZM5405.36,4462.49C5405.22,4462.51 5403.1,4462.73 5401.24,4462.74C5397.08,4462.76 5391.1,4462.47 5384.1,4462C5356.26,4460.1 5312.77,4455.26 5303.07,4454.76C5233.73,4451.15 5163.52,4455.31 5094.08,4455.56C5091.2,4455.57 5088.88,4457.91 5088.89,4460.78C5088.9,4463.66 5091.24,4465.98 5094.11,4465.97C5163.36,4465.72 5233.38,4461.56 5302.53,4465.16C5313.61,4465.74 5368.8,4471.98 5394.36,4473.01C5401.78,4473.31 5407.04,4472.97 5408.82,4472.32C5411.52,4471.33 5412.9,4468.33 5411.91,4465.63C5410.93,4462.98 5408.02,4461.6 5405.36,4462.49ZM1588.52,4453.59C1585.89,4452.6 1582.93,4453.88 1581.86,4456.49C1580.77,4459.15 1582.05,4462.2 1584.71,4463.29C1586.46,4464.01 1591.71,4464.53 1599.13,4464.5C1624.71,4464.4 1680.09,4460.17 1691.19,4459.99C1760.42,4458.91 1830.24,4465.62 1899.43,4468.39C1902.31,4468.5 1904.73,4466.26 1904.85,4463.39C1904.96,4460.52 1902.72,4458.09 1899.85,4457.98C1830.46,4455.2 1760.45,4448.49 1691.02,4449.58C1681.31,4449.73 1637.68,4452.99 1609.78,4453.87C1602.77,4454.09 1596.78,4454.16 1592.63,4453.99C1590.77,4453.91 1588.66,4453.61 1588.52,4453.59ZM5389.3,4450.36C5390.66,4451.74 5392.74,4452.31 5394.69,4451.65C5397.53,4450.68 5398.37,4448.94 5398.69,4448.07C5399.47,4446.01 5399.36,4443.68 5396.8,4441.77C5396.21,4441.33 5394.99,4440.71 5393.23,4440.34C5390.12,4439.68 5383.74,4439.2 5380.86,4438.87C5371.37,4437.76 5372.02,4438.16 5361.9,4437.52C5335.18,4435.82 5308.61,4433.64 5281.83,4432.66C5214.87,4430.23 5148.07,4431.67 5081.03,4429.24C5078.15,4429.13 5075.74,4431.38 5075.63,4434.25C5075.53,4437.12 5077.78,4439.54 5080.65,4439.65C5147.69,4442.08 5214.49,4440.64 5281.45,4443.07C5308.14,4444.04 5334.61,4446.22 5361.24,4447.91C5371.07,4448.53 5370.43,4448.14 5379.66,4449.21C5381.6,4449.44 5386.46,4450.02 5389.3,4450.36ZM1605.01,4442.05C1607.86,4441.82 1612.74,4441.41 1614.69,4441.26C1623.94,4440.52 1623.3,4440.89 1633.14,4440.62C1659.82,4439.9 1686.35,4438.69 1713.06,4438.69C1780.06,4438.69 1846.76,4442.56 1913.85,4442.56C1916.72,4442.56 1919.06,4440.23 1919.06,4437.36C1919.06,4434.48 1916.72,4432.15 1913.85,4432.15C1846.76,4432.15 1780.06,4428.27 1713.06,4428.27C1686.26,4428.27 1659.63,4429.49 1632.86,4430.21C1622.72,4430.49 1623.39,4430.11 1613.86,4430.87C1610.97,4431.1 1604.58,4431.34 1601.45,4431.89C1599.67,4432.2 1598.43,4432.78 1597.83,4433.2C1595.2,4435.01 1595.01,4437.34 1595.7,4439.42C1596,4440.3 1596.78,4442.07 1599.58,4443.14C1601.51,4443.88 1603.6,4443.38 1605.01,4442.05ZM5378.14,4431.43C5379.47,4433.1 5381.77,4433.84 5383.91,4433.1C5386.61,4432.17 5387.45,4430.46 5387.8,4429.47C5388.43,4427.66 5388.31,4425.69 5386.56,4423.85C5386.02,4423.28 5384.91,4422.46 5383.23,4421.89C5380.57,4420.99 5375.05,4420.12 5372.51,4419.83C5361,4418.48 5361.46,4418.81 5349.5,4417.07C5320.8,4412.89 5292.32,4410.93 5263.38,4409.38C5190.61,4405.48 5118.16,4411.2 5045.6,4408.57C5042.73,4408.46 5040.31,4410.71 5040.21,4413.58C5040.1,4416.45 5042.35,4418.87 5045.22,4418.98C5117.72,4421.61 5190.11,4415.88 5262.82,4419.78C5291.44,4421.32 5319.62,4423.24 5348,4427.37C5360.11,4429.14 5359.64,4428.81 5371.31,4430.17C5372.7,4430.34 5376.01,4430.99 5378.14,4431.43ZM1616.86,4423.53C1619,4423.18 1622.33,4422.64 1623.73,4422.53C1635.43,4421.6 1634.95,4421.9 1647.12,4420.58C1675.63,4417.48 1703.86,4416.59 1732.51,4416.09C1805.32,4414.84 1877.46,4423.19 1950,4423.19C1952.88,4423.19 1955.21,4420.86 1955.21,4417.99C1955.21,4415.11 1952.88,4412.78 1950,4412.78C1877.4,4412.78 1805.2,4404.42 1732.34,4405.68C1703.36,4406.18 1674.83,4407.09 1645.99,4410.23C1633.98,4411.53 1634.45,4411.22 1622.9,4412.15C1620.35,4412.35 1614.81,4413.02 1612.12,4413.82C1610.41,4414.33 1609.28,4415.11 1608.71,4415.66C1606.9,4417.44 1606.71,4419.4 1607.27,4421.23C1607.59,4422.23 1608.36,4423.97 1611.02,4425C1613.14,4425.82 1615.46,4425.16 1616.86,4423.53ZM5365.49,4396.37L5364.9,4396.29C5350.93,4394.84 5337.04,4392.94 5323.07,4391.53C5299.08,4389.12 5275.22,4387.42 5251.1,4386.97C5175.99,4385.56 5100.49,4393.76 5025.56,4391.04C5022.69,4390.93 5020.27,4393.18 5020.17,4396.05C5020.07,4398.93 5022.31,4401.34 5025.19,4401.45C5100.17,4404.18 5175.74,4395.97 5250.9,4397.38C5274.74,4397.83 5298.32,4399.52 5322.02,4401.9C5335.99,4403.3 5349.86,4405.21 5363.83,4406.65C5364.23,4406.69 5365.45,4406.92 5366.47,4406.91C5367.7,4406.9 5368.8,4406.62 5369.62,4406.21C5371.4,4405.33 5372.49,4403.9 5372.81,4401.94C5373.28,4399.1 5371.35,4396.42 5368.51,4395.96C5367.44,4395.78 5366.4,4395.95 5365.49,4396.37ZM1630.77,4388.96C1629.87,4388.51 1628.84,4388.3 1627.77,4388.44C1624.91,4388.8 1622.89,4391.41 1623.25,4394.26C1623.5,4396.23 1624.53,4397.71 1626.28,4398.65C1627.08,4399.08 1628.18,4399.41 1629.4,4399.46C1630.43,4399.51 1631.65,4399.32 1632.05,4399.3C1646.06,4398.36 1659.99,4396.96 1674,4396.07C1697.78,4394.55 1721.4,4393.72 1745.25,4394.14C1820.41,4395.46 1895.63,4406.41 1970.66,4406.41C1973.54,4406.41 1975.87,4404.07 1975.87,4401.2C1975.87,4398.32 1973.54,4395.99 1970.66,4395.99C1895.69,4395.99 1820.53,4385.04 1745.43,4383.73C1721.3,4383.3 1697.4,4384.14 1673.34,4385.67C1659.32,4386.57 1645.38,4387.97 1631.36,4388.9L1630.77,4388.96ZM5362.58,4400.01C5362.56,4400.09 5362.55,4400.17 5362.53,4400.26L5362.58,4400.01ZM5362.63,4399.8L5362.6,4399.91L5362.63,4399.78L5362.63,4399.8ZM5362.69,4399.58L5362.68,4399.6L5362.69,4399.57L5362.69,4399.58ZM1633.55,4392.71L1633.58,4392.96C1633.57,4392.87 1633.56,4392.79 1633.55,4392.71ZM1633.5,4392.47L1633.53,4392.61L1633.5,4392.49L1633.5,4392.47ZM1633.45,4392.27L1633.45,4392.29L1633.45,4392.27L1633.45,4392.27ZM5353.78,4386.63C5354.85,4387.68 5356.37,4388.27 5357.98,4388.1C5360.84,4387.81 5362.92,4385.24 5362.62,4382.39C5362.51,4381.36 5362.13,4380.2 5361.11,4379.09C5360.42,4378.33 5358.64,4377.11 5355.45,4376.17C5346.31,4373.48 5319.4,4369.7 5275.27,4367.17C5237.88,4365.03 5201.18,4368.34 5163.93,4367.65C5120.66,4366.85 5077.56,4363.86 5034.36,4362.29C5031.49,4362.18 5029.07,4364.43 5028.97,4367.3C5028.86,4370.18 5031.11,4372.59 5033.98,4372.7C5077.25,4374.27 5120.41,4377.26 5163.74,4378.06C5200.86,4378.75 5237.42,4375.44 5274.68,4377.57C5308.61,4379.52 5332.13,4382.17 5344.95,4384.49C5348.89,4385.2 5352.6,4386.27 5353.78,4386.63ZM5352.32,4383.89L5352.33,4383.9L5352.31,4383.84L5352.32,4383.89ZM5352.29,4383.7L5352.26,4383.46C5352.27,4383.54 5352.28,4383.62 5352.29,4383.7ZM1642.82,4379.65C1644.02,4379.34 1647.76,4378.41 1651.73,4377.84C1664.62,4375.98 1688.22,4374.19 1722.2,4373.48C1759.51,4372.7 1795.93,4377.34 1833.05,4378C1876.38,4378.77 1919.62,4377.36 1962.91,4377.36C1965.79,4377.36 1968.12,4375.02 1968.12,4372.15C1968.12,4369.27 1965.79,4366.94 1962.91,4366.94C1919.68,4366.94 1876.51,4368.36 1833.24,4367.58C1795.98,4366.92 1759.43,4362.28 1721.99,4363.07C1677.8,4363.99 1650.77,4366.79 1641.54,4369.14C1638.31,4369.96 1636.49,4371.12 1635.77,4371.85C1634.71,4372.92 1634.29,4374.07 1634.14,4375.09C1633.74,4377.94 1635.73,4380.57 1638.57,4380.98C1640.18,4381.2 1641.72,4380.67 1642.82,4379.65ZM1644.39,4376.91L1644.38,4376.98L1644.38,4376.97L1644.39,4376.91ZM1644.42,4376.78C1644.43,4376.7 1644.45,4376.62 1644.46,4376.54L1644.42,4376.78ZM5340.06,4366.74C5341.55,4368.16 5343.8,4368.63 5345.79,4367.73C5348.45,4366.55 5349.12,4364.76 5349.38,4363.8C5349.9,4361.82 5349.58,4359.73 5347.35,4358.04C5346.75,4357.57 5345.53,4356.95 5343.78,4356.62C5340.97,4356.08 5335.24,4355.89 5332.63,4355.7C5324.44,4355.09 5316.25,4354.64 5308.06,4354.15C5280.97,4352.55 5254.06,4352.93 5226.99,4353.15C5156.54,4353.71 5085.24,4348.36 5014.91,4351.91C5012.04,4352.05 5009.82,4354.5 5009.97,4357.37C5010.11,4360.24 5012.56,4362.46 5015.43,4362.31C5085.62,4358.77 5156.77,4364.13 5227.07,4363.56C5253.91,4363.35 5280.59,4362.96 5307.44,4364.55C5315.59,4365.03 5323.73,4365.49 5331.86,4366.08C5333.52,4366.21 5337.58,4366.54 5340.06,4366.74ZM1657.26,4360.28C1659.75,4360.16 1663.81,4359.98 1665.47,4359.92C1673.62,4359.62 1681.78,4359.46 1689.93,4359.28C1716.83,4358.66 1743.47,4360.02 1770.29,4361.21C1840.52,4364.33 1911.82,4361.56 1981.83,4367.65C1984.7,4367.9 1987.22,4365.78 1987.47,4362.91C1987.72,4360.05 1985.6,4357.52 1982.74,4357.27C1912.58,4351.17 1841.13,4353.93 1770.75,4350.8C1743.7,4349.6 1716.83,4348.24 1689.69,4348.86C1681.49,4349.05 1673.29,4349.21 1665.09,4349.51C1662.47,4349.61 1656.74,4349.6 1653.9,4350.02C1652.14,4350.29 1650.91,4350.87 1650.29,4351.31C1648,4352.92 1647.6,4355.01 1648.05,4357C1648.27,4357.97 1648.88,4359.78 1651.49,4361.06C1653.45,4362.02 1655.72,4361.65 1657.26,4360.28ZM5332.77,4341.94C5330.35,4341.51 5326.34,4340.82 5324.62,4340.69C5311.86,4339.73 5312.47,4339.28 5299.19,4338.49C5274.42,4337.01 5249.8,4333.95 5224.99,4332.61C5156.79,4328.93 5088.62,4331.47 5020.33,4328.98C5017.45,4328.88 5015.04,4331.12 5014.93,4334C5014.83,4336.87 5017.07,4339.28 5019.95,4339.39C5088.19,4341.87 5156.29,4339.34 5224.43,4343.01C5249.22,4344.35 5273.82,4347.41 5298.57,4348.89C5311.77,4349.68 5311.17,4350.13 5323.84,4351.08C5326.42,4351.27 5331.53,4352.64 5334.33,4352.71C5336.21,4352.76 5337.65,4352.32 5338.55,4351.82C5340.03,4350.99 5340.91,4349.79 5341.32,4348.38C5341.68,4347.15 5341.83,4345.39 5340.52,4343.25C5339.03,4340.8 5335.82,4340.02 5333.37,4341.51C5333.15,4341.64 5332.95,4341.79 5332.77,4341.94ZM1665.45,4335.76C1665.27,4335.6 1665.07,4335.45 1664.87,4335.31C1662.47,4333.73 1659.23,4334.39 1657.65,4336.79C1656.27,4338.88 1656.35,4340.64 1656.66,4341.88C1657.03,4343.31 1657.86,4344.54 1659.31,4345.42C1660.19,4345.96 1661.62,4346.44 1663.5,4346.46C1666.29,4346.49 1671.45,4345.31 1674.04,4345.21C1686.74,4344.72 1686.15,4344.25 1699.37,4343.94C1724.16,4343.37 1748.85,4341.2 1773.67,4340.77C1841.91,4339.57 1909.87,4344.58 1978.15,4344.58C1981.03,4344.58 1983.36,4342.25 1983.36,4339.37C1983.36,4336.5 1981.03,4334.16 1978.15,4334.16C1909.81,4334.16 1841.78,4329.15 1773.49,4330.35C1748.65,4330.79 1723.94,4332.95 1699.13,4333.53C1685.83,4333.84 1686.42,4334.31 1673.64,4334.8C1671.91,4334.87 1667.88,4335.41 1665.45,4335.76ZM5320.48,4331.08L5320.68,4331.11C5322.85,4331.44 5330.34,4322.45 5322.17,4320.81C5321.17,4320.67 5320.2,4320.82 5319.34,4321.2C5320,4320.8 5320.91,4320.63 5322.16,4320.81L5322.17,4320.81L5322.22,4320.81L5322.16,4320.81L5321.84,4320.75C5318.22,4320.13 5296.17,4316.49 5292.06,4316C5263.07,4312.52 5233.2,4312.57 5204.05,4311.51C5128.91,4308.77 5053.69,4311.12 4978.48,4308.39C4975.61,4308.28 4973.19,4310.53 4973.09,4313.4C4972.98,4316.27 4975.23,4318.69 4978.1,4318.8C5053.32,4321.53 5128.53,4319.18 5203.68,4321.91C5232.54,4322.97 5262.12,4322.89 5290.81,4326.34C5294.86,4326.82 5316.54,4330.41 5320.11,4331.02L5320.48,4331.08ZM1676.82,4315.02L1676.76,4315.03L1676.81,4315.02L1676.82,4315.02C1677.84,4314.92 1678.47,4315.09 1678.72,4315.18C1678.12,4315.02 1677.47,4314.96 1676.81,4315.02C1668.58,4316.37 1675.74,4325.63 1677.92,4325.38L1678.12,4325.35L1678.5,4325.3C1682.08,4324.83 1703.88,4322.03 1707.94,4321.69C1736.74,4319.29 1766.3,4320.44 1795.18,4320.44C1870.38,4320.44 1945.46,4325.52 2020.72,4325.52C2023.59,4325.52 2025.93,4323.19 2025.93,4320.31C2025.93,4317.44 2023.59,4315.11 2020.72,4315.11C1945.46,4315.11 1870.38,4310.02 1795.18,4310.02C1766.01,4310.02 1736.16,4308.89 1707.08,4311.31C1702.95,4311.65 1680.78,4314.49 1677.13,4314.98L1676.82,4315.02ZM1681.23,4323.67C1680.87,4324.07 1680.46,4324.41 1679.99,4324.69C1680.56,4324.36 1680.95,4323.99 1681.23,4323.67ZM1679.65,4315.54C1680.64,4316.03 1681.45,4316.82 1681.97,4317.81C1681.59,4317.01 1680.92,4316.13 1679.65,4315.54ZM5310.2,4300.73C5290.16,4300.67 5264.8,4293.11 5243.64,4291.97C5204.71,4289.87 5165.94,4291.34 5127,4291.54C5077.67,4291.8 5028.53,4287.96 4979.29,4286.16C4976.42,4286.06 4974,4288.31 4973.9,4291.18C4973.79,4294.05 4976.04,4296.47 4978.91,4296.57C5028.29,4298.37 5077.58,4302.22 5127.06,4301.96C5165.78,4301.75 5204.35,4300.28 5243.07,4302.37C5264.4,4303.52 5289.97,4311.09 5310.17,4311.15C5313.04,4311.16 5315.39,4308.83 5315.39,4305.96C5315.4,4303.08 5313.08,4300.74 5310.2,4300.73ZM1689.15,4305.81C1709.34,4306.48 1735.16,4299.85 1756.52,4299.47C1795.29,4298.79 1833.78,4301.67 1872.47,4303.28C1921.91,4305.34 1971.3,4303.28 2020.72,4303.28C2023.59,4303.28 2025.93,4300.95 2025.93,4298.08C2025.93,4295.2 2023.59,4292.87 2020.72,4292.87C1971.45,4292.87 1922.2,4294.93 1872.91,4292.87C1834.01,4291.25 1795.32,4288.37 1756.34,4289.06C1735.14,4289.43 1709.53,4296.07 1689.5,4295.4C1686.62,4295.3 1684.21,4297.56 1684.12,4300.43C1684.02,4303.31 1686.28,4305.72 1689.15,4305.81ZM5298.66,4283.59C5297.69,4282.75 5296.14,4281.84 5294.03,4281.05C5290.61,4279.76 5285.23,4278.54 5278.85,4277.45C5258.83,4274.02 5228.33,4271.67 5220.55,4270.8C5161.87,4264.22 5102.75,4268.19 5043.89,4268.81C5015.07,4269.11 4986.56,4266.09 4957.81,4265.04C4954.93,4264.94 4952.52,4267.18 4952.41,4270.06C4952.31,4272.93 4954.56,4275.35 4957.43,4275.45C4986.34,4276.5 5015.01,4279.53 5043.99,4279.23C5102.43,4278.62 5161.13,4274.61 5219.39,4281.15C5227.09,4282.01 5257.28,4284.32 5277.1,4287.71C5281.94,4288.54 5286.13,4289.42 5289.14,4290.38C5290.38,4290.77 5291.35,4291.04 5291.85,4291.47C5294.02,4293.35 5297.31,4293.11 5299.19,4290.93C5301.07,4288.76 5300.83,4285.47 5298.66,4283.59ZM1708.18,4286.81C1708.69,4286.4 1709.67,4286.17 1710.92,4285.82C1713.97,4284.97 1718.19,4284.24 1723.05,4283.59C1742.98,4280.92 1773.23,4279.71 1780.96,4279.13C1839.42,4274.72 1897.93,4280.85 1956.31,4283.58C1985.26,4284.94 2014.03,4282.95 2042.96,4282.95C2045.83,4282.95 2048.16,4280.62 2048.16,4277.75C2048.16,4274.87 2045.83,4272.54 2042.96,4272.54C2014.19,4272.54 1985.59,4274.53 1956.8,4273.18C1898,4270.42 1839.06,4264.3 1780.18,4268.74C1772.37,4269.33 1741.81,4270.57 1721.67,4273.27C1715.26,4274.12 1709.84,4275.16 1706.37,4276.32C1704.24,4277.03 1702.66,4277.88 1701.66,4278.68C1699.41,4280.48 1699.06,4283.76 1700.86,4286C1702.65,4288.24 1705.94,4288.61 1708.18,4286.81ZM5276.31,4271.06C5277.44,4272.33 5279.17,4273.02 5280.98,4272.75C5283.82,4272.32 5285.78,4269.66 5285.35,4266.82C5285.18,4265.68 5284.65,4264.38 5283.34,4263.22C5282.28,4262.27 5279.57,4260.97 5275.53,4259.97C5261.03,4256.38 5224.94,4252.65 5218.4,4252.27C5142,4247.86 5065.6,4245.44 4989.14,4242.66C4986.26,4242.55 4983.85,4244.8 4983.74,4247.67C4983.64,4250.55 4985.89,4252.96 4988.76,4253.07C5065.15,4255.85 5141.48,4258.27 5217.8,4262.67C5224.77,4263.07 5266.99,4267.31 5276.31,4271.06ZM1724.45,4266.98C1733.89,4263.57 1776.24,4260.87 1783.22,4260.72C1859.65,4259.09 1936.02,4259.45 2012.46,4259.45C2015.34,4259.45 2017.67,4257.11 2017.67,4254.24C2017.67,4251.36 2015.34,4249.03 2012.46,4249.03C1935.94,4249.03 1859.51,4248.68 1783,4250.3C1776.45,4250.44 1740.25,4252.86 1725.63,4255.92C1721.56,4256.78 1718.8,4257.97 1717.7,4258.88C1716.35,4260 1715.78,4261.28 1715.57,4262.41C1715.03,4265.23 1716.89,4267.96 1719.72,4268.49C1721.51,4268.83 1723.27,4268.2 1724.45,4266.98ZM5266.73,4253.43C5267.75,4254.53 5269.23,4255.19 5270.85,4255.1C5274.8,4254.87 5275.84,4252.07 5276.11,4251.03C5276.44,4249.74 5276.73,4247.25 5273.89,4245.26C5273.34,4244.88 5271.93,4244.18 5269.45,4243.37C5265.46,4242.08 5257.68,4239.94 5245.37,4236.84C5219.99,4230.42 5195.68,4227.92 5169.62,4226.97C5094.15,4224.23 5018.42,4224.65 4942.85,4221.9C4939.97,4221.8 4937.56,4224.04 4937.45,4226.92C4937.35,4229.79 4939.6,4232.21 4942.47,4232.31C5018.04,4235.06 5093.77,4234.64 5169.24,4237.38C5194.55,4238.3 5218.17,4240.71 5242.82,4246.94C5255.52,4250.14 5263.2,4252.23 5266.73,4253.43ZM1734.66,4249.71C1738.23,4248.64 1745.98,4246.83 1758.79,4244.09C1783.65,4238.76 1807.34,4237.21 1832.67,4237.21C1908.19,4237.21 1983.85,4240.39 2059.47,4240.39C2062.35,4240.39 2064.68,4238.06 2064.68,4235.18C2064.68,4232.31 2062.35,4229.97 2059.47,4229.97C1983.85,4229.97 1908.19,4226.8 1832.67,4226.8C1806.59,4226.8 1782.21,4228.41 1756.61,4233.9C1744.19,4236.56 1736.34,4238.41 1732.3,4239.56C1729.8,4240.27 1728.36,4240.92 1727.8,4241.28C1724.89,4243.17 1725.09,4245.67 1725.37,4246.97C1725.6,4248.02 1726.54,4250.85 1730.48,4251.22C1732.09,4251.37 1733.6,4250.77 1734.66,4249.71ZM5258.76,4233.13C5258.89,4233.19 5259.02,4233.25 5259.15,4233.3C5261.85,4234.28 5264.85,4232.89 5265.83,4230.19C5266.37,4228.72 5266.67,4226.55 5264.42,4224.52C5264.22,4224.33 5263.04,4223.48 5260.73,4222.87C5251.58,4220.48 5204.29,4210.63 5190.28,4209.3C5138.22,4204.33 5104.14,4209.71 5054.67,4212C5018.41,4213.68 4981.48,4209.96 4945.24,4208.64C4942.36,4208.53 4939.95,4210.78 4939.84,4213.65C4939.74,4216.52 4941.98,4218.94 4944.86,4219.05C4981.39,4220.38 5018.61,4224.1 5055.15,4222.4C5104.08,4220.14 5137.79,4214.75 5189.29,4219.66C5202.97,4220.97 5249.16,4230.61 5258.1,4232.95C5258.33,4233.01 5258.59,4233.08 5258.76,4233.13ZM5257.09,4231.9C5255.83,4230.52 5255.36,4228.49 5256.05,4226.61C5255.55,4227.99 5255.25,4229.99 5257.09,4231.9ZM1743.36,4229.71C1743.54,4229.67 1743.79,4229.61 1744.03,4229.56C1753.05,4227.55 1799.55,4219.59 1813.28,4218.78C1864.92,4215.74 1898.41,4222.35 1947.23,4226.39C1983.68,4229.41 2021.02,4227.05 2057.57,4227.05C2060.44,4227.05 2062.78,4224.71 2062.78,4221.84C2062.78,4218.96 2060.44,4216.63 2057.57,4216.63C2021.3,4216.63 1984.26,4219.01 1948.09,4216.01C1898.74,4211.92 1864.87,4205.31 1812.66,4208.38C1798.62,4209.21 1751,4217.33 1741.76,4219.39C1739.44,4219.9 1738.23,4220.72 1738.02,4220.9C1735.7,4222.84 1735.91,4225.03 1736.4,4226.52C1737.29,4229.25 1740.23,4230.75 1742.96,4229.86C1743.1,4229.82 1743.23,4229.77 1743.36,4229.71ZM1745.42,4228.15C1746.86,4226.43 1746.76,4224.68 1746.31,4223.3C1746.87,4225.02 1746.48,4226.83 1745.42,4228.15ZM5243.03,4213.19C5243.81,4214.88 5245.47,4216.08 5247.45,4216.19C5250.32,4216.36 5252.79,4214.16 5252.95,4211.29C5253.09,4208.68 5252.41,4207.16 5251.6,4206.08C5250.67,4204.85 5249.08,4203.79 5245.73,4203.11C5223.05,4198.48 5199.35,4196.52 5176.4,4193.55C5090.4,4182.42 5003.94,4190.34 4917.71,4184.12C4914.84,4183.91 4912.34,4186.07 4912.14,4188.94C4911.93,4191.8 4914.09,4194.3 4916.96,4194.51C5002.99,4200.72 5089.26,4192.77 5175.07,4203.88C5197.56,4206.79 5220.78,4208.7 5243.03,4213.19ZM1759.81,4210.36C1782.2,4206.67 1805.48,4205.61 1828.06,4203.52C1914.21,4195.54 2000.14,4206.62 2086.34,4203.54C2089.22,4203.43 2091.47,4201.02 2091.36,4198.15C2091.26,4195.27 2088.84,4193.02 2085.97,4193.13C1999.57,4196.21 1913.45,4185.15 1827.1,4193.15C1804.06,4195.28 1780.31,4196.38 1757.48,4200.18C1754.1,4200.74 1752.47,4201.74 1751.51,4202.94C1750.65,4203.99 1749.91,4205.48 1749.97,4208.09C1750.02,4210.97 1752.4,4213.25 1755.27,4213.2C1757.26,4213.16 1758.97,4212.01 1759.81,4210.36ZM5227.25,4193.7C5228.32,4195.14 5230.1,4195.99 5232.01,4195.78C5234.87,4195.46 5236.93,4192.88 5236.61,4190.03C5236.41,4188.2 5235.05,4185.69 5231.6,4184.18C5226.77,4182.04 5215.03,4180.66 5213.57,4180.34C5193.55,4175.94 5173.94,4172.14 5153.48,4170.44C5067.2,4163.28 4980.91,4172.37 4894.9,4165.49C4892.04,4165.26 4889.52,4167.4 4889.29,4170.27C4889.07,4173.13 4891.21,4175.64 4894.07,4175.87C4980.07,4182.75 5066.35,4173.66 5152.62,4180.83C5172.62,4182.49 5191.77,4186.22 5211.34,4190.51C5212.27,4190.72 5217.66,4191.34 5222.48,4192.34C5224.13,4192.68 5226.33,4193.39 5227.25,4193.7ZM1776.28,4191.45C1777.21,4191.18 1779.44,4190.55 1781.1,4190.26C1785.95,4189.44 1791.36,4189.02 1792.3,4188.84C1812.01,4185.26 1831.29,4182.23 1851.33,4181.3C1937.81,4177.28 2023.69,4189.49 2109.89,4185.75C2112.76,4185.62 2114.99,4183.19 2114.87,4180.32C2114.74,4177.44 2112.31,4175.22 2109.44,4175.34C2023.23,4179.09 1937.33,4166.87 1850.85,4170.89C1830.34,4171.85 1810.61,4174.93 1790.44,4178.6C1788.97,4178.86 1777.18,4179.82 1772.28,4181.77C1768.79,4183.17 1767.33,4185.63 1767.06,4187.44C1766.64,4190.28 1768.61,4192.93 1771.45,4193.35C1773.35,4193.64 1775.16,4192.85 1776.28,4191.45ZM5226.46,4192.15L5226.47,4192.18L5226.43,4192.04L5226.46,4192.15ZM5226.37,4191.82L5226.4,4191.93L5226.35,4191.71L5226.37,4191.82ZM5226.31,4191.49L5226.34,4191.68L5226.3,4191.45L5226.31,4191.49ZM1777.16,4189.83L1777.12,4189.95L1777.12,4189.93L1777.16,4189.83ZM1777.26,4189.49L1777.2,4189.71L1777.23,4189.61L1777.26,4189.49ZM1777.32,4189.23L1777.27,4189.46L1777.31,4189.28L1777.32,4189.23ZM5219.82,4165.42C5141.68,4147.81 5067,4151.15 4987.2,4151.04C4955.69,4151 4924.35,4146.21 4892.88,4145.07C4890,4144.96 4887.59,4147.21 4887.48,4150.08C4887.38,4152.95 4889.62,4155.37 4892.5,4155.48C4924.1,4156.62 4955.55,4161.42 4987.19,4161.46C5066.2,4161.56 5140.16,4158.15 5217.52,4175.58C5220.33,4176.22 5223.12,4174.45 5223.75,4171.65C5224.38,4168.84 5222.62,4166.05 5219.82,4165.42ZM1786.66,4173.7C1864.61,4159.09 1938.39,4165.19 2017.36,4167.96C2048.97,4169.07 2080.59,4165.42 2112.21,4165.42C2115.08,4165.42 2117.41,4163.09 2117.41,4160.21C2117.41,4157.34 2115.08,4155 2112.21,4155C2080.71,4155 2049.22,4158.65 2017.73,4157.55C1937.98,4154.75 1863.46,4148.71 1784.74,4163.46C1781.92,4163.99 1780.05,4166.72 1780.58,4169.54C1781.11,4172.37 1783.84,4174.23 1786.66,4173.7ZM5198.59,4154.57C5199.95,4155.97 5202.05,4156.55 5204.02,4155.87C5206.88,4154.89 5207.61,4152.96 5207.88,4151.9C5208.3,4150.22 5208.17,4148.21 5206.11,4146.44C5205.62,4146.01 5204.64,4145.38 5203.1,4144.9C5200.69,4144.15 5195.34,4143.2 5189.51,4141.95C5176.15,4139.09 5176.77,4139.02 5163.51,4136.53C5140.98,4132.31 5118.55,4129.75 5095.63,4128.92C5055.13,4127.45 5014.24,4131.7 4973.74,4132.76C4938.87,4133.67 4903.5,4130.83 4868.65,4129.56C4865.77,4129.46 4863.36,4131.71 4863.25,4134.58C4863.15,4137.45 4865.39,4139.87 4868.27,4139.97C4903.34,4141.25 4938.93,4144.09 4974.01,4143.17C5014.3,4142.12 5054.97,4137.86 5095.25,4139.33C5117.65,4140.14 5139.57,4142.64 5161.59,4146.77C5174.72,4149.23 5174.1,4149.3 5187.33,4152.14C5191.41,4153.01 5196.15,4154.03 5198.59,4154.57ZM1806.35,4153.38C1808.81,4152.94 1813.58,4152.09 1817.69,4151.36C1831.01,4149.01 1830.4,4148.92 1843.6,4146.94C1865.76,4143.62 1887.76,4141.91 1910.17,4141.91C1950.48,4141.91 1990.97,4147.65 2031.19,4150.16C2066.22,4152.35 2101.89,4150.81 2136.98,4150.81C2139.86,4150.81 2142.19,4148.48 2142.19,4145.6C2142.19,4142.73 2139.86,4140.39 2136.98,4140.39C2102.1,4140.39 2066.65,4141.94 2031.85,4139.77C1991.41,4137.24 1950.7,4131.5 1910.17,4131.5C1887.24,4131.5 1864.73,4133.24 1842.06,4136.64C1828.72,4138.64 1829.34,4138.73 1815.88,4141.11C1810.01,4142.14 1804.62,4142.9 1802.2,4143.56C1800.64,4143.98 1799.63,4144.58 1799.12,4144.99C1797,4146.68 1796.8,4148.69 1797.16,4150.38C1797.39,4151.45 1798.05,4153.41 1800.87,4154.49C1802.82,4155.24 1804.94,4154.74 1806.35,4153.38ZM5200.05,4146.26C5199.99,4146.29 5199.94,4146.32 5199.88,4146.35L5199.73,4146.43L5199.91,4146.33L5200.14,4146.22L5200.05,4146.26ZM5200.24,4146.18L5200.15,4146.22L5200.37,4146.12L5200.24,4146.18ZM5200.4,4146.11L5200.64,4146.02C5200.56,4146.05 5200.48,4146.08 5200.4,4146.11ZM1805.33,4145.11L1805.5,4145.22L1805.36,4145.13C1805.3,4145.1 1805.24,4145.06 1805.19,4145.03L1805.1,4144.99L1805.33,4145.11ZM1804.88,4144.88L1805.09,4144.98L1805.01,4144.94L1804.88,4144.88ZM1804.85,4144.87C1804.77,4144.83 1804.69,4144.8 1804.61,4144.77L1804.85,4144.87ZM5189.96,4124.25C5162.17,4120.61 5134.47,4114.06 5105.94,4112.13C5029.89,4106.98 4935.59,4112.37 4862.49,4114.57C4859.62,4114.65 4857.36,4117.06 4857.44,4119.93C4857.53,4122.8 4859.93,4125.07 4862.81,4124.98C4935.6,4122.79 5029.51,4117.4 5105.23,4122.52C5133.55,4124.44 5161.03,4130.96 5188.61,4134.58C5191.46,4134.95 5194.07,4132.94 5194.45,4130.09C5194.82,4127.24 5192.81,4124.62 5189.96,4124.25ZM1817.05,4133.77C1844.74,4131.16 1872.44,4125.65 1900.81,4124.76C1976.77,4122.38 2052.77,4131.11 2128.72,4131.11C2131.6,4131.11 2133.93,4128.78 2133.93,4125.91C2133.93,4123.03 2131.6,4120.7 2128.72,4120.7C2052.66,4120.7 1976.56,4111.97 1900.48,4114.35C1871.9,4115.24 1843.98,4120.77 1816.07,4123.4C1813.21,4123.67 1811.11,4126.21 1811.38,4129.08C1811.64,4131.94 1814.19,4134.04 1817.05,4133.77Z"/><path fill="#9489d8" d="M5038.88,4123.89L1924.27,4129.93L1544.89,4677.99L5306.39,4677.99L5038.88,4123.89Z" transform="matrix(.92968 0 0 1.02278 279.109 -106.567)"/></g><path fill="#f1bfab" d="M8774.71,8875.9C8774.71,8875.9 8846.89,8902.15 8834.99,9021.89C8834.99,9021.89 8825.17,9123.32 8765.44,9162.83C8765.44,9162.83 8703.1,9106.61 8698.97,9101.15C8694.84,9095.69 8774.71,8875.9 8774.71,8875.9Z"/><path fill="#4f5d77" d="M7633.89,8449.72C7633.89,8449.72 7266.05,8615.77 7346.19,8745.84L7370.22,8787.32C7370.22,8787.32 7273.99,8846.95 7393.98,9031.14C7393.98,9031.14 7458.77,9130.1 7672.87,9149.23C7672.87,9149.23 8518.49,9215.87 8655.98,9148.83L8269.53,8715.24L8028.98,8385.13L7945.13,8255.42L7738.76,8272.56L7633.89,8449.72Z"/><clipPath id="a"><path d="M7633.89,8449.72C7633.89,8449.72 7266.05,8615.77 7346.19,8745.84L7370.22,8787.32C7370.22,8787.32 7273.99,8846.95 7393.98,9031.14C7393.98,9031.14 7458.77,9130.1 7672.87,9149.23C7672.87,9149.23 8518.49,9215.87 8655.98,9148.83L8269.53,8715.24L8028.98,8385.13L7945.13,8255.42L7738.76,8272.56L7633.89,8449.72Z"/></clipPath><g clip-path="url(#a)"><path fill="#2f3c4c" d="M8368.62,9062.48L7624.55,9023.6C7624.55,9023.6 7858.39,9088.52 8101.28,9098.88C8101.28,9098.88 8357.7,9117.67 8465.47,9179.93C8465.47,9179.93 8637.39,9195.93 8651.44,9199.51C8665.5,9203.09 8675.95,9057.36 8675.95,9057.36L8368.62,9062.48ZM7337.42,8837.08C7337.42,8837.08 7382.64,8969.11 7570.21,8814.93C7570.21,8814.93 7667.69,8738.53 7745.65,8710.41C7745.65,8710.41 7886.86,8645.22 7946.27,8587.99L7859.78,8222.74C7859.78,8222.74 7333.95,8442.71 7324.28,8450.15C7314.61,8457.58 7252.58,8659.77 7252.58,8659.77L7337.42,8837.08Z"/></g><path fill="#f1bfab" d="M7576.55,8335.35C7576.55,8335.35 7536.8,8336.97 7503.03,8336.88C7503.03,8336.88 7477.03,8335.62 7440.1,8352.56L7352.78,8389.17C7352.78,8389.17 7279.52,8420.39 7295.91,8444.52C7295.91,8444.52 7305.73,8462.54 7352.49,8438.39C7352.49,8438.39 7412.88,8412.37 7445.45,8407.7C7445.45,8407.7 7384.41,8455.15 7433.12,8503.53C7433.12,8503.53 7443.29,8518.92 7466.38,8512.22C7466.38,8512.22 7541.63,8527.91 7539.8,8492.67C7539.8,8492.67 7539.53,8483.49 7527.23,8480.4C7527.23,8480.4 7544.16,8469.43 7575.33,8465.15C7575.33,8465.15 7605.61,8462.75 7634,8450.02L7661.9,8373.28L7576.55,8335.35Z"/><clipPath id="b"><path d="M7576.55,8335.35C7576.55,8335.35 7536.8,8336.97 7503.03,8336.88C7503.03,8336.88 7477.03,8335.62 7440.1,8352.56L7352.78,8389.17C7352.78,8389.17 7279.52,8420.39 7295.91,8444.52C7295.91,8444.52 7305.73,8462.54 7352.49,8438.39C7352.49,8438.39 7412.88,8412.37 7445.45,8407.7C7445.45,8407.7 7384.41,8455.15 7433.12,8503.53C7433.12,8503.53 7443.29,8518.92 7466.38,8512.22C7466.38,8512.22 7541.63,8527.91 7539.8,8492.67C7539.8,8492.67 7539.53,8483.49 7527.23,8480.4C7527.23,8480.4 7544.16,8469.43 7575.33,8465.15C7575.33,8465.15 7605.61,8462.75 7634,8450.02L7661.9,8373.28L7576.55,8335.35Z"/></clipPath><g clip-path="url(#b)"><path fill="#d0957e" d="M7493.13,8336.01C7493.13,8336.01 7575.41,8340.5 7619.79,8461.57L7680.45,8444.17L7595.36,8287.7L7484.48,8321.92L7493.13,8336.01ZM7501.19,8414.94C7501.19,8414.94 7459.61,8434.77 7457.12,8458.4C7457.12,8458.4 7496,8434.32 7505.83,8421.82C7505.83,8421.82 7505.14,8418.97 7501.19,8414.94Z"/><path fill="#d0957e" d="M7467.56,8520.94C7467.56,8520.94 7512.84,8497.45 7540.28,8483.34C7542.33,8482.28 7543.14,8479.77 7542.08,8477.73C7541.03,8475.68 7538.52,8474.87 7536.47,8475.93C7509.02,8490.05 7463.72,8513.54 7463.72,8513.54C7461.68,8514.6 7460.88,8517.12 7461.94,8519.16C7463,8521.2 7465.52,8522 7467.56,8520.94ZM7468.46,8439.5C7468.46,8439.5 7440.45,8461.4 7428.82,8481.69C7423.03,8491.8 7421.44,8501.64 7426.73,8508.94C7428.08,8510.8 7430.68,8511.22 7432.55,8509.87C7434.41,8508.52 7434.82,8505.91 7433.47,8504.05C7431.9,8501.88 7431.54,8499.33 7431.92,8496.58C7432.39,8493.18 7433.92,8489.55 7436.05,8485.84C7447.04,8466.67 7473.58,8446.08 7473.58,8446.08C7475.4,8444.67 7475.72,8442.05 7474.31,8440.23C7472.89,8438.42 7470.27,8438.09 7468.46,8439.5ZM7427.92,8419.72C7427.92,8419.72 7448.14,8414.18 7467.52,8413.95C7473.74,8413.88 7479.87,8414.35 7485.16,8415.8C7489.84,8417.08 7493.84,8419.1 7496.36,8422.42C7497.75,8424.25 7500.37,8424.6 7502.2,8423.21C7504.03,8421.82 7504.39,8419.2 7502.99,8417.37C7497.82,8410.56 7488.44,8407.1 7477.65,8406.03C7454.82,8403.75 7425.72,8411.68 7425.72,8411.68C7423.5,8412.29 7422.2,8414.59 7422.8,8416.81C7423.41,8419.02 7425.71,8420.33 7427.92,8419.72Z"/></g><path fill="#f1bfab" d="M7605.37,8534.14C7605.37,8534.14 7434.14,8587.95 7351.67,8728.77C7351.67,8728.77 7317.55,8761.42 7339.34,8784.92C7339.34,8784.92 7356.95,8800.46 7377.89,8782.75C7377.89,8782.75 7368.93,8796.6 7383.8,8810.91C7383.8,8810.91 7403.73,8823.51 7444.04,8791.82L7592.13,8680.66L7489.82,8798.88C7489.82,8798.88 7471.65,8817 7487.29,8832.71C7487.29,8832.71 7505.13,8847.09 7548.62,8804.3C7548.62,8804.3 7663.45,8702.7 7695.63,8689.32L7693.44,8588.48L7605.37,8534.14Z"/><clipPath id="c"><path d="M7605.37,8534.14C7605.37,8534.14 7434.14,8587.95 7351.67,8728.77C7351.67,8728.77 7317.55,8761.42 7339.34,8784.92C7339.34,8784.92 7356.95,8800.46 7377.89,8782.75C7377.89,8782.75 7368.93,8796.6 7383.8,8810.91C7383.8,8810.91 7403.73,8823.51 7444.04,8791.82L7592.13,8680.66L7489.82,8798.88C7489.82,8798.88 7471.65,8817 7487.29,8832.71C7487.29,8832.71 7505.13,8847.09 7548.62,8804.3C7548.62,8804.3 7663.45,8702.7 7695.63,8689.32L7693.44,8588.48L7605.37,8534.14Z"/></clipPath><g clip-path="url(#c)"><path fill="#d0957e" d="M7563.52,8627.23C7563.52,8627.23 7475.12,8677.56 7412.31,8730.77C7384.68,8754.19 7362.05,8778.3 7353.28,8798.98C7351.93,8802.16 7353.42,8805.83 7356.6,8807.17C7359.77,8808.52 7363.44,8807.03 7364.79,8803.86C7373,8784.5 7394.52,8762.23 7420.39,8740.31C7482.41,8687.76 7569.7,8638.1 7569.7,8638.1C7572.7,8636.39 7573.75,8632.57 7572.04,8629.57C7570.34,8626.58 7566.52,8625.53 7563.52,8627.23ZM7541.88,8587.1C7541.88,8587.1 7384.14,8676.74 7329.79,8731.9C7327.37,8734.35 7327.4,8738.31 7329.86,8740.74C7332.31,8743.16 7336.27,8743.13 7338.69,8740.67C7392.32,8686.25 7548.05,8597.97 7548.05,8597.97C7551.05,8596.26 7552.1,8592.45 7550.4,8589.45C7548.69,8586.45 7544.88,8585.39 7541.88,8587.1Z"/><path fill="#d0957e" d="M7558.45,8551.4C7558.45,8551.4 7584.19,8563.31 7622.54,8625.85C7622.54,8625.85 7652.11,8677.65 7692.78,8690.2C7733.45,8702.75 7699.96,8688.4 7699.96,8688.4C7699.96,8688.4 7681.94,8564.1 7680.39,8560.61C7678.84,8557.12 7604.16,8496.22 7604.16,8496.22L7554.23,8544.54L7558.45,8551.4Z"/></g><path fill="#91b9f6" d="M8105.15,7507.31C8105.15,7507.31 8053.44,7529.09 8074.23,7583.42C8074.23,7583.42 8041.4,7614.07 8026.48,7729.97C8026.48,7729.97 8007.56,7796.14 7974.07,7931.17C7974.07,7931.17 7958.86,7985.98 7919.19,8038.24C7919.19,8038.24 7845.3,8143.88 7576.53,8335.34C7576.53,8335.34 7605.52,8420.56 7634.02,8450.04L7806.46,8355.97L7599.57,8521.65C7599.57,8521.65 7623.31,8627.19 7691.82,8701.42C7691.82,8701.42 7868.28,8625.9 7929.1,8589.54C7929.1,8589.54 7964.58,8683.1 8095.7,8798.09C8095.7,8798.09 8178.3,8885.33 8265.24,8972.41C8265.24,8972.41 8400.81,9113.67 8469.42,9138.46C8469.42,9138.46 8584.24,9189.06 8765.76,9164.21C8765.76,9164.21 8830.7,8316.3 8706.76,7830.99C8706.76,7830.99 8647,7606.69 8455.91,7375.57L8424.23,7300.03L8401.91,7318.72L8105.15,7507.31Z"/><clipPath id="d"><path d="M8105.15,7507.31C8105.15,7507.31 8053.44,7529.09 8074.23,7583.42C8074.23,7583.42 8041.4,7614.07 8026.48,7729.97C8026.48,7729.97 8007.56,7796.14 7974.07,7931.17C7974.07,7931.17 7958.86,7985.98 7919.19,8038.24C7919.19,8038.24 7845.3,8143.88 7576.53,8335.34C7576.53,8335.34 7605.52,8420.56 7634.02,8450.04L7806.46,8355.97L7599.57,8521.65C7599.57,8521.65 7623.31,8627.19 7691.82,8701.42C7691.82,8701.42 7868.28,8625.9 7929.1,8589.54C7929.1,8589.54 7964.58,8683.1 8095.7,8798.09C8095.7,8798.09 8178.3,8885.33 8265.24,8972.41C8265.24,8972.41 8400.81,9113.67 8469.42,9138.46C8469.42,9138.46 8584.24,9189.06 8765.76,9164.21C8765.76,9164.21 8830.7,8316.3 8706.76,7830.99C8706.76,7830.99 8647,7606.69 8455.91,7375.57L8424.23,7300.03L8401.91,7318.72L8105.15,7507.31Z"/></clipPath><g clip-path="url(#d)"><path fill="#4f96ff" d="M8630.42,7724.82C8630.42,7724.82 8461.53,8134.3 8457.22,8144.74C8455.04,8149.5 8398.3,8270.78 8227.75,8406.95C8222.8,8410.65 8088.03,8510.89 7878.04,8616.88C7871.88,8619.99 7869.4,8627.51 7872.51,8633.67C7875.62,8639.83 7883.14,8642.3 7889.3,8639.19C8105.59,8530.03 8242.9,8426.83 8242.9,8426.83C8243,8426.76 8243.1,8426.69 8243.19,8426.61C8423.19,8282.94 8480.1,8154.81 8480.1,8154.81C8480.15,8154.7 8480.2,8154.59 8480.25,8154.47L8653.53,7734.35C8656.16,7727.97 8653.12,7720.66 8646.74,7718.03C8640.37,7715.4 8633.05,7718.44 8630.42,7724.82ZM8255.33,7592.91L8130.74,8054.94L8142.81,8070.69L8130.63,8055.52C8130.63,8055.52 8126.8,8063.47 8115.32,8075.97C8094.71,8098.41 8050.49,8137.79 7955.95,8203.35C7950.28,8207.28 7948.87,8215.07 7952.8,8220.74C7956.73,8226.41 7964.53,8227.82 7970.2,8223.89C8078.31,8148.93 8122.27,8106.96 8140.23,8085.49C8152.35,8071.03 8154.73,8063.18 8155.18,8060.33C8155.18,8060.34 8279.47,7599.42 8279.47,7599.42C8281.26,7592.76 8277.31,7585.89 8270.65,7584.09C8263.99,7582.3 8257.12,7586.25 8255.33,7592.91Z"/><path fill="#4f96ff" d="M8023.98,7731.28C8024.85,7730.67 7984.66,8212.96 7984.66,8212.96L7806.26,8356.11L7566.51,8502.14C7566.51,8502.14 7517.56,8235.86 7506.03,8241.61C7494.49,8247.36 7915.39,7757.19 7915.39,7757.19C7915.39,7757.19 8023.11,7731.9 8023.98,7731.28Z"/><clipPath id="e"><path d="M8023.98,7731.28C8024.85,7730.67 7984.66,8212.96 7984.66,8212.96L7806.26,8356.11L7566.51,8502.14C7566.51,8502.14 7517.56,8235.86 7506.03,8241.61C7494.49,8247.36 7915.39,7757.19 7915.39,7757.19C7915.39,7757.19 8023.11,7731.9 8023.98,7731.28Z"/></clipPath><g clip-path="url(#e)"><path fill="#93bdfe" d="M7665.42,8265.76C7665.42,8265.76 7708.02,8372.7 7730.11,8401.49L7616.21,8480.23L7538.35,8316.04L7652.35,8244.42L7665.42,8265.76Z"/></g><path fill="#b8d4fe" d="M7575.18,8511.45C7583.18,8508.5 7689.9,8446.55 7689.9,8446.55C7689.9,8446.55 7756.49,8596.72 7803.29,8661.33C7850.1,8725.94 7671.47,8768.27 7671.47,8768.27C7671.47,8768.27 7582.7,8518.12 7575.18,8511.45ZM7575.18,8511.45C7575.01,8511.31 7574.89,8511.28 7574.8,8511.37C7574.59,8511.6 7574.73,8511.62 7575.18,8511.45ZM8074.24,7583.36C8074.24,7583.36 8080.38,7604.11 8193.1,7548.27C8193.1,7548.27 8413.48,7429.26 8466.96,7365.36C8466.96,7365.36 8502.71,7276.21 8501.03,7267.76C8499.35,7259.31 8379.79,7212.29 8379.79,7212.29L8031.63,7526.02L8074.24,7583.36Z"/></g><g transform="matrix(.75634 .651 -.65435 .76024 6575.47 3934.33)"><path fill="#f1bfab" d="M2870.14,1582.92C2870.14,1582.92 3142.01,1808.25 3309.47,1824.95C3309.47,1824.95 3369.53,1834.73 3412.32,1780.8C3430.16,1758.33 3440.38,1726.27 3443.92,1683.66C3443.92,1683.66 3444.84,1682.55 3497.47,1704.91C3540.53,1634.98 3590.2,1467.15 3599.86,1368.89L3463.11,1298.8L3240.46,1192.34L2927.08,1252.03L2854.43,1534.47L2870.14,1582.92Z"/><clipPath id="f"><path d="M2870.14,1582.92C2870.14,1582.92 3142.01,1808.25 3309.47,1824.95C3309.47,1824.95 3369.53,1834.73 3412.32,1780.8C3430.16,1758.33 3440.38,1726.27 3443.92,1683.66C3443.92,1683.66 3444.84,1682.55 3497.47,1704.91C3540.53,1634.98 3590.2,1467.15 3599.86,1368.89L3463.11,1298.8L3240.46,1192.34L2927.08,1252.03L2854.43,1534.47L2870.14,1582.92Z"/></clipPath><g clip-path="url(#f)"><path fill="#d0957e" d="M3386.88,1379.04C3386.88,1379.04 3396.1,1407.03 3393.61,1426.19C3393.61,1426.19 3415.31,1461.27 3436.15,1555.95C3436.15,1555.95 3443.42,1619.5 3443.93,1687.75C3443.93,1687.75 3494.69,1758.29 3497.89,1759.34C3501.08,1760.4 3578.51,1735.54 3578.51,1735.54L3671.16,1198.89C3671.16,1198.89 3424.56,1205.84 3417.58,1212.22C3410.6,1218.59 3382.16,1322.43 3382.16,1322.43L3386.88,1379.04Z"/></g></g><path fill="#864a1b" d="M2998.2,1368.5C2998.2,1368.5 3064.3,1415.15 3113.08,1368.21C3113.08,1368.21 3181.66,1294.5 3236.68,1341.12C3236.68,1341.12 3189.81,1265.67 3251.5,1265.54C3251.5,1265.54 3321.52,1261.34 3381.08,1373.04C3381.08,1373.04 3435.11,1399.07 3468.95,1344.47C3468.95,1344.47 3484.61,1316.63 3471.69,1295.45C3471.69,1295.45 3450.88,1263.11 3389.28,1206.62C3389.28,1206.62 3290.96,1121.51 3241.22,1086.68L3087.46,1150.16L2998.15,1329.65L2998.2,1368.5Z" transform="matrix(.75634 .651 -.65435 .76024 6575.47 3934.33)"/><g transform="matrix(.75634 .651 -.65435 .76024 6575.47 3934.33)"><path fill="#4f5d77" d="M2605.13,1380.64C2605.13,1380.64 2680.52,1114.59 2955.55,906.181C2955.55,906.181 3090.07,966.99 3244.1,1087.92C3244.1,1087.92 3047.27,1265.32 2868.92,1589.17C2868.92,1589.17 2720.43,1494.99 2605.13,1380.64Z"/><clipPath id="g"><path d="M2605.13,1380.64C2605.13,1380.64 2680.52,1114.59 2955.55,906.181C2955.55,906.181 3090.07,966.99 3244.1,1087.92C3244.1,1087.92 3047.27,1265.32 2868.92,1589.17C2868.92,1589.17 2720.43,1494.99 2605.13,1380.64Z"/></clipPath><g clip-path="url(#g)"><path fill="#2f3c4c" d="M2618.2,1337.94C2618.2,1337.94 2757.67,1470.11 2806.39,1471.27C2806.39,1471.27 2832.98,1474.74 2888.12,1417.49C2888.12,1417.49 3031.22,1240.69 3246.35,1059.59L3384.9,1107.73L3166.77,1657.57C3166.77,1657.57 2808.1,1812.76 2792.18,1810.43C2776.27,1808.09 2566.04,1556.77 2566.04,1556.77L2510.54,1383.63L2618.2,1337.94Z"/></g></g></g></g></svg>