<svg xmlns="http://www.w3.org/2000/svg" xmlns:xlink="http://www.w3.org/1999/xlink" width="500" zoomAndPan="magnify" viewBox="0 0 375 374.999991" height="500" preserveAspectRatio="xMidYMid meet" version="1.0"><defs><clipPath id="2e9306543f"><path d="M 99 231 L 112 231 L 112 247 L 99 247 Z M 99 231 " clip-rule="nonzero"/></clipPath><clipPath id="971371ca31"><path d="M 87.867188 190.820312 L 141.351562 192.183594 L 139.730469 255.933594 L 86.242188 254.570312 Z M 87.867188 190.820312 " clip-rule="nonzero"/></clipPath><clipPath id="10d290bd0b"><path d="M 86.691406 237.421875 C 86.691406 237.421875 92.414062 231.953125 93.230469 226.476562 C 94.132812 220.4375 92.574219 207.929688 96.0625 202.132812 C 99.554688 196.339844 107.210938 191.878906 114.167969 191.710938 C 121.460938 191.53125 136.109375 195.136719 139.820312 201.070312 C 143.53125 207.007812 137.261719 222.027344 136.4375 227.324219 C 134.644531 238.835938 130.664062 242.019531 126.222656 244 C 119.839844 246.851562 110.949219 241.375 110.949219 241.375 L 103.964844 254.972656 Z M 86.691406 237.421875 " clip-rule="evenodd"/></clipPath><clipPath id="163f5623c3"><path d="M 138 317 L 156 317 L 156 338 L 138 338 Z M 138 317 " clip-rule="nonzero"/></clipPath><clipPath id="42cff0c543"><path d="M 60.996094 314.890625 L 169.925781 317.667969 L 168.792969 362.050781 L 59.863281 359.277344 Z M 60.996094 314.890625 " clip-rule="nonzero"/></clipPath><clipPath id="92f7a96f8a"><path d="M 60.359375 341.984375 C 60.359375 341.984375 79.53125 335.265625 84.324219 329.933594 C 95.625 317.378906 113.886719 317.394531 129.980469 318.144531 C 141.179688 318.664062 163.179688 312.761719 168.308594 326.460938 C 172.554688 337.800781 163.925781 352.507812 158 355.527344 C 144.535156 362.386719 108.320312 358.066406 106.90625 358.371094 C 104.402344 358.90625 84.734375 361 74.191406 358.664062 C 62.167969 356 60.359375 341.984375 60.359375 341.984375 Z M 60.359375 341.984375 " clip-rule="evenodd"/></clipPath><clipPath id="546f4476f5"><path d="M 87 353 L 130 353 L 130 360 L 87 360 Z M 87 353 " clip-rule="nonzero"/></clipPath><clipPath id="043d2e0ce0"><path d="M 60.996094 314.890625 L 169.925781 317.667969 L 168.792969 362.050781 L 59.863281 359.277344 Z M 60.996094 314.890625 " clip-rule="nonzero"/></clipPath><clipPath id="2cccb090ee"><path d="M 60.359375 341.984375 C 60.359375 341.984375 79.53125 335.265625 84.324219 329.933594 C 95.625 317.378906 113.886719 317.394531 129.980469 318.144531 C 141.179688 318.664062 163.179688 312.761719 168.308594 326.460938 C 172.554688 337.800781 163.925781 352.507812 158 355.527344 C 144.535156 362.386719 108.320312 358.066406 106.90625 358.371094 C 104.402344 358.90625 84.734375 361 74.191406 358.664062 C 62.167969 356 60.359375 341.984375 60.359375 341.984375 Z M 60.359375 341.984375 " clip-rule="evenodd"/></clipPath><clipPath id="43f96cf3d1"><path d="M 83 251 L 120 251 L 120 291 L 83 291 Z M 83 251 " clip-rule="nonzero"/></clipPath><clipPath id="7b432e6220"><path d="M 58.511719 232.964844 L 150.046875 235.296875 L 147.261719 344.738281 L 55.726562 342.40625 Z M 58.511719 232.964844 " clip-rule="nonzero"/></clipPath><clipPath id="42e6e9b2d3"><path d="M 60.285156 342.46875 C 60.285156 342.46875 48.816406 312 65.910156 264.320312 C 70.945312 250.277344 89.535156 233.875 89.535156 233.875 C 89.535156 233.875 101.183594 239.332031 105.550781 243.863281 C 110.105469 248.585938 115.136719 254.460938 116.851562 262.207031 C 117.679688 265.9375 114.894531 285.628906 121.15625 298.023438 C 126.515625 308.625 144.46875 307.71875 144.46875 307.71875 C 144.46875 307.71875 143.5 310.300781 143.957031 316.683594 C 144.3125 321.605469 147.539062 326.339844 147.539062 326.339844 C 147.539062 326.339844 137.5 327.980469 128.816406 326.65625 C 119.863281 325.289062 111.796875 321.078125 111.796875 321.078125 C 111.796875 321.078125 95.210938 323.566406 92.464844 326.085938 C 79.496094 337.996094 60.285156 342.46875 60.285156 342.46875 Z M 60.285156 342.46875 " clip-rule="evenodd"/></clipPath><clipPath id="fc670dfec4"><path d="M 82 270 L 114 270 L 114 322 L 82 322 Z M 82 270 " clip-rule="nonzero"/></clipPath><clipPath id="4f300cafe7"><path d="M 58.511719 232.964844 L 150.046875 235.296875 L 147.261719 344.738281 L 55.726562 342.40625 Z M 58.511719 232.964844 " clip-rule="nonzero"/></clipPath><clipPath id="4776d74100"><path d="M 60.285156 342.46875 C 60.285156 342.46875 48.816406 312 65.910156 264.320312 C 70.945312 250.277344 89.535156 233.875 89.535156 233.875 C 89.535156 233.875 101.183594 239.332031 105.550781 243.863281 C 110.105469 248.585938 115.136719 254.460938 116.851562 262.207031 C 117.679688 265.9375 114.894531 285.628906 121.15625 298.023438 C 126.515625 308.625 144.46875 307.71875 144.46875 307.71875 C 144.46875 307.71875 143.5 310.300781 143.957031 316.683594 C 144.3125 321.605469 147.539062 326.339844 147.539062 326.339844 C 147.539062 326.339844 137.5 327.980469 128.816406 326.65625 C 119.863281 325.289062 111.796875 321.078125 111.796875 321.078125 C 111.796875 321.078125 95.210938 323.566406 92.464844 326.085938 C 79.496094 337.996094 60.285156 342.46875 60.285156 342.46875 Z M 60.285156 342.46875 " clip-rule="evenodd"/></clipPath><clipPath id="214178ca13"><path d="M 68 313 L 106 313 L 106 322 L 68 322 Z M 68 313 " clip-rule="nonzero"/></clipPath><clipPath id="ceef4c768f"><path d="M 58.511719 232.964844 L 150.046875 235.296875 L 147.261719 344.738281 L 55.726562 342.40625 Z M 58.511719 232.964844 " clip-rule="nonzero"/></clipPath><clipPath id="436045679a"><path d="M 60.285156 342.46875 C 60.285156 342.46875 48.816406 312 65.910156 264.320312 C 70.945312 250.277344 89.535156 233.875 89.535156 233.875 C 89.535156 233.875 101.183594 239.332031 105.550781 243.863281 C 110.105469 248.585938 115.136719 254.460938 116.851562 262.207031 C 117.679688 265.9375 114.894531 285.628906 121.15625 298.023438 C 126.515625 308.625 144.46875 307.71875 144.46875 307.71875 C 144.46875 307.71875 143.5 310.300781 143.957031 316.683594 C 144.3125 321.605469 147.539062 326.339844 147.539062 326.339844 C 147.539062 326.339844 137.5 327.980469 128.816406 326.65625 C 119.863281 325.289062 111.796875 321.078125 111.796875 321.078125 C 111.796875 321.078125 95.210938 323.566406 92.464844 326.085938 C 79.496094 337.996094 60.285156 342.46875 60.285156 342.46875 Z M 60.285156 342.46875 " clip-rule="evenodd"/></clipPath><clipPath id="29ed8b27a5"><path d="M 238 196 L 269 196 L 269 274 L 238 274 Z M 238 196 " clip-rule="nonzero"/></clipPath><clipPath id="70d6a4ebff"><path d="M 230.535156 163.988281 C 230.535156 163.988281 229.921875 162.390625 234.933594 164.1875 C 239.464844 165.8125 239.402344 167.191406 239.402344 167.191406 C 239.402344 167.191406 260.328125 174.496094 266.519531 180.125 C 307.667969 217.550781 323.015625 325.417969 317.710938 334.722656 C 314.765625 339.886719 313.136719 322.410156 308.597656 317.46875 C 302.136719 310.4375 281.128906 308.921875 266.914062 308.222656 C 250.921875 307.433594 228.011719 313.371094 212.644531 312.746094 C 205.046875 312.4375 186.5625 307.78125 186.5625 307.78125 L 179.957031 305.9375 L 171.90625 305.324219 C 171.90625 305.324219 185.59375 281.730469 188.386719 244.664062 C 189.507812 229.742188 187.6875 209.28125 189.835938 199.800781 C 191.054688 194.410156 201.261719 187.796875 201.261719 187.796875 C 201.261719 187.796875 210.292969 192.714844 220.59375 186.617188 C 232.8125 179.386719 230.535156 163.988281 230.535156 163.988281 Z M 230.535156 163.988281 " clip-rule="evenodd"/></clipPath><clipPath id="d012924982"><path d="M 243 221 L 283 221 L 283 304 L 243 304 Z M 243 221 " clip-rule="nonzero"/></clipPath><clipPath id="7234bd46ea"><path d="M 230.535156 163.988281 C 230.535156 163.988281 229.921875 162.390625 234.933594 164.1875 C 239.464844 165.8125 239.402344 167.191406 239.402344 167.191406 C 239.402344 167.191406 260.328125 174.496094 266.519531 180.125 C 307.667969 217.550781 323.015625 325.417969 317.710938 334.722656 C 314.765625 339.886719 313.136719 322.410156 308.597656 317.46875 C 302.136719 310.4375 281.128906 308.921875 266.914062 308.222656 C 250.921875 307.433594 228.011719 313.371094 212.644531 312.746094 C 205.046875 312.4375 186.5625 307.78125 186.5625 307.78125 L 179.957031 305.9375 L 171.90625 305.324219 C 171.90625 305.324219 185.59375 281.730469 188.386719 244.664062 C 189.507812 229.742188 187.6875 209.28125 189.835938 199.800781 C 191.054688 194.410156 201.261719 187.796875 201.261719 187.796875 C 201.261719 187.796875 210.292969 192.714844 220.59375 186.617188 C 232.8125 179.386719 230.535156 163.988281 230.535156 163.988281 Z M 230.535156 163.988281 " clip-rule="evenodd"/></clipPath><clipPath id="07fc4fae48"><path d="M 280 286 L 307 286 L 307 300 L 280 300 Z M 280 286 " clip-rule="nonzero"/></clipPath><clipPath id="aa3fc2dbc7"><path d="M 230.535156 163.988281 C 230.535156 163.988281 229.921875 162.390625 234.933594 164.1875 C 239.464844 165.8125 239.402344 167.191406 239.402344 167.191406 C 239.402344 167.191406 260.328125 174.496094 266.519531 180.125 C 307.667969 217.550781 323.015625 325.417969 317.710938 334.722656 C 314.765625 339.886719 313.136719 322.410156 308.597656 317.46875 C 302.136719 310.4375 281.128906 308.921875 266.914062 308.222656 C 250.921875 307.433594 228.011719 313.371094 212.644531 312.746094 C 205.046875 312.4375 186.5625 307.78125 186.5625 307.78125 L 179.957031 305.9375 L 171.90625 305.324219 C 171.90625 305.324219 185.59375 281.730469 188.386719 244.664062 C 189.507812 229.742188 187.6875 209.28125 189.835938 199.800781 C 191.054688 194.410156 201.261719 187.796875 201.261719 187.796875 C 201.261719 187.796875 210.292969 192.714844 220.59375 186.617188 C 232.8125 179.386719 230.535156 163.988281 230.535156 163.988281 Z M 230.535156 163.988281 " clip-rule="evenodd"/></clipPath><clipPath id="158acd414b"><path d="M 216 165 L 240 165 L 240 281 L 216 281 Z M 216 165 " clip-rule="nonzero"/></clipPath><clipPath id="110363ab09"><path d="M 230.535156 163.988281 C 230.535156 163.988281 229.921875 162.390625 234.933594 164.1875 C 239.464844 165.8125 239.402344 167.191406 239.402344 167.191406 C 239.402344 167.191406 260.328125 174.496094 266.519531 180.125 C 307.667969 217.550781 323.015625 325.417969 317.710938 334.722656 C 314.765625 339.886719 313.136719 322.410156 308.597656 317.46875 C 302.136719 310.4375 281.128906 308.921875 266.914062 308.222656 C 250.921875 307.433594 228.011719 313.371094 212.644531 312.746094 C 205.046875 312.4375 186.5625 307.78125 186.5625 307.78125 L 179.957031 305.9375 L 171.90625 305.324219 C 171.90625 305.324219 185.59375 281.730469 188.386719 244.664062 C 189.507812 229.742188 187.6875 209.28125 189.835938 199.800781 C 191.054688 194.410156 201.261719 187.796875 201.261719 187.796875 C 201.261719 187.796875 210.292969 192.714844 220.59375 186.617188 C 232.8125 179.386719 230.535156 163.988281 230.535156 163.988281 Z M 230.535156 163.988281 " clip-rule="evenodd"/></clipPath><clipPath id="bf7aa84b3e"><path d="M 220 278 L 233 278 L 233 308 L 220 308 Z M 220 278 " clip-rule="nonzero"/></clipPath><clipPath id="1940b0f982"><path d="M 230.535156 163.988281 C 230.535156 163.988281 229.921875 162.390625 234.933594 164.1875 C 239.464844 165.8125 239.402344 167.191406 239.402344 167.191406 C 239.402344 167.191406 260.328125 174.496094 266.519531 180.125 C 307.667969 217.550781 323.015625 325.417969 317.710938 334.722656 C 314.765625 339.886719 313.136719 322.410156 308.597656 317.46875 C 302.136719 310.4375 281.128906 308.921875 266.914062 308.222656 C 250.921875 307.433594 228.011719 313.371094 212.644531 312.746094 C 205.046875 312.4375 186.5625 307.78125 186.5625 307.78125 L 179.957031 305.9375 L 171.90625 305.324219 C 171.90625 305.324219 185.59375 281.730469 188.386719 244.664062 C 189.507812 229.742188 187.6875 209.28125 189.835938 199.800781 C 191.054688 194.410156 201.261719 187.796875 201.261719 187.796875 C 201.261719 187.796875 210.292969 192.714844 220.59375 186.617188 C 232.8125 179.386719 230.535156 163.988281 230.535156 163.988281 Z M 230.535156 163.988281 " clip-rule="evenodd"/></clipPath><clipPath id="e5dfe5b4dc"><path d="M 220 264 L 246 264 L 246 281 L 220 281 Z M 220 264 " clip-rule="nonzero"/></clipPath><clipPath id="37e1e56d40"><path d="M 230.535156 163.988281 C 230.535156 163.988281 229.921875 162.390625 234.933594 164.1875 C 239.464844 165.8125 239.402344 167.191406 239.402344 167.191406 C 239.402344 167.191406 260.328125 174.496094 266.519531 180.125 C 307.667969 217.550781 323.015625 325.417969 317.710938 334.722656 C 314.765625 339.886719 313.136719 322.410156 308.597656 317.46875 C 302.136719 310.4375 281.128906 308.921875 266.914062 308.222656 C 250.921875 307.433594 228.011719 313.371094 212.644531 312.746094 C 205.046875 312.4375 186.5625 307.78125 186.5625 307.78125 L 179.957031 305.9375 L 171.90625 305.324219 C 171.90625 305.324219 185.59375 281.730469 188.386719 244.664062 C 189.507812 229.742188 187.6875 209.28125 189.835938 199.800781 C 191.054688 194.410156 201.261719 187.796875 201.261719 187.796875 C 201.261719 187.796875 210.292969 192.714844 220.59375 186.617188 C 232.8125 179.386719 230.535156 163.988281 230.535156 163.988281 Z M 230.535156 163.988281 " clip-rule="evenodd"/></clipPath><clipPath id="9da2ed3742"><path d="M 196 217 L 200 217 L 200 255 L 196 255 Z M 196 217 " clip-rule="nonzero"/></clipPath><clipPath id="8c86be86e0"><path d="M 230.535156 163.988281 C 230.535156 163.988281 229.921875 162.390625 234.933594 164.1875 C 239.464844 165.8125 239.402344 167.191406 239.402344 167.191406 C 239.402344 167.191406 260.328125 174.496094 266.519531 180.125 C 307.667969 217.550781 323.015625 325.417969 317.710938 334.722656 C 314.765625 339.886719 313.136719 322.410156 308.597656 317.46875 C 302.136719 310.4375 281.128906 308.921875 266.914062 308.222656 C 250.921875 307.433594 228.011719 313.371094 212.644531 312.746094 C 205.046875 312.4375 186.5625 307.78125 186.5625 307.78125 L 179.957031 305.9375 L 171.90625 305.324219 C 171.90625 305.324219 185.59375 281.730469 188.386719 244.664062 C 189.507812 229.742188 187.6875 209.28125 189.835938 199.800781 C 191.054688 194.410156 201.261719 187.796875 201.261719 187.796875 C 201.261719 187.796875 210.292969 192.714844 220.59375 186.617188 C 232.8125 179.386719 230.535156 163.988281 230.535156 163.988281 Z M 230.535156 163.988281 " clip-rule="evenodd"/></clipPath><clipPath id="0f4be16ae5"><path d="M 164 314 L 223 314 L 223 355.242188 L 164 355.242188 Z M 164 314 " clip-rule="nonzero"/></clipPath><clipPath id="791f34619c"><path d="M 318.460938 328.925781 C 318.933594 333.832031 318.414062 338.539062 312 343.171875 C 288.625 360.066406 242.273438 349.3125 242.273438 349.3125 C 242.273438 349.3125 230.632812 353.386719 221.1875 353.796875 C 199.980469 354.730469 179.382812 359.019531 169.28125 345.769531 C 162.761719 337.222656 160.929688 316.503906 172.941406 305.847656 C 186.289062 294.003906 222.445312 312.398438 251.804688 300.894531 C 270.632812 293.515625 292.511719 302.140625 301.578125 307.992188 C 312.546875 315.066406 317.878906 322.835938 318.460938 328.925781 Z M 318.460938 328.925781 " clip-rule="evenodd"/></clipPath><clipPath id="ef6196cd8d"><path d="M 183 304 L 242 304 L 242 348 L 183 348 Z M 183 304 " clip-rule="nonzero"/></clipPath><clipPath id="5271eb631a"><path d="M 318.460938 328.925781 C 318.933594 333.832031 318.414062 338.539062 312 343.171875 C 288.625 360.066406 242.273438 349.3125 242.273438 349.3125 C 242.273438 349.3125 230.632812 353.386719 221.1875 353.796875 C 199.980469 354.730469 179.382812 359.019531 169.28125 345.769531 C 162.761719 337.222656 160.929688 316.503906 172.941406 305.847656 C 186.289062 294.003906 222.445312 312.398438 251.804688 300.894531 C 270.632812 293.515625 292.511719 302.140625 301.578125 307.992188 C 312.546875 315.066406 317.878906 322.835938 318.460938 328.925781 Z M 318.460938 328.925781 " clip-rule="evenodd"/></clipPath><clipPath id="978695f9ce"><path d="M 158 109.6875 L 217 109.6875 L 217 152 L 158 152 Z M 158 109.6875 " clip-rule="nonzero"/></clipPath><clipPath id="2af1ca84d9"><path d="M 183 294 L 203 294 L 203 299 L 183 299 Z M 183 294 " clip-rule="nonzero"/></clipPath><clipPath id="7701ec68d4"><path d="M 181.878906 282.992188 L 229.5 282.160156 L 229.996094 310.609375 L 182.378906 311.445312 Z M 181.878906 282.992188 " clip-rule="nonzero"/></clipPath><clipPath id="f47e784ea1"><path d="M 228.589844 305.394531 C 228.589844 305.394531 230.6875 300.746094 229.097656 294.402344 C 227.542969 288.191406 224.949219 285.074219 224.949219 285.074219 C 224.949219 285.074219 212.367188 287.726562 211.269531 286.460938 C 208.890625 283.699219 205.429688 282.417969 202.890625 282.851562 C 200.15625 283.316406 198.824219 286.011719 198.824219 286.011719 C 198.824219 286.011719 206.121094 288.535156 205.519531 289.742188 C 202.933594 294.941406 191.277344 290.058594 188.808594 292.152344 C 186.984375 293.703125 190.214844 296.539062 190.214844 296.539062 C 190.214844 296.539062 182.65625 294.90625 182.273438 298.09375 C 181.871094 301.488281 187.703125 305.847656 190.410156 307.414062 C 195.003906 310.078125 202.972656 312.839844 211.449219 308.785156 C 217.941406 305.683594 228.589844 305.394531 228.589844 305.394531 Z M 228.589844 305.394531 " clip-rule="evenodd"/></clipPath><clipPath id="5ca70e87c3"><path d="M 187 306 L 209 306 L 209 310 L 187 310 Z M 187 306 " clip-rule="nonzero"/></clipPath><clipPath id="0ee40495ca"><path d="M 181.878906 282.992188 L 229.5 282.160156 L 229.996094 310.609375 L 182.378906 311.445312 Z M 181.878906 282.992188 " clip-rule="nonzero"/></clipPath><clipPath id="5a3d92470e"><path d="M 228.589844 305.394531 C 228.589844 305.394531 230.6875 300.746094 229.097656 294.402344 C 227.542969 288.191406 224.949219 285.074219 224.949219 285.074219 C 224.949219 285.074219 212.367188 287.726562 211.269531 286.460938 C 208.890625 283.699219 205.429688 282.417969 202.890625 282.851562 C 200.15625 283.316406 198.824219 286.011719 198.824219 286.011719 C 198.824219 286.011719 206.121094 288.535156 205.519531 289.742188 C 202.933594 294.941406 191.277344 290.058594 188.808594 292.152344 C 186.984375 293.703125 190.214844 296.539062 190.214844 296.539062 C 190.214844 296.539062 182.65625 294.90625 182.273438 298.09375 C 181.871094 301.488281 187.703125 305.847656 190.410156 307.414062 C 195.003906 310.078125 202.972656 312.839844 211.449219 308.785156 C 217.941406 305.683594 228.589844 305.394531 228.589844 305.394531 Z M 228.589844 305.394531 " clip-rule="evenodd"/></clipPath><clipPath id="510b2c36a6"><path d="M 182 300 L 206 300 L 206 305 L 182 305 Z M 182 300 " clip-rule="nonzero"/></clipPath><clipPath id="27df96248a"><path d="M 181.878906 282.992188 L 229.5 282.160156 L 229.996094 310.609375 L 182.378906 311.445312 Z M 181.878906 282.992188 " clip-rule="nonzero"/></clipPath><clipPath id="e368f03898"><path d="M 228.589844 305.394531 C 228.589844 305.394531 230.6875 300.746094 229.097656 294.402344 C 227.542969 288.191406 224.949219 285.074219 224.949219 285.074219 C 224.949219 285.074219 212.367188 287.726562 211.269531 286.460938 C 208.890625 283.699219 205.429688 282.417969 202.890625 282.851562 C 200.15625 283.316406 198.824219 286.011719 198.824219 286.011719 C 198.824219 286.011719 206.121094 288.535156 205.519531 289.742188 C 202.933594 294.941406 191.277344 290.058594 188.808594 292.152344 C 186.984375 293.703125 190.214844 296.539062 190.214844 296.539062 C 190.214844 296.539062 182.65625 294.90625 182.273438 298.09375 C 181.871094 301.488281 187.703125 305.847656 190.410156 307.414062 C 195.003906 310.078125 202.972656 312.839844 211.449219 308.785156 C 217.941406 305.683594 228.589844 305.394531 228.589844 305.394531 Z M 228.589844 305.394531 " clip-rule="evenodd"/></clipPath></defs><path fill="#ddd0c2" d="M 374.984375 342.609375 C 374.984375 343.144531 374.910156 343.675781 374.761719 344.207031 C 374.609375 344.742188 374.382812 345.273438 374.082031 345.800781 C 373.78125 346.332031 373.40625 346.863281 372.957031 347.390625 C 372.507812 347.917969 371.980469 348.441406 371.382812 348.964844 C 370.785156 349.488281 370.113281 350.007812 369.367188 350.523438 C 368.621094 351.039062 367.804688 351.554688 366.914062 352.066406 C 366.023438 352.574219 365.058594 353.082031 364.027344 353.582031 C 362.992188 354.085938 361.886719 354.582031 360.714844 355.074219 C 359.539062 355.566406 358.296875 356.054688 356.984375 356.535156 C 355.671875 357.015625 354.292969 357.492188 352.847656 357.964844 C 351.402344 358.433594 349.890625 358.898438 348.3125 359.355469 C 346.734375 359.8125 345.09375 360.261719 343.386719 360.703125 C 341.683594 361.148438 339.917969 361.582031 338.089844 362.011719 C 336.261719 362.441406 334.375 362.859375 332.429688 363.273438 C 330.480469 363.683594 328.476562 364.085938 326.417969 364.480469 C 324.355469 364.878906 322.242188 365.261719 320.070312 365.640625 C 317.902344 366.015625 315.679688 366.382812 313.40625 366.742188 C 311.132812 367.101562 308.8125 367.449219 306.4375 367.785156 C 304.066406 368.125 301.648438 368.453125 299.183594 368.769531 C 296.71875 369.085938 294.210938 369.394531 291.660156 369.691406 C 289.109375 369.988281 286.519531 370.273438 283.886719 370.546875 C 281.253906 370.820312 278.585938 371.082031 275.878906 371.332031 C 273.171875 371.585938 270.433594 371.824219 267.660156 372.050781 C 264.886719 372.28125 262.082031 372.496094 259.246094 372.699219 C 256.414062 372.90625 253.550781 373.097656 250.660156 373.277344 C 247.773438 373.457031 244.859375 373.621094 241.921875 373.777344 C 238.988281 373.933594 236.03125 374.074219 233.054688 374.203125 C 230.078125 374.332031 227.085938 374.449219 224.074219 374.554688 C 221.066406 374.65625 218.042969 374.75 215.007812 374.828125 C 211.972656 374.90625 208.929688 374.96875 205.875 375.023438 C 202.824219 375.074219 199.761719 375.113281 196.699219 375.140625 C 193.632812 375.167969 190.566406 375.179688 187.5 375.179688 C 184.429688 375.179688 181.363281 375.167969 178.300781 375.140625 C 175.234375 375.113281 172.175781 375.074219 169.121094 375.023438 C 166.070312 374.96875 163.023438 374.90625 159.988281 374.828125 C 156.953125 374.75 153.933594 374.65625 150.921875 374.554688 C 147.914062 374.449219 144.921875 374.332031 141.945312 374.203125 C 138.96875 374.074219 136.011719 373.933594 133.074219 373.777344 C 130.136719 373.621094 127.226562 373.457031 124.335938 373.277344 C 121.449219 373.097656 118.585938 372.90625 115.75 372.699219 C 112.917969 372.496094 110.113281 372.28125 107.339844 372.050781 C 104.566406 371.824219 101.824219 371.585938 99.117188 371.332031 C 96.414062 371.082031 93.742188 370.820312 91.113281 370.546875 C 88.480469 370.273438 85.886719 369.988281 83.335938 369.691406 C 80.785156 369.394531 78.277344 369.085938 75.8125 368.769531 C 73.347656 368.453125 70.929688 368.125 68.558594 367.785156 C 66.1875 367.449219 63.863281 367.101562 61.589844 366.742188 C 59.316406 366.382812 57.097656 366.015625 54.925781 365.640625 C 52.757812 365.261719 50.640625 364.878906 48.582031 364.480469 C 46.519531 364.085938 44.515625 363.683594 42.570312 363.273438 C 40.625 362.859375 38.738281 362.441406 36.910156 362.011719 C 35.082031 361.582031 33.316406 361.148438 31.609375 360.703125 C 29.90625 360.261719 28.265625 359.8125 26.6875 359.355469 C 25.109375 358.898438 23.597656 358.433594 22.152344 357.964844 C 20.703125 357.492188 19.324219 357.015625 18.011719 356.535156 C 16.703125 356.054688 15.457031 355.566406 14.285156 355.074219 C 13.109375 354.582031 12.007812 354.085938 10.972656 353.582031 C 9.9375 353.082031 8.976562 352.574219 8.085938 352.066406 C 7.195312 351.554688 6.378906 351.039062 5.632812 350.523438 C 4.886719 350.007812 4.214844 349.488281 3.617188 348.964844 C 3.015625 348.441406 2.492188 347.917969 2.042969 347.390625 C 1.59375 346.863281 1.214844 346.332031 0.914062 345.800781 C 0.613281 345.273438 0.390625 344.742188 0.238281 344.207031 C 0.0898438 343.675781 0.0117188 343.144531 0.0117188 342.609375 C 0.0117188 342.078125 0.0898438 341.542969 0.238281 341.011719 C 0.390625 340.480469 0.613281 339.949219 0.914062 339.417969 C 1.214844 338.886719 1.59375 338.359375 2.042969 337.832031 C 2.492188 337.304688 3.015625 336.777344 3.617188 336.257812 C 4.214844 335.734375 4.886719 335.214844 5.632812 334.695312 C 6.378906 334.179688 7.195312 333.664062 8.085938 333.15625 C 8.976562 332.644531 9.9375 332.140625 10.972656 331.636719 C 12.007812 331.136719 13.109375 330.640625 14.285156 330.144531 C 15.457031 329.652344 16.703125 329.167969 18.011719 328.683594 C 19.324219 328.203125 20.703125 327.726562 22.152344 327.257812 C 23.597656 326.785156 25.109375 326.324219 26.6875 325.867188 C 28.265625 325.410156 29.90625 324.957031 31.609375 324.515625 C 33.316406 324.074219 35.082031 323.636719 36.910156 323.207031 C 38.738281 322.78125 40.625 322.359375 42.570312 321.949219 C 44.515625 321.535156 46.519531 321.132812 48.582031 320.738281 C 50.640625 320.34375 52.757812 319.957031 54.925781 319.578125 C 57.097656 319.203125 59.316406 318.835938 61.589844 318.476562 C 63.863281 318.121094 66.1875 317.773438 68.558594 317.433594 C 70.929688 317.09375 73.347656 316.765625 75.8125 316.449219 C 78.277344 316.132812 80.785156 315.824219 83.335938 315.53125 C 85.886719 315.234375 88.480469 314.949219 91.113281 314.675781 C 93.742188 314.398438 96.414062 314.136719 99.117188 313.886719 C 101.824219 313.636719 104.566406 313.394531 107.339844 313.167969 C 110.113281 312.941406 112.917969 312.722656 115.75 312.519531 C 118.585938 312.316406 121.449219 312.125 124.335938 311.945312 C 127.226562 311.765625 130.136719 311.597656 133.074219 311.441406 C 136.011719 311.289062 138.96875 311.144531 141.945312 311.015625 C 144.921875 310.886719 147.914062 310.769531 150.921875 310.667969 C 153.933594 310.5625 156.953125 310.472656 159.988281 310.394531 C 163.023438 310.316406 166.070312 310.25 169.121094 310.199219 C 172.175781 310.144531 175.234375 310.105469 178.300781 310.078125 C 181.363281 310.054688 184.429688 310.039062 187.5 310.039062 C 190.566406 310.039062 193.632812 310.054688 196.699219 310.078125 C 199.761719 310.105469 202.824219 310.144531 205.875 310.199219 C 208.929688 310.25 211.972656 310.316406 215.007812 310.394531 C 218.042969 310.472656 221.066406 310.5625 224.074219 310.667969 C 227.085938 310.769531 230.078125 310.886719 233.054688 311.015625 C 236.03125 311.144531 238.988281 311.289062 241.921875 311.441406 C 244.859375 311.597656 247.773438 311.765625 250.660156 311.945312 C 253.550781 312.125 256.414062 312.316406 259.246094 312.519531 C 262.082031 312.722656 264.886719 312.941406 267.660156 313.167969 C 270.433594 313.394531 273.171875 313.636719 275.878906 313.886719 C 278.585938 314.136719 281.253906 314.398438 283.886719 314.675781 C 286.519531 314.949219 289.109375 315.234375 291.660156 315.53125 C 294.210938 315.824219 296.71875 316.132812 299.183594 316.449219 C 301.648438 316.765625 304.066406 317.09375 306.4375 317.433594 C 308.8125 317.773438 311.132812 318.121094 313.40625 318.476562 C 315.679688 318.835938 317.902344 319.203125 320.070312 319.578125 C 322.242188 319.957031 324.355469 320.34375 326.417969 320.738281 C 328.476562 321.132812 330.480469 321.535156 332.429688 321.949219 C 334.375 322.359375 336.261719 322.78125 338.089844 323.207031 C 339.917969 323.636719 341.683594 324.074219 343.386719 324.515625 C 345.09375 324.957031 346.734375 325.410156 348.3125 325.867188 C 349.890625 326.324219 351.402344 326.785156 352.847656 327.257812 C 354.292969 327.726562 355.671875 328.203125 356.984375 328.683594 C 358.296875 329.167969 359.539062 329.652344 360.714844 330.144531 C 361.886719 330.640625 362.992188 331.136719 364.027344 331.636719 C 365.058594 332.140625 366.023438 332.644531 366.914062 333.15625 C 367.804688 333.664062 368.621094 334.179688 369.367188 334.695312 C 370.113281 335.214844 370.785156 335.734375 371.382812 336.257812 C 371.980469 336.777344 372.507812 337.304688 372.957031 337.832031 C 373.40625 338.359375 373.78125 338.886719 374.082031 339.417969 C 374.382812 339.949219 374.609375 340.480469 374.761719 341.011719 C 374.910156 341.542969 374.984375 342.078125 374.984375 342.609375 Z M 374.984375 342.609375 " fill-opacity="1" fill-rule="nonzero"/><path fill="#eec39d" d="M 86.691406 237.421875 C 86.691406 237.421875 92.414062 231.953125 93.230469 226.476562 C 94.132812 220.4375 92.574219 207.929688 96.0625 202.132812 C 99.554688 196.339844 107.210938 191.878906 114.167969 191.710938 C 121.460938 191.53125 136.109375 195.136719 139.820312 201.070312 C 143.53125 207.007812 137.261719 222.023438 136.4375 227.324219 C 134.644531 238.835938 130.664062 242.019531 126.222656 244 C 119.839844 246.851562 110.949219 241.375 110.949219 241.375 L 103.964844 254.972656 Z M 86.691406 237.421875 " fill-opacity="1" fill-rule="evenodd"/><g clip-path="url(#2e9306543f)"><g clip-path="url(#971371ca31)"><g clip-path="url(#10d290bd0b)"><path fill="#e0b48d" d="M 111.144531 241.390625 C 111.144531 241.390625 108.203125 240.097656 106.425781 238.414062 C 104.0625 236.175781 99.5625 231.804688 99.5625 231.804688 C 99.5625 231.804688 101.636719 236.75 103.964844 240.199219 C 105.457031 242.414062 108.953125 246.476562 108.953125 246.476562 Z M 111.144531 241.390625 " fill-opacity="1" fill-rule="evenodd"/></g></g></g><path fill="#835e4e" d="M 60.359375 341.984375 C 60.359375 341.984375 79.53125 335.265625 84.324219 329.933594 C 95.625 317.378906 113.886719 317.394531 129.980469 318.144531 C 141.179688 318.664062 163.179688 312.761719 168.308594 326.460938 C 172.554688 337.800781 163.925781 352.507812 158 355.527344 C 144.535156 362.386719 108.320312 358.066406 106.90625 358.371094 C 104.402344 358.90625 84.734375 361 74.191406 358.664062 C 62.167969 356 60.359375 341.984375 60.359375 341.984375 Z M 60.359375 341.984375 " fill-opacity="1" fill-rule="evenodd"/><g clip-path="url(#163f5623c3)"><g clip-path="url(#42cff0c543)"><g clip-path="url(#92f7a96f8a)"><path fill="#745343" d="M 139.148438 316.171875 C 139.148438 316.171875 143.316406 320 147.4375 326.105469 C 149.585938 329.292969 151.722656 333.09375 153.246094 337.300781 C 153.425781 337.792969 154.007812 338.085938 154.542969 337.949219 C 155.074219 337.816406 155.363281 337.304688 155.183594 336.8125 C 153.582031 332.457031 151.351562 328.523438 149.109375 325.230469 C 144.8125 318.925781 140.476562 314.980469 140.476562 314.980469 C 140.089844 314.628906 139.480469 314.613281 139.117188 314.941406 C 138.75 315.269531 138.765625 315.820312 139.148438 316.171875 Z M 139.148438 316.171875 " fill-opacity="1" fill-rule="evenodd"/></g></g></g><g clip-path="url(#546f4476f5)"><g clip-path="url(#043d2e0ce0)"><g clip-path="url(#2cccb090ee)"><path fill="#745343" d="M 129.84375 359.632812 C 129.84375 359.632812 113.753906 353.695312 106.835938 353.925781 C 95.851562 354.296875 87.371094 359.832031 87.371094 359.832031 C 87.371094 359.832031 95.015625 361.800781 100.546875 361.601562 C 106.078125 361.402344 129.84375 359.632812 129.84375 359.632812 Z M 129.84375 359.632812 " fill-opacity="1" fill-rule="evenodd"/></g></g></g><path fill="#eec39d" d="M 146.109375 358.75 C 146.109375 358.75 153.1875 355.582031 155.195312 349.058594 C 156.664062 344.289062 155.265625 338.316406 155.265625 338.316406 C 155.265625 338.316406 165.925781 339.332031 169.621094 344.726562 C 171.753906 347.839844 172.796875 355.042969 167.210938 358.566406 C 161.257812 362.320312 146.109375 358.75 146.109375 358.75 Z M 146.109375 358.75 " fill-opacity="1" fill-rule="evenodd"/><path fill="#eec39d" d="M 146.578125 325.53125 C 146.289062 325.386719 144.261719 320.859375 143.773438 318.332031 C 143.203125 315.367188 143.15625 307.742188 143.15625 307.742188 C 143.15625 307.742188 155.707031 307.523438 160.738281 314.210938 C 163.734375 318.195312 171.355469 336.128906 160.371094 327.691406 C 155.460938 323.921875 146.578125 325.53125 146.578125 325.53125 Z M 146.578125 325.53125 " fill-opacity="1" fill-rule="evenodd"/><path fill="#af775e" d="M 60.285156 342.46875 C 60.285156 342.46875 48.816406 312 65.910156 264.320312 C 70.945312 250.277344 89.535156 233.875 89.535156 233.875 C 89.535156 233.875 101.183594 239.332031 105.550781 243.863281 C 110.105469 248.585938 115.136719 254.460938 116.851562 262.207031 C 117.679688 265.9375 114.894531 285.628906 121.15625 298.023438 C 126.515625 308.625 144.46875 307.722656 144.46875 307.722656 C 144.46875 307.722656 143.5 310.300781 143.957031 316.683594 C 144.3125 321.605469 147.539062 326.339844 147.539062 326.339844 C 147.539062 326.339844 137.5 327.980469 128.816406 326.65625 C 119.863281 325.289062 111.796875 321.078125 111.796875 321.078125 C 111.796875 321.078125 95.210938 323.566406 92.464844 326.085938 C 79.496094 337.996094 60.285156 342.46875 60.285156 342.46875 Z M 60.285156 342.46875 " fill-opacity="1" fill-rule="evenodd"/><g clip-path="url(#43f96cf3d1)"><g clip-path="url(#7b432e6220)"><g clip-path="url(#42e6e9b2d3)"><path fill="#a16950" d="M 84.109375 257.804688 C 84.109375 257.804688 87.183594 253.425781 92.011719 251.996094 C 94.761719 251.183594 98.074219 251.289062 101.710938 253.652344 C 104.824219 255.675781 108.066406 260.898438 110.871094 266.78125 C 115.664062 276.839844 119.292969 288.78125 119.292969 288.78125 C 119.464844 289.34375 119.144531 289.941406 118.582031 290.113281 C 118.015625 290.28125 117.421875 289.964844 117.25 289.398438 C 117.25 289.398438 113.699219 277.613281 108.992188 267.675781 C 106.394531 262.191406 103.488281 257.253906 100.59375 255.363281 C 97.59375 253.402344 94.859375 253.273438 92.585938 253.941406 C 88.40625 255.167969 85.746094 258.957031 85.746094 258.957031 C 85.429688 259.410156 84.804688 259.519531 84.351562 259.199219 C 83.898438 258.882812 83.792969 258.257812 84.109375 257.804688 Z M 84.109375 257.804688 " fill-opacity="1" fill-rule="evenodd"/></g></g></g><g clip-path="url(#fc670dfec4)"><g clip-path="url(#4f300cafe7)"><g clip-path="url(#4776d74100)"><path fill="#a16950" d="M 84.539062 270.792969 C 84.539062 270.792969 87.613281 279.0625 90.917969 287.515625 C 92.449219 291.429688 94.027344 295.386719 95.371094 298.574219 C 96.757812 301.863281 98.863281 305.070312 101.132812 307.953125 C 106.53125 314.8125 112.855469 319.851562 112.855469 319.851562 C 113.316406 320.21875 113.394531 320.890625 113.023438 321.347656 C 112.660156 321.808594 111.988281 321.886719 111.527344 321.519531 C 111.527344 321.519531 105.027344 316.320312 99.488281 309.246094 C 97.109375 306.210938 94.914062 302.835938 93.460938 299.375 C 92.121094 296.167969 90.542969 292.195312 89.015625 288.261719 C 85.726562 279.78125 82.660156 271.488281 82.660156 271.488281 C 82.46875 270.96875 82.734375 270.394531 83.253906 270.203125 C 83.769531 270.007812 84.347656 270.273438 84.539062 270.792969 Z M 84.539062 270.792969 " fill-opacity="1" fill-rule="evenodd"/></g></g></g><g clip-path="url(#214178ca13)"><g clip-path="url(#ceef4c768f)"><g clip-path="url(#436045679a)"><path fill="#a16950" d="M 105.175781 315.015625 C 105.175781 315.015625 100.007812 316.992188 94.832031 318.632812 C 92.246094 319.457031 89.660156 320.191406 87.703125 320.5625 C 85.765625 320.933594 83.164062 321.1875 80.542969 321.363281 C 75.25 321.714844 69.871094 321.738281 69.871094 321.738281 C 69.28125 321.738281 68.804688 321.265625 68.800781 320.675781 C 68.800781 320.085938 69.277344 319.609375 69.867188 319.605469 C 69.867188 319.605469 75.175781 319.601562 80.410156 319.273438 C 82.9375 319.113281 85.449219 318.878906 87.316406 318.53125 C 89.210938 318.175781 91.714844 317.46875 94.21875 316.683594 C 99.34375 315.078125 104.464844 313.140625 104.464844 313.140625 C 104.980469 312.945312 105.5625 313.203125 105.757812 313.71875 C 105.953125 314.238281 105.695312 314.816406 105.175781 315.015625 Z M 105.175781 315.015625 " fill-opacity="1" fill-rule="evenodd"/></g></g></g><path fill="#261a1a" d="M 101.425781 227.351562 C 101.425781 227.351562 96.484375 232.164062 92.800781 228.539062 C 86.621094 222.449219 87.769531 206.292969 89.480469 198.886719 C 91.167969 191.566406 98.109375 184.730469 105.804688 182.632812 C 115.191406 180.074219 129.539062 183.925781 136.074219 190.804688 C 141.375 196.386719 142.085938 198.933594 143.285156 206.554688 C 144.851562 216.480469 139.394531 219.871094 137.882812 219.5 C 134.609375 218.695312 129.585938 213.589844 129.585938 213.589844 C 129.585938 213.589844 123.410156 213.007812 119.617188 214 C 114.679688 215.292969 113.855469 220.613281 113.855469 220.613281 L 110.03125 220.375 C 110.03125 220.375 108.324219 213.703125 103.738281 211.972656 C 100.769531 210.851562 97.890625 213.433594 96.417969 217.558594 C 94.78125 222.132812 101.425781 227.351562 101.425781 227.351562 Z M 101.425781 227.351562 " fill-opacity="1" fill-rule="evenodd"/><path fill="#fcf1e4" d="M 87.867188 204.707031 L 91.242188 191.097656 C 91.242188 191.097656 95.816406 178.648438 116.199219 180.058594 C 140.546875 181.742188 141.949219 193.882812 141.949219 193.882812 L 143.558594 210.445312 C 143.558594 210.445312 131.503906 212.464844 115.390625 211.71875 C 99.726562 210.992188 87.867188 204.707031 87.867188 204.707031 Z M 87.867188 204.707031 " fill-opacity="1" fill-rule="evenodd"/><path fill="#f1dfcb" d="M 143.753906 210.449219 L 141.949219 193.882812 C 141.949219 193.882812 128.140625 196.886719 116.214844 195.917969 C 102.789062 194.824219 91.457031 191.101562 91.457031 191.101562 L 87.863281 204.855469 C 87.863281 204.855469 101.285156 210.996094 115.605469 211.757812 C 128.195312 212.425781 143.753906 210.449219 143.753906 210.449219 Z M 143.753906 210.449219 " fill-opacity="1" fill-rule="evenodd"/><path fill="#eec39d" d="M 241.351562 168.121094 C 241.351562 168.121094 226.699219 163.808594 221.882812 158.28125 C 215.957031 151.480469 212.054688 131.03125 204.1875 126.011719 C 196.324219 120.996094 181.835938 125.027344 174.695312 128.175781 C 168.164062 131.054688 161.589844 138.777344 161.324219 144.902344 C 160.863281 155.429688 166.679688 158.6875 168.402344 167.925781 C 171.035156 182.054688 182.394531 189.011719 189.242188 189.960938 C 193.167969 190.507812 200.058594 187.796875 200.058594 187.796875 L 215.789062 196.457031 Z M 241.351562 168.121094 " fill-opacity="1" fill-rule="evenodd"/><path fill="#261a1a" d="M 220.59375 156.253906 C 220.5625 153.660156 219.410156 140.609375 216.722656 134.082031 C 214.921875 129.707031 209.40625 119.945312 205.746094 116.960938 C 200.289062 112.507812 195.144531 116.371094 195.144531 116.371094 C 195.144531 116.371094 188.675781 113.398438 180.003906 116.765625 C 174.007812 119.089844 161.296875 130.933594 161.296875 130.933594 L 162.871094 148.246094 L 182.363281 135.851562 C 182.363281 135.851562 187.398438 144.914062 194.160156 145.886719 C 195.183594 146.035156 199.324219 155.589844 200.046875 160.050781 C 200.746094 164.390625 200.941406 170.132812 194.945312 172.253906 C 189.660156 174.125 174.898438 175.269531 174.695312 180.714844 C 174.589844 183.480469 184.640625 190.285156 190.816406 190.75 C 196.628906 191.1875 205.136719 187.898438 209.496094 178.550781 C 211.964844 173.257812 210.980469 166.03125 208.90625 161.425781 C 206.875 156.917969 202.933594 152.25 202.636719 149.035156 C 202.386719 146.304688 204.367188 142.859375 207.136719 142.148438 C 211.027344 141.148438 213.132812 145.460938 214.019531 147.460938 C 215.046875 149.785156 214.300781 154.0625 215.394531 155.527344 C 216.445312 156.929688 220.609375 157.429688 220.59375 156.253906 Z M 220.59375 156.253906 " fill-opacity="1" fill-rule="evenodd"/><path fill="#af775e" d="M 230.535156 163.988281 C 230.535156 163.988281 229.921875 162.390625 234.933594 164.1875 C 239.464844 165.8125 239.402344 167.191406 239.402344 167.191406 C 239.402344 167.191406 260.328125 174.496094 266.519531 180.125 C 307.667969 217.550781 323.015625 325.417969 317.710938 334.722656 C 314.765625 339.886719 313.136719 322.410156 308.597656 317.46875 C 302.136719 310.4375 281.128906 308.921875 266.914062 308.222656 C 250.921875 307.433594 228.011719 313.371094 212.644531 312.746094 C 205.046875 312.4375 186.5625 307.78125 186.5625 307.78125 L 179.957031 305.9375 L 171.90625 305.324219 C 171.90625 305.324219 185.59375 281.730469 188.386719 244.664062 C 189.507812 229.742188 187.6875 209.28125 189.835938 199.800781 C 191.054688 194.410156 201.261719 187.796875 201.261719 187.796875 C 201.261719 187.796875 210.292969 192.714844 220.59375 186.617188 C 232.8125 179.386719 230.535156 163.988281 230.535156 163.988281 Z M 230.535156 163.988281 " fill-opacity="1" fill-rule="evenodd"/><g clip-path="url(#29ed8b27a5)"><g clip-path="url(#70d6a4ebff)"><path fill="#a16950" d="M 240.972656 197.902344 C 240.292969 205.671875 240.46875 215.234375 241.019531 224.667969 C 242.058594 242.488281 244.441406 259.855469 245.015625 263.886719 C 246.886719 263.964844 251.414062 264.304688 256.480469 265.800781 C 260.226562 266.910156 264.269531 268.652344 267.765625 271.371094 C 268.230469 271.730469 268.3125 272.402344 267.949219 272.867188 C 267.589844 273.332031 266.917969 273.417969 266.453125 273.054688 C 263.179688 270.5 259.390625 268.875 255.878906 267.828125 C 249.550781 265.949219 244.109375 265.960938 244.109375 265.960938 C 243.585938 265.964844 243.144531 265.582031 243.066406 265.066406 C 243.066406 265.066406 240.144531 245.226562 238.980469 224.785156 C 238.4375 215.246094 238.28125 205.578125 238.976562 197.726562 C 239.027344 197.175781 239.511719 196.765625 240.0625 196.8125 C 240.613281 196.863281 241.019531 197.347656 240.972656 197.902344 Z M 240.972656 197.902344 " fill-opacity="1" fill-rule="evenodd"/></g></g><g clip-path="url(#d012924982)"><g clip-path="url(#7234bd46ea)"><path fill="#a16950" d="M 280.296875 222.542969 C 280.296875 222.542969 281.714844 239.171875 282.109375 254.308594 C 282.339844 263.082031 282.21875 271.359375 281.304688 275.679688 C 280.5625 279.199219 278.625 282.347656 276.277344 285.011719 C 271.066406 290.914062 264.035156 294.621094 264.035156 294.621094 C 263.503906 294.875 249.300781 302.722656 249.042969 302.191406 C 248.945312 301.988281 243.421875 304.601562 243.90625 303.8125 C 244.679688 302.566406 257.777344 296.207031 262.910156 292.839844 C 267.082031 290.101562 269.753906 289.195312 274.699219 283.613281 C 276.816406 281.222656 278.589844 278.410156 279.261719 275.246094 C 280.160156 271.023438 280.265625 262.9375 280.054688 254.363281 C 279.683594 239.28125 278.304688 222.710938 278.304688 222.710938 C 278.257812 222.160156 278.664062 221.675781 279.214844 221.628906 C 279.765625 221.582031 280.25 221.992188 280.296875 222.542969 Z M 280.296875 222.542969 " fill-opacity="1" fill-rule="evenodd"/></g></g><g clip-path="url(#07fc4fae48)"><g clip-path="url(#aa3fc2dbc7)"><path fill="#a16950" d="M 304.355469 298.898438 C 301.363281 295.96875 297.441406 293.808594 293.707031 292.238281 C 287.339844 289.5625 281.488281 288.613281 281.488281 288.613281 C 280.90625 288.515625 280.511719 287.96875 280.609375 287.386719 C 280.703125 286.804688 281.253906 286.410156 281.832031 286.507812 C 281.832031 286.507812 289.472656 287.78125 296.929688 291.4375 C 300.105469 292.992188 303.242188 294.980469 305.761719 297.472656 C 306.15625 297.859375 306.160156 298.496094 305.773438 298.886719 C 305.386719 299.28125 304.75 299.289062 304.355469 298.898438 Z M 304.355469 298.898438 " fill-opacity="1" fill-rule="evenodd"/></g></g><g clip-path="url(#158acd414b)"><g clip-path="url(#110363ab09)"><path fill="#a16950" d="M 239.503906 166.820312 C 239.503906 166.820312 238.605469 172.285156 236.8125 177.484375 C 235.9375 180.03125 234.84375 182.507812 233.546875 184.292969 C 231.609375 186.957031 229.097656 189.035156 226.660156 190.601562 C 223.347656 192.734375 220.171875 193.917969 218.785156 194.378906 C 218.75 195.75 218.753906 197.355469 218.78125 198.945312 C 218.839844 202.9375 222.554688 279.1875 222.554688 279.1875 C 222.582031 279.738281 222.515625 280.75 221.929688 280.773438 C 221.339844 280.796875 220.773438 279.855469 220.75 279.304688 C 220.75 279.304688 216.71875 202.992188 216.667969 198.96875 C 216.644531 197.078125 216.648438 195.164062 216.707031 193.632812 C 216.722656 193.210938 217.023438 192.847656 217.457031 192.730469 C 217.457031 192.730469 221.351562 191.648438 225.488281 189.007812 C 227.738281 187.566406 230.058594 185.667969 231.851562 183.214844 C 233.058594 181.5625 234.0625 179.261719 234.882812 176.902344 C 236.636719 171.847656 237.523438 166.535156 237.523438 166.535156 C 237.609375 166.023438 238.121094 165.675781 238.664062 165.753906 C 239.210938 165.832031 239.585938 166.308594 239.503906 166.820312 Z M 239.503906 166.820312 " fill-opacity="1" fill-rule="evenodd"/></g></g><g clip-path="url(#bf7aa84b3e)"><g clip-path="url(#1940b0f982)"><path fill="#a16950" d="M 220.992188 280.792969 C 222 281.660156 224.003906 283.660156 225.917969 286.863281 C 227.089844 288.824219 228.226562 291.238281 229.082031 294.117188 C 229.695312 296.175781 229.910156 298.125 229.863281 299.839844 C 229.796875 302.160156 229.257812 304.039062 228.539062 305.117188 C 228.167969 305.679688 228.320312 306.4375 228.878906 306.808594 C 229.4375 307.183594 230.195312 307.03125 230.570312 306.46875 C 231.324219 305.332031 231.980469 303.507812 232.214844 301.230469 C 232.445312 298.996094 232.273438 296.304688 231.417969 293.421875 C 230.5 290.324219 229.273438 287.722656 228.007812 285.609375 C 225.90625 282.089844 223.691406 279.894531 222.578125 278.941406 C 222.070312 278.503906 221.296875 278.5625 220.859375 279.070312 C 220.421875 279.582031 220.480469 280.351562 220.992188 280.792969 Z M 220.992188 280.792969 " fill-opacity="1" fill-rule="evenodd"/></g></g><g clip-path="url(#e5dfe5b4dc)"><g clip-path="url(#37e1e56d40)"><path fill="#a16950" d="M 222.273438 280.480469 C 224.625 278.46875 227.699219 276.363281 230.804688 274.421875 C 237.636719 270.148438 244.636719 266.667969 244.636719 266.667969 C 245.238281 266.367188 245.484375 265.636719 245.1875 265.03125 C 244.886719 264.429688 244.15625 264.183594 243.554688 264.484375 C 243.554688 264.484375 236.445312 268.015625 229.511719 272.351562 C 226.296875 274.363281 223.121094 276.542969 220.691406 278.628906 C 220.179688 279.066406 220.117188 279.835938 220.558594 280.347656 C 220.996094 280.859375 221.765625 280.921875 222.273438 280.480469 Z M 222.273438 280.480469 " fill-opacity="1" fill-rule="evenodd"/></g></g><g clip-path="url(#9da2ed3742)"><g clip-path="url(#8c86be86e0)"><path fill="#a16950" d="M 196.285156 218.445312 C 196.515625 225.296875 196.769531 232.207031 196.832031 239.105469 C 196.871094 243.695312 196.824219 248.277344 196.625 252.835938 C 196.597656 253.507812 197.117188 254.078125 197.789062 254.109375 C 198.460938 254.136719 199.03125 253.613281 199.058594 252.941406 C 199.261719 248.34375 199.308594 243.714844 199.269531 239.085938 C 199.207031 232.164062 198.953125 225.234375 198.71875 218.363281 C 198.699219 217.691406 198.132812 217.164062 197.460938 217.1875 C 196.789062 217.210938 196.261719 217.773438 196.285156 218.445312 Z M 196.285156 218.445312 " fill-opacity="1" fill-rule="evenodd"/></g></g><path fill="#835e4e" d="M 318.460938 328.925781 C 318.933594 333.832031 318.414062 338.539062 312 343.171875 C 288.625 360.066406 242.273438 349.3125 242.273438 349.3125 C 242.273438 349.3125 230.632812 353.386719 221.1875 353.796875 C 199.980469 354.730469 179.382812 359.019531 169.28125 345.769531 C 162.761719 337.222656 160.929688 316.503906 172.941406 305.847656 C 186.289062 294.003906 222.445312 312.398438 251.804688 300.894531 C 270.632812 293.515625 292.511719 302.140625 301.578125 307.992188 C 312.546875 315.066406 317.878906 322.835938 318.460938 328.925781 Z M 318.460938 328.925781 " fill-opacity="1" fill-rule="evenodd"/><g clip-path="url(#0f4be16ae5)"><g clip-path="url(#791f34619c)"><path fill="#745343" d="M 164.144531 314.707031 C 164.144531 314.707031 159.988281 330.605469 164.144531 339.667969 C 172.429688 357.742188 195.070312 357.769531 195.070312 357.769531 L 222.992188 355.199219 C 222.992188 355.199219 215.175781 351.625 199.429688 351.984375 C 191.277344 352.171875 181.769531 350.164062 175.011719 346.449219 C 163.507812 340.125 164.144531 314.707031 164.144531 314.707031 Z M 164.144531 314.707031 " fill-opacity="1" fill-rule="evenodd"/></g></g><g clip-path="url(#ef6196cd8d)"><g clip-path="url(#5271eb631a)"><path fill="#745343" d="M 241.261719 304.144531 C 241.261719 304.144531 234.433594 304.816406 226.539062 307.859375 C 223.507812 309.027344 220.339844 310.5625 217.363281 312.53125 C 214.941406 314.125 212.652344 316.007812 210.6875 318.214844 C 208.726562 320.417969 207.128906 322.960938 205.933594 325.769531 C 204.484375 329.425781 201.957031 332.648438 199.171875 335.417969 C 192.402344 342.160156 184.082031 346.222656 184.082031 346.222656 C 183.847656 346.320312 183.734375 346.585938 183.832031 346.820312 C 183.925781 347.054688 184.195312 347.167969 184.429688 347.070312 C 184.429688 347.070312 193.570312 343.988281 201.257812 337.738281 C 204.707031 334.9375 207.777344 331.464844 209.769531 327.480469 C 210.460938 326.03125 211.320312 324.703125 212.246094 323.4375 C 213.199219 322.140625 214.25 320.929688 215.363281 319.792969 C 217.695312 317.414062 220.320312 315.367188 223.015625 313.644531 C 224.765625 312.519531 226.519531 311.511719 228.234375 310.621094 C 235.3125 306.949219 241.472656 305.332031 241.472656 305.332031 C 241.800781 305.273438 242.019531 304.960938 241.960938 304.632812 C 241.902344 304.304688 241.589844 304.085938 241.261719 304.144531 Z M 241.261719 304.144531 " fill-opacity="1" fill-rule="evenodd"/></g></g><path fill="#eec39d" d="M 261.222656 351.394531 L 218.101562 345.347656 C 218.101562 345.347656 209.359375 348.054688 205.855469 351.332031 C 203.648438 353.398438 203.394531 359.300781 208.90625 361.445312 C 211.9375 362.628906 234.644531 362.800781 247.175781 359.945312 C 258.921875 357.269531 261.222656 351.394531 261.222656 351.394531 Z M 261.222656 351.394531 " fill-opacity="1" fill-rule="evenodd"/><g clip-path="url(#978695f9ce)"><path fill="#fcf1e4" d="M 216.328125 133.308594 L 208.929688 115.585938 C 208.929688 115.585938 202.320312 103.890625 178.332031 113.441406 C 157.707031 121.648438 158.941406 131.71875 158.941406 131.71875 L 161.691406 151.03125 C 161.691406 151.03125 171.550781 151.042969 189.519531 145.886719 C 204.28125 141.648438 216.328125 133.308594 216.328125 133.308594 Z M 216.328125 133.308594 " fill-opacity="1" fill-rule="evenodd"/></g><path fill="#f1dfcb" d="M 216.328125 133.382812 L 208.929688 115.585938 C 208.929688 115.585938 205.324219 120.792969 187.855469 128.199219 C 170.371094 135.617188 159.136719 134.082031 159.136719 134.082031 L 161.691406 151.03125 C 161.691406 151.03125 176.28125 150.660156 190.75 145.886719 C 206.980469 140.53125 216.328125 133.382812 216.328125 133.382812 Z M 216.328125 133.382812 " fill-opacity="1" fill-rule="evenodd"/><path fill="#f5d7b4" d="M 215.050781 285.167969 C 215.050781 285.167969 164.886719 281.765625 161.523438 283.101562 C 156.785156 284.988281 149.164062 305.859375 149.164062 305.859375 L 203.597656 309.476562 Z M 215.050781 285.167969 " fill-opacity="1" fill-rule="evenodd"/><path fill="#f5d7b4" d="M 205.539062 309.542969 L 192.484375 275.113281 C 192.484375 275.113281 142.746094 268.132812 135.871094 271.261719 C 135.144531 271.59375 132.402344 273.378906 133.070312 275.234375 C 136.527344 284.792969 152.277344 307.976562 152.277344 307.976562 Z M 205.539062 309.542969 " fill-opacity="1" fill-rule="evenodd"/><path fill="#fbedde" d="M 208.203125 307.292969 C 208.203125 307.292969 204.71875 279.300781 193.492188 274.050781 C 182.421875 268.875 141.226562 266.171875 137.320312 271.175781 C 134.496094 274.792969 153.921875 306.375 153.921875 306.375 Z M 208.203125 307.292969 " fill-opacity="1" fill-rule="evenodd"/><path fill="#aab1bd" d="M 193.429688 277.386719 C 190.007812 275.707031 176.082031 273.894531 163.886719 273.105469 C 156.128906 272.605469 149.070312 272.515625 145.863281 273.105469 C 144.691406 273.324219 143.984375 273.683594 143.761719 274.0625 C 143.519531 274.472656 143.503906 275.246094 143.757812 276.292969 C 144.191406 278.078125 145.335938 280.769531 146.8125 283.796875 C 151.15625 292.699219 158.363281 304.539062 158.363281 304.539062 C 158.445312 304.675781 158.605469 304.769531 158.785156 304.777344 C 158.785156 304.777344 183.34375 306.222656 196.113281 304.691406 C 198.96875 304.347656 201.246094 303.847656 202.570312 303.167969 C 203.867188 302.503906 204.347656 301.664062 203.917969 300.671875 C 202.050781 296.386719 199.265625 287.230469 196.644531 281.785156 C 195.542969 279.496094 194.417969 277.851562 193.441406 277.375 Z M 192.914062 278.160156 C 193.375 278.382812 193.839844 278.9375 194.339844 279.707031 C 195.105469 280.878906 195.902344 282.535156 196.699219 284.429688 C 199 289.875 201.3125 297.269531 202.933594 300.988281 C 203.1875 301.566406 202.792969 302.011719 202.035156 302.398438 C 200.132812 303.371094 196.15625 303.910156 191.371094 304.207031 C 179.109375 304.964844 161.601562 304.042969 159.148438 303.90625 C 158.144531 302.25 151.75 291.613281 147.765625 283.453125 C 146.320312 280.488281 145.191406 277.855469 144.769531 276.109375 C 144.578125 275.335938 144.5 274.761719 144.679688 274.460938 C 144.730469 274.375 144.851562 274.320312 145.007812 274.257812 C 145.367188 274.105469 145.890625 273.988281 146.546875 273.890625 C 150.644531 273.289062 159.675781 273.59375 168.75 274.347656 C 179.34375 275.230469 190.007812 276.714844 192.925781 278.144531 Z M 192.914062 278.160156 " fill-opacity="1" fill-rule="evenodd"/><path fill="#444b57" d="M 220.34375 291.542969 C 213.113281 286.480469 186.765625 284.050781 173.824219 285.777344 C 169.25 286.386719 159.984375 287.957031 155.171875 294.328125 C 149.484375 301.863281 150.75 309.113281 150.75 309.113281 L 207.496094 310.964844 C 207.496094 310.964844 208.4375 304.625 212.101562 299.238281 C 216.492188 292.785156 223.699219 293.890625 220.34375 291.542969 Z M 220.34375 291.542969 " fill-opacity="1" fill-rule="evenodd"/><path fill="#444b57" d="M 153.796875 309.277344 L 132.546875 273.917969 L 128.699219 273.804688 L 150.75 309.1875 Z M 153.796875 309.277344 " fill-opacity="1" fill-rule="evenodd"/><path fill="#eec39d" d="M 228.589844 305.394531 C 228.589844 305.394531 230.6875 300.746094 229.097656 294.402344 C 227.542969 288.191406 224.949219 285.074219 224.949219 285.074219 C 224.949219 285.074219 212.367188 287.726562 211.269531 286.460938 C 208.890625 283.699219 205.429688 282.417969 202.890625 282.851562 C 200.15625 283.316406 198.824219 286.011719 198.824219 286.011719 C 198.824219 286.011719 206.121094 288.535156 205.519531 289.742188 C 202.933594 294.941406 191.277344 290.058594 188.808594 292.152344 C 186.984375 293.703125 190.214844 296.539062 190.214844 296.539062 C 190.214844 296.539062 182.65625 294.90625 182.273438 298.09375 C 181.871094 301.488281 187.703125 305.847656 190.410156 307.414062 C 195.003906 310.078125 202.972656 312.839844 211.449219 308.785156 C 217.941406 305.683594 228.589844 305.394531 228.589844 305.394531 Z M 228.589844 305.394531 " fill-opacity="1" fill-rule="evenodd"/><g clip-path="url(#2af1ca84d9)"><g clip-path="url(#7701ec68d4)"><g clip-path="url(#f47e784ea1)"><path fill="#e5b68d" d="M 184.382812 296.0625 C 184.382812 296.0625 189.410156 297.714844 194.503906 298.300781 C 196.980469 298.589844 199.476562 298.617188 201.429688 298.109375 C 201.824219 298.003906 202.085938 297.472656 202.003906 296.917969 C 201.925781 296.363281 201.539062 295.996094 201.140625 296.101562 C 199.300781 296.585938 196.945312 296.542969 194.605469 296.273438 C 189.621094 295.703125 184.699219 294.09375 184.699219 294.09375 C 184.308594 293.96875 183.917969 294.304688 183.828125 294.847656 C 183.742188 295.390625 183.988281 295.9375 184.382812 296.0625 Z M 184.382812 296.0625 " fill-opacity="1" fill-rule="evenodd"/></g></g></g><g clip-path="url(#5ca70e87c3)"><g clip-path="url(#0ee40495ca)"><g clip-path="url(#5a3d92470e)"><path fill="#e5b68d" d="M 188.261719 308.960938 C 188.261719 308.960938 194.332031 310.105469 200.109375 309.867188 C 203.121094 309.742188 206.050781 309.230469 208.050781 308.035156 C 208.421875 307.816406 208.589844 307.214844 208.425781 306.695312 C 208.261719 306.179688 207.828125 305.9375 207.457031 306.160156 C 205.59375 307.277344 202.855469 307.714844 200.050781 307.832031 C 194.386719 308.070312 188.441406 306.953125 188.441406 306.953125 C 188.042969 306.878906 187.679688 307.265625 187.632812 307.820312 C 187.582031 308.375 187.867188 308.882812 188.261719 308.960938 Z M 188.261719 308.960938 " fill-opacity="1" fill-rule="evenodd"/></g></g></g><g clip-path="url(#510b2c36a6)"><g clip-path="url(#27df96248a)"><g clip-path="url(#e368f03898)"><path fill="#e5b68d" d="M 182.90625 302.546875 C 182.90625 302.546875 188.964844 304.335938 195.785156 304.511719 C 198.675781 304.582031 201.699219 304.363281 204.460938 303.609375 C 204.910156 303.488281 205.191406 302.941406 205.085938 302.390625 C 204.976562 301.839844 204.527344 301.496094 204.078125 301.617188 C 200.761719 302.523438 197.050781 302.613281 193.699219 302.371094 C 187.972656 301.960938 183.273438 300.582031 183.273438 300.582031 C 182.828125 300.449219 182.386719 300.785156 182.28125 301.328125 C 182.179688 301.871094 182.457031 302.417969 182.90625 302.546875 Z M 182.90625 302.546875 " fill-opacity="1" fill-rule="evenodd"/></g></g></g></svg>