<svg xmlns="http://www.w3.org/2000/svg" viewBox="0 0 269.99 300"><path fill="#e0e9ee" d="M228.14,183.6v102.91H37.75v-102.91c0-32.8,26.55-46.37,26.55-46.37,0,0-21.33-22.5-21.33-44.9,0-.97.02-1.92.08-2.87.08-1.69.25-3.36.5-5.03C51.26,32.36,132.92,0,132.92,0c0,0,89.97,35.64,89.97,92.33,0,22.4-21.31,44.9-21.31,44.9,0,0,26.55,13.57,26.55,46.37Z"/><path fill="#c3d8e2" d="M54.58,131.53v1.21c0,.68.55,1.22,1.22,1.22h1.92v87.9h79.87v-87.9h1.92c.68,0,1.22-.55,1.22-1.22v-1.21c0-.68-.55-1.22-1.22-1.22h-1.02s4.14-8.04,2.34-20.93c-4.07-29.09-32.29-39.72-40.76-42.27-.41-.75-.96-1.64-1.74-2.33v-2.03s2.09-.58,2.09-2.19-1.32-2.27-1.99-2.76v-4.53s1.5-.42,1.5-1.73-.92-1.71-1.47-1.94v-3.06l-.77-7.46v-.18.09s-.03-.09-.03-.09v.18l-.77,7.46v3.06c-.54.23-1.48.64-1.48,1.94s1.53,1.73,1.53,1.73v4.53c-.68.49-2.03,1.16-2.03,2.76s2.09,2.19,2.09,2.19v2.03c-.76.69-1.35,1.59-1.75,2.33-8.48,2.56-36.69,13.18-40.76,42.27-1.8,12.88,2.34,20.93,2.34,20.93h-1.02c-.68,0-1.22.55-1.22,1.22ZM130.91,149.13c0-3.71,1.86-5.81,1.86-5.81,0,0,1.87,2.13,1.87,5.81v8.55h-3.73v-8.55ZM120.74,148.88c0-3.82,2.58-5.98,2.58-5.98,0,0,2.59,2.19,2.59,5.98v8.79h-5.17v-8.79ZM108.06,148.88c0-3.82,3.2-5.98,3.2-5.98,0,0,3.23,2.19,3.23,5.98v8.79h-6.43v-8.79ZM93.74,148.88c0-3.78,3.83-5.98,3.83-5.98,0,0,3.8,2.16,3.8,5.98v8.79h-7.63v-8.79ZM80.83,148.88c0-3.78,3.23-5.98,3.23-5.98,0,0,3.2,2.16,3.2,5.98v8.79h-6.43v-8.79ZM69.41,148.88c0-3.78,2.59-5.98,2.59-5.98,0,0,2.58,2.16,2.58,5.98v8.79h-5.17v-8.79ZM60.68,149.13c0-3.68,1.87-5.81,1.87-5.81,0,0,1.86,2.1,1.86,5.81v8.55h-3.73v-8.55Z"/><path fill="#e0e9ee" d="M269.99,290.79c0,5.09-58.58,9.21-130.84,9.21s-130.84-4.13-130.84-9.21,58.58-9.21,130.84-9.21,130.84,4.12,130.84,9.21Z"/><path fill="#779d8c" d="M247.73,223.62s1.26-27.77-1.27-37.48c-2.52-9.71-11.02-8.22-13.11.37-2.1,8.59-3.72,26.27-3.62,35.24.11,8.97.48,20.3.48,20.3l5.04,14.44,4.07.37,6.42-15.81,1.98-17.43Z"/><path fill="#597f72" d="M236.04,253.63s-5.11-16.31-7.64-25.9c-2.54-9.59-6.21-11.46-7.61-11.21-1.39.25-4.04,6.26-2.44,15.5,1.61,9.25,10.37,19.8,13.96,22.13,1.91,1.49,3.73-.53,3.73-.53Z"/><path fill="#597f72" d="M238.2,253.26s.73-9.84,4.13-17.81c3.4-7.97,6.73-18.93,11.47-26.52,4.74-7.6,8-7.84,9.37-7.84s3.79,6.97,1.13,13.7c-2.66,6.72-12.05,29.89-22.51,39.97-2.88.12-3.59-1.49-3.59-1.49Z"/><path fill="#779d8c" d="M241.68,253.49s9.45-18.48,14.48-29.35c5.03-10.86,9.61-12.98,11.13-12.7,1.52.28,3.18,7.09-.72,17.57-3.89,10.48-16.19,22.43-20.79,25.08-2.5,1.69-4.1-.6-4.1-.6Z"/><path fill="#4e685f" d="M237.25,252.76c-.22-21.78-.18-44.71,1.99-66.62-.78,21.5-.88,45.09-1.99,66.62h0Z"/><path fill="#4e685f" d="M265.68,215.25c-5.29,13.38-11.65,26.85-21.06,38.2,8.3-12.11,14.49-25.23,21.06-38.2h0Z"/><path fill="#4e685f" d="M221.16,219.73c3.32,11.91,6.87,23.75,12.94,34.37-7.28-9.78-11-22.08-12.94-34.37h0Z"/><path fill="#4e685f" d="M259.88,208.8c-5.51,15.43-11.43,30.83-18.99,45.57,6.09-14.72,12.42-31.02,18.99-45.57h0Z"/><g><path fill="#de8364" d="M252.92,260.8l-.03.67v.23l-.09,1.61-.7,15.45c-.18,4.07-3.54,7.26-7.61,7.26h-13.08c-4.01,0-7.34-3.13-7.58-7.14l-1-15.57-.12-1.84-.03-.67h30.23Z"/><path fill="#de8364" d="M255.67,254.19l-.91,6.26c-.12.7-.73,1.26-1.46,1.26h-31.05c-.73,0-1.38-.56-1.46-1.29l-.88-6.26c-.12-.88.56-1.67,1.46-1.67h32.86c.88,0,1.58.79,1.43,1.7Z"/></g><path fill="#ba5b58" d="M252.8,263.32l-.7,15.45c-.18,4.07-3.54,7.26-7.61,7.26h-2.17c.47-5.38,1.58-18.08,1.76-22.71h8.72Z"/><polygon fill="#a3483e" points="244.23 261.47 222.72 261.47 222.84 263.32 252.8 263.32 252.89 261.71 252.89 261.47 244.23 261.47"/><path fill="#ba5b58" d="M255.67,254.19l-.91,6.26c-.12.7-.73,1.26-1.46,1.26h-.41v-.23h-8.66c1.26-4.56.12-7.9-.32-8.98h10.33c.88,0,1.58.79,1.43,1.7Z"/><g><path fill="#779d8c" d="M21.25,223.62s-1.26-27.77,1.27-37.48c2.52-9.71,11.02-8.22,13.11.37,2.1,8.59,3.72,26.27,3.62,35.24-.11,8.97-.48,20.3-.48,20.3l-5.04,14.44-4.07.37-6.42-15.81-1.98-17.43Z"/><path fill="#597f72" d="M32.94,253.63s5.11-16.31,7.64-25.9c2.54-9.59,6.21-11.46,7.61-11.21,1.39.25,4.04,6.26,2.44,15.5-1.61,9.25-10.37,19.8-13.96,22.13-1.91,1.49-3.73-.53-3.73-.53Z"/><path fill="#597f72" d="M30.79,253.26s-.73-9.84-4.13-17.81c-3.4-7.97-6.73-18.93-11.47-26.52-4.74-7.6-8-7.84-9.37-7.84s-3.79,6.97-1.13,13.7c2.66,6.72,12.05,29.89,22.51,39.97,2.88.12,3.59-1.49,3.59-1.49Z"/><path fill="#779d8c" d="M27.3,253.49s-9.45-18.48-14.48-29.35c-5.03-10.86-9.61-12.98-11.13-12.7-1.52.28-3.18,7.09.72,17.57,3.89,10.48,16.19,22.43,20.79,25.08,2.5,1.69,4.1-.6,4.1-.6Z"/><path fill="#4e685f" d="M31.73,252.76c.22-21.78.18-44.71-1.99-66.62.78,21.5.88,45.09,1.99,66.62h0Z"/><path fill="#4e685f" d="M3.3,215.25c5.29,13.38,11.65,26.85,21.06,38.2-8.3-12.11-14.49-25.23-21.06-38.2h0Z"/><path fill="#4e685f" d="M47.82,219.73c-3.32,11.91-6.87,23.75-12.94,34.37,7.28-9.78,11-22.08,12.94-34.37h0Z"/><path fill="#4e685f" d="M9.1,208.8c5.51,15.43,11.43,30.83,18.99,45.57-6.09-14.72-12.42-31.02-18.99-45.57h0Z"/><g><path fill="#de8364" d="M16.06,260.8l.03.67v.23l.09,1.61.7,15.45c.18,4.07,3.54,7.26,7.61,7.26h13.08c4.01,0,7.34-3.13,7.58-7.14l1-15.57.12-1.84.03-.67h-30.23Z"/><path fill="#de8364" d="M13.31,254.19l.91,6.26c.12.7.73,1.26,1.46,1.26h31.05c.73,0,1.38-.56,1.46-1.29l.88-6.26c.12-.88-.56-1.67-1.46-1.67H14.75c-.88,0-1.58.79-1.43,1.7Z"/></g><path fill="#ba5b58" d="M16.18,263.32l.7,15.45c.18,4.07,3.54,7.26,7.61,7.26h2.17c-.47-5.38-1.58-18.08-1.76-22.71h-8.72Z"/><polygon fill="#a3483e" points="24.75 261.47 46.26 261.47 46.14 263.32 16.18 263.32 16.09 261.71 16.09 261.47 24.75 261.47"/><path fill="#ba5b58" d="M13.31,254.19l.91,6.26c.12.7.73,1.26,1.46,1.26h.41v-.23h8.66c-1.26-4.56-.12-7.9.32-8.98h-10.33c-.88,0-1.58.79-1.43,1.7Z"/></g><path fill="#f8fdff" d="M181.25,68.25h-37.08s1.71-3.88,6.32-2.26c0,0,1.54-5.23,7.22-3.7,0,0,1.63-6.31,7.49-5.77,5.87.54,6.59,5.14,6.86,6.31,0,0,6.22-1.26,9.2,5.42Z"/><path fill="#f8fdff" d="M56.13,65.55h23.39s-1.08-2.45-3.98-1.42c0,0-.97-3.3-4.55-2.33,0,0-1.03-3.98-4.72-3.64-3.7.34-4.15,3.24-4.33,3.98,0,0-3.93-.8-5.8,3.42Z"/><g><path fill="#f9fbed" d="M173.13,113.66c-2.21,3.48-5.04,7.94-9.36,13.83-14.34,19.6-26.11,24.39-26.11,24.39l-10.36-10.83s17.05-13.7,24.7-27.87c9.18-16.25,18.08-31.35,18.08-31.35-.06,5.5,1.74,19.14,3.05,31.83Z"/><path fill="#f4f4f4" d="M190.65,271.89l-.21,6.12-.22,6.38s-2.73,4.57-7.73,4.01c-4.98-.54-5.13-7.54-5.13-7.54l.02-2.92.02-4.94c5.26-.19,10.18-.64,13.25-1.1Z"/><path fill="#49465f" d="M190.48,280.66c.9-.13,1.8.71,1.81,3.96.01,3.25.76,5.45-.64,6.06-1.4.61-13.36,4.28-18.98,3.93-5.62-.35-16.23-1.14-16.5-3.82s4.19-3.63,9.66-6.43c5.47-2.8,8.98-6.28,11.41-5.01,2.43,1.27,3.84,4.88,6.79,4.89,2.95,0,6.45-3.58,6.45-3.58Z"/><path fill="#b5b9bc" d="M190.65,271.89l-.21,6.12c-1.83.3-6.64.84-13.06-.07l.02-4.94c5.26-.19,10.18-.64,13.25-1.1Z"/><path fill="#f4f4f4" d="M236.34,284.31s-2.15,4.87-7.17,4.94c-5.02.07-6.05-6.85-6.05-6.85l-.3-2.43-.64-5.37c5.2-.84,10.01-1.91,13.01-2.75l.24,2.56.9,9.9Z"/><path fill="#49465f" d="M236.34,280.58c.88-.24,1.87.48,2.29,3.7.42,3.23,1.43,5.32.12,6.09-1.31.78-12.72,5.91-18.34,6.27-5.61.36-16.25.9-16.84-1.73-.6-2.63,3.7-4.12,8.78-7.59,5.08-3.46,8.12-7.35,10.69-6.39,2.57.96,4.42,4.36,7.35,4,2.93-.36,5.95-4.36,5.95-4.36Z"/><path fill="#b5b9bc" d="M235.44,274.41c-1.09.77-6.81,4.62-12.61,5.56l-.64-5.37c5.2-.84,10.01-1.91,13.01-2.75l.24,2.56Z"/><path fill="#fdc499" d="M131.93,187.39c-2.26.28-4.36.33-6.32.15-1.38-.11-2.68-.31-3.9-.61-5.42-1.27-9.43-4.17-12.04-7.59-2.32-3.05-3.55-6.51-3.71-9.61-.37-8.55,4.23-16.01,10.02-22.88,3.97-4.69,7.3-8.73,9.06-10.79.83-.96,1.29-2.19,1.34-3.49l.07-1.32s-10.15-5.64-8.05-8.38c.29-.37.66-.66,1.12-.88,2.65-1.29,7.41.22,7.41.22,0,0,2.65-1.71,4.32-3.25,1.67-1.56,5.53-1.27,4.87,3.38-.64,4.63-3.68,8.29-3.68,8.29l.48,1.67c.39,1.45,1.12,2.76,2.06,3.9,6.95,8.18,13.58,17.15,14.98,26.76,1.54,10.29-1.07,22.37-18.03,24.41Z"/><path fill="#f2ba94" d="M121.7,186.93c-10.23-2.4-15.44-10.59-15.74-17.2-.38-8.55,4.22-16,10.02-22.87,3.96-4.69,7.3-8.71,9.05-10.78.84-.97,1.3-2.21,1.35-3.5l.06-1.32s-10.14-5.63-8.04-8.38c.29-.38.66-.66,1.11-.88-.39.72-.72,2.13,1,3.57,2.46,2.09,8.55,5.85,8.55,5.85,0,0-1.33,3.01-2.32,4.66-1.01,1.65-10.27,15.25-14.02,22.34-4.42,8.36-3.8,22.22,8.98,28.5Z"/><path fill="#e5a980" d="M131.79,134.34c.4.35.77,1.42,1.04,1.91,1.93,4.19,3.53,8.57,4.57,13.07.02.11-.04.21-.15.24-.1.02-.21-.04-.23-.14-.67-2.53-1.54-5.01-2.51-7.45-.86-2.24-1.84-4.61-2.91-6.76-.03-.05-.13-.25-.16-.3,0,.02.03.03.06.02-.38-.18-.09-.78.29-.59h0Z"/><path fill="#e5a980" d="M128.81,134.59c-1.76,3.95-5.41,11.83-7.27,15.73-.1.23-.46.07-.36-.16,1.7-3.97,5.23-11.91,7.04-15.84.17-.38.78-.12.6.27h0Z"/><path fill="#da8c72" d="M124.68,132.91c-.11-.78,1.75-2.66,5-2.61,3.25.04,4.45.72,4.68,1.46.23.74-1.46,3.13-4.63,3.21s-4.94-1.23-5.05-2.06Z"/><path fill="#e5a980" d="M127.01,122.25c1.58-.18,3.04.74,4.08,1.83.05.06.05.15-.01.2-1.23-.49-2.16-1.69-4.05-1.75-.16,0-.17-.26-.01-.28h0Z"/><path fill="#b2692d" d="M27.71,125.08h26.64v96.1l3.32,5.33h-27.99l-3.89-99.44c-.04-1.08.82-1.98,1.91-1.98Z"/><path fill="#c98747" d="M26.69,125.08h0c-.53,0-.97.43-.97.97v104.99h6.58v-100.34c0-3.1-2.51-5.61-5.61-5.61Z"/><rect width="67.94" height="6.51" x="25.73" y="224.53" fill="#b2692d"/><rect width="60.67" height="6.51" x="25.73" y="224.53" fill="#c98747"/><rect width="6.58" height="59.39" x="25.73" y="231.04" fill="#c98747"/><rect width="2.15" height="59.39" x="32.31" y="231.04" fill="#b2692d"/><rect width="2.15" height="59.39" x="86.39" y="231.04" fill="#b2692d"/><rect width="6.58" height="59.41" x="79.81" y="231.03" fill="#c98747"/><rect width="48.09" height="6.91" x="32.05" y="269.39" fill="#c98747"/><path fill="#fdb18d" d="M153.02,285.51s-2.72,2.64-14.72.27c-12-2.37-17.44-4.28-21.72-5.6-.84-.27-1.32-.76-1.54-1.46-.86-2.7,2.59-9.54,2.74-14.67,3.93.66,10.42,2.65,15.83,1l-.49,4.53c-.08.72.29,1.42.95,1.75,3.99,1.98,17.68,8.73,20.44,10.07.66.33,1.11.66,1.42.99,1.21,1.32-.16,2.66-2.9,3.13Z"/><path fill="#49465f" d="M155.93,282.38c1.21,1.32-.16,2.66-2.9,3.13,0,0-2.63,2.52-14.03.39,1.67-1.95,6.15-6.72,10.87-7.48l-10.78-5.34s-7.69,2.77-12.1,10.16c-4.73-1.22-7.79-2.25-10.41-3.06-.84-.27-1.32-.76-1.54-1.46-.39.3-1.19,1.13-1.4,3.15-.1.91.47,1.77,1.32,2.11,4.04,1.6,16.56,6.08,30.79,6.46,6.49.16,12.27-1.85,12.87-4.47.54-2.24-1.11-3.03-2.7-3.58Z"/><path fill="#a59898" d="M106.6,171.6l-11.58,6.16-2.79-1.91v-.02c.44-14.72,2.19-50.95,2.19-50.95,0,0,5.04,7.24,8.69,34.81.69,4.4,1.25,8.14,3.49,11.91Z"/><path fill="#f59376" d="M84.29,115.44v-6.07l-11.85-4.76-1.12,10.45s4.2,7.93,8.59,7.56c2.61-.37,2.8-1.4,3.55-2.61.75-1.21.84-4.57.84-4.57Z"/><path fill="#b8acac" d="M102.78,195.93s-9.26-.57-18.05.15c-1.07.09-2.15.2-3.18.33-1.65.2-3.22.44-4.67.77-9.61,2.17-23.8,19.76-27.13,22.7-.11.11-.22.2-.31.26-2.68,1.95-5.61.55-5.61.55,0,0-1.82-41.85-.13-66.63,2.24-18.75,5.46-25.68,5.46-25.68,0,0,7.46-9.04,18.47-11.25,8.77,2.08,18.2,1.58,18.2,1.58,0,0,4.21.88,8.6,6.19,0,0-1.75,36.23-2.19,50.95v.02c-.04,1.51-.07,2.81-.09,3.82-.15,10.64,1.95,14.43,10.64,16.25Z"/><path fill="#efcdb1" d="M82.29,119.19c0-.8.25-1.58.72-2.23l1.38-1.9,1.45,3.64-3.55,5.13v-4.65Z"/><path fill="#a59898" d="M77.82,118.03c-1.33-.49-3.52-1.54-6.22-3.77-.31-.26-.75-.28-1.08-.04-.71.52-1.95,1.55-2.89,2.9,0,0,3.27,5.04,11.67,6.72l-.07-3.82c-.02-.9-.57-1.68-1.42-1.99Z"/><rect width="2.99" height="27.02" x="79.3" y="121.41" fill="#a59898"/><path fill="#554b4c" d="M119.43,217.38c-.5,8.14-3.88,41.39-4.5,47.48-.07.64-.11.97-.11.97-1.27.96-2.76,1.67-4.41,2.17-5.77,1.75-13.2.99-17.39.28-2-.33-3.27-.64-3.27-.64l2.94-43.12h-37.09c-2.61-.66-4.91-3.29-5.86-4.65,3.33-2.94,17.52-20.53,27.13-22.7,1.45-.33,3.03-.57,4.67-.77,1.03-.13,2.11-.24,3.18-.33,4.34.29,9.96.79,16.49,1.56,15.68,1.82,18.77,10.79,18.2,19.74Z"/><path fill="#9b8e8e" d="M90.85,189.24c-7.12-.37-14.84.53-21.49,2.25-6.24,2.93-11.15,8.31-15.78,13.33-.22.27-.67-.07-.43-.36,4.55-5.34,9.49-10.77,15.92-13.85,7.13-1.74,14.51-2.58,21.84-1.93.35.03.31.6-.06.56h0Z"/><path fill="#4c4142" d="M141.82,222.14c-1.12,13.58-5.44,43.41-5.44,43.41,0,0-9.3,2.22-21.45-.68.61-6.1,3.99-39.35,4.5-47.48.57-8.95-2.52-17.92-18.2-19.74-6.54-.77-12.15-1.27-16.49-1.56,8.79-.72,18.05-.15,18.05-.15,0,0,15.95,2.28,26.58,3.82s13.6,8.82,12.46,22.39Z"/><path fill="#fdb18d" d="M131.1,289.8s-2.9,2.81-15.68.28c-12.79-2.52-18.58-4.56-23.14-5.97-.9-.29-1.4-.81-1.65-1.56-.92-2.87,2.24-8.82,2.39-14.28,4.19.7,11.62,1.47,17.39-.28l-.53,4.83c-.09.77.31,1.51,1.01,1.86,4.25,2.11,18.84,9.3,21.78,10.73.7.35,1.18.7,1.51,1.05,1.29,1.4-.18,2.83-3.09,3.33Z"/><path fill="#49465f" d="M134.19,286.46c1.29,1.4-.18,2.83-3.09,3.33,0,0-2.8,2.68-14.94.42,1.77-2.08,6.56-7.16,11.58-7.97l-11.48-5.69s-8.2,2.95-12.89,10.82c-5.04-1.3-8.3-2.4-11.09-3.26-.9-.29-1.4-.81-1.65-1.56-.41.32-1.26,1.2-1.49,3.35-.1.97.5,1.89,1.41,2.25,4.31,1.71,17.64,6.48,32.8,6.88,6.91.18,13.07-1.97,13.71-4.76.57-2.39-1.18-3.22-2.87-3.82Z"/><path fill="#fdb18d" d="M150.27,177.12c-1.97-1.5-5.19-3.96-6.65-1.9-.45,1.07-.55,1.19-.55,1.19,0,0-1.22-.15-2.04.71-.82.86-.43,1.82-.43,1.82,0,0-1.07-.23-1.82.62-.75.85-.69,1.89-.69,1.89,0,0-1.19.39-1.56,1.25-.37.86,1.33,3.65,2.6,5.1,1.29,1.44,3.13.27,3.55-1.2,1.17.37,2.71-.65,3.09-2.43,1.72.41,2.89-1.83,3.1-2.76,1.87-.42,2.94-3.09,1.37-4.3Z"/><path fill="#dd9176" d="M143.17,176.9c1.36.89,2.69,1.86,3.99,2.9.18.15.39-.12.22-.29-1.17-1.25-2.48-2.33-3.92-3.19-.15-.09-.34-.02-.42.14-.07.16-.01.35.13.45h0Z"/><path fill="#dd9176" d="M140.6,179.39s.82.6,1.69,1.23c.97.71,1.99,1.47,1.99,1.47.09.06.2.05.26-.04.05-.08.03-.19-.03-.25-1.1-1.11-2.28-2.11-3.58-2.96-.35-.23-.68.33-.33.56h0Z"/><path fill="#dd9176" d="M138.15,181.83c1.09.85,2.18,1.73,3.3,2.58.18.14.4-.11.24-.28-.98-1.05-2.02-2.01-3.18-2.83-.15-.1-.35-.06-.44.09-.09.14-.05.33.08.44h0Z"/><path fill="#d3b297" d="M60.75,185.3s2.45,0,3.63-2.73c1.18-2.72-4.81-1.42-4.81-1.42,0,0-.44,2.62,1.18,4.15Z"/><path fill="#fdb18d" d="M129.3,180.31c-.09,1.07-.88,1.58-1.62,1.67,0,0,.37,1.97-1.12,2.48,0,0-.02,1.86-1.73,2.43-1.69.57-5.09,2-11.84,1.03-6.78-.99-11.21-4.06-13.69-4.5-2.37-.39-27.13,3.4-38.45-.46.11-1.95.72-5.26,3.11-9.08,3.84-6.05,11.38-5.13,11.38-5.13,0,0,10.53,3.42,22.79,3.75,0,0,5.4-3.49,9.74-4.41,4.32-.9,10,.44,12.3.35,2.32-.07.07,3.93-2.79,3.99-2.87.07-6.73,0-6.73,0,0,0,2.04,2.24,4.63,3.03,2.59.77,10.51.26,12.87,0,2.39-.29,1.12,2.72-.22,3.14,0,0,1.45.61,1.36,1.71Z"/><path fill="#dd9176" d="M128.05,178.86c-4.31,1.78-9.15,1.67-13.61.62-.15-.04-.24-.19-.21-.34.03-.14.17-.23.31-.21,4.42.53,8.99.65,13.29-.58.33-.14.55.38.22.52h0Z"/><path fill="#dd9176" d="M127.78,182.24c-3.97,1.52-8.32,1.49-12.45.81-.15-.03-.26-.17-.23-.33.02-.14.15-.24.29-.23,4.08.17,8.23.21,12.2-.78.33-.1.5.41.18.53h0Z"/><path fill="#dd9176" d="M126.68,184.71c-3.24,1.66-7,1.89-10.54,1.35-.15-.02-.26-.17-.23-.32.02-.14.15-.24.28-.24,3.46.02,6.98-.18,10.26-1.3.31-.12.53.36.23.51h0Z"/><path fill="#b8acac" d="M75.34,168.75s-7.54-.92-11.38,5.13c-2.39,3.82-3,7.13-3.11,9.08-.07,1.16.04,1.84.04,1.84,0,0-6.91,1.86-11.84-5.22-2.26-2.61-5.2-13.25-5.04-27.07.18-18.49,5.15-24.15,5.15-24.15,0,0,7.83-.42,11.21,7.41,3.36,7.83,4.12,13.51,4.96,22.9,0,0,1.54,2.02,2.17,4.12,0,0,5.59,2.3,7.85,5.94Z"/><path fill="#9b8e8e" d="M48.76,179.53c1.63-8.53,8.41-16.65,17.54-17,.36-.04.42.53.05.56-8.74.88-14.93,8.44-17.04,16.55-.06.35-.63.25-.55-.11h0Z"/><path fill="#9b8e8e" d="M65.09,158.83c-3.05-3.12-7.08-5.11-10.85-7.25-.14-.07-.19-.24-.11-.38.07-.13.22-.18.35-.13,1.03.42,2.06.87,3.05,1.37,2.98,1.59,5.95,3.28,8.03,6.08.21.3-.26.62-.47.31h0Z"/><path fill="#9b8e8e" d="M60.62,135.68c3.32,7.19,4.47,15.15,5.1,22.97,0,0-.08-.21-.08-.21.94,1.3,1.75,2.68,2.25,4.25l-.24-.26c3.1,1.41,6.12,3.19,8.06,6.09.2.3-.07.72-.42.66-8.87-.99-14.41,7.54-13.96,15.6.02.21-.12.41-.33.45-4.75,1.1-9.78-1.57-12.27-5.38-2.7-3.94-3.35-8.81-4.18-13.39-.66-4.62-.9-9.29-.83-13.94,0-.15.13-.28.28-.28.15,0,.28.13.28.28,0,4.63.31,9.26,1.01,13.82.79,4.37,1.54,9.28,4.06,12.97,2.45,3.67,7.01,6.05,11.42,5.06,0,0-.32.5-.32.5-.23-2.19.15-4.27.78-6.28,1.77-6.48,7.28-11.03,14.16-10.27,0,0-.42.66-.42.66-1.76-2.9-5.13-4.39-7.88-6.05-.44-1.42-1.22-2.78-2.1-4-.79-7.83-1.61-15.76-4.9-23.03-.15-.31.38-.57.52-.22h0Z"/><path fill="#4c4142" d="M89.16,196.13l11.25,1.05c13.61,1.02,21.36,8.8,19.24,22.76-1.76,14.94-2.39,30.64-4.75,45.2.43-14.76,2.74-30.26,3.82-45.26,2.7-21.41-13.46-21.56-29.61-23.19-.36-.01-.33-.61.05-.56h0Z"/><path fill="#f4f4f4" d="M103.42,106.29c-.74,2.87-1.61,6.51-1.74,9.97-.02.38-.02.77-.02,1.15.05,3.79-.85,18.79-11.26,20.13-10.43,1.35-19.6-7.73-16.76-24.4,0,0-9.73-4.42-4.18-15.21l.45-3.79s4.78-2.1,11.87-2.94c6.35-.77,14.56-.53,22.86,3.12,0,0-.42,8.8-1.22,11.97Z"/><path fill="#fdb18d" d="M103.42,106.29c-.74,2.87-1.61,6.51-1.74,9.97-1.27.71-4.39,1.98-9.61,1.36-7.03-.83-12.7-4.98-12.37-8.73.28-3.33,1.76-15.12,2.09-17.7,6.35-.77,14.56-.53,22.86,3.12,0,0-.42,8.8-1.22,11.97Z"/><path fill="#fdb18d" d="M73.67,113.1s-.02.06-.02.06c0,0-9.73-4.42-4.18-15.21,1-1.2,2.81-1.15,3.82-.38,1.02.79,2.07,2.17,2.15,6.62.09,4.15-1.54,8.37-1.77,8.92Z"/><path fill="#b8acac" d="M81.79,91.2c6.35-.77,14.56-.53,22.86,3.12,0,0,.97-20.02-17.08-19.98-18.66.05-17.65,19.8-17.65,19.8,0,0,4.78-2.1,11.87-2.94Z"/><path fill="#f9fbed" d="M240.15,271.46s-1.76.66-4.9,1.52c-2.58.73-6.06,1.57-10.31,2.34-.69.11-1.39.24-2.11.36-13.25,2.11-32.72,3.09-53.51-3.26l5.56-98.76,1.46-26.11s-.04-.28-.09-.82c-.45-3.67-2.26-18.98-3.8-34.12-1.31-12.69-2.41-25.27-2.36-30.77,0,0,5.84-5.86,12.05-9.32,6.21-3.46,16.17-1.7,16.17-1.7,0,0,13.03,6.29,18.6,11.87,1.87,1.87,3.61,6.31,5.2,12.2,3.16,11.68,5.8,29.05,7.86,43.35,3.11,21.5,10.18,133.24,10.18,133.24Z"/><path fill="#dbddca" d="M172.49,113.93c-1.22-10.1-2.49-20.2-2.68-30.4,0-.35.55-.37.56-.01.14,2.53.37,5.05.58,7.58.71,7.36,1.52,15.44,2.1,22.77.03.34-.52.41-.56.06h0Z"/><path fill="#f0f2e2" d="M217.13,116.36c-1.91,8.83-4.42,16.02-7.65,21.75-3.22,5.73-19.71,17.91-26.28,22.22-3.89,2.56-6.49,7.73-8.33,13.33l1.46-26.11s-.04-.28-.09-.82l42.31-48.49s.96,7.17-1.41,18.13Z"/><path fill="#f9fbed" d="M198.31,70.81s-3.22,8.95-13.85,8.59c-3.05-.22-4.64-5.24-2.15-8.37.13,1.12.69,3.26,2.99,3.54,3.11.36,9.45-2.69,9.98-6.81.04-.26-.04-.8-.21-1.48.6.54,1.98,1.93,3.24,4.53Z"/><path fill="#dbddca" d="M198.57,70.9c-1.86,5.04-6.86,8.66-12.25,8.92l-1.78.03c-1.36-.05-2.51-1-3.08-2.09-1.2-2.19-.94-5.02.63-6.9.1-.12.28-.13.4-.04.11.1.13.27.04.39-1.31,1.76-1.39,4.29-.33,6.13.54.9,1.4,1.59,2.39,1.61.98.01,2.37-.1,3.34-.26,4.44-.73,8.3-3.93,10.14-8,.13-.32.65-.11.52.21h0Z"/><path fill="#f5a28c" d="M195.27,67.76c-.52,4.12-6.87,7.17-9.98,6.81-2.3-.28-2.86-2.41-2.99-3.54-.04-.43-.04-.71-.04-.71,2.08-3.35,10.27-12.05,10.27-12.05,0,0,1.87,5.24,2.53,8.01.17.67.24,1.22.21,1.48Z"/><path fill="#f9fdf4" d="M196.57,49.89l-1.33,1.86c-1.39-.22-3.07.56-4.57,2.74,0,0-1.31-3.95-1.02-6.36,0,0-15.41-4-30.11,2.25-3.31-5.24,1.12-22.18,18.92-21.67,17.9.52,18.12,21.18,18.12,21.18Z"/><path fill="#fbbfa5" d="M198.17,55.98c.21,5.25-4.7,5.73-4.7,5.73-.06,1.28-.69,2.9-1.73,4.58-1.26,2.06-3.15,4.22-5.37,5.97-2.67,2.11-5.84,3.63-9.04,3.67-7.99.1-14.12-7.83-14.92-12.92-.78-5.08-2.88-12.64-2.88-12.64,14.7-6.25,30.11-2.25,30.11-2.25-.29,2.41,1.02,6.36,1.02,6.36,1.5-2.18,3.18-2.96,4.57-2.74.51.06.99.29,1.4.63.88.73,1.47,1.99,1.53,3.59Z"/><path fill="#391f22" d="M196.57,49.89s.1.98.07,2.5c-1.52-1.25-3.91-.89-5.97,2.1,0,0-1.31-3.95-1.02-6.36,2.62.52,4.97,1.1,6.92,1.76Z"/><path fill="#f0f2e2" d="M240.15,271.46s-1.76.66-4.9,1.52c-2.58.73-6.06,1.57-10.31,2.34,9.62-21.5,6.85-65.37,2.55-62.02-5.39,4.19-12.6,2.66-12.6,2.66,17.52-5.75,14.02-36.65,12.43-56.56-1.61-19.91-4.34-45.52-6.98-45.63-2.62-.11-6.21,4.3-6.21,4.3,0,0-2.19-3.07.28-13.19.5-2.06,1.15-3.7,1.87-5,1.75-3.2,6.51-2.57,7.31.98,2.52,11.16,4.66,25.35,6.39,37.37,3.11,21.5,10.18,133.24,10.18,133.24Z"/><path fill="#dbddca" d="M167.97,164.84s-4.95-.94-9.65-11.53c7.73-3.74,10.29,4.66,9.65,11.53Z"/><g><path fill="#fdb18d" d="M158.49,148.03l-4.38,2.72c-1.35-.27-2.81-.47-4.1-.43-3.69.11-8.06,2.3-9.96,2.68-1.91.4.71,3.21,3.04,2.71,2.35-.5,5.49-1.31,5.49-1.31,0,0-1.23,2.22-3.18,3.36-1.96,1.13-8.51,2.26-10.49,2.5-2,.23-.38,2.43.79,2.51,0,0-1.06.78-.78,1.66.28.86,1.02,1.12,1.65,1.04,0,0,.08,1.68,1.39,1.8,0,0,.38,1.51,1.88,1.65,1.49.13,4.53.64,9.85-1.46,5.33-2.12,8.69-4.99,10.28-6.32,0,0,.44-.31.9-.97,1.16-.85,5.32-3.9,7.06-5.33,2.03-1.66-9.44-6.81-9.44-6.81Z"/><path fill="#dd9176" d="M135.75,162.49c3.74.12,7.41-.85,10.91-2.11.15-.06.31.02.36.16.05.13-.01.28-.13.35-3.42,1.77-7.37,2.8-11.24,2.15-.35-.06-.26-.61.09-.55h0Z"/><path fill="#dd9176" d="M136.61,165.19c3.41-.02,6.76-.85,10.05-1.73.15-.04.31.04.35.19.04.13-.03.28-.16.33-3.23,1.4-6.78,2.27-10.32,1.76-.35-.05-.27-.6.08-.56h0Z"/><path fill="#dd9176" d="M138.03,167c2.88.23,5.75-.29,8.57-.93.15-.04.3.05.34.21.03.13-.04.27-.16.33-2.78,1.17-5.9,1.72-8.88.95-.33-.09-.21-.61.13-.55h0Z"/></g><path fill="#f9fbed" d="M210.76,85.03s-8.56-1.32-11.35,9.05c-2.8,10.37-9.22,30.11-9.22,30.11,0,0-2.63,1.32-4.11,4.28l-27.57,18.59c-.36.24-.38.75-.04,1.02,2.34,1.85,9.79,8.43,9.51,16.75,0,0,30.44-19.58,37.03-26.82,6.58-7.24,14.32-32.91,13.66-41.14-.66-8.23-4.61-11.19-7.9-11.85Z"/><g><path fill="#dbddca" d="M210.72,85.31c-9.79-.49-10.88,9.14-13.18,16.34-2.39,7.61-4.49,15.44-7.15,22.9-1.76.91-3.12,2.55-4.1,4.24,0,0-10.64,7.04-10.64,7.04-.13.09-.3.05-.39-.08-.08-.13-.05-.3.08-.39l10.52-7.22c.29-1.12,2.48-3.48,4.15-4.32l-.21.24c2.28-7.56,4.55-15.12,6.91-22.65,1.92-5.27,2.59-12.68,8.16-15.54,1.82-.94,3.88-1.36,5.93-1.12.15.02.26.16.25.31-.02.16-.17.27-.33.24h0Z"/><path fill="#dbddca" d="M175.85,159.33c5.51-3.76,10.99-7.56,16.39-11.47,5.12-4.03,11.18-7.57,14.62-13.22,3.4-5.66,5.69-11.98,7.72-18.3,1.82-6.31,3.85-12.86,3.8-19.45-.05-.35.55-.43.56-.04.19,6.77-1.76,13.3-3.59,19.73-2.66,7.81-5.08,16.36-10.83,22.57-8.71,7.84-18.65,14.15-28.36,20.64-.28.18-.62-.26-.31-.47h0Z"/><path fill="#dbddca" d="M190.1,123.92c3.99-1.35,8.69-.39,11.77,2.49.12.1.13.28.03.4-.1.11-.27.13-.38.04-3.23-2.32-7.38-3.15-11.26-2.38-.33.07-.47-.44-.15-.54h0Z"/><path fill="#dbddca" d="M185.95,128.22c3.89-2.07,8.93-2.58,12.85-.33.14.07.19.24.12.38-.07.13-.22.18-.35.13-3.95-1.68-8.45-1.18-12.38.33-.31.13-.54-.35-.24-.51h0Z"/></g><path fill="#dbddca" d="M217.26,192.19c-2.99,11.77-11.4,23.25-23.72,26.11l-.21-.81c.72-.28,2.46-.89,3.15-1.15,10.02-4.43,16.6-14.2,19.96-24.35l.82.2h0Z"/><path fill="#dbddca" d="M184.52,79.49c.68,6.66,1.18,13.34,1.77,20.02l-.5-.42,3.58-.31-.41.49c-.56-6.62-1.19-13.22-1.66-19.85-.03-.35.52-.41.56-.05.75,6.6,1.34,13.21,2,19.81.02.25-.16.47-.4.49,0,0-3.58.32-3.59.33-.25.02-.47-.16-.5-.41-.47-6.69-1.03-13.36-1.41-20.06-.02-.35.53-.4.56-.04h0Z"/></g><g><path fill="#f8fdff" d="M120.79,16.88c3.5-2.22,7.49-3.04,11.31-2.62-1.05.34-2.07.8-3.05,1.42-6.25,3.96-8.11,12.24-4.15,18.49,3.96,6.25,12.24,8.11,18.49,4.15,1.84-1.16,3.28-2.71,4.33-4.45-.61,5.08-3.41,9.85-8.07,12.8-8.22,5.21-19.11,2.76-24.32-5.46-5.21-8.22-2.76-19.11,5.46-24.32Z"/><polygon fill="#f8fdff" points="137.54 20.79 139.69 22.72 142.49 22.05 141.31 24.69 142.82 27.15 139.95 26.84 138.07 29.03 137.47 26.21 134.81 25.1 137.31 23.66 137.54 20.79"/></g></svg>