<svg xmlns="http://www.w3.org/2000/svg" xmlns:xlink="http://www.w3.org/1999/xlink" width="500" zoomAndPan="magnify" viewBox="0 0 375 374.999991" height="500" preserveAspectRatio="xMidYMid meet" version="1.0"><defs><clipPath id="58187c7247"><path d="M 4.800781 4.800781 L 370.050781 4.800781 L 370.050781 370.050781 L 4.800781 370.050781 Z M 4.800781 4.800781 " clip-rule="nonzero"/></clipPath><clipPath id="6c25b1be28"><path d="M 123 11 L 370.050781 11 L 370.050781 370.050781 L 123 370.050781 Z M 123 11 " clip-rule="nonzero"/></clipPath></defs><g clip-path="url(#58187c7247)"><path fill="#918291" d="M 370.046875 187.421875 C 370.046875 190.414062 369.972656 193.398438 369.828125 196.382812 C 369.679688 199.371094 369.460938 202.347656 369.167969 205.324219 C 368.875 208.296875 368.507812 211.261719 368.070312 214.21875 C 367.632812 217.175781 367.121094 220.121094 366.539062 223.050781 C 365.957031 225.984375 365.300781 228.898438 364.574219 231.796875 C 363.847656 234.695312 363.050781 237.578125 362.183594 240.4375 C 361.316406 243.296875 360.378906 246.132812 359.371094 248.949219 C 358.367188 251.761719 357.289062 254.550781 356.144531 257.3125 C 355.003906 260.070312 353.792969 262.804688 352.515625 265.503906 C 351.234375 268.207031 349.890625 270.875 348.484375 273.511719 C 347.074219 276.148438 345.601562 278.746094 344.066406 281.3125 C 342.527344 283.875 340.929688 286.398438 339.269531 288.882812 C 337.609375 291.367188 335.890625 293.8125 334.109375 296.210938 C 332.328125 298.613281 330.488281 300.96875 328.59375 303.277344 C 326.699219 305.589844 324.746094 307.851562 322.738281 310.066406 C 320.730469 312.28125 318.671875 314.445312 316.558594 316.558594 C 314.445312 318.671875 312.28125 320.730469 310.066406 322.738281 C 307.851562 324.746094 305.589844 326.699219 303.277344 328.59375 C 300.96875 330.488281 298.613281 332.328125 296.210938 334.109375 C 293.8125 335.890625 291.367188 337.609375 288.882812 339.269531 C 286.398438 340.929688 283.875 342.527344 281.3125 344.066406 C 278.746094 345.601562 276.148438 347.074219 273.511719 348.484375 C 270.875 349.890625 268.207031 351.234375 265.503906 352.515625 C 262.804688 353.792969 260.070312 355.003906 257.3125 356.144531 C 254.550781 357.289062 251.761719 358.367188 248.949219 359.371094 C 246.132812 360.378906 243.296875 361.316406 240.4375 362.183594 C 237.578125 363.050781 234.695312 363.847656 231.796875 364.574219 C 228.898438 365.300781 225.984375 365.957031 223.050781 366.539062 C 220.121094 367.121094 217.175781 367.632812 214.21875 368.070312 C 211.261719 368.507812 208.296875 368.875 205.324219 369.167969 C 202.347656 369.460938 199.371094 369.679688 196.382812 369.828125 C 193.398438 369.972656 190.414062 370.046875 187.421875 370.046875 C 184.433594 370.046875 181.449219 369.972656 178.460938 369.828125 C 175.476562 369.679688 172.496094 369.460938 169.523438 369.167969 C 166.546875 368.875 163.582031 368.507812 160.625 368.070312 C 157.671875 367.632812 154.726562 367.121094 151.796875 366.539062 C 148.863281 365.957031 145.949219 365.300781 143.050781 364.574219 C 140.148438 363.847656 137.269531 363.050781 134.410156 362.183594 C 131.550781 361.316406 128.714844 360.378906 125.898438 359.371094 C 123.085938 358.367188 120.296875 357.289062 117.535156 356.144531 C 114.773438 355.003906 112.042969 353.792969 109.339844 352.515625 C 106.640625 351.234375 103.972656 349.890625 101.335938 348.484375 C 98.699219 347.074219 96.097656 345.601562 93.535156 344.066406 C 90.972656 342.527344 88.449219 340.929688 85.960938 339.269531 C 83.476562 337.609375 81.035156 335.890625 78.632812 334.109375 C 76.234375 332.328125 73.878906 330.488281 71.566406 328.59375 C 69.257812 326.699219 66.996094 324.746094 64.78125 322.738281 C 62.566406 320.730469 60.402344 318.671875 58.289062 316.558594 C 56.175781 314.445312 54.113281 312.28125 52.109375 310.066406 C 50.101562 307.851562 48.148438 305.589844 46.253906 303.277344 C 44.355469 300.96875 42.519531 298.613281 40.738281 296.210938 C 38.957031 293.8125 37.238281 291.367188 35.578125 288.882812 C 33.917969 286.398438 32.316406 283.875 30.78125 281.3125 C 29.246094 278.746094 27.773438 276.148438 26.363281 273.511719 C 24.953125 270.875 23.609375 268.207031 22.332031 265.503906 C 21.054688 262.804688 19.84375 260.070312 18.699219 257.3125 C 17.558594 254.550781 16.480469 251.761719 15.472656 248.949219 C 14.46875 246.132812 13.53125 243.296875 12.664062 240.4375 C 11.796875 237.578125 11 234.695312 10.273438 231.796875 C 9.546875 228.898438 8.890625 225.984375 8.308594 223.050781 C 7.726562 220.121094 7.214844 217.175781 6.777344 214.21875 C 6.335938 211.261719 5.972656 208.296875 5.679688 205.324219 C 5.386719 202.347656 5.164062 199.371094 5.019531 196.382812 C 4.871094 193.398438 4.800781 190.414062 4.800781 187.421875 C 4.800781 184.433594 4.871094 181.449219 5.019531 178.460938 C 5.164062 175.476562 5.386719 172.496094 5.679688 169.523438 C 5.972656 166.546875 6.335938 163.582031 6.777344 160.625 C 7.214844 157.671875 7.726562 154.726562 8.308594 151.796875 C 8.890625 148.863281 9.546875 145.949219 10.273438 143.050781 C 11 140.148438 11.796875 137.269531 12.664062 134.410156 C 13.53125 131.550781 14.46875 128.714844 15.472656 125.898438 C 16.480469 123.085938 17.558594 120.296875 18.699219 117.535156 C 19.84375 114.773438 21.054688 112.042969 22.332031 109.339844 C 23.609375 106.640625 24.953125 103.972656 26.363281 101.335938 C 27.773438 98.699219 29.246094 96.097656 30.78125 93.535156 C 32.316406 90.972656 33.917969 88.449219 35.578125 85.960938 C 37.238281 83.476562 38.957031 81.035156 40.738281 78.632812 C 42.519531 76.234375 44.355469 73.878906 46.253906 71.566406 C 48.148438 69.257812 50.101562 66.996094 52.109375 64.78125 C 54.113281 62.566406 56.175781 60.402344 58.289062 58.289062 C 60.402344 56.175781 62.566406 54.113281 64.78125 52.109375 C 66.996094 50.101562 69.257812 48.148438 71.566406 46.253906 C 73.878906 44.355469 76.234375 42.519531 78.632812 40.738281 C 81.035156 38.957031 83.476562 37.238281 85.960938 35.578125 C 88.449219 33.917969 90.972656 32.316406 93.535156 30.78125 C 96.097656 29.246094 98.699219 27.773438 101.335938 26.363281 C 103.972656 24.953125 106.640625 23.609375 109.339844 22.332031 C 112.042969 21.054688 114.773438 19.84375 117.535156 18.699219 C 120.296875 17.558594 123.085938 16.480469 125.898438 15.472656 C 128.714844 14.46875 131.550781 13.53125 134.410156 12.664062 C 137.269531 11.796875 140.148438 11 143.050781 10.273438 C 145.949219 9.546875 148.863281 8.890625 151.796875 8.308594 C 154.726562 7.726562 157.671875 7.214844 160.625 6.777344 C 163.582031 6.335938 166.546875 5.972656 169.523438 5.679688 C 172.496094 5.386719 175.476562 5.164062 178.460938 5.019531 C 181.449219 4.871094 184.433594 4.800781 187.421875 4.800781 C 190.414062 4.800781 193.398438 4.871094 196.382812 5.019531 C 199.371094 5.164062 202.347656 5.386719 205.324219 5.679688 C 208.296875 5.972656 211.261719 6.335938 214.21875 6.777344 C 217.175781 7.214844 220.121094 7.726562 223.050781 8.308594 C 225.984375 8.890625 228.898438 9.546875 231.796875 10.273438 C 234.695312 11 237.578125 11.796875 240.4375 12.664062 C 243.296875 13.53125 246.132812 14.46875 248.949219 15.472656 C 251.761719 16.480469 254.550781 17.558594 257.3125 18.699219 C 260.070312 19.84375 262.804688 21.054688 265.503906 22.332031 C 268.207031 23.609375 270.875 24.953125 273.511719 26.363281 C 276.148438 27.773438 278.746094 29.246094 281.3125 30.78125 C 283.875 32.316406 286.398438 33.917969 288.882812 35.578125 C 291.367188 37.238281 293.8125 38.957031 296.210938 40.738281 C 298.613281 42.519531 300.96875 44.355469 303.277344 46.253906 C 305.589844 48.148438 307.851562 50.101562 310.066406 52.109375 C 312.28125 54.113281 314.445312 56.175781 316.558594 58.289062 C 318.671875 60.402344 320.730469 62.566406 322.738281 64.78125 C 324.746094 66.996094 326.699219 69.257812 328.59375 71.566406 C 330.488281 73.878906 332.328125 76.234375 334.109375 78.632812 C 335.890625 81.035156 337.609375 83.476562 339.269531 85.960938 C 340.929688 88.449219 342.527344 90.972656 344.066406 93.535156 C 345.601562 96.097656 347.074219 98.699219 348.484375 101.335938 C 349.890625 103.972656 351.234375 106.640625 352.515625 109.339844 C 353.792969 112.042969 355.003906 114.773438 356.144531 117.535156 C 357.289062 120.296875 358.367188 123.085938 359.371094 125.898438 C 360.378906 128.714844 361.316406 131.550781 362.183594 134.410156 C 363.050781 137.269531 363.847656 140.148438 364.574219 143.050781 C 365.300781 145.949219 365.957031 148.863281 366.539062 151.796875 C 367.121094 154.726562 367.632812 157.671875 368.070312 160.625 C 368.507812 163.582031 368.875 166.546875 369.167969 169.523438 C 369.460938 172.496094 369.679688 175.476562 369.828125 178.460938 C 369.972656 181.449219 370.046875 184.433594 370.046875 187.421875 Z M 370.046875 187.421875 " fill-opacity="1" fill-rule="nonzero"/></g><g clip-path="url(#6c25b1be28)"><path fill="#7a6d79" d="M 370.050781 187.421875 C 370.050781 288.285156 288.285156 370.050781 187.421875 370.050781 C 164.789062 370.050781 143.117188 365.929688 123.117188 358.40625 C 139.226562 363.054688 156.25 365.546875 173.851562 365.546875 C 274.714844 365.546875 356.476562 283.785156 356.476562 182.921875 C 356.476562 104.671875 307.253906 37.90625 238.078125 11.917969 C 314.296875 33.875 370.050781 104.136719 370.050781 187.421875 Z M 370.050781 187.421875 " fill-opacity="1" fill-rule="nonzero"/></g><path fill="#fdf6ec" d="M 339.261719 187.421875 C 339.261719 189.910156 339.199219 192.390625 339.078125 194.875 C 338.957031 197.355469 338.773438 199.832031 338.53125 202.304688 C 338.285156 204.777344 337.980469 207.246094 337.617188 209.703125 C 337.253906 212.160156 336.828125 214.609375 336.34375 217.046875 C 335.859375 219.484375 335.3125 221.90625 334.710938 224.316406 C 334.105469 226.726562 333.445312 229.121094 332.722656 231.5 C 332 233.878906 331.222656 236.234375 330.386719 238.574219 C 329.546875 240.914062 328.652344 243.234375 327.703125 245.527344 C 326.753906 247.824219 325.746094 250.097656 324.683594 252.34375 C 323.621094 254.589844 322.503906 256.808594 321.332031 259 C 320.160156 261.191406 318.9375 263.351562 317.660156 265.484375 C 316.382812 267.613281 315.050781 269.714844 313.671875 271.78125 C 312.292969 273.847656 310.859375 275.878906 309.378906 277.871094 C 307.898438 279.867188 306.371094 281.828125 304.796875 283.75 C 303.21875 285.667969 301.597656 287.550781 299.925781 289.390625 C 298.257812 291.234375 296.546875 293.03125 294.789062 294.789062 C 293.03125 296.546875 291.234375 298.257812 289.390625 299.925781 C 287.550781 301.597656 285.667969 303.21875 283.75 304.796875 C 281.828125 306.371094 279.867188 307.898438 277.871094 309.378906 C 275.878906 310.859375 273.847656 312.292969 271.78125 313.671875 C 269.714844 315.050781 267.613281 316.382812 265.484375 317.660156 C 263.351562 318.9375 261.191406 320.160156 259 321.332031 C 256.808594 322.503906 254.589844 323.621094 252.34375 324.683594 C 250.097656 325.746094 247.824219 326.753906 245.527344 327.703125 C 243.234375 328.652344 240.914062 329.546875 238.574219 330.386719 C 236.234375 331.222656 233.878906 332 231.5 332.722656 C 229.121094 333.445312 226.726562 334.105469 224.316406 334.710938 C 221.90625 335.3125 219.484375 335.859375 217.046875 336.34375 C 214.609375 336.828125 212.160156 337.253906 209.703125 337.617188 C 207.246094 337.980469 204.777344 338.285156 202.304688 338.53125 C 199.832031 338.773438 197.355469 338.957031 194.875 339.078125 C 192.390625 339.199219 189.910156 339.261719 187.421875 339.261719 C 184.9375 339.261719 182.453125 339.199219 179.972656 339.078125 C 177.492188 338.957031 175.011719 338.773438 172.539062 338.53125 C 170.066406 338.285156 167.601562 337.980469 165.144531 337.617188 C 162.6875 337.253906 160.238281 336.828125 157.800781 336.34375 C 155.363281 335.859375 152.941406 335.3125 150.53125 334.710938 C 148.121094 334.105469 145.726562 333.445312 143.347656 332.722656 C 140.96875 332 138.609375 331.222656 136.269531 330.386719 C 133.929688 329.546875 131.613281 328.652344 129.316406 327.703125 C 127.023438 326.753906 124.75 325.746094 122.503906 324.683594 C 120.257812 323.621094 118.039062 322.503906 115.847656 321.332031 C 113.65625 320.160156 111.496094 318.9375 109.363281 317.660156 C 107.230469 316.382812 105.132812 315.050781 103.066406 313.671875 C 101 312.292969 98.96875 310.859375 96.972656 309.378906 C 94.976562 307.898438 93.019531 306.371094 91.097656 304.796875 C 89.175781 303.21875 87.296875 301.597656 85.457031 299.925781 C 83.613281 298.257812 81.816406 296.546875 80.058594 294.789062 C 78.300781 293.03125 76.585938 291.234375 74.917969 289.390625 C 73.25 287.550781 71.628906 285.667969 70.050781 283.75 C 68.476562 281.828125 66.945312 279.867188 65.464844 277.871094 C 63.984375 275.878906 62.554688 273.847656 61.175781 271.78125 C 59.792969 269.714844 58.464844 267.613281 57.1875 265.484375 C 55.910156 263.351562 54.6875 261.191406 53.515625 259 C 52.34375 256.808594 51.226562 254.589844 50.164062 252.34375 C 49.101562 250.097656 48.09375 247.824219 47.144531 245.527344 C 46.191406 243.234375 45.296875 240.914062 44.460938 238.574219 C 43.625 236.234375 42.84375 233.878906 42.125 231.5 C 41.402344 229.121094 40.738281 226.726562 40.136719 224.316406 C 39.53125 221.90625 38.988281 219.484375 38.503906 217.046875 C 38.019531 214.609375 37.59375 212.160156 37.230469 209.703125 C 36.863281 207.246094 36.558594 204.777344 36.316406 202.304688 C 36.074219 199.832031 35.890625 197.355469 35.769531 194.875 C 35.648438 192.390625 35.585938 189.910156 35.585938 187.421875 C 35.585938 184.9375 35.648438 182.453125 35.769531 179.972656 C 35.890625 177.492188 36.074219 175.011719 36.316406 172.539062 C 36.558594 170.066406 36.863281 167.601562 37.230469 165.144531 C 37.59375 162.6875 38.019531 160.238281 38.503906 157.800781 C 38.988281 155.363281 39.53125 152.941406 40.136719 150.53125 C 40.738281 148.121094 41.402344 145.726562 42.125 143.347656 C 42.84375 140.96875 43.625 138.609375 44.460938 136.269531 C 45.296875 133.929688 46.191406 131.613281 47.144531 129.316406 C 48.09375 127.023438 49.101562 124.75 50.164062 122.503906 C 51.226562 120.257812 52.34375 118.039062 53.515625 115.847656 C 54.6875 113.65625 55.910156 111.496094 57.1875 109.363281 C 58.464844 107.230469 59.792969 105.132812 61.175781 103.066406 C 62.554688 101 63.984375 98.96875 65.464844 96.972656 C 66.945312 94.976562 68.476562 93.019531 70.050781 91.097656 C 71.628906 89.175781 73.25 87.296875 74.917969 85.457031 C 76.585938 83.613281 78.300781 81.816406 80.058594 80.058594 C 81.816406 78.300781 83.613281 76.585938 85.457031 74.917969 C 87.296875 73.25 89.175781 71.628906 91.097656 70.050781 C 93.019531 68.476562 94.976562 66.945312 96.972656 65.464844 C 98.96875 63.984375 101 62.554688 103.066406 61.175781 C 105.132812 59.792969 107.230469 58.464844 109.363281 57.1875 C 111.496094 55.910156 113.65625 54.6875 115.847656 53.515625 C 118.039062 52.34375 120.257812 51.226562 122.503906 50.164062 C 124.75 49.101562 127.023438 48.09375 129.316406 47.144531 C 131.613281 46.191406 133.929688 45.296875 136.269531 44.460938 C 138.609375 43.625 140.96875 42.84375 143.347656 42.125 C 145.726562 41.402344 148.121094 40.738281 150.53125 40.136719 C 152.941406 39.53125 155.363281 38.988281 157.800781 38.503906 C 160.238281 38.019531 162.6875 37.59375 165.144531 37.230469 C 167.601562 36.863281 170.066406 36.558594 172.539062 36.316406 C 175.011719 36.074219 177.492188 35.890625 179.972656 35.769531 C 182.453125 35.648438 184.9375 35.585938 187.421875 35.585938 C 189.910156 35.585938 192.390625 35.648438 194.875 35.769531 C 197.355469 35.890625 199.832031 36.074219 202.304688 36.316406 C 204.777344 36.558594 207.246094 36.863281 209.703125 37.230469 C 212.160156 37.59375 214.609375 38.019531 217.046875 38.503906 C 219.484375 38.988281 221.90625 39.53125 224.316406 40.136719 C 226.726562 40.738281 229.121094 41.402344 231.5 42.125 C 233.878906 42.84375 236.234375 43.625 238.574219 44.460938 C 240.914062 45.296875 243.234375 46.191406 245.527344 47.144531 C 247.824219 48.09375 250.097656 49.101562 252.34375 50.164062 C 254.589844 51.226562 256.808594 52.34375 259 53.515625 C 261.191406 54.6875 263.351562 55.910156 265.484375 57.1875 C 267.613281 58.464844 269.714844 59.792969 271.78125 61.175781 C 273.847656 62.554688 275.878906 63.984375 277.871094 65.464844 C 279.867188 66.945312 281.828125 68.476562 283.75 70.050781 C 285.667969 71.628906 287.550781 73.25 289.390625 74.917969 C 291.234375 76.585938 293.03125 78.300781 294.789062 80.058594 C 296.546875 81.816406 298.257812 83.613281 299.925781 85.457031 C 301.597656 87.296875 303.21875 89.175781 304.796875 91.097656 C 306.371094 93.019531 307.898438 94.976562 309.378906 96.972656 C 310.859375 98.96875 312.292969 101 313.671875 103.066406 C 315.050781 105.132812 316.382812 107.230469 317.660156 109.363281 C 318.9375 111.496094 320.160156 113.65625 321.332031 115.847656 C 322.503906 118.039062 323.621094 120.257812 324.683594 122.503906 C 325.746094 124.75 326.753906 127.023438 327.703125 129.316406 C 328.652344 131.613281 329.546875 133.929688 330.386719 136.269531 C 331.222656 138.609375 332 140.96875 332.722656 143.347656 C 333.445312 145.726562 334.105469 148.121094 334.710938 150.53125 C 335.3125 152.941406 335.859375 155.363281 336.34375 157.800781 C 336.828125 160.238281 337.253906 162.6875 337.617188 165.144531 C 337.980469 167.601562 338.285156 170.066406 338.53125 172.539062 C 338.773438 175.011719 338.957031 177.492188 339.078125 179.972656 C 339.199219 182.453125 339.261719 184.9375 339.261719 187.421875 Z M 339.261719 187.421875 " fill-opacity="1" fill-rule="nonzero"/><path fill="#fcead0" d="M 339.261719 187.421875 C 339.261719 271.285156 271.285156 339.261719 187.421875 339.261719 C 168.832031 339.261719 151.023438 335.921875 134.5625 329.804688 C 146.855469 333.023438 159.761719 334.730469 173.066406 334.730469 C 256.929688 334.730469 324.90625 266.75 324.90625 182.898438 C 324.90625 117.601562 283.6875 61.933594 225.855469 40.488281 C 291.109375 57.511719 339.261719 116.839844 339.261719 187.421875 Z M 339.261719 187.421875 " fill-opacity="1" fill-rule="nonzero"/><path fill="#685e68" d="M 241.492188 263.808594 L 192.121094 263.808594 L 190.917969 263.316406 L 160.082031 263.316406 L 159.605469 263.808594 L 133.351562 263.808594 C 130.78125 263.808594 128.695312 261.726562 128.695312 259.15625 L 128.695312 187.507812 L 129.378906 186.324219 L 129.378906 164.9375 L 128.695312 163.910156 L 128.695312 146.167969 C 128.695312 143.597656 130.78125 141.515625 133.351562 141.515625 L 241.492188 141.515625 C 244.0625 141.515625 246.148438 143.597656 246.148438 146.167969 L 246.148438 163.910156 L 245.566406 164.597656 L 245.566406 186.800781 L 246.148438 187.507812 L 246.148438 259.15625 C 246.148438 261.726562 244.066406 263.808594 241.492188 263.808594 Z M 241.492188 263.808594 " fill-opacity="1" fill-rule="nonzero"/><path fill="#554e56" d="M 246.148438 146.167969 L 246.148438 259.15625 C 246.148438 261.722656 244.066406 263.8125 241.496094 263.8125 L 226.839844 263.8125 C 229.410156 263.8125 231.492188 261.722656 231.492188 259.15625 L 231.492188 146.167969 C 231.492188 143.601562 229.410156 141.511719 226.839844 141.511719 L 241.496094 141.511719 C 244.066406 141.511719 246.148438 143.601562 246.148438 146.167969 Z M 246.148438 146.167969 " fill-opacity="1" fill-rule="nonzero"/><path fill="#fece85" d="M 128.699219 163.910156 L 246.148438 163.910156 L 246.148438 187.507812 L 128.699219 187.507812 Z M 128.699219 163.910156 " fill-opacity="1" fill-rule="nonzero"/><path fill="#fec165" d="M 231.492188 163.910156 L 246.148438 163.910156 L 246.148438 187.507812 L 231.492188 187.507812 Z M 231.492188 163.910156 " fill-opacity="1" fill-rule="nonzero"/><path fill="#918291" d="M 192.121094 263.808594 L 159.605469 263.808594 L 159.605469 213.085938 C 159.605469 211.328125 161.03125 209.902344 162.789062 209.902344 L 188.9375 209.902344 C 190.695312 209.902344 192.121094 211.328125 192.121094 213.085938 Z M 192.121094 263.808594 " fill-opacity="1" fill-rule="nonzero"/><path fill="#7a6d79" d="M 192.121094 213.085938 L 192.121094 263.8125 L 177.21875 263.8125 L 177.21875 213.085938 C 177.21875 211.324219 175.792969 209.902344 174.035156 209.902344 L 188.941406 209.902344 C 190.691406 209.902344 192.121094 211.324219 192.121094 213.085938 Z M 192.121094 213.085938 " fill-opacity="1" fill-rule="nonzero"/><path fill="#918291" d="M 187.421875 323.398438 C 184.46875 323.398438 182.074219 321.003906 182.074219 318.046875 L 182.074219 311.472656 C 182.074219 308.515625 184.46875 306.121094 187.421875 306.121094 C 190.378906 306.121094 192.773438 308.515625 192.773438 311.472656 L 192.773438 318.046875 C 192.773438 321.003906 190.378906 323.398438 187.421875 323.398438 Z M 187.421875 323.398438 " fill-opacity="1" fill-rule="nonzero"/><path fill="#918291" d="M 99.707031 105.058594 C 98.339844 105.058594 96.96875 104.535156 95.925781 103.492188 L 91.273438 98.839844 C 89.183594 96.75 89.1875 93.363281 91.273438 91.273438 C 93.363281 89.1875 96.75 89.183594 98.839844 91.277344 L 103.492188 95.925781 C 105.582031 98.015625 105.582031 101.402344 103.492188 103.492188 C 102.445312 104.535156 101.078125 105.058594 99.707031 105.058594 Z M 99.707031 105.058594 " fill-opacity="1" fill-rule="nonzero"/><path fill="#918291" d="M 279.789062 285.136719 C 278.417969 285.136719 277.050781 284.617188 276.003906 283.570312 L 271.355469 278.921875 C 269.265625 276.832031 269.265625 273.445312 271.355469 271.355469 C 273.445312 269.265625 276.832031 269.265625 278.921875 271.355469 L 283.570312 276.003906 C 285.660156 278.09375 285.660156 281.480469 283.570312 283.570312 C 282.527344 284.617188 281.15625 285.136719 279.789062 285.136719 Z M 279.789062 285.136719 " fill-opacity="1" fill-rule="nonzero"/><path fill="#918291" d="M 63.375 192.773438 L 56.800781 192.773438 C 53.84375 192.773438 51.449219 190.378906 51.449219 187.421875 C 51.449219 184.46875 53.84375 182.074219 56.800781 182.074219 L 63.375 182.074219 C 66.332031 182.074219 68.726562 184.46875 68.726562 187.421875 C 68.726562 190.378906 66.332031 192.773438 63.375 192.773438 Z M 63.375 192.773438 " fill-opacity="1" fill-rule="nonzero"/><path fill="#918291" d="M 318.046875 192.773438 L 311.472656 192.773438 C 308.515625 192.773438 306.121094 190.378906 306.121094 187.421875 C 306.121094 184.46875 308.515625 182.074219 311.472656 182.074219 L 318.046875 182.074219 C 321.003906 182.074219 323.398438 184.46875 323.398438 187.421875 C 323.398438 190.378906 321.003906 192.773438 318.046875 192.773438 Z M 318.046875 192.773438 " fill-opacity="1" fill-rule="nonzero"/><path fill="#918291" d="M 95.058594 285.136719 C 93.6875 285.136719 92.320312 284.617188 91.273438 283.570312 C 89.183594 281.480469 89.183594 278.09375 91.273438 276.003906 L 95.925781 271.355469 C 98.011719 269.265625 101.402344 269.265625 103.492188 271.355469 C 105.582031 273.445312 105.578125 276.832031 103.492188 278.921875 L 98.839844 283.570312 C 97.796875 284.617188 96.425781 285.136719 95.058594 285.136719 Z M 95.058594 285.136719 " fill-opacity="1" fill-rule="nonzero"/><path fill="#918291" d="M 275.136719 105.058594 C 273.769531 105.058594 272.398438 104.535156 271.355469 103.492188 C 269.265625 101.402344 269.265625 98.015625 271.355469 95.925781 L 276.003906 91.277344 C 278.09375 89.183594 281.480469 89.1875 283.570312 91.273438 C 285.660156 93.363281 285.660156 96.753906 283.570312 98.839844 L 278.921875 103.492188 C 277.878906 104.535156 276.507812 105.058594 275.136719 105.058594 Z M 275.136719 105.058594 " fill-opacity="1" fill-rule="nonzero"/><path fill="#fece85" d="M 198.980469 111.265625 C 198.980469 112.027344 198.910156 112.777344 198.761719 113.523438 C 198.613281 114.265625 198.394531 114.988281 198.101562 115.691406 C 197.8125 116.390625 197.457031 117.058594 197.035156 117.6875 C 196.613281 118.320312 196.132812 118.902344 195.597656 119.441406 C 195.058594 119.976562 194.476562 120.457031 193.84375 120.878906 C 193.214844 121.300781 192.546875 121.65625 191.847656 121.945312 C 191.144531 122.238281 190.421875 122.457031 189.679688 122.605469 C 188.933594 122.753906 188.183594 122.828125 187.421875 122.828125 C 186.664062 122.828125 185.914062 122.753906 185.167969 122.605469 C 184.425781 122.457031 183.703125 122.238281 183 121.945312 C 182.296875 121.65625 181.632812 121.300781 181 120.878906 C 180.371094 120.457031 179.785156 119.976562 179.25 119.441406 C 178.714844 118.902344 178.234375 118.320312 177.8125 117.6875 C 177.390625 117.058594 177.035156 116.390625 176.746094 115.691406 C 176.453125 114.988281 176.234375 114.265625 176.085938 113.523438 C 175.9375 112.777344 175.863281 112.027344 175.863281 111.265625 C 175.863281 110.507812 175.9375 109.757812 176.085938 109.011719 C 176.234375 108.269531 176.453125 107.546875 176.746094 106.84375 C 177.035156 106.144531 177.390625 105.476562 177.8125 104.84375 C 178.234375 104.214844 178.714844 103.628906 179.25 103.09375 C 179.785156 102.558594 180.371094 102.078125 181 101.65625 C 181.632812 101.234375 182.296875 100.878906 183 100.589844 C 183.703125 100.296875 184.425781 100.078125 185.167969 99.929688 C 185.914062 99.78125 186.664062 99.707031 187.421875 99.707031 C 188.183594 99.707031 188.933594 99.78125 189.679688 99.929688 C 190.421875 100.078125 191.144531 100.296875 191.847656 100.589844 C 192.546875 100.878906 193.214844 101.234375 193.84375 101.65625 C 194.476562 102.078125 195.058594 102.558594 195.597656 103.09375 C 196.132812 103.628906 196.613281 104.214844 197.035156 104.84375 C 197.457031 105.476562 197.8125 106.144531 198.101562 106.84375 C 198.394531 107.546875 198.613281 108.269531 198.761719 109.011719 C 198.910156 109.757812 198.980469 110.507812 198.980469 111.265625 Z M 198.980469 111.265625 " fill-opacity="1" fill-rule="nonzero"/><path fill="#fec165" d="M 198.984375 111.269531 C 198.984375 117.65625 193.808594 122.824219 187.421875 122.824219 C 183.105469 122.824219 179.34375 120.460938 177.363281 116.949219 C 177.863281 117.015625 178.375 117.054688 178.894531 117.054688 C 185.28125 117.054688 190.457031 111.882812 190.457031 105.5 C 190.457031 103.429688 189.914062 101.488281 188.960938 99.808594 C 194.621094 100.558594 198.984375 105.402344 198.984375 111.269531 Z M 198.984375 111.269531 " fill-opacity="1" fill-rule="nonzero"/><path fill="#fece85" d="M 184.402344 27.234375 L 155.800781 75.726562 C 154.421875 78.066406 156.105469 81.019531 158.824219 81.019531 L 216.023438 81.019531 C 218.738281 81.019531 220.425781 78.066406 219.046875 75.726562 L 190.445312 27.234375 C 189.085938 24.933594 185.757812 24.933594 184.402344 27.234375 Z M 184.402344 27.234375 " fill-opacity="1" fill-rule="nonzero"/><path fill="#fec165" d="M 216.023438 81.019531 L 205.738281 81.019531 C 205.65625 80.769531 205.546875 80.519531 205.410156 80.277344 L 179.261719 35.941406 L 184.402344 27.230469 C 185.757812 24.929688 189.085938 24.929688 190.445312 27.230469 L 219.042969 75.722656 C 220.421875 78.070312 218.738281 81.019531 216.023438 81.019531 Z M 216.023438 81.019531 " fill-opacity="1" fill-rule="nonzero"/></svg>