<svg xmlns="http://www.w3.org/2000/svg" enable-background="new 0 0 1364 960" viewBox="0 0 1364 960"><path fill="#C2E5F5" d="M758.273,302.781c0,0,11.126-13.352,30.231-8.245c15.421,4.122,15.399-8.463,25.65-6.413
	c14.505,2.901,18.988-8.502,24.966-6.413c7.861,2.748,9.521,11.743,19.922,10.072c9.466-1.521,10.358-13.502,18.322-6.865
	c12.825,10.688,20.917-4.122,30.231,6.865c6.984,8.24,29.315,4.586,34.811,10.998H758.273z"/><path fill="#C2E5F5" d="M1022.938,376.254c0,0,8.662-13.352,23.534-8.245c12.005,4.122,11.988-8.463,19.969-6.413
	c11.292,2.901,14.782-8.502,19.436-6.413c6.12,2.748,7.412,11.743,15.51,10.072c7.369-1.521,8.063-13.502,14.263-6.865
	c9.984,10.688,16.284-4.122,23.534,6.865c5.438,8.24,22.821,4.586,27.1,10.998H1022.938z"/><path fill="#C2E5F5" d="M240.477,376.254c0,0,8.662-13.352,23.534-8.245c12.005,4.122,11.988-8.463,19.969-6.413
	c11.292,2.901,14.782-8.502,19.436-6.413c6.119,2.748,7.412,11.743,15.509,10.072c7.369-1.521,8.064-13.502,14.263-6.865
	c9.984,10.688,16.284-4.122,23.534,6.865c5.437,8.24,22.821,4.586,27.1,10.998H240.477z"/><path fill="#C2E5F5" d="M497.144,238.803c0,0,8.662-13.352,23.534-8.245c12.005,4.122,11.988-8.463,19.969-6.413
	c11.292,2.901,14.782-8.502,19.436-6.413c6.119,2.748,7.412,11.743,15.509,10.071c7.369-1.521,8.064-13.502,14.263-6.865
	c9.984,10.688,16.284-4.122,23.534,6.865c5.437,8.24,22.821,4.586,27.1,10.998H497.144z"/><path fill="#9C5A06" d="M333.336,749.076l-7.91,1.032c-3.538,0.382-7.034,0.946-10.597,1.223c-4.976-56.357-9.6-111.936-15.78-168.5
	c-0.215-1.95-0.613-6.27-1.227-9.8c-2.42-13.977-5.163-23.796-9.962-39.322c-2.324-7.531-8.622-32.009-16.645-46.619
	c-1.89-3.46-3.884-6.367-5.946-8.361l3.171-6.241c20.793,24.372,36.894,72.573,41.66,100.133
	C321.174,636.722,323.702,686.737,333.336,749.076z"/><path fill="#D4BCA3" d="M265.277,478.711c0.04,0.046,0.075,0.093,0.109,0.139c-0.034-0.041-0.079-0.081-0.118-0.121L265.277,478.711
	z"/><path fill="#D4BCA3" d="M327.606,749.823l-2.18,0.284c-3.538,0.382-7.034,0.946-10.597,1.223c-4.976-56.357-9.6-111.936-15.78-168.5
	c-0.215-1.95-0.613-6.27-1.227-9.8c-2.42-13.977-5.163-23.796-9.962-39.322c-2.324-7.531-8.622-32.009-16.645-46.619
	c0.073-0.703,0.227-1.747,0.764-1.902c2.703-0.768,11.677,21.872,16.679,36.552c8.337,24.508,11.569,44.399,12.335,49.274
	C314.118,654.24,327.606,749.823,327.606,749.823z"/><path fill="#AD6847" d="M319.939,659.326c-0.801,0.239-1.618,0.413-2.448,0.514c-0.864,0.105-1.706,0.053-2.571-0.003
	c-0.825-0.053-1.648-0.174-2.453-0.36c-0.418-0.097-0.831-0.211-1.238-0.344c-0.384-0.125-0.773-0.333-1.174-0.376
	c-0.348-0.038-0.425,0.414-0.193,0.596c0.329,0.258,0.817,0.365,1.212,0.489c0.409,0.128,0.824,0.238,1.243,0.329
	c0.846,0.185,1.706,0.294,2.571,0.326c0.829,0.03,1.675-0.079,2.497-0.178c0.897-0.107,1.78-0.301,2.643-0.569
	C320.292,659.668,320.208,659.246,319.939,659.326z"/><path fill="#AD6847" d="M318.431,664.775c-0.454,0.034-0.907,0.024-1.361,0.043c-0.471,0.019-0.942,0.012-1.412-0.02
	c-0.456-0.031-0.912-0.085-1.364-0.16c-0.226-0.037-0.449-0.089-0.674-0.129c-0.212-0.038-0.456-0.107-0.669-0.059
	c-0.097,0.022-0.161,0.161-0.078,0.237c0.313,0.288,0.875,0.334,1.279,0.404c0.478,0.083,0.959,0.137,1.444,0.162
	c0.471,0.024,0.943,0.023,1.414-0.004c0.487-0.028,0.967-0.132,1.44-0.244C318.572,664.976,318.568,664.765,318.431,664.775z"/><path fill="#AD6847" d="M320.803,669.662c-1.849,0.292-3.783,0.146-5.543-0.512c-0.083-0.031-0.122,0.097-0.041,0.13
	c0.9,0.37,1.809,0.649,2.776,0.781c0.964,0.131,1.936,0.156,2.902,0.041C321.18,670.067,321.09,669.616,320.803,669.662z"/><path fill="#AD6847" d="M326.355,709.598c-0.754,0.058-1.519,0.308-2.272,0.417c-0.762,0.111-1.53,0.185-2.299,0.223
	c-1.563,0.078-3.126-0.003-4.674-0.227c-0.35-0.051-0.438,0.487-0.087,0.544c1.571,0.259,3.163,0.37,4.754,0.328
	c0.794-0.021,1.587-0.081,2.376-0.179c0.763-0.095,1.64-0.154,2.358-0.437C326.88,710.123,326.751,709.567,326.355,709.598z"/><path fill="#AD6847" d="M327.546,715.737c-0.234-0.078-0.43-0.005-0.658,0.067c-0.227,0.072-0.455,0.142-0.682,0.212
	c-0.442,0.136-0.887,0.259-1.337,0.366c-0.907,0.216-1.829,0.384-2.753,0.511c-0.205,0.028-0.173,0.327,0.032,0.318
	c0.942-0.041,1.875-0.139,2.804-0.299c0.455-0.078,0.91-0.166,1.361-0.266c0.222-0.049,0.443-0.1,0.662-0.159
	c0.234-0.063,0.519-0.102,0.672-0.307C327.747,716.047,327.733,715.799,327.546,715.737z"/><path fill="#AD6847" d="M327.729,712.674c-0.211-0.189-0.554-0.051-0.794,0.008c-0.2,0.049-0.4,0.099-0.6,0.148
	c-0.4,0.099-0.8,0.198-1.2,0.297c-0.173,0.043-0.257,0.26-0.22,0.417c0.037,0.156,0.208,0.316,0.382,0.276l1.204-0.278
	c0.195-0.045,0.389-0.09,0.584-0.135c0.24-0.055,0.628-0.086,0.731-0.35C327.87,712.919,327.84,712.774,327.729,712.674z"/><path fill="#AD6847" d="M310.309,607.035c-1.036,0.271-2.061,0.558-3.124,0.702c-0.506,0.068-1.015,0.11-1.525,0.126
	c-0.543,0.016-1.09-0.043-1.631-0.018c-0.28,0.012-0.327,0.445-0.043,0.499c0.534,0.1,1.109,0.07,1.649,0.046
	c0.561-0.024,1.121-0.081,1.675-0.169c1.07-0.17,2.146-0.442,3.117-0.934C310.574,607.212,310.455,606.997,310.309,607.035z"/><path fill="#AD6847" d="M308.091,610.65c-0.951,0.207-1.909,0.375-2.886,0.354c-0.489-0.011-0.976-0.064-1.456-0.157
	c-0.219-0.042-0.436-0.093-0.651-0.152c-0.24-0.066-0.407-0.134-0.65-0.056c-0.086,0.027-0.137,0.143-0.08,0.221
	c0.266,0.362,0.856,0.397,1.275,0.467c0.507,0.086,1.023,0.13,1.538,0.131c1.019,0.003,2.056-0.14,2.991-0.556
	C308.325,610.832,308.258,610.613,308.091,610.65z"/><path fill="#AD6847" d="M313.149,613.514c-2.949,0.986-6.141,1.448-9.249,1.271c-0.131-0.008-0.118,0.193,0.01,0.203
	c1.595,0.122,3.178,0.135,4.77-0.044c1.565-0.176,3.113-0.5,4.619-0.96C313.603,613.892,313.451,613.413,313.149,613.514z"/><path fill="#AD6847" d="M314.831,632.01c-0.492,0.147-0.963,0.423-1.447,0.604c-0.49,0.183-0.988,0.343-1.493,0.479
	c-1.026,0.276-2.074,0.447-3.134,0.522c-0.24,0.017-0.221,0.386,0.021,0.374c1.079-0.054,2.152-0.209,3.202-0.466
	c0.524-0.128,1.042-0.282,1.551-0.46c0.493-0.173,1.066-0.338,1.502-0.629C315.255,632.283,315.089,631.933,314.831,632.01z"/><path fill="#AD6847" d="M316.504,635.912c-0.167-0.018-0.286,0.059-0.427,0.139c-0.14,0.08-0.281,0.16-0.422,0.239
	c-0.274,0.154-0.551,0.3-0.834,0.435c-0.571,0.274-1.159,0.518-1.753,0.735c-0.132,0.048-0.068,0.242,0.067,0.206
	c0.619-0.163,1.224-0.362,1.817-0.601c0.291-0.117,0.58-0.241,0.865-0.372c0.14-0.064,0.279-0.13,0.416-0.201
	c0.146-0.075,0.33-0.143,0.402-0.3C316.682,636.089,316.637,635.926,316.504,635.912z"/><path fill="#AD6847" d="M316.185,633.854c-0.167-0.095-0.375,0.046-0.526,0.12c-0.126,0.062-0.251,0.123-0.377,0.185
	c-0.251,0.123-0.502,0.246-0.753,0.369c-0.108,0.053-0.133,0.21-0.086,0.308c0.047,0.098,0.183,0.18,0.293,0.128l0.759-0.358
	c0.123-0.058,0.245-0.116,0.368-0.173c0.151-0.071,0.404-0.147,0.435-0.337C316.314,633.996,316.273,633.904,316.185,633.854z"/><path fill="#AD6847" d="M307.414,576.017c-1.643,1.185-3.48,2.134-5.438,2.67c-0.238,0.065-0.129,0.473,0.114,0.422
	c2.072-0.437,4.009-1.325,5.602-2.734C307.909,576.183,307.653,575.844,307.414,576.017z"/><path fill="#AD6847" d="M305.349,570.859c-0.231,0.145-0.417,0.383-0.621,0.566c-0.209,0.187-0.425,0.367-0.648,0.537
	c-0.425,0.326-0.873,0.622-1.343,0.88c-0.967,0.532-2.004,0.921-3.085,1.145c-0.282,0.059-0.232,0.499,0.059,0.45
	c1.145-0.195,2.263-0.556,3.296-1.09c0.505-0.261,0.994-0.559,1.456-0.891c0.228-0.164,0.449-0.336,0.664-0.517
	c0.224-0.189,0.507-0.392,0.662-0.643C305.977,570.992,305.657,570.666,305.349,570.859z"/><path fill="#AD6847" d="M304.743,569.285c-0.153-0.04-0.264,0.05-0.361,0.156c-0.202,0.219-0.458,0.421-0.723,0.575
	c-0.157,0.091-0.32,0.174-0.48,0.26c-0.169,0.091-0.351,0.152-0.536,0.202c-0.193,0.052-0.096,0.346,0.089,0.328
	c0.163-0.016,0.321-0.048,0.481-0.077c0.171-0.031,0.339-0.067,0.497-0.141c0.312-0.145,0.609-0.331,0.87-0.555
	c0.143-0.122,0.361-0.278,0.365-0.481C304.948,569.426,304.864,569.317,304.743,569.285z"/><path fill="#AD6847" d="M295.651,533.972c-0.153,0.051-0.26,0.176-0.378,0.281c-0.119,0.106-0.239,0.21-0.361,0.312
	c-0.244,0.203-0.496,0.399-0.752,0.588c-0.256,0.189-0.518,0.368-0.787,0.538c-0.267,0.169-0.524,0.35-0.789,0.521
	c-0.173,0.112-0.002,0.377,0.179,0.304c0.319-0.128,0.62-0.262,0.916-0.437c0.274-0.162,0.543-0.333,0.806-0.513
	c0.262-0.181,0.516-0.372,0.762-0.575c0.123-0.101,0.244-0.204,0.363-0.309c0.135-0.119,0.284-0.229,0.353-0.401
	C296.044,534.08,295.841,533.909,295.651,533.972z"/><path fill="#AD6847" d="M294.091,532.012c-0.192,0.093-0.358,0.248-0.526,0.378c-0.163,0.126-0.319,0.261-0.477,0.393
	c-0.074,0.062-0.091,0.173-0.03,0.25c0.063,0.08,0.17,0.084,0.25,0.03c0.171-0.115,0.346-0.226,0.512-0.348
	c0.172-0.125,0.364-0.24,0.508-0.398C294.462,532.169,294.264,531.928,294.091,532.012z"/><path fill="#AD6847" d="M296.167,537.965c-0.182,0.285-0.401,0.542-0.661,0.76c-0.266,0.223-0.533,0.426-0.816,0.576
	c-0.192,0.102-0.481,0.28-0.335,0.538c0.132,0.233,0.448,0.134,0.637,0.035c0.334-0.176,0.661-0.394,0.916-0.675
	c0.27-0.298,0.487-0.644,0.647-1.012C296.657,537.956,296.307,537.745,296.167,537.965z"/><path fill="#AD6847" d="M279.349,492.208c-0.156,0.163-0.32,0.315-0.471,0.482c-0.149,0.165-0.317,0.313-0.493,0.449
	c-0.354,0.275-0.755,0.488-1.176,0.64c-0.194,0.07-0.102,0.406,0.102,0.354c0.487-0.125,0.931-0.338,1.333-0.64
	c0.196-0.147,0.373-0.318,0.538-0.499c0.174-0.19,0.283-0.395,0.375-0.634C279.602,492.245,279.446,492.108,279.349,492.208z"/><path fill="#AD6847" d="M277.725,490.136c-0.46,0.297-0.859,0.675-1.342,0.943c-0.232,0.128-0.472,0.24-0.719,0.336
	c-0.123,0.048-0.247,0.096-0.372,0.139c-0.148,0.051-0.277,0.086-0.376,0.216c-0.073,0.096-0.025,0.237,0.083,0.281
	c0.261,0.106,0.623-0.078,0.865-0.183c0.262-0.115,0.514-0.251,0.756-0.402c0.478-0.296,0.997-0.672,1.272-1.172
	C277.957,490.178,277.839,490.062,277.725,490.136z"/><path fill="#AD6847" d="M287.568,512.93c-0.425,0.52-0.973,0.953-1.55,1.295c-0.288,0.171-0.589,0.318-0.902,0.438
	c-0.154,0.059-0.311,0.111-0.469,0.157c-0.158,0.046-0.324,0.084-0.462,0.177c-0.078,0.053-0.04,0.181,0.049,0.193
	c0.325,0.044,0.696-0.143,0.987-0.269c0.32-0.138,0.629-0.302,0.921-0.492c0.593-0.384,1.082-0.875,1.516-1.427
	C287.704,512.944,287.615,512.873,287.568,512.93z"/><path fill="#AD6847" d="M287.71,515.261c-0.001,0-0.002,0-0.002,0.001c-0.001-0.018-0.011-0.034-0.034-0.037
	c-0.065-0.01-0.117,0.046-0.161,0.086c-0.053,0.047-0.108,0.092-0.164,0.136c-0.112,0.089-0.224,0.176-0.345,0.253
	c-0.239,0.151-0.502,0.265-0.771,0.351c-0.054,0.017-0.079,0.088-0.058,0.138c0.023,0.058,0.083,0.074,0.138,0.058
	c0.287-0.082,0.556-0.214,0.805-0.379c0.121-0.08,0.241-0.168,0.346-0.268c0.055-0.052,0.107-0.107,0.158-0.163
	c0,0,0.001-0.001,0.001-0.001c-0.009,0.035-0.019,0.07-0.026,0.102c0,0.002,0.003,0.003,0.004,0.001
	c0.01-0.033,0.018-0.072,0.029-0.11C287.669,515.384,287.726,515.324,287.71,515.261z"/><path fill="#AD6847" d="M290.501,516.67c-0.425,0.42-0.911,0.776-1.441,1.051c-0.52,0.27-1.068,0.424-1.623,0.596
	c-0.039,0.012-0.02,0.07,0.017,0.066c0.589-0.05,1.176-0.287,1.698-0.558c0.533-0.276,1.025-0.628,1.459-1.043
	C290.692,516.704,290.583,516.589,290.501,516.67z"/><path fill="#1B7062" d="M270.445,475.459c-3.786-0.237-34.81-1.785-53.597,16.467c-3.655,3.55-11.512,11.184-14.388,23.659
	c-1.077,4.671-1.151,8.701-1.024,11.455c0.638-3.489,2.241-9.696,6.729-16.106c4.594-6.561,10.034-10.225,13.126-12.003
	c-4.201,3.952-10.217,10.724-14.201,20.68c-8.292,20.723-1.564,39.71,0.431,44.805c-0.486-3.73-0.69-8.036-0.268-12.772
	c1.469-16.466,9.644-28.32,14.402-34.148c-1.802,2.818-4.889,8.53-5.289,16.286c-0.222,4.3,0.451,7.907,1.163,10.475
	c0,0,2.134-17.638,11.664-30.159c0,0-2.755,15.299-2.718,20.951c0.002,0.244-0.069,0.709,0.09,0.771
	c1.05,0.411,7.727-17.937,16.154-31.414C247.775,496.317,256.128,485.72,270.445,475.459z"/><path fill="#CCC" d="M228.971,512.233c0.189-0.143,0.386-0.276,0.591-0.394c0.418-0.239,0.897-0.388,1.363-0.499
	c0.207-0.049,0.273,0.273,0.088,0.351c-0.41,0.173-0.77,0.402-1.143,0.64c-0.182,0.116-0.358,0.239-0.527,0.373
	c-0.099,0.078-0.19,0.171-0.301,0.231c-0.096,0.052-0.198,0.132-0.309,0.133c-0.146,0.001-0.248-0.094-0.239-0.243
	c0.007-0.12,0.102-0.233,0.173-0.326C228.75,512.393,228.865,512.313,228.971,512.233z"/><path fill="#CCC" d="M237.755,481.376c3.228-1.146,6.535-2.074,9.891-2.761c3.345-0.685,6.723-1.03,10.134-1.138
	c0.334-0.011,0.353,0.475,0.027,0.513c-6.675,0.795-13.33,2.358-19.586,4.826C237.316,483.175,236.833,481.704,237.755,481.376z"/><path fill="#94B858" d="M232.276,484.991c0.024-0.011,0.046-0.023,0.07-0.034c0.011-0.005,0.023-0.01,0.035-0.015
	C232.345,484.958,232.311,484.975,232.276,484.991z"/><path fill="#94B858" d="M232.382,484.941c-0.001,0-0.001,0.001-0.002,0.001c0.009-0.004,0.018-0.008,0.026-0.013
	C232.399,484.933,232.391,484.937,232.382,484.941z"/><path fill="#CCC" d="M231.718,483.986c0.034-0.038,0.073-0.071,0.112-0.104c0.112-0.095,0.225-0.189,0.347-0.271
	c0.206-0.139,0.432-0.252,0.662-0.346c0.229-0.094,0.467-0.151,0.711-0.193c0.136-0.024,0.258-0.029,0.395,0.003
	c0.103,0.024,0.208,0.035,0.312,0.056c0.345,0.072,0.389,0.609,0.034,0.704c-0.068,0.018-0.134,0.042-0.201,0.062
	c-0.007,0.004-0.014,0.008-0.02,0.012c-0.058,0.034-0.117,0.068-0.181,0.089c-0.137,0.044-0.273,0.08-0.406,0.135
	c-0.025,0.011-0.05,0.022-0.076,0.033c-0.005,0.003-0.009,0.005-0.017,0.009c-0.065,0.034-0.129,0.07-0.192,0.108
	c-0.107,0.066-0.207,0.142-0.305,0.22c-0.059,0.053-0.118,0.105-0.172,0.163c-0.035,0.037-0.067,0.077-0.101,0.113
	c-0.08,0.084-0.174,0.132-0.273,0.178c-0.074,0.035-0.148,0.066-0.233,0.071c-0.125,0.007-0.246-0.033-0.347-0.105
	c-0.165-0.117-0.291-0.361-0.224-0.568C231.584,484.223,231.623,484.091,231.718,483.986z"/><path fill="#CCC" d="M206.711,507.791c0.237-0.442,0.479-0.882,0.735-1.313c0.546-0.922,1.161-1.788,1.846-2.612
	c0.655-0.787,1.363-1.479,2.125-2.16c0.771-0.69,1.619-1.21,2.478-1.774c0.084-0.055,0.172,0.08,0.098,0.144
	c-1.491,1.296-2.819,2.9-3.998,4.481c-0.58,0.778-1.124,1.59-1.622,2.422c-0.265,0.444-0.518,0.894-0.741,1.361
	c-0.207,0.433-0.353,0.926-0.633,1.316c-0.364,0.508-1.059,0.111-0.941-0.456C206.16,508.714,206.477,508.227,206.711,507.791z"/><path fill="#CCC" d="M204.663,544.172c-0.049-0.499-0.093-0.999-0.121-1.5c-0.06-1.07-0.033-2.132,0.078-3.197
	c0.106-1.018,0.308-1.988,0.561-2.978c0.256-1.003,0.67-1.907,1.069-2.854c0.039-0.093,0.187-0.029,0.162,0.065
	c-0.516,1.907-0.725,3.979-0.823,5.949c-0.048,0.969-0.047,1.946,0.003,2.915c0.027,0.516,0.068,1.031,0.143,1.543
	c0.069,0.475,0.223,0.966,0.208,1.446c-0.019,0.625-0.818,0.682-1.035,0.146C204.719,545.245,204.711,544.665,204.663,544.172z"/><path fill="#249474" d="M269.807,475.355c-2.066-2.171-19.208-19.732-39.897-19.25c-4.024,0.094-12.677,0.296-21.044,5.978
	c-3.133,2.128-5.34,4.423-6.747,6.087c2.243-1.678,6.506-4.414,12.549-5.716c6.186-1.334,11.305-0.534,14.052,0.097
	c-4.557,0.033-11.68,0.725-19.335,4.353c-15.935,7.552-22.237,22.166-23.818,26.189c1.722-2.422,3.917-5.027,6.705-7.543
	c9.696-8.751,20.799-11.227,26.686-12.048c-2.557,0.665-7.415,2.316-11.812,6.594c-2.438,2.372-3.986,4.823-4.953,6.693
	c0,0,10.711-9.072,22.958-11.207c0,0-9.814,7.384-12.828,10.678c-0.13,0.142-0.421,0.374-0.362,0.495
	c0.387,0.802,14.112-6.241,26.233-9.523C245.469,475.262,256,473.61,269.807,475.355z"/><path fill="#CCC" d="M226.025,474.382c0.186,0.019,0.372,0.047,0.554,0.089c0.371,0.086,0.728,0.257,1.058,0.443
	c0.147,0.083,0.011,0.305-0.138,0.251c-0.33-0.12-0.662-0.181-1.006-0.243c-0.167-0.03-0.336-0.054-0.506-0.067
	c-0.099-0.008-0.202-0.003-0.298-0.028c-0.084-0.022-0.186-0.03-0.251-0.089c-0.085-0.078-0.093-0.188-0.008-0.269
	c0.069-0.066,0.184-0.08,0.276-0.096C225.811,474.357,225.921,474.372,226.025,474.382z"/><path fill="#CCC" d="M247.689,461.224c2.485,1.07,4.9,2.309,7.213,3.713c2.306,1.4,4.448,3.015,6.482,4.785
	c0.199,0.173-0.05,0.465-0.26,0.312c-4.294-3.124-8.989-5.794-13.94-7.724C246.469,462.031,246.979,460.918,247.689,461.224z"/><path fill="#94B858" d="M242.573,460.375c0.02,0.006,0.039,0.011,0.059,0.018c0.009,0.003,0.018,0.007,0.028,0.01
	C242.631,460.394,242.602,460.384,242.573,460.375z"/><path fill="#94B858" d="M242.662,460.403c-0.001,0-0.001,0-0.002-0.001c0.007,0.002,0.015,0.005,0.022,0.007
	C242.675,460.408,242.668,460.405,242.662,460.403z"/><path fill="#CCC" d="M242.79,459.493c0.04-0.004,0.08-0.002,0.12,0c0.116,0.005,0.231,0.011,0.346,0.029
	c0.194,0.03,0.386,0.086,0.569,0.155c0.183,0.069,0.352,0.164,0.516,0.27c0.091,0.059,0.165,0.122,0.227,0.214
	c0.047,0.069,0.102,0.132,0.151,0.2c0.161,0.227-0.102,0.561-0.359,0.426c-0.049-0.026-0.1-0.048-0.15-0.072
	c-0.006-0.001-0.012-0.003-0.018-0.004c-0.052-0.012-0.104-0.023-0.153-0.045c-0.103-0.048-0.201-0.101-0.308-0.14
	c-0.02-0.008-0.041-0.014-0.061-0.022c-0.005-0.001-0.008-0.002-0.014-0.004c-0.056-0.016-0.112-0.029-0.169-0.041
	c-0.097-0.02-0.196-0.029-0.295-0.036c-0.062-0.001-0.125-0.002-0.187,0.002c-0.04,0.003-0.08,0.009-0.12,0.011
	c-0.091,0.006-0.172-0.017-0.254-0.043c-0.062-0.02-0.121-0.041-0.173-0.084c-0.076-0.063-0.124-0.151-0.145-0.247
	c-0.033-0.157,0.025-0.366,0.175-0.45C242.585,459.559,242.678,459.503,242.79,459.493z"/><path fill="#CCC" d="M215.515,459.852c0.375-0.129,0.751-0.253,1.131-0.366c0.811-0.24,1.633-0.413,2.472-0.521
	c0.802-0.104,1.584-0.124,2.392-0.11c0.817,0.015,1.588,0.169,2.389,0.303c0.079,0.013,0.057,0.139-0.021,0.136
	c-1.56-0.05-3.191,0.166-4.724,0.449c-0.754,0.139-1.505,0.317-2.241,0.532c-0.392,0.114-0.781,0.24-1.16,0.39
	c-0.352,0.139-0.702,0.347-1.074,0.423c-0.484,0.099-0.673-0.505-0.3-0.77C214.7,460.091,215.145,459.979,215.515,459.852z"/><path fill="#CCC" d="M194.786,479.829c0.239-0.315,0.483-0.629,0.735-0.934c0.54-0.652,1.126-1.253,1.762-1.811
	c0.608-0.533,1.246-0.986,1.925-1.424c0.687-0.443,1.413-0.745,2.152-1.079c0.073-0.033,0.124,0.084,0.059,0.125
	c-1.323,0.828-2.557,1.916-3.672,3.005c-0.548,0.535-1.073,1.102-1.564,1.691c-0.262,0.314-0.515,0.634-0.746,0.971
	c-0.215,0.312-0.39,0.679-0.656,0.949c-0.347,0.352-0.84-0.044-0.678-0.472C194.243,480.481,194.55,480.141,194.786,479.829z"/><path fill="#249474" d="M270.663,472.08c-1.197-2.323-10.751-21.471-4.43-38.372c1.23-3.288,3.874-10.357,10.95-15.621
	c2.65-1.971,5.172-3.132,6.945-3.814c-2.025,1.367-5.498,4.095-8.302,8.699c-2.87,4.713-3.677,9.158-3.944,11.601
	c1.332-3.744,3.941-9.412,9.122-14.679c10.783-10.962,24.624-11.968,28.39-12.118c-2.488,0.725-5.262,1.786-8.133,3.362
	c-9.984,5.48-15.203,13.916-17.565,18.53c1.28-1.916,4.03-5.444,8.814-7.841c2.652-1.329,5.114-1.902,6.931-2.163
	c0,0-10.539,6.224-15.805,15.699c0,0,8.892-5.969,12.468-7.508c0.154-0.066,0.428-0.24,0.512-0.156
	c0.549,0.549-9.181,9.836-15.355,18.879C277.556,452.008,273.179,460.208,270.663,472.08z"/><path fill="#CCC" d="M282.399,435.741c-0.038,0.159-0.068,0.32-0.085,0.482c-0.035,0.33,0.004,0.673,0.062,0.998
	c0.026,0.144,0.248,0.096,0.246-0.041c-0.004-0.306,0.04-0.597,0.087-0.898c0.023-0.147,0.052-0.292,0.09-0.436
	c0.022-0.084,0.055-0.167,0.063-0.254c0.006-0.075,0.029-0.162-0.002-0.232c-0.04-0.092-0.128-0.13-0.22-0.083
	c-0.074,0.038-0.119,0.128-0.158,0.2C282.439,435.558,282.42,435.653,282.399,435.741z"/><path fill="#CCC" d="M265.358,449.816c0.169,2.353,0.499,4.697,0.993,7.004c0.493,2.3,1.209,4.527,2.085,6.709
	c0.086,0.214,0.397,0.092,0.331-0.125c-1.344-4.431-2.198-9.063-2.37-13.693C266.372,449.042,265.309,449.144,265.358,449.816z"/><path fill="#94B858" d="M266.124,445.36c0,0.018-0.002,0.036-0.002,0.054c0,0.009,0,0.017,0,0.026
	C266.122,445.413,266.123,445.386,266.124,445.36z"/><path fill="#94B858" d="M266.121,445.441c0-0.001,0-0.001,0-0.002c0,0.007,0,0.013-0.001,0.02
	C266.121,445.453,266.121,445.447,266.121,445.441z"/><path fill="#CCC" d="M265.335,445.286c-0.015,0.032-0.025,0.065-0.035,0.099c-0.029,0.097-0.057,0.194-0.075,0.294
	c-0.031,0.169-0.04,0.342-0.035,0.513c0.004,0.171,0.034,0.337,0.075,0.502c0.023,0.092,0.053,0.171,0.111,0.248
	c0.044,0.058,0.08,0.122,0.122,0.181c0.141,0.198,0.491,0.077,0.454-0.173c-0.007-0.048-0.011-0.096-0.016-0.144
	c0.001-0.005,0.001-0.011,0.002-0.016c0.005-0.046,0.011-0.092,0.006-0.139c-0.01-0.098-0.025-0.194-0.027-0.294
	c0-0.019,0-0.038,0-0.057c0-0.004,0.001-0.007,0.001-0.013c0.003-0.051,0.008-0.101,0.015-0.151c0.012-0.086,0.032-0.17,0.055-0.253
	c0.017-0.052,0.034-0.103,0.055-0.154c0.014-0.032,0.03-0.063,0.043-0.095c0.031-0.073,0.035-0.146,0.037-0.221
	c0.001-0.057,0.001-0.112-0.02-0.167c-0.03-0.081-0.089-0.146-0.162-0.19c-0.119-0.072-0.308-0.084-0.421,0.016
	C265.448,445.136,265.375,445.197,265.335,445.286z"/><path fill="#CCC" d="M273.441,422.924c-0.213,0.272-0.424,0.546-0.625,0.827c-0.43,0.6-0.808,1.227-1.137,1.887
	c-0.315,0.631-0.556,1.269-0.775,1.938c-0.222,0.677-0.316,1.356-0.434,2.054c-0.012,0.069,0.098,0.086,0.118,0.022
	c0.406-1.299,1.05-2.581,1.722-3.762c0.33-0.581,0.692-1.149,1.08-1.693c0.207-0.29,0.421-0.574,0.654-0.844
	c0.216-0.25,0.487-0.479,0.656-0.763c0.22-0.37-0.223-0.699-0.548-0.468C273.871,422.322,273.651,422.656,273.441,422.924z"/><path fill="#CCC" d="M295.83,411.572c-0.328,0.107-0.656,0.217-0.98,0.338c-0.691,0.258-1.354,0.569-1.996,0.933
	c-0.613,0.348-1.169,0.744-1.724,1.177c-0.562,0.439-1.018,0.95-1.505,1.464c-0.048,0.05,0.033,0.126,0.086,0.084
	c1.061-0.853,2.31-1.557,3.526-2.164c0.598-0.298,1.215-0.568,1.84-0.804c0.333-0.126,0.67-0.242,1.013-0.337
	c0.319-0.088,0.671-0.126,0.97-0.268c0.389-0.185,0.204-0.704-0.194-0.694C296.523,411.311,296.155,411.466,295.83,411.572z"/><path fill="#1B7062" d="M272.52,467.599c1.266-2.937,11.935-26.851,32.822-34.014c4.063-1.393,12.799-4.389,23.274-1.794
	c3.923,0.972,6.98,2.453,9.003,3.599c-2.866-0.851-8.144-2.013-14.674-1.084c-6.685,0.951-11.514,3.643-14.03,5.29
	c4.573-1.651,11.959-3.591,20.963-2.789c18.742,1.67,30.451,13.969,33.52,17.412c-2.619-1.788-5.778-3.584-9.499-5.073
	c-12.939-5.176-24.969-3.551-31.165-2.197c2.805-0.28,8.278-0.422,14.261,2.235c3.317,1.473,5.773,3.355,7.432,4.869
	c0,0-14.074-5.123-27.122-2.734c0,0,12.553,3.764,16.787,5.947c0.183,0.094,0.559,0.219,0.545,0.362
	c-0.092,0.946-16.432-1.032-29.778,0.163C296.847,458.511,285.695,460.749,272.52,467.599z"/><path fill="#CCC" d="M315.985,450.444c-0.179,0.087-0.355,0.185-0.522,0.294c-0.339,0.223-0.634,0.527-0.895,0.835
	c-0.116,0.137,0.102,0.309,0.23,0.2c0.286-0.242,0.596-0.426,0.917-0.615c0.156-0.092,0.316-0.178,0.481-0.254
	c0.097-0.044,0.201-0.077,0.288-0.138c0.076-0.052,0.175-0.098,0.218-0.182c0.056-0.109,0.024-0.222-0.092-0.272
	c-0.093-0.04-0.214-0.013-0.311,0.006C316.189,450.339,316.085,450.395,315.985,450.444z"/><path fill="#CCC" d="M289.437,445.279c-2.092,1.989-4.052,4.122-5.848,6.383c-1.79,2.254-3.338,4.661-4.72,7.185
	c-0.135,0.247,0.222,0.447,0.376,0.216c3.144-4.715,6.857-9.122,11.098-12.884C290.956,445.635,290.034,444.711,289.437,445.279z"/><path fill="#94B858" d="M294.244,442.539c-0.018,0.014-0.035,0.026-0.052,0.039c-0.008,0.007-0.016,0.014-0.024,0.02
	C294.192,442.578,294.218,442.559,294.244,442.539z"/><path fill="#94B858" d="M294.165,442.6c0.001,0,0.001-0.001,0.002-0.001c-0.006,0.005-0.013,0.01-0.019,0.015
	C294.153,442.609,294.159,442.604,294.165,442.6z"/><path fill="#CCC" d="M293.701,441.736c-0.042,0.011-0.081,0.027-0.121,0.044c-0.114,0.048-0.227,0.097-0.336,0.157
	c-0.183,0.102-0.354,0.229-0.513,0.366c-0.158,0.137-0.291,0.294-0.416,0.461c-0.07,0.093-0.12,0.183-0.148,0.298
	c-0.021,0.087-0.053,0.17-0.077,0.256c-0.078,0.287,0.309,0.524,0.516,0.294c0.04-0.044,0.083-0.085,0.124-0.128
	c0.005-0.004,0.011-0.007,0.016-0.011c0.047-0.031,0.096-0.061,0.136-0.102c0.085-0.086,0.164-0.175,0.256-0.254
	c0.018-0.015,0.036-0.03,0.054-0.044c0.004-0.003,0.007-0.005,0.013-0.009c0.05-0.036,0.102-0.071,0.154-0.103
	c0.09-0.056,0.185-0.102,0.282-0.145c0.062-0.024,0.124-0.048,0.188-0.067c0.041-0.012,0.083-0.021,0.124-0.033
	c0.093-0.028,0.165-0.081,0.238-0.137c0.055-0.043,0.106-0.086,0.142-0.148c0.053-0.092,0.069-0.197,0.053-0.301
	c-0.025-0.169-0.16-0.357-0.342-0.385C293.93,441.726,293.816,441.705,293.701,441.736z"/><path fill="#CCC" d="M321.135,432.015c-0.422,0.01-0.846,0.024-1.267,0.052c-0.901,0.059-1.787,0.191-2.667,0.392
	c-0.841,0.192-1.632,0.461-2.434,0.774c-0.813,0.317-1.527,0.756-2.279,1.186c-0.074,0.042-0.005,0.16,0.071,0.129
	c1.543-0.627,3.255-1.013,4.894-1.297c0.806-0.139,1.624-0.239,2.44-0.295c0.435-0.03,0.87-0.048,1.306-0.038
	c0.404,0.009,0.831,0.088,1.231,0.027c0.521-0.08,0.487-0.754,0.016-0.881C322.039,431.953,321.552,432.005,321.135,432.015z"/><path fill="#CCC" d="M349.267,444.35c-0.356-0.227-0.716-0.451-1.081-0.663c-0.781-0.453-1.59-0.838-2.433-1.161
	c-0.806-0.309-1.612-0.527-2.453-0.714c-0.851-0.19-1.689-0.223-2.553-0.285c-0.085-0.006-0.094,0.13-0.013,0.146
	c1.631,0.34,3.268,0.973,4.786,1.65c0.747,0.333,1.481,0.707,2.19,1.114c0.378,0.217,0.749,0.445,1.106,0.696
	c0.33,0.233,0.641,0.536,1.007,0.708c0.477,0.224,0.825-0.354,0.505-0.723C350.052,444.802,349.619,444.575,349.267,444.35z"/><path fill="#249474" d="M263.12,472.504c3.501-2.05,32.376-18.47,59.105-10.092c5.199,1.63,16.379,5.134,25.133,15.659
	c3.278,3.942,5.289,7.753,6.495,10.444c-2.289-3.024-6.809-8.178-14.182-12.137c-7.546-4.052-14.505-4.93-18.314-5.138
	c5.915,1.749,14.92,5.318,23.519,12.905c17.898,15.793,20.62,37.161,21.169,42.987c-1.333-3.796-3.211-8.005-5.895-12.323
	c-9.333-15.014-22.848-22.395-30.198-25.668c3.077,1.823,8.777,5.79,12.894,13.002c2.283,3.998,3.378,7.767,3.935,10.561
	c0,0-10.533-15.813-25.663-23.178c0,0,9.999,13.281,12.686,18.694c0.116,0.233,0.407,0.644,0.285,0.78
	c-0.804,0.898-16.017-13.404-30.553-22.213C294.811,481.501,281.732,475.406,263.12,472.504z"/><path fill="#CCC" d="M320.431,487.64c-0.249-0.045-0.502-0.078-0.754-0.091c-0.515-0.027-1.043,0.062-1.542,0.18
	c-0.222,0.053-0.129,0.392,0.085,0.378c0.475-0.032,0.929,0.013,1.399,0.06c0.229,0.023,0.457,0.056,0.683,0.102
	c0.132,0.027,0.263,0.072,0.398,0.076c0.117,0.003,0.253,0.031,0.36-0.022c0.14-0.069,0.191-0.209,0.111-0.347
	c-0.065-0.111-0.209-0.174-0.323-0.228C320.719,487.687,320.571,487.666,320.431,487.64z"/><path fill="#CCC" d="M297.182,462.41c-3.633,0.461-7.238,1.168-10.773,2.128c-3.523,0.957-6.915,2.255-10.224,3.795
	c-0.324,0.151-0.109,0.623,0.221,0.503c6.756-2.455,13.863-4.169,21.025-4.825C298.467,463.916,298.22,462.278,297.182,462.41z"/><path fill="#94B858" d="M304.154,463.222c-0.028,0.001-0.055,0-0.083,0.001c-0.013,0-0.027,0.002-0.04,0.002
	C304.072,463.224,304.113,463.223,304.154,463.222z"/><path fill="#94B858" d="M304.028,463.225c0.001,0,0.002,0,0.003,0c-0.01,0-0.021,0-0.031,0.001
	C304.009,463.226,304.019,463.225,304.028,463.225z"/><path fill="#CCC" d="M304.203,461.993c-0.051-0.02-0.103-0.033-0.157-0.046c-0.153-0.037-0.305-0.072-0.461-0.092
	c-0.264-0.034-0.534-0.033-0.799-0.011c-0.264,0.021-0.519,0.081-0.772,0.158c-0.141,0.043-0.26,0.097-0.375,0.193
	c-0.087,0.073-0.182,0.134-0.271,0.204c-0.295,0.235-0.078,0.768,0.307,0.689c0.074-0.015,0.148-0.025,0.222-0.038
	c0.008,0,0.017,0.001,0.025,0.001c0.072,0.004,0.144,0.009,0.215-0.002c0.152-0.024,0.299-0.056,0.453-0.067
	c0.029-0.002,0.059-0.003,0.088-0.005c0.007,0,0.011,0,0.02,0c0.079,0.001,0.157,0.004,0.235,0.011
	c0.134,0.011,0.266,0.036,0.397,0.063c0.082,0.022,0.163,0.044,0.243,0.072c0.051,0.018,0.101,0.041,0.151,0.059
	c0.116,0.042,0.23,0.042,0.346,0.039c0.088-0.003,0.173-0.008,0.257-0.045c0.123-0.054,0.219-0.15,0.281-0.267
	c0.102-0.191,0.104-0.485-0.06-0.651C304.445,462.156,304.344,462.048,304.203,461.993z"/><path fill="#CCC" d="M339.544,472.678c-0.439-0.308-0.882-0.611-1.334-0.899c-0.965-0.617-1.97-1.148-3.021-1.604
	c-1.004-0.435-2.014-0.755-3.07-1.039c-1.069-0.287-2.129-0.375-3.221-0.5c-0.107-0.012-0.126,0.159-0.024,0.185
	c2.048,0.52,4.088,1.411,5.976,2.353c0.928,0.463,1.839,0.977,2.715,1.532c0.467,0.296,0.926,0.604,1.363,0.942
	c0.406,0.313,0.783,0.714,1.238,0.952c0.592,0.31,1.064-0.404,0.679-0.889C340.515,473.294,339.978,472.982,339.544,472.678z"/><path fill="#CCC" d="M359.023,506.427c-0.193-0.5-0.392-0.999-0.607-1.49c-0.458-1.05-0.995-2.051-1.614-3.015
	c-0.591-0.921-1.251-1.749-1.97-2.573c-0.728-0.834-1.559-1.498-2.395-2.21c-0.082-0.07-0.193,0.062-0.123,0.14
	c1.411,1.573,2.608,3.45,3.651,5.284c0.513,0.902,0.983,1.836,1.401,2.785c0.223,0.506,0.432,1.018,0.607,1.542
	c0.162,0.486,0.252,1.03,0.497,1.481c0.319,0.588,1.109,0.258,1.059-0.359C359.486,507.479,359.214,506.921,359.023,506.427z"/><path fill="#1B7062" d="M274.46,477.231c3.104,0.404,28.473,4.036,40.815,21.776c2.401,3.451,7.563,10.87,7.928,21.426
	c0.137,3.953-0.438,7.228-0.974,9.439c0.033-2.926-0.288-8.205-2.914-14.103c-2.688-6.037-6.516-9.861-8.741-11.788
	c2.78,3.862,6.586,10.294,8.245,18.984c3.452,18.089-4.986,32.407-7.404,36.219c0.981-2.945,1.825-6.4,2.228-10.301
	c1.403-13.567-3.351-24.454-6.287-29.924c1.015,2.566,2.617,7.678,1.719,14.023c-0.497,3.517-1.61,6.333-2.591,8.3
	c0,0,1.049-14.621-4.698-26.262c0,0-0.178,12.824-1.098,17.395c-0.04,0.197-0.056,0.585-0.195,0.61
	c-0.915,0.167-3.434-15.744-8.136-27.985C289.536,497.693,284.439,487.796,274.46,477.231z"/><path fill="#CCC" d="M302.259,513.544c-0.13-0.145-0.269-0.285-0.417-0.412c-0.301-0.26-0.666-0.455-1.026-0.619
	c-0.16-0.073-0.264,0.179-0.127,0.271c0.305,0.205,0.56,0.446,0.825,0.698c0.129,0.122,0.252,0.25,0.368,0.385
	c0.068,0.079,0.127,0.168,0.207,0.234c0.07,0.057,0.14,0.138,0.23,0.157c0.118,0.024,0.216-0.037,0.232-0.16
	c0.013-0.099-0.046-0.205-0.089-0.292C302.413,513.709,302.332,513.626,302.259,513.544z"/><path fill="#CCC" d="M300.004,487.171c-2.434-1.436-4.966-2.709-7.576-3.793c-2.601-1.081-5.283-1.893-8.029-2.517
	c-0.269-0.061-0.361,0.329-0.103,0.412c5.28,1.695,10.424,4.009,15.102,6.993C300.075,488.697,300.699,487.581,300.004,487.171z"/><path fill="#94B858" d="M303.872,490.961c-0.018-0.013-0.034-0.026-0.051-0.039c-0.008-0.006-0.017-0.011-0.026-0.018
	C303.82,490.923,303.846,490.942,303.872,490.961z"/><path fill="#94B858" d="M303.793,490.903c0.001,0,0.001,0.001,0.002,0.001c-0.006-0.005-0.013-0.01-0.019-0.014
	C303.781,490.895,303.787,490.899,303.793,490.903z"/><path fill="#CCC" d="M304.482,490.234c-0.022-0.036-0.048-0.069-0.074-0.102c-0.076-0.095-0.152-0.188-0.238-0.274
	c-0.145-0.145-0.31-0.272-0.482-0.384c-0.171-0.112-0.355-0.196-0.545-0.268c-0.106-0.041-0.204-0.064-0.32-0.059
	c-0.087,0.003-0.174-0.005-0.262-0.003c-0.291,0.004-0.411,0.432-0.139,0.565c0.052,0.026,0.102,0.055,0.153,0.082
	c0.005,0.004,0.01,0.008,0.015,0.013c0.042,0.036,0.084,0.074,0.132,0.101c0.104,0.057,0.209,0.108,0.308,0.173
	c0.019,0.013,0.037,0.026,0.056,0.039c0.004,0.003,0.006,0.005,0.012,0.01c0.048,0.037,0.094,0.077,0.139,0.118
	c0.076,0.07,0.145,0.147,0.212,0.226c0.039,0.052,0.079,0.104,0.114,0.159c0.022,0.035,0.042,0.072,0.064,0.108
	c0.051,0.081,0.12,0.134,0.193,0.187c0.055,0.04,0.109,0.077,0.178,0.094c0.1,0.025,0.204,0.012,0.297-0.03
	c0.152-0.069,0.293-0.247,0.271-0.425C304.553,490.448,304.542,490.335,304.482,490.234z"/><path fill="#CCC" d="M320.986,513.451c-0.122-0.395-0.249-0.789-0.389-1.179c-0.297-0.832-0.658-1.631-1.084-2.406
	c-0.407-0.74-0.871-1.412-1.381-2.084c-0.516-0.68-1.121-1.235-1.728-1.827c-0.06-0.058-0.152,0.038-0.102,0.101
	c1.003,1.285,1.826,2.793,2.533,4.259c0.347,0.721,0.66,1.465,0.932,2.217c0.145,0.401,0.279,0.806,0.386,1.219
	c0.1,0.383,0.14,0.806,0.305,1.166c0.215,0.469,0.84,0.257,0.834-0.221C321.287,514.286,321.107,513.842,320.986,513.451z"/><path fill="#CCC" d="M316.917,543.238c0.118-0.396,0.233-0.794,0.334-1.195c0.217-0.857,0.362-1.721,0.441-2.602
	c0.075-0.841,0.064-1.658,0.014-2.5c-0.05-0.852-0.243-1.65-0.417-2.48c-0.017-0.082-0.147-0.053-0.141,0.027
	c0.117,1.626-0.04,3.337-0.27,4.948c-0.113,0.792-0.268,1.584-0.462,2.361c-0.103,0.414-0.218,0.825-0.359,1.227
	c-0.131,0.373-0.333,0.747-0.396,1.138c-0.083,0.509,0.555,0.681,0.816,0.281C316.702,544.099,316.8,543.63,316.917,543.238z"/><path fill="#1B7062" d="M267.297,476.629c0.097-2.727,0.607-25.062-12.88-38.216c-2.624-2.559-8.265-8.06-17.29-9.885
	c-3.38-0.684-6.278-0.658-8.256-0.514c2.521,0.391,7.015,1.423,11.71,4.525c4.807,3.176,7.546,7.015,8.885,9.204
	c-2.923-2.944-7.909-7.138-15.144-9.808c-15.061-5.559-28.581-0.354-32.206,1.18c2.673-0.422,5.765-0.652,9.177-0.441
	c11.867,0.736,20.549,6.384,24.832,9.691c-2.061-1.241-6.228-3.35-11.812-3.487c-3.096-0.076-5.677,0.478-7.509,1.04
	c0,0,12.723,1.192,21.91,7.8c0,0-11.053-1.684-15.116-1.547c-0.175,0.006-0.511-0.036-0.553,0.08
	c-0.275,0.763,13.047,5.207,22.9,11.004C251.86,460.735,259.641,466.535,267.297,476.629z"/><path fill="#CCC" d="M240.051,447.524c0.106,0.133,0.206,0.272,0.295,0.418c0.18,0.296,0.296,0.638,0.385,0.971
	c0.04,0.148-0.191,0.201-0.251,0.07c-0.132-0.291-0.304-0.546-0.482-0.809c-0.087-0.128-0.179-0.253-0.278-0.372
	c-0.058-0.07-0.127-0.133-0.172-0.212c-0.039-0.068-0.099-0.14-0.102-0.22c-0.004-0.105,0.063-0.18,0.17-0.176
	c0.087,0.003,0.169,0.068,0.238,0.118C239.932,447.368,239.992,447.45,240.051,447.524z"/><path fill="#CCC" d="M262.407,453.24c0.887,2.298,1.618,4.658,2.177,7.058c0.557,2.392,0.871,4.814,1.015,7.264
	c0.014,0.24-0.334,0.263-0.369,0.03c-0.701-4.783-1.954-9.538-3.85-13.988C261.105,452.96,262.154,452.584,262.407,453.24z"/><path fill="#94B858" d="M259.702,449.371c0.009,0.017,0.018,0.033,0.026,0.05c0.004,0.008,0.007,0.016,0.012,0.025
	C259.727,449.421,259.714,449.396,259.702,449.371z"/><path fill="#94B858" d="M259.74,449.447c0-0.001,0-0.001-0.001-0.002c0.003,0.006,0.006,0.012,0.009,0.019
	C259.746,449.458,259.743,449.453,259.74,449.447z"/><path fill="#CCC" d="M260.414,448.95c0.028,0.024,0.052,0.051,0.077,0.078c0.071,0.079,0.14,0.158,0.202,0.244
	c0.104,0.145,0.19,0.306,0.262,0.469c0.072,0.163,0.117,0.333,0.153,0.507c0.02,0.097,0.026,0.185,0.005,0.284
	c-0.015,0.075-0.021,0.151-0.035,0.226c-0.045,0.25-0.43,0.291-0.506,0.038c-0.015-0.049-0.033-0.096-0.049-0.144
	c-0.003-0.005-0.006-0.01-0.009-0.014c-0.025-0.041-0.051-0.082-0.068-0.128c-0.034-0.097-0.063-0.195-0.105-0.289
	c-0.008-0.018-0.017-0.036-0.025-0.054c-0.002-0.004-0.004-0.006-0.007-0.012c-0.025-0.046-0.053-0.092-0.081-0.136
	c-0.049-0.076-0.106-0.146-0.164-0.215c-0.039-0.041-0.078-0.083-0.12-0.121c-0.027-0.024-0.056-0.046-0.083-0.071
	c-0.062-0.056-0.098-0.123-0.133-0.193c-0.026-0.053-0.051-0.105-0.055-0.166c-0.007-0.09,0.019-0.177,0.069-0.251
	c0.081-0.121,0.254-0.217,0.404-0.172C260.24,448.859,260.336,448.885,260.414,448.95z"/><path fill="#CCC" d="M242.813,431.434c0.322,0.162,0.643,0.328,0.958,0.503c0.673,0.375,1.308,0.8,1.914,1.277
	c0.578,0.456,1.09,0.951,1.594,1.486c0.511,0.541,0.901,1.141,1.324,1.747c0.042,0.06-0.054,0.125-0.102,0.073
	c-0.961-1.047-2.14-1.97-3.3-2.788c-0.57-0.402-1.165-0.777-1.773-1.119c-0.324-0.182-0.653-0.355-0.993-0.507
	c-0.315-0.14-0.673-0.236-0.959-0.429c-0.373-0.252-0.1-0.759,0.31-0.685C242.138,431.055,242.495,431.274,242.813,431.434z"/><path fill="#CCC" d="M216.616,430.667c0.358-0.045,0.717-0.086,1.076-0.116c0.768-0.064,1.532-0.065,2.3-0.006
	c0.734,0.056,1.435,0.183,2.152,0.346c0.726,0.165,1.384,0.445,2.073,0.713c0.068,0.026,0.025,0.134-0.044,0.118
	c-1.381-0.334-2.875-0.444-4.293-0.476c-0.698-0.016-1.4,0.004-2.096,0.059c-0.371,0.029-0.74,0.069-1.107,0.133
	c-0.34,0.059-0.69,0.179-1.035,0.178c-0.45-0.002-0.506-0.575-0.125-0.742C215.845,430.729,216.262,430.712,216.616,430.667z"/><path fill="#249474" d="M274.199,475.565c-3.443,2.078-31.414,19.452-36.773,46.696c-1.042,5.299-3.284,16.694,1.738,29.302
	c1.881,4.721,4.248,8.277,6.021,10.601c-1.549-3.425-3.898-9.802-3.855-18.097c0.044-8.49,2.574-14.966,4.196-18.382
	c-1.277,5.979-2.433,15.512,0.104,26.592c5.28,23.064,22.601,35.552,27.414,38.788c-2.675-2.958-5.451-6.587-7.941-10.969
	c-8.657-15.237-8.686-30.501-8.056-38.451c0.13,3.543,0.887,10.385,5.219,17.385c2.402,3.881,5.165,6.619,7.335,8.427
	c0,0-8.784-16.66-8.035-33.323c0,0,6.832,14.996,10.274,19.899c0.148,0.211,0.368,0.659,0.544,0.617
	c1.162-0.276-4.09-20.295-4.88-37.126C267.029,507.424,267.914,493.149,274.199,475.565z"/><path fill="#CCC" d="M260.246,532.643c0.078-0.238,0.17-0.474,0.278-0.7c0.22-0.461,0.548-0.879,0.887-1.258
	c0.151-0.168,0.403,0.074,0.289,0.253c-0.253,0.398-0.429,0.815-0.61,1.247c-0.088,0.211-0.168,0.424-0.234,0.643
	c-0.039,0.128-0.062,0.263-0.123,0.383c-0.052,0.103-0.093,0.235-0.189,0.303c-0.126,0.089-0.273,0.068-0.355-0.068
	c-0.066-0.109-0.052-0.264-0.046-0.389C260.15,532.916,260.202,532.777,260.246,532.643z"/><path fill="#CCC" d="M249.28,500.451c2.121-2.946,4.444-5.751,6.954-8.375c2.502-2.615,5.238-4.955,8.146-7.107
	c0.284-0.211,0.594,0.2,0.334,0.431c-5.337,4.721-10.194,10.099-14.157,16.026C249.984,502.283,248.674,501.292,249.28,500.451z"/><path fill="#94B858" d="M246.687,506.907c0.014-0.024,0.026-0.048,0.04-0.072c0.007-0.012,0.014-0.022,0.021-0.034
	C246.728,506.837,246.707,506.872,246.687,506.907z"/><path fill="#94B858" d="M246.749,506.799c0,0.001-0.001,0.001-0.001,0.002c0.005-0.009,0.01-0.018,0.015-0.027
	C246.759,506.783,246.754,506.791,246.749,506.799z"/><path fill="#CCC" d="M245.593,506.368c0.007-0.054,0.02-0.106,0.035-0.158c0.04-0.151,0.082-0.3,0.138-0.445
	c0.095-0.246,0.224-0.48,0.368-0.701c0.143-0.22,0.316-0.413,0.503-0.597c0.104-0.103,0.208-0.181,0.346-0.235
	c0.104-0.041,0.203-0.095,0.306-0.139c0.344-0.146,0.706,0.296,0.455,0.593c-0.048,0.057-0.092,0.117-0.138,0.176
	c-0.004,0.007-0.007,0.015-0.011,0.022c-0.03,0.064-0.06,0.13-0.104,0.187c-0.092,0.121-0.19,0.234-0.273,0.363
	c-0.016,0.025-0.031,0.049-0.046,0.074c-0.003,0.006-0.005,0.009-0.009,0.018c-0.037,0.069-0.071,0.139-0.102,0.21
	c-0.054,0.122-0.095,0.248-0.133,0.376c-0.019,0.081-0.039,0.163-0.052,0.246c-0.008,0.053-0.012,0.107-0.02,0.16
	c-0.019,0.121-0.072,0.22-0.13,0.32c-0.044,0.075-0.089,0.147-0.16,0.202c-0.105,0.081-0.234,0.119-0.365,0.118
	c-0.215-0.002-0.472-0.139-0.538-0.36C245.621,506.655,245.575,506.517,245.593,506.368z"/><path fill="#CCC" d="M238.166,542.205c-0.06-0.528-0.114-1.058-0.152-1.588c-0.08-1.133-0.068-2.259,0.033-3.39
	c0.096-1.081,0.296-2.111,0.549-3.165c0.256-1.067,0.681-2.031,1.089-3.042c0.04-0.099,0.198-0.034,0.172,0.067
	c-0.517,2.03-0.707,4.229-0.78,6.318c-0.036,1.028-0.02,2.064,0.048,3.09c0.036,0.547,0.088,1.092,0.175,1.633
	c0.081,0.502,0.251,1.02,0.243,1.529c-0.011,0.663-0.856,0.736-1.095,0.171C238.243,543.342,238.225,542.726,238.166,542.205z"/><path fill="#CCC" d="M258.336,575.147c-0.344-0.405-0.684-0.815-1.011-1.234c-0.698-0.896-1.315-1.838-1.862-2.833
	c-0.522-0.951-0.931-1.918-1.308-2.934c-0.382-1.028-0.566-2.066-0.791-3.133c-0.022-0.105,0.146-0.139,0.18-0.041
	c0.702,1.973,1.77,3.905,2.873,5.681c0.543,0.873,1.133,1.725,1.762,2.539c0.335,0.434,0.682,0.858,1.056,1.259
	c0.347,0.372,0.777,0.707,1.054,1.134c0.361,0.556-0.301,1.088-0.814,0.752C259.033,576.048,258.676,575.547,258.336,575.147z"/><path fill="#BA8159" d="M249.114,475.577c-1.882-6.801,2.106-13.84,8.907-15.721c6.801-1.881,13.84,2.106,15.721,8.907
	c1.881,6.801-2.106,13.84-8.907,15.721C258.035,486.366,250.996,482.378,249.114,475.577z"/><path fill="#A6734F" d="M249.114,475.577c-0.815-2.946-0.527-5.936,0.612-8.533c0.076,0.618,0.197,1.238,0.368,1.856
	c1.882,6.801,8.92,10.789,15.721,8.907c3.855-1.067,6.804-3.791,8.295-7.188c0.764,6.182-3.092,12.155-9.275,13.865
	C258.035,486.366,250.996,482.378,249.114,475.577z"/><path fill="#8C532A" d="M268.418,472.176c-1.73-6.255,1.937-12.728,8.191-14.458c6.254-1.731,12.728,1.937,14.458,8.191
	c1.73,6.255-1.937,12.728-8.191,14.458C276.621,482.098,270.148,478.431,268.418,472.176z"/><path fill="#82451A" d="M268.418,472.176c-1.176-4.25,0.143-8.6,3.07-11.495c-0.727,2.15-0.84,4.533-0.189,6.886
	c1.731,6.255,8.203,9.922,14.458,8.192c2.004-0.555,3.741-1.598,5.122-2.963c-1.205,3.567-4.1,6.493-8.002,7.573
	C276.621,482.098,270.148,478.431,268.418,472.176z"/><path fill="#8C532A" d="M251.219,489.127c-1.101-3.979,1.232-8.098,5.211-9.198c3.979-1.101,8.098,1.232,9.199,5.212
	c1.101,3.979-1.232,8.098-5.212,9.199C256.438,495.439,252.32,493.106,251.219,489.127z"/><path fill="#82451A" d="M252.962,482.039c-0.935,1.661-1.24,3.677-0.691,5.66c1.101,3.979,5.22,6.313,9.198,5.212
	c1.382-0.382,2.558-1.134,3.468-2.112c-0.942,1.674-2.523,2.986-4.521,3.539c-3.979,1.101-8.097-1.233-9.198-5.212
	C250.5,486.529,251.252,483.878,252.962,482.039z"/><path fill="#BA8159" d="M260.442,489.417c-1.681-6.076,1.881-12.365,7.957-14.045c6.076-1.681,12.364,1.882,14.045,7.958
	c1.681,6.076-1.881,12.364-7.957,14.045C268.411,499.056,262.123,495.493,260.442,489.417z"/><path fill="#BA8159" d="M260.442,489.417c-1.681-6.076,1.881-12.365,7.957-14.045c6.076-1.681,12.364,1.882,14.045,7.958
	c1.681,6.076-1.881,12.364-7.957,14.045C268.411,499.056,262.123,495.493,260.442,489.417z"/><path fill="#A6734F" d="M260.442,489.417c-0.954-3.449-0.218-6.965,1.707-9.669c-0.767,2.139-0.906,4.527-0.254,6.884
	c1.681,6.076,7.969,9.638,14.045,7.958c2.627-0.727,4.784-2.317,6.25-4.377c-1.209,3.376-3.984,6.133-7.703,7.162
	C268.411,499.056,262.123,495.493,260.442,489.417z"/><path fill="#9C5A06" d="M1043.309,736.681l7.605,0.992c3.401,0.367,6.763,0.91,10.189,1.176
	c4.784-54.187,9.23-107.625,15.172-162.01c0.206-1.875,0.59-6.029,1.18-9.423c2.327-13.439,4.964-22.879,9.579-37.807
	c2.235-7.241,8.29-30.776,16.004-44.824c1.817-3.327,3.734-6.122,5.717-8.039l-3.049-6.001
	c-19.992,23.433-35.473,69.778-40.056,96.277C1055.003,628.655,1052.572,676.743,1043.309,736.681z"/><path fill="#D4BCA3" d="M1108.747,476.729c-0.039,0.044-0.072,0.089-0.105,0.134c0.032-0.039,0.076-0.078,0.114-0.116
	L1108.747,476.729z"/><path fill="#D4BCA3" d="M1048.818,737.4l2.096,0.273c3.401,0.367,6.763,0.91,10.189,1.176c4.784-54.187,9.23-107.625,15.172-162.01
	c0.206-1.875,0.59-6.029,1.18-9.423c2.327-13.439,4.964-22.879,9.579-37.807c2.235-7.241,8.29-30.776,16.004-44.824
	c-0.07-0.676-0.218-1.679-0.734-1.829c-2.599-0.738-11.227,21.029-16.037,35.144c-8.016,23.564-11.123,42.689-11.86,47.376
	C1061.786,645.497,1048.818,737.4,1048.818,737.4z"/><path fill="#AD6847" d="M1056.19,650.388c0.77,0.229,1.556,0.397,2.354,0.494c0.831,0.101,1.64,0.051,2.472-0.003
	c0.793-0.051,1.584-0.167,2.359-0.346c0.401-0.093,0.799-0.203,1.191-0.331c0.369-0.12,0.743-0.32,1.129-0.362
	c0.334-0.036,0.408,0.398,0.186,0.573c-0.316,0.249-0.786,0.351-1.166,0.47c-0.393,0.123-0.792,0.228-1.195,0.316
	c-0.814,0.178-1.64,0.283-2.472,0.313c-0.797,0.029-1.611-0.076-2.401-0.171c-0.863-0.103-1.712-0.289-2.541-0.547
	C1055.851,650.717,1055.932,650.311,1056.19,650.388z"/><path fill="#AD6847" d="M1057.64,655.627c0.436,0.032,0.872,0.023,1.308,0.041c0.453,0.018,0.906,0.011,1.358-0.019
	c0.439-0.03,0.877-0.082,1.311-0.153c0.217-0.036,0.432-0.085,0.648-0.124c0.204-0.037,0.439-0.103,0.643-0.057
	c0.094,0.021,0.155,0.154,0.075,0.228c-0.301,0.277-0.842,0.321-1.23,0.389c-0.46,0.08-0.922,0.132-1.388,0.156
	c-0.453,0.023-0.907,0.022-1.359-0.004c-0.468-0.026-0.929-0.127-1.385-0.234C1057.504,655.82,1057.508,655.617,1057.64,655.627z"/><path fill="#AD6847" d="M1055.359,660.325c1.778,0.281,3.637,0.141,5.33-0.492c0.08-0.03,0.117,0.093,0.04,0.125
	c-0.865,0.356-1.74,0.624-2.669,0.751c-0.927,0.126-1.861,0.15-2.79,0.039C1054.996,660.715,1055.083,660.282,1055.359,660.325z"/><path fill="#AD6847" d="M1050.021,698.723c0.725,0.056,1.46,0.296,2.184,0.401c0.733,0.106,1.471,0.178,2.21,0.215
	c1.502,0.074,3.006-0.003,4.494-0.218c0.337-0.049,0.421,0.468,0.083,0.524c-1.51,0.249-3.041,0.356-4.571,0.316
	c-0.764-0.02-1.526-0.077-2.284-0.172c-0.734-0.091-1.577-0.148-2.268-0.42C1049.516,699.228,1049.64,698.694,1050.021,698.723z"/><path fill="#AD6847" d="M1048.876,704.626c0.225-0.075,0.414-0.004,0.632,0.064s0.437,0.137,0.656,0.204
	c0.425,0.131,0.853,0.25,1.286,0.352c0.872,0.207,1.759,0.369,2.647,0.492c0.197,0.027,0.166,0.314-0.031,0.306
	c-0.905-0.039-1.803-0.133-2.696-0.287c-0.438-0.075-0.875-0.16-1.308-0.255c-0.213-0.047-0.426-0.097-0.636-0.153
	c-0.224-0.06-0.499-0.098-0.646-0.295C1048.683,704.925,1048.696,704.686,1048.876,704.626z"/><path fill="#AD6847" d="M1048.7,701.681c0.203-0.182,0.533-0.049,0.764,0.008c0.192,0.048,0.384,0.095,0.577,0.143
	c0.385,0.095,0.769,0.19,1.154,0.285c0.166,0.041,0.247,0.25,0.212,0.401c-0.035,0.15-0.2,0.304-0.368,0.265l-1.158-0.267
	c-0.187-0.043-0.374-0.086-0.561-0.13c-0.231-0.053-0.604-0.083-0.703-0.336C1048.565,701.917,1048.594,701.777,1048.7,701.681z"/><path fill="#AD6847" d="M1065.449,600.111c0.996,0.26,1.981,0.537,3.004,0.675c0.486,0.066,0.976,0.106,1.466,0.121
	c0.522,0.016,1.048-0.041,1.569-0.018c0.269,0.012,0.315,0.428,0.041,0.479c-0.513,0.096-1.066,0.067-1.585,0.045
	c-0.539-0.023-1.078-0.078-1.611-0.163c-1.029-0.164-2.063-0.425-2.997-0.898C1065.194,600.281,1065.309,600.074,1065.449,600.111z"/><path fill="#AD6847" d="M1067.582,603.586c0.914,0.199,1.836,0.361,2.775,0.34c0.47-0.01,0.938-0.061,1.4-0.151
	c0.211-0.041,0.42-0.09,0.626-0.146c0.231-0.063,0.391-0.129,0.625-0.054c0.083,0.026,0.132,0.137,0.077,0.212
	c-0.256,0.348-0.823,0.381-1.225,0.449c-0.488,0.082-0.984,0.125-1.479,0.126c-0.98,0.003-1.977-0.135-2.876-0.535
	C1067.357,603.761,1067.421,603.551,1067.582,603.586z"/><path fill="#AD6847" d="M1062.719,606.34c2.835,0.948,5.904,1.392,8.893,1.222c0.126-0.007,0.114,0.186-0.01,0.195
	c-1.534,0.117-3.056,0.13-4.586-0.042c-1.505-0.169-2.993-0.481-4.441-0.923C1062.282,606.704,1062.428,606.243,1062.719,606.34z"/><path fill="#AD6847" d="M1061.101,624.124c0.473,0.141,0.926,0.407,1.392,0.581c0.471,0.176,0.95,0.33,1.436,0.46
	c0.986,0.266,1.995,0.43,3.013,0.502c0.23,0.016,0.212,0.371-0.02,0.359c-1.038-0.052-2.069-0.201-3.078-0.448
	c-0.504-0.123-1.002-0.271-1.491-0.443c-0.474-0.166-1.025-0.325-1.444-0.605C1060.694,624.386,1060.853,624.05,1061.101,624.124z"/><path fill="#AD6847" d="M1059.493,627.875c0.16-0.017,0.275,0.057,0.41,0.134s0.27,0.154,0.406,0.23
	c0.263,0.148,0.53,0.288,0.802,0.419c0.549,0.263,1.114,0.498,1.685,0.707c0.127,0.046,0.065,0.233-0.065,0.198
	c-0.595-0.156-1.177-0.348-1.747-0.578c-0.28-0.113-0.557-0.232-0.831-0.358c-0.135-0.062-0.268-0.125-0.4-0.193
	c-0.14-0.072-0.317-0.137-0.386-0.289C1059.322,628.046,1059.365,627.889,1059.493,627.875z"/><path fill="#AD6847" d="M1059.8,625.896c0.161-0.091,0.361,0.044,0.505,0.115c0.121,0.059,0.241,0.118,0.362,0.178
	c0.241,0.118,0.483,0.237,0.724,0.355c0.104,0.051,0.128,0.202,0.083,0.296c-0.045,0.095-0.176,0.173-0.282,0.123l-0.73-0.344
	c-0.118-0.056-0.236-0.111-0.354-0.167c-0.146-0.069-0.389-0.142-0.418-0.324C1059.676,626.033,1059.715,625.944,1059.8,625.896z"/><path fill="#AD6847" d="M1068.233,570.287c1.58,1.14,3.346,2.052,5.229,2.568c0.229,0.063,0.124,0.455-0.11,0.406
	c-1.992-0.42-3.855-1.274-5.386-2.629C1067.757,570.447,1068.003,570.121,1068.233,570.287z"/><path fill="#AD6847" d="M1070.218,565.328c0.222,0.139,0.401,0.369,0.597,0.544c0.201,0.18,0.409,0.352,0.623,0.517
	c0.409,0.313,0.84,0.599,1.291,0.847c0.93,0.511,1.927,0.885,2.966,1.101c0.272,0.056,0.223,0.48-0.056,0.432
	c-1.101-0.187-2.176-0.534-3.169-1.048c-0.486-0.251-0.956-0.537-1.4-0.857c-0.219-0.158-0.432-0.323-0.638-0.497
	c-0.215-0.181-0.487-0.377-0.636-0.618C1069.614,565.456,1069.922,565.143,1070.218,565.328z"/><path fill="#AD6847" d="M1070.801,563.814c0.147-0.038,0.254,0.048,0.347,0.15c0.194,0.21,0.44,0.405,0.695,0.553
	c0.151,0.088,0.308,0.167,0.461,0.25c0.163,0.088,0.337,0.146,0.516,0.195c0.185,0.05,0.092,0.333-0.085,0.316
	c-0.156-0.015-0.308-0.046-0.463-0.074c-0.164-0.029-0.326-0.065-0.478-0.135c-0.3-0.139-0.585-0.319-0.836-0.534
	c-0.137-0.118-0.347-0.268-0.351-0.462C1070.604,563.95,1070.684,563.845,1070.801,563.814z"/><path fill="#AD6847" d="M1079.542,529.862c0.148,0.049,0.25,0.169,0.363,0.271c0.114,0.102,0.23,0.202,0.347,0.3
	c0.235,0.195,0.477,0.384,0.723,0.565s0.498,0.354,0.757,0.517c0.257,0.162,0.504,0.337,0.759,0.501
	c0.166,0.107,0.002,0.363-0.172,0.293c-0.306-0.123-0.596-0.252-0.881-0.42c-0.264-0.156-0.522-0.32-0.775-0.494
	c-0.252-0.174-0.496-0.358-0.733-0.552c-0.118-0.097-0.235-0.196-0.349-0.297c-0.13-0.115-0.273-0.221-0.339-0.385
	C1079.164,529.965,1079.359,529.801,1079.542,529.862z"/><path fill="#AD6847" d="M1081.043,527.977c0.184,0.089,0.344,0.239,0.506,0.363c0.157,0.121,0.306,0.251,0.458,0.378
	c0.071,0.059,0.087,0.167,0.029,0.241c-0.061,0.077-0.164,0.081-0.241,0.029c-0.165-0.111-0.332-0.218-0.493-0.334
	c-0.165-0.12-0.35-0.231-0.488-0.383C1080.686,528.128,1080.876,527.897,1081.043,527.977z"/><path fill="#AD6847" d="M1079.046,533.701c0.175,0.274,0.385,0.522,0.635,0.73c0.256,0.214,0.512,0.409,0.784,0.554
	c0.185,0.098,0.463,0.269,0.322,0.517c-0.127,0.224-0.431,0.129-0.612,0.033c-0.321-0.17-0.636-0.379-0.881-0.649
	c-0.26-0.286-0.468-0.62-0.623-0.973C1078.575,533.692,1078.911,533.49,1079.046,533.701z"/><path fill="#AD6847" d="M1095.217,489.706c0.151,0.156,0.307,0.303,0.453,0.464c0.144,0.159,0.305,0.301,0.474,0.432
	c0.34,0.264,0.726,0.469,1.13,0.615c0.187,0.068,0.098,0.391-0.098,0.34c-0.468-0.12-0.895-0.325-1.281-0.616
	c-0.188-0.142-0.359-0.306-0.518-0.48c-0.167-0.182-0.272-0.38-0.36-0.61C1094.974,489.741,1095.124,489.609,1095.217,489.706z"/><path fill="#AD6847" d="M1096.778,487.714c0.442,0.285,0.826,0.649,1.29,0.906c0.223,0.124,0.454,0.231,0.691,0.323
	c0.119,0.046,0.237,0.093,0.358,0.134c0.143,0.049,0.267,0.082,0.362,0.207c0.071,0.093,0.024,0.228-0.08,0.27
	c-0.251,0.102-0.599-0.075-0.832-0.176c-0.252-0.11-0.494-0.242-0.727-0.387c-0.459-0.285-0.959-0.646-1.223-1.127
	C1096.555,487.754,1096.668,487.643,1096.778,487.714z"/><path fill="#AD6847" d="M1087.314,509.63c0.409,0.5,0.936,0.916,1.49,1.245c0.277,0.164,0.567,0.306,0.867,0.422
	c0.148,0.057,0.299,0.107,0.451,0.151c0.152,0.044,0.312,0.081,0.444,0.17c0.075,0.051,0.039,0.174-0.047,0.185
	c-0.312,0.043-0.669-0.138-0.949-0.259c-0.307-0.132-0.604-0.291-0.885-0.473c-0.57-0.369-1.04-0.841-1.458-1.372
	C1087.183,509.643,1087.269,509.575,1087.314,509.63z"/><path fill="#AD6847" d="M1087.178,511.871c0.001,0,0.002,0,0.002,0.001c0.001-0.017,0.011-0.033,0.032-0.036
	c0.063-0.01,0.112,0.045,0.155,0.083c0.051,0.046,0.104,0.089,0.157,0.131c0.108,0.086,0.215,0.169,0.332,0.243
	c0.23,0.146,0.483,0.254,0.742,0.338c0.052,0.017,0.075,0.084,0.056,0.133c-0.022,0.055-0.079,0.071-0.133,0.056
	c-0.276-0.079-0.535-0.206-0.774-0.364c-0.116-0.077-0.231-0.162-0.333-0.258c-0.053-0.05-0.103-0.103-0.152-0.157
	c0,0,0-0.001-0.001-0.001c0.008,0.034,0.018,0.068,0.025,0.098c0,0.002-0.003,0.003-0.004,0.001
	c-0.009-0.032-0.017-0.069-0.027-0.106C1087.218,511.989,1087.163,511.932,1087.178,511.871z"/><path fill="#AD6847" d="M1084.494,513.226c0.408,0.404,0.876,0.746,1.386,1.011c0.5,0.259,1.026,0.407,1.561,0.573
	c0.037,0.012,0.019,0.067-0.017,0.064c-0.566-0.048-1.131-0.276-1.632-0.536c-0.513-0.266-0.986-0.604-1.402-1.003
	C1084.31,513.259,1084.415,513.148,1084.494,513.226z"/><path fill="#1B7062" d="M1103.778,473.602c3.64-0.228,33.469-1.716,51.533,15.833c3.514,3.414,11.069,10.753,13.834,22.748
	c1.036,4.492,1.106,8.365,0.985,11.014c-0.613-3.354-2.154-9.322-6.47-15.485c-4.417-6.309-9.647-9.831-12.62-11.54
	c4.04,3.799,9.824,10.311,13.654,19.883c7.972,19.925,1.504,38.181-0.414,43.08c0.467-3.587,0.664-7.727,0.258-12.28
	c-1.412-15.832-9.272-27.229-13.847-32.833c1.732,2.709,4.701,8.202,5.086,15.659c0.213,4.134-0.434,7.603-1.118,10.072
	c0,0-2.052-16.959-11.215-28.998c0,0,2.649,14.71,2.613,20.144c-0.002,0.234,0.066,0.682-0.087,0.741
	c-1.009,0.395-7.429-17.246-15.531-30.204C1125.575,493.657,1117.543,483.468,1103.778,473.602z"/><path fill="#CCC" d="M1143.655,508.96c-0.181-0.137-0.371-0.266-0.569-0.379c-0.402-0.23-0.863-0.373-1.311-0.48
	c-0.199-0.048-0.262,0.263-0.085,0.338c0.394,0.166,0.74,0.386,1.099,0.615c0.175,0.111,0.344,0.23,0.506,0.359
	c0.095,0.075,0.182,0.164,0.289,0.222c0.092,0.05,0.19,0.127,0.297,0.128c0.14,0.001,0.238-0.09,0.229-0.234
	c-0.007-0.116-0.098-0.224-0.167-0.314C1143.867,509.114,1143.757,509.037,1143.655,508.96z"/><path fill="#CCC" d="M1135.209,479.292c-3.103-1.102-6.283-1.994-9.51-2.654c-3.216-0.658-6.464-0.99-9.744-1.094
	c-0.321-0.01-0.34,0.456-0.026,0.494c6.417,0.765,12.816,2.267,18.832,4.641C1135.631,481.021,1136.096,479.606,1135.209,479.292z"/><path fill="#94B858" d="M1140.477,482.767c-0.023-0.011-0.045-0.022-0.067-0.033c-0.011-0.005-0.022-0.009-0.033-0.014
	C1140.41,482.736,1140.443,482.751,1140.477,482.767z"/><path fill="#94B858" d="M1140.375,482.719c0.001,0,0.001,0.001,0.002,0.001c-0.008-0.004-0.017-0.008-0.025-0.012
	C1140.359,482.711,1140.367,482.715,1140.375,482.719z"/><path fill="#CCC" d="M1141.014,481.8c-0.033-0.037-0.07-0.068-0.107-0.1c-0.108-0.091-0.216-0.181-0.333-0.261
	c-0.198-0.134-0.415-0.242-0.636-0.333c-0.221-0.09-0.449-0.145-0.683-0.186c-0.13-0.023-0.248-0.028-0.38,0.003
	c-0.099,0.023-0.2,0.034-0.3,0.054c-0.332,0.069-0.374,0.585-0.033,0.677c0.065,0.018,0.129,0.04,0.194,0.06
	c0.006,0.004,0.013,0.007,0.019,0.011c0.056,0.032,0.112,0.066,0.174,0.086c0.131,0.042,0.263,0.077,0.391,0.13
	c0.024,0.01,0.048,0.021,0.073,0.032c0.005,0.003,0.008,0.004,0.016,0.008c0.063,0.032,0.125,0.067,0.185,0.104
	c0.103,0.063,0.199,0.136,0.293,0.212c0.057,0.051,0.113,0.101,0.165,0.156c0.033,0.035,0.064,0.074,0.098,0.109
	c0.077,0.081,0.167,0.127,0.262,0.171c0.072,0.033,0.142,0.064,0.224,0.068c0.12,0.006,0.236-0.032,0.333-0.101
	c0.159-0.112,0.28-0.347,0.216-0.546C1141.142,482.029,1141.105,481.902,1141.014,481.8z"/><path fill="#CCC" d="M1165.057,504.689c-0.228-0.425-0.461-0.848-0.707-1.262c-0.525-0.886-1.116-1.72-1.775-2.511
	c-0.63-0.756-1.311-1.422-2.043-2.077c-0.742-0.663-1.557-1.163-2.383-1.706c-0.081-0.053-0.165,0.077-0.094,0.139
	c1.434,1.246,2.71,2.788,3.844,4.309c0.558,0.748,1.081,1.529,1.559,2.329c0.255,0.427,0.498,0.86,0.713,1.308
	c0.199,0.416,0.339,0.891,0.608,1.266c0.35,0.489,1.018,0.107,0.905-0.438C1165.587,505.576,1165.282,505.108,1165.057,504.689z"/><path fill="#CCC" d="M1167.027,539.669c0.047-0.48,0.09-0.961,0.117-1.442c0.058-1.028,0.031-2.05-0.075-3.074
	c-0.101-0.979-0.296-1.911-0.539-2.863c-0.246-0.964-0.645-1.833-1.028-2.744c-0.038-0.09-0.18-0.028-0.156,0.063
	c0.496,1.834,0.697,3.826,0.791,5.72c0.046,0.932,0.045,1.872-0.003,2.803c-0.026,0.496-0.066,0.992-0.137,1.484
	c-0.067,0.456-0.214,0.929-0.2,1.39c0.018,0.601,0.786,0.656,0.996,0.14C1166.972,540.701,1166.98,540.142,1167.027,539.669z"/><path fill="#249474" d="M1104.392,473.502c1.987-2.088,18.469-18.972,38.36-18.508c3.869,0.09,12.189,0.284,20.234,5.748
	c3.013,2.046,5.135,4.252,6.487,5.852c-2.157-1.614-6.256-4.244-12.066-5.496c-5.948-1.282-10.87-0.514-13.511,0.093
	c4.381,0.031,11.23,0.697,18.591,4.185c15.321,7.261,21.38,21.312,22.9,25.181c-1.656-2.329-3.766-4.833-6.447-7.253
	c-9.322-8.414-19.998-10.795-25.659-11.584c2.459,0.639,7.129,2.226,11.358,6.34c2.344,2.281,3.833,4.638,4.762,6.436
	c0,0-10.298-8.723-22.073-10.776c0,0,9.436,7.099,12.334,10.266c0.125,0.137,0.405,0.359,0.348,0.476
	c-0.373,0.771-13.568-6.001-25.222-9.156C1127.792,473.413,1117.667,471.824,1104.392,473.502z"/><path fill="#CCC" d="M1146.487,472.567c-0.179,0.018-0.358,0.045-0.533,0.086c-0.357,0.083-0.7,0.247-1.017,0.426
	c-0.141,0.079-0.011,0.293,0.132,0.241c0.318-0.115,0.636-0.174,0.967-0.234c0.161-0.029,0.323-0.052,0.486-0.064
	c0.096-0.007,0.194-0.003,0.287-0.027c0.08-0.021,0.179-0.029,0.241-0.086c0.082-0.075,0.089-0.18,0.007-0.259
	c-0.066-0.063-0.177-0.077-0.265-0.092C1146.693,472.542,1146.587,472.557,1146.487,472.567z"/><path fill="#CCC" d="M1125.658,459.915c-2.39,1.029-4.711,2.22-6.935,3.57c-2.217,1.346-4.277,2.898-6.233,4.6
	c-0.191,0.167,0.048,0.447,0.25,0.3c4.129-3.004,8.643-5.571,13.403-7.427C1126.831,460.691,1126.34,459.621,1125.658,459.915z"/><path fill="#94B858" d="M1130.577,459.099c-0.019,0.006-0.038,0.011-0.057,0.017c-0.009,0.003-0.018,0.007-0.027,0.009
	C1130.521,459.117,1130.549,459.108,1130.577,459.099z"/><path fill="#94B858" d="M1130.491,459.126c0.001,0,0.001,0,0.002-0.001c-0.007,0.002-0.014,0.004-0.021,0.007
	C1130.478,459.13,1130.485,459.128,1130.491,459.126z"/><path fill="#CCC" d="M1130.368,458.251c-0.039-0.004-0.077-0.002-0.116,0c-0.112,0.005-0.223,0.011-0.333,0.028
	c-0.187,0.029-0.371,0.083-0.547,0.149c-0.176,0.066-0.338,0.157-0.496,0.259c-0.088,0.057-0.158,0.117-0.218,0.206
	c-0.045,0.067-0.098,0.127-0.145,0.193c-0.155,0.218,0.098,0.54,0.345,0.41c0.047-0.025,0.096-0.046,0.144-0.069
	c0.006-0.001,0.011-0.003,0.017-0.004c0.05-0.011,0.1-0.022,0.147-0.044c0.099-0.046,0.193-0.097,0.296-0.135
	c0.02-0.007,0.039-0.014,0.059-0.021c0.005-0.001,0.007-0.002,0.014-0.004c0.054-0.015,0.108-0.028,0.163-0.039
	c0.094-0.019,0.188-0.028,0.284-0.035c0.06-0.001,0.12-0.002,0.18,0.002c0.038,0.003,0.077,0.008,0.115,0.011
	c0.088,0.006,0.165-0.017,0.244-0.042c0.059-0.019,0.117-0.039,0.166-0.081c0.073-0.061,0.12-0.145,0.139-0.237
	c0.032-0.15-0.024-0.352-0.168-0.432C1130.565,458.314,1130.475,458.261,1130.368,458.251z"/><path fill="#CCC" d="M1156.592,458.596c-0.36-0.124-0.722-0.243-1.087-0.352c-0.78-0.231-1.57-0.397-2.377-0.501
	c-0.771-0.1-1.523-0.12-2.3-0.106c-0.786,0.014-1.527,0.162-2.297,0.292c-0.076,0.013-0.054,0.133,0.02,0.131
	c1.5-0.048,3.068,0.16,4.542,0.431c0.725,0.134,1.447,0.305,2.155,0.512c0.377,0.11,0.751,0.231,1.116,0.375
	c0.339,0.134,0.675,0.334,1.032,0.407c0.465,0.095,0.647-0.485,0.289-0.74C1157.376,458.826,1156.948,458.718,1156.592,458.596z"/><path fill="#CCC" d="M1176.523,477.804c-0.23-0.303-0.464-0.605-0.707-0.898c-0.519-0.627-1.083-1.204-1.695-1.741
	c-0.585-0.513-1.198-0.948-1.85-1.369c-0.661-0.426-1.358-0.716-2.07-1.038c-0.07-0.032-0.12,0.08-0.057,0.12
	c1.272,0.796,2.459,1.842,3.531,2.889c0.527,0.515,1.032,1.06,1.504,1.625c0.252,0.301,0.495,0.61,0.717,0.933
	c0.207,0.3,0.375,0.653,0.631,0.913c0.333,0.338,0.808-0.042,0.652-0.454C1177.045,478.431,1176.75,478.103,1176.523,477.804z"/><path fill="#249474" d="M1103.568,470.353c1.151-2.234,10.337-20.644,4.259-36.895c-1.182-3.161-3.724-9.958-10.528-15.019
	c-2.548-1.895-4.972-3.011-6.677-3.667c1.947,1.314,5.286,3.937,7.982,8.364c2.759,4.531,3.536,8.806,3.792,11.154
	c-1.28-3.599-3.79-9.05-8.771-14.113c-10.368-10.54-23.676-11.507-27.297-11.651c2.392,0.697,5.059,1.718,7.819,3.233
	c9.599,5.269,14.617,13.38,16.888,17.816c-1.23-1.842-3.875-5.234-8.474-7.539c-2.55-1.278-4.917-1.829-6.664-2.079
	c0,0,10.133,5.984,15.196,15.095c0,0-8.549-5.739-11.988-7.219c-0.148-0.064-0.412-0.23-0.492-0.15
	c-0.528,0.528,8.828,9.457,14.764,18.152C1096.941,451.054,1101.149,458.939,1103.568,470.353z"/><path fill="#CCC" d="M1092.284,435.414c0.036,0.152,0.065,0.308,0.082,0.464c0.034,0.317-0.003,0.647-0.06,0.96
	c-0.025,0.139-0.238,0.093-0.237-0.04c0.004-0.295-0.039-0.574-0.084-0.863c-0.022-0.141-0.05-0.281-0.086-0.419
	c-0.021-0.081-0.053-0.16-0.06-0.244c-0.006-0.072-0.028-0.155,0.001-0.223c0.038-0.089,0.123-0.125,0.211-0.08
	c0.071,0.036,0.114,0.124,0.152,0.192C1092.246,435.238,1092.264,435.329,1092.284,435.414z"/><path fill="#CCC" d="M1108.669,448.947c-0.163,2.263-0.479,4.516-0.955,6.734c-0.474,2.211-1.163,4.352-2.004,6.451
	c-0.082,0.205-0.382,0.088-0.319-0.12c1.292-4.261,2.113-8.714,2.279-13.166C1107.694,448.203,1108.716,448.3,1108.669,448.947z"/><path fill="#94B858" d="M1107.933,444.662c0,0.018,0.002,0.034,0.002,0.052c0,0.008,0,0.016,0,0.025
	C1107.934,444.713,1107.933,444.687,1107.933,444.662z"/><path fill="#94B858" d="M1107.935,444.74c0-0.001,0-0.001,0-0.002c0,0.006,0,0.013,0.001,0.019
	C1107.935,444.752,1107.935,444.746,1107.935,444.74z"/><path fill="#CCC" d="M1108.691,444.591c0.014,0.031,0.024,0.063,0.033,0.095c0.028,0.093,0.055,0.186,0.072,0.282
	c0.03,0.162,0.038,0.329,0.034,0.494c-0.004,0.164-0.033,0.324-0.072,0.483c-0.022,0.089-0.051,0.164-0.107,0.239
	c-0.042,0.056-0.077,0.117-0.117,0.174c-0.135,0.19-0.473,0.074-0.436-0.167c0.007-0.046,0.01-0.092,0.016-0.139
	c-0.001-0.005-0.001-0.01-0.002-0.015c-0.005-0.044-0.01-0.089-0.006-0.133c0.01-0.095,0.024-0.187,0.026-0.282
	c0-0.018,0-0.036,0-0.055c0-0.004,0-0.007-0.001-0.012c-0.003-0.049-0.008-0.097-0.014-0.145c-0.011-0.082-0.031-0.163-0.052-0.244
	c-0.016-0.05-0.032-0.099-0.053-0.148c-0.013-0.031-0.029-0.061-0.042-0.092c-0.03-0.071-0.034-0.141-0.036-0.213
	c-0.001-0.054-0.001-0.107,0.019-0.16c0.029-0.078,0.086-0.14,0.156-0.182c0.115-0.069,0.297-0.081,0.404,0.015
	C1108.583,444.447,1108.652,444.505,1108.691,444.591z"/><path fill="#CCC" d="M1100.897,423.091c0.205,0.261,0.407,0.525,0.601,0.795c0.414,0.576,0.776,1.18,1.094,1.814
	c0.303,0.606,0.535,1.22,0.745,1.864c0.213,0.651,0.303,1.304,0.417,1.975c0.011,0.066-0.094,0.083-0.114,0.021
	c-0.39-1.249-1.01-2.481-1.656-3.617c-0.318-0.559-0.666-1.105-1.038-1.628c-0.199-0.279-0.405-0.552-0.629-0.812
	c-0.207-0.241-0.468-0.461-0.63-0.734c-0.212-0.356,0.214-0.672,0.527-0.45C1100.484,422.511,1100.695,422.833,1100.897,423.091z"/><path fill="#CCC" d="M1079.37,412.176c0.316,0.103,0.631,0.209,0.942,0.325c0.665,0.248,1.302,0.547,1.919,0.897
	c0.59,0.335,1.124,0.715,1.657,1.132c0.54,0.422,0.979,0.914,1.447,1.407c0.046,0.049-0.032,0.121-0.083,0.081
	c-1.02-0.82-2.221-1.498-3.39-2.081c-0.575-0.287-1.168-0.546-1.77-0.773c-0.32-0.121-0.644-0.233-0.974-0.324
	c-0.306-0.084-0.645-0.122-0.932-0.258c-0.374-0.178-0.197-0.677,0.187-0.667C1078.704,411.925,1079.058,412.074,1079.37,412.176z"/><path fill="#1B7062" d="M1101.783,466.044c-1.217-2.824-11.475-25.816-31.557-32.704c-3.906-1.34-12.306-4.22-22.378-1.725
	c-3.772,0.935-6.711,2.359-8.656,3.461c2.756-0.818,7.83-1.936,14.109-1.042c6.427,0.915,11.071,3.503,13.489,5.087
	c-4.397-1.588-11.498-3.453-20.156-2.681c-18.02,1.606-29.278,13.431-32.229,16.742c2.518-1.719,5.556-3.446,9.134-4.877
	c12.441-4.977,24.007-3.414,29.965-2.112c-2.697-0.269-7.959-0.406-13.712,2.149c-3.189,1.417-5.551,3.226-7.145,4.682
	c0,0,13.532-4.925,26.078-2.628c0,0-12.069,3.619-16.141,5.718c-0.176,0.091-0.538,0.21-0.524,0.348
	c0.088,0.909,15.799-0.992,28.631,0.157C1078.393,457.306,1089.115,459.458,1101.783,466.044z"/><path fill="#CCC" d="M1059.992,449.55c0.172,0.084,0.341,0.178,0.502,0.283c0.326,0.215,0.609,0.506,0.861,0.803
	c0.112,0.132-0.098,0.297-0.222,0.193c-0.275-0.233-0.573-0.409-0.881-0.592c-0.15-0.089-0.304-0.171-0.463-0.244
	c-0.093-0.043-0.193-0.074-0.277-0.133c-0.073-0.05-0.168-0.095-0.21-0.175c-0.054-0.105-0.023-0.214,0.089-0.262
	c0.09-0.039,0.206-0.012,0.299,0.006C1059.795,449.449,1059.896,449.503,1059.992,449.55z"/><path fill="#CCC" d="M1085.518,444.584c2.012,1.913,3.895,3.963,5.622,6.137c1.721,2.167,3.21,4.482,4.538,6.908
	c0.13,0.237-0.214,0.429-0.361,0.208c-3.023-4.533-6.593-8.77-10.671-12.388C1084.057,444.927,1084.943,444.038,1085.518,444.584z"/><path fill="#94B858" d="M1080.896,441.95c0.017,0.013,0.034,0.025,0.05,0.038c0.008,0.006,0.015,0.013,0.024,0.019
	C1080.945,441.988,1080.92,441.969,1080.896,441.95z"/><path fill="#94B858" d="M1080.971,442.008c0,0-0.001-0.001-0.001-0.001c0.006,0.005,0.012,0.01,0.019,0.014
	C1080.983,442.017,1080.977,442.013,1080.971,442.008z"/><path fill="#CCC" d="M1081.418,441.177c0.04,0.011,0.078,0.026,0.116,0.043c0.11,0.046,0.219,0.093,0.323,0.151
	c0.176,0.098,0.341,0.22,0.493,0.352c0.152,0.132,0.28,0.283,0.4,0.443c0.067,0.089,0.115,0.176,0.142,0.287
	c0.02,0.083,0.051,0.163,0.074,0.246c0.075,0.276-0.297,0.504-0.497,0.283c-0.038-0.042-0.079-0.082-0.119-0.123
	c-0.005-0.003-0.01-0.007-0.016-0.01c-0.046-0.029-0.092-0.059-0.131-0.098c-0.082-0.082-0.158-0.168-0.247-0.244
	c-0.017-0.014-0.034-0.028-0.051-0.043c-0.004-0.003-0.007-0.005-0.012-0.009c-0.048-0.035-0.098-0.068-0.148-0.099
	c-0.087-0.053-0.178-0.098-0.271-0.14c-0.06-0.023-0.119-0.047-0.181-0.065c-0.039-0.012-0.08-0.02-0.119-0.032
	c-0.09-0.027-0.159-0.077-0.229-0.132c-0.052-0.041-0.102-0.083-0.137-0.142c-0.051-0.088-0.066-0.19-0.051-0.289
	c0.024-0.162,0.154-0.343,0.328-0.37C1081.197,441.168,1081.307,441.148,1081.418,441.177z"/><path fill="#CCC" d="M1055.04,431.831c0.406,0.009,0.813,0.023,1.219,0.05c0.866,0.057,1.718,0.183,2.565,0.377
	c0.809,0.185,1.569,0.443,2.341,0.744c0.781,0.305,1.468,0.727,2.191,1.141c0.071,0.041,0.005,0.154-0.068,0.124
	c-1.484-0.602-3.13-0.974-4.705-1.247c-0.775-0.134-1.562-0.229-2.346-0.284c-0.418-0.029-0.837-0.047-1.255-0.037
	c-0.389,0.009-0.799,0.084-1.184,0.025c-0.501-0.077-0.469-0.725-0.016-0.847C1054.171,431.771,1054.639,431.822,1055.04,431.831z"/><path fill="#CCC" d="M1027.992,443.692c0.342-0.219,0.688-0.434,1.039-0.638c0.751-0.436,1.529-0.805,2.34-1.116
	c0.775-0.297,1.55-0.506,2.358-0.686c0.819-0.182,1.624-0.215,2.455-0.274c0.082-0.006,0.09,0.125,0.012,0.141
	c-1.568,0.327-3.142,0.935-4.602,1.587c-0.718,0.32-1.424,0.68-2.106,1.071c-0.363,0.209-0.721,0.427-1.063,0.669
	c-0.318,0.224-0.617,0.515-0.969,0.681c-0.459,0.215-0.793-0.341-0.485-0.695C1027.236,444.126,1027.653,443.908,1027.992,443.692z"/><path fill="#249474" d="M1110.821,470.761c-3.366-1.971-31.13-17.758-56.829-9.704c-4.999,1.567-15.748,4.936-24.165,15.056
	c-3.152,3.79-5.086,7.454-6.245,10.042c2.201-2.907,6.547-7.863,13.635-11.669c7.256-3.896,13.946-4.74,17.608-4.94
	c-5.687,1.682-14.346,5.113-22.613,12.408c-17.209,15.184-19.826,35.73-20.354,41.331c1.281-3.65,3.088-7.697,5.668-11.849
	c8.974-14.436,21.968-21.532,29.035-24.679c-2.959,1.752-8.439,5.567-12.398,12.501c-2.195,3.845-3.248,7.468-3.783,10.155
	c0,0,10.128-15.204,24.674-22.285c0,0-9.614,12.769-12.197,17.974c-0.111,0.224-0.391,0.619-0.274,0.75
	c0.773,0.863,15.4-12.888,29.377-21.358C1080.35,479.411,1092.925,473.552,1110.821,470.761z"/><path fill="#CCC" d="M1055.717,485.314c0.239-0.044,0.482-0.075,0.725-0.088c0.495-0.026,1.003,0.06,1.483,0.173
	c0.213,0.051,0.124,0.377-0.082,0.363c-0.456-0.031-0.893,0.012-1.345,0.058c-0.22,0.022-0.439,0.054-0.656,0.098
	c-0.127,0.026-0.253,0.069-0.383,0.073c-0.112,0.003-0.243,0.03-0.346-0.021c-0.134-0.066-0.184-0.201-0.106-0.334
	c0.062-0.107,0.201-0.167,0.31-0.219C1055.44,485.359,1055.583,485.339,1055.717,485.314z"/><path fill="#CCC" d="M1078.07,461.055c3.494,0.443,6.96,1.123,10.358,2.046c3.388,0.921,6.649,2.168,9.83,3.649
	c0.311,0.145,0.104,0.599-0.213,0.484c-6.496-2.361-13.329-4.008-20.215-4.639C1076.835,462.503,1077.072,460.929,1078.07,461.055z"/><path fill="#94B858" d="M1071.367,461.836c0.027,0.001,0.053,0,0.08,0.001c0.013,0,0.026,0.002,0.039,0.002
	C1071.446,461.838,1071.406,461.837,1071.367,461.836z"/><path fill="#94B858" d="M1071.488,461.84c-0.001,0-0.002,0-0.002,0c0.01,0,0.02,0,0.03,0.001
	C1071.506,461.84,1071.497,461.84,1071.488,461.84z"/><path fill="#CCC" d="M1071.32,460.655c0.049-0.019,0.099-0.031,0.151-0.044c0.147-0.035,0.294-0.069,0.444-0.088
	c0.254-0.033,0.513-0.031,0.768-0.011c0.254,0.02,0.499,0.078,0.742,0.152c0.135,0.041,0.25,0.093,0.361,0.186
	c0.083,0.07,0.175,0.129,0.26,0.196c0.284,0.226,0.075,0.739-0.295,0.662c-0.071-0.015-0.143-0.024-0.214-0.036
	c-0.008,0-0.016,0.001-0.024,0.001c-0.069,0.004-0.139,0.009-0.207-0.002c-0.146-0.023-0.288-0.053-0.435-0.064
	c-0.028-0.002-0.056-0.003-0.085-0.005c-0.006,0-0.01,0-0.019,0c-0.075,0.001-0.151,0.004-0.226,0.01
	c-0.129,0.011-0.256,0.034-0.382,0.061c-0.078,0.021-0.157,0.042-0.233,0.07c-0.049,0.018-0.097,0.039-0.146,0.057
	c-0.112,0.04-0.221,0.04-0.333,0.037c-0.084-0.003-0.167-0.008-0.247-0.043c-0.118-0.052-0.21-0.144-0.27-0.257
	c-0.098-0.184-0.1-0.466,0.057-0.625C1071.088,460.811,1071.184,460.708,1071.32,460.655z"/><path fill="#CCC" d="M1037.34,470.928c0.422-0.296,0.848-0.587,1.283-0.865c0.928-0.593,1.894-1.104,2.904-1.542
	c0.966-0.419,1.936-0.726,2.951-0.999c1.028-0.276,2.047-0.361,3.097-0.481c0.103-0.012,0.121,0.153,0.023,0.178
	c-1.969,0.5-3.931,1.357-5.746,2.262c-0.893,0.445-1.768,0.939-2.611,1.473c-0.449,0.284-0.89,0.581-1.311,0.906
	c-0.39,0.301-0.753,0.687-1.19,0.916c-0.57,0.298-1.024-0.389-0.653-0.854C1036.406,471.52,1036.923,471.22,1037.34,470.928z"/><path fill="#CCC" d="M1018.611,503.378c0.186-0.481,0.377-0.96,0.583-1.433c0.44-1.01,0.957-1.972,1.552-2.899
	c0.568-0.886,1.203-1.682,1.894-2.474c0.7-0.802,1.498-1.44,2.303-2.125c0.079-0.067,0.186,0.06,0.118,0.135
	c-1.357,1.512-2.508,3.317-3.51,5.08c-0.493,0.867-0.945,1.765-1.347,2.678c-0.214,0.486-0.415,0.978-0.583,1.483
	c-0.156,0.468-0.243,0.99-0.478,1.424c-0.307,0.565-1.066,0.248-1.018-0.346C1018.166,504.389,1018.428,503.852,1018.611,503.378z"/><path fill="#1B7062" d="M1099.918,475.306c-2.984,0.388-27.376,3.88-39.243,20.937c-2.308,3.318-7.271,10.452-7.622,20.601
	c-0.131,3.801,0.421,6.949,0.937,9.075c-0.031-2.813,0.277-7.889,2.801-13.56c2.584-5.805,6.265-9.481,8.404-11.333
	c-2.673,3.713-6.333,9.898-7.927,18.253c-3.319,17.392,4.794,31.159,7.118,34.824c-0.943-2.831-1.754-6.153-2.142-9.905
	c-1.349-13.044,3.222-23.513,6.045-28.771c-0.976,2.467-2.516,7.383-1.653,13.483c0.478,3.382,1.548,6.089,2.491,7.981
	c0,0-1.008-14.058,4.517-25.251c0,0,0.171,12.331,1.055,16.725c0.038,0.19,0.054,0.562,0.187,0.587
	c0.879,0.161,3.302-15.137,7.823-26.907C1085.422,494.98,1090.323,485.464,1099.918,475.306z"/><path fill="#CCC" d="M1073.189,510.22c0.125-0.14,0.259-0.274,0.401-0.396c0.289-0.25,0.64-0.438,0.986-0.595
	c0.154-0.07,0.254,0.172,0.122,0.26c-0.293,0.197-0.539,0.429-0.793,0.671c-0.124,0.118-0.243,0.24-0.354,0.37
	c-0.065,0.076-0.122,0.162-0.199,0.225c-0.067,0.055-0.134,0.133-0.221,0.151c-0.113,0.023-0.207-0.036-0.223-0.153
	c-0.013-0.095,0.044-0.197,0.086-0.28C1073.041,510.379,1073.119,510.299,1073.189,510.22z"/><path fill="#CCC" d="M1075.358,484.863c2.34-1.381,4.775-2.604,7.284-3.647c2.501-1.039,5.079-1.82,7.719-2.42
	c0.258-0.059,0.347,0.316,0.099,0.396c-5.077,1.63-10.023,3.854-14.521,6.723C1075.289,486.33,1074.689,485.257,1075.358,484.863z"/><path fill="#94B858" d="M1071.639,488.507c0.017-0.012,0.033-0.025,0.049-0.037c0.008-0.006,0.016-0.011,0.025-0.017
	C1071.688,488.471,1071.663,488.489,1071.639,488.507z"/><path fill="#94B858" d="M1071.714,488.452c0,0-0.001,0.001-0.002,0.001c0.006-0.005,0.012-0.009,0.019-0.014
	C1071.725,488.443,1071.72,488.448,1071.714,488.452z"/><path fill="#CCC" d="M1071.052,487.808c0.021-0.035,0.046-0.066,0.071-0.098c0.073-0.091,0.146-0.181,0.229-0.264
	c0.139-0.14,0.298-0.262,0.463-0.37c0.164-0.108,0.341-0.188,0.524-0.258c0.102-0.039,0.197-0.061,0.308-0.057
	c0.084,0.003,0.168-0.004,0.252-0.003c0.28,0.004,0.395,0.415,0.133,0.543c-0.05,0.025-0.098,0.053-0.147,0.079
	c-0.005,0.004-0.009,0.008-0.014,0.012c-0.04,0.035-0.08,0.071-0.127,0.097c-0.1,0.055-0.201,0.103-0.296,0.167
	c-0.018,0.012-0.036,0.025-0.054,0.037c-0.004,0.003-0.006,0.005-0.012,0.009c-0.046,0.036-0.09,0.074-0.133,0.113
	c-0.073,0.067-0.14,0.142-0.204,0.218c-0.038,0.05-0.076,0.1-0.109,0.153c-0.022,0.034-0.04,0.07-0.062,0.104
	c-0.049,0.077-0.116,0.129-0.185,0.18c-0.053,0.038-0.105,0.074-0.171,0.09c-0.096,0.024-0.196,0.011-0.286-0.029
	c-0.146-0.066-0.282-0.237-0.261-0.408C1070.984,488.014,1070.994,487.905,1071.052,487.808z"/><path fill="#CCC" d="M1055.183,510.131c0.118-0.38,0.24-0.759,0.374-1.133c0.286-0.8,0.633-1.568,1.042-2.313
	c0.391-0.712,0.838-1.358,1.328-2.004c0.496-0.654,1.078-1.187,1.661-1.757c0.057-0.056,0.146,0.036,0.098,0.098
	c-0.965,1.235-1.756,2.685-2.435,4.095c-0.334,0.693-0.634,1.408-0.896,2.132c-0.14,0.386-0.268,0.775-0.371,1.172
	c-0.096,0.368-0.135,0.775-0.293,1.121c-0.207,0.451-0.808,0.247-0.802-0.213C1054.894,510.933,1055.067,510.506,1055.183,510.131z"/><path fill="#CCC" d="M1059.096,538.771c-0.114-0.381-0.224-0.764-0.321-1.149c-0.208-0.824-0.348-1.655-0.424-2.501
	c-0.072-0.809-0.061-1.594-0.014-2.404c0.048-0.819,0.233-1.586,0.401-2.384c0.016-0.078,0.141-0.051,0.136,0.026
	c-0.113,1.563,0.038,3.208,0.26,4.757c0.109,0.762,0.258,1.523,0.444,2.27c0.099,0.398,0.209,0.793,0.345,1.18
	c0.126,0.359,0.32,0.718,0.381,1.094c0.08,0.49-0.533,0.655-0.784,0.27C1059.302,539.598,1059.208,539.147,1059.096,538.771z"/><path fill="#1B7062" d="M1106.805,474.727c-0.093-2.622-0.584-24.097,12.384-36.744c2.522-2.46,7.946-7.75,16.624-9.505
	c3.25-0.657,6.036-0.633,7.938-0.494c-2.424,0.376-6.745,1.368-11.259,4.351c-4.621,3.053-7.256,6.745-8.542,8.85
	c2.81-2.831,7.604-6.863,14.561-9.431c14.481-5.345,27.481-0.34,30.965,1.134c-2.57-0.406-5.542-0.627-8.824-0.424
	c-11.41,0.708-19.757,6.138-23.875,9.318c1.982-1.193,5.988-3.221,11.357-3.352c2.976-0.073,5.458,0.459,7.219,0.999
	c0,0-12.233,1.146-21.067,7.5c0,0,10.628-1.619,14.534-1.488c0.168,0.006,0.491-0.034,0.531,0.077
	c0.264,0.733-12.544,5.007-22.018,10.58C1121.647,459.445,1114.166,465.021,1106.805,474.727z"/><path fill="#CCC" d="M1133.001,446.743c-0.102,0.128-0.198,0.262-0.283,0.401c-0.173,0.285-0.285,0.613-0.37,0.933
	c-0.038,0.142,0.184,0.194,0.241,0.068c0.127-0.28,0.292-0.525,0.463-0.778c0.084-0.123,0.172-0.243,0.268-0.357
	c0.056-0.067,0.122-0.128,0.165-0.204c0.038-0.065,0.095-0.134,0.098-0.211c0.004-0.101-0.06-0.173-0.164-0.17
	c-0.083,0.003-0.163,0.066-0.229,0.114C1133.116,446.593,1133.058,446.671,1133.001,446.743z"/><path fill="#CCC" d="M1111.506,452.239c-0.852,2.21-1.556,4.479-2.093,6.786c-0.536,2.3-0.838,4.628-0.976,6.984
	c-0.013,0.23,0.322,0.253,0.354,0.028c0.674-4.599,1.879-9.171,3.702-13.449C1112.758,451.97,1111.75,451.608,1111.506,452.239z"/><path fill="#94B858" d="M1114.107,448.519c-0.008,0.017-0.017,0.032-0.025,0.048c-0.004,0.008-0.007,0.016-0.011,0.024
	C1114.083,448.567,1114.095,448.543,1114.107,448.519z"/><path fill="#94B858" d="M1114.071,448.592c0,0,0-0.001,0.001-0.001c-0.003,0.006-0.006,0.012-0.009,0.018
	C1114.065,448.603,1114.068,448.597,1114.071,448.592z"/><path fill="#CCC" d="M1113.423,448.114c-0.027,0.023-0.05,0.049-0.074,0.075c-0.068,0.076-0.135,0.152-0.194,0.235
	c-0.1,0.14-0.182,0.294-0.251,0.451c-0.069,0.157-0.113,0.32-0.147,0.488c-0.019,0.093-0.025,0.178-0.005,0.273
	c0.015,0.072,0.02,0.145,0.033,0.217c0.043,0.24,0.413,0.28,0.486,0.037c0.014-0.047,0.031-0.092,0.047-0.138
	c0.003-0.005,0.005-0.009,0.008-0.014c0.025-0.039,0.05-0.079,0.065-0.123c0.033-0.094,0.06-0.187,0.101-0.278
	c0.008-0.017,0.016-0.034,0.024-0.052c0.002-0.004,0.003-0.006,0.006-0.011c0.024-0.045,0.05-0.088,0.078-0.131
	c0.047-0.073,0.102-0.14,0.158-0.207c0.037-0.04,0.075-0.079,0.116-0.116c0.026-0.023,0.054-0.045,0.08-0.068
	c0.06-0.053,0.094-0.118,0.128-0.185c0.026-0.051,0.049-0.101,0.053-0.16c0.007-0.086-0.018-0.17-0.066-0.242
	c-0.078-0.116-0.244-0.208-0.389-0.166C1113.589,448.027,1113.498,448.051,1113.423,448.114z"/><path fill="#CCC" d="M1130.346,431.272c-0.31,0.156-0.618,0.315-0.921,0.484c-0.647,0.36-1.258,0.769-1.84,1.227
	c-0.556,0.438-1.048,0.915-1.533,1.429c-0.491,0.52-0.867,1.097-1.273,1.68c-0.04,0.057,0.052,0.12,0.098,0.07
	c0.924-1.007,2.057-1.895,3.173-2.68c0.548-0.386,1.12-0.747,1.705-1.076c0.312-0.175,0.628-0.342,0.955-0.487
	c0.303-0.135,0.647-0.227,0.922-0.413c0.358-0.242,0.096-0.73-0.298-0.659C1130.994,430.909,1130.652,431.119,1130.346,431.272z"/><path fill="#CCC" d="M1155.534,430.536c-0.344-0.043-0.689-0.083-1.034-0.112c-0.738-0.061-1.473-0.062-2.212-0.006
	c-0.706,0.054-1.38,0.176-2.069,0.332c-0.698,0.158-1.331,0.428-1.993,0.686c-0.065,0.025-0.024,0.129,0.042,0.113
	c1.328-0.321,2.764-0.427,4.128-0.458c0.671-0.015,1.346,0.004,2.015,0.057c0.356,0.028,0.712,0.066,1.064,0.128
	c0.327,0.057,0.664,0.172,0.995,0.171c0.432-0.002,0.487-0.552,0.12-0.713C1156.275,430.595,1155.874,430.578,1155.534,430.536z"/><path fill="#249474" d="M1100.169,473.704c3.31,1.998,30.204,18.702,35.357,44.897c1.002,5.095,3.157,16.051-1.671,28.173
	c-1.808,4.539-4.084,7.958-5.789,10.193c1.49-3.293,3.748-9.425,3.707-17.4c-0.042-8.163-2.475-14.39-4.035-17.674
	c1.228,5.749,2.339,14.914-0.1,25.568c-5.076,22.176-21.73,34.183-26.358,37.294c2.572-2.844,5.241-6.333,7.635-10.546
	c8.324-14.65,8.351-29.326,7.746-36.97c-0.125,3.406-0.853,9.985-5.018,16.716c-2.309,3.731-4.966,6.364-7.052,8.103
	c0,0,8.446-16.018,7.726-32.039c0,0-6.569,14.418-9.879,19.132c-0.143,0.203-0.354,0.634-0.523,0.594
	c-1.118-0.265,3.933-19.514,4.692-35.696C1107.062,504.336,1106.211,490.61,1100.169,473.704z"/><path fill="#CCC" d="M1113.584,528.584c-0.075-0.229-0.163-0.456-0.267-0.673c-0.212-0.443-0.527-0.845-0.853-1.209
	c-0.145-0.162-0.387,0.071-0.278,0.243c0.243,0.383,0.412,0.783,0.587,1.199c0.085,0.203,0.161,0.408,0.225,0.618
	c0.037,0.123,0.06,0.253,0.118,0.368c0.05,0.099,0.089,0.226,0.182,0.291c0.121,0.085,0.262,0.065,0.341-0.065
	c0.064-0.105,0.05-0.254,0.044-0.374C1113.676,528.846,1113.626,528.712,1113.584,528.584z"/><path fill="#CCC" d="M1124.128,497.631c-2.04-2.833-4.273-5.53-6.686-8.052c-2.406-2.514-5.036-4.764-7.832-6.833
	c-0.274-0.202-0.571,0.193-0.321,0.414c5.131,4.539,9.801,9.71,13.611,15.409C1123.451,499.393,1124.71,498.441,1124.128,497.631z"/><path fill="#94B858" d="M1126.621,503.839c-0.014-0.023-0.025-0.046-0.039-0.069c-0.006-0.011-0.014-0.021-0.02-0.033
	C1126.582,503.771,1126.602,503.805,1126.621,503.839z"/><path fill="#94B858" d="M1126.561,503.735c0,0.001,0.001,0.001,0.001,0.002c-0.005-0.009-0.01-0.017-0.015-0.026
	C1126.552,503.719,1126.557,503.727,1126.561,503.735z"/><path fill="#CCC" d="M1127.672,503.32c-0.006-0.052-0.02-0.101-0.033-0.152c-0.039-0.145-0.079-0.288-0.133-0.428
	c-0.092-0.236-0.216-0.462-0.354-0.674c-0.138-0.212-0.304-0.397-0.483-0.574c-0.1-0.099-0.2-0.174-0.333-0.226
	c-0.1-0.04-0.195-0.092-0.294-0.134c-0.331-0.14-0.679,0.284-0.437,0.57c0.046,0.055,0.088,0.113,0.133,0.169
	c0.003,0.007,0.007,0.014,0.01,0.021c0.029,0.062,0.058,0.125,0.1,0.18c0.089,0.116,0.183,0.225,0.262,0.349
	c0.015,0.024,0.03,0.048,0.044,0.071c0.003,0.006,0.005,0.009,0.009,0.017c0.035,0.066,0.068,0.133,0.098,0.202
	c0.052,0.117,0.091,0.239,0.128,0.361c0.019,0.078,0.038,0.156,0.05,0.236c0.008,0.051,0.011,0.103,0.019,0.154
	c0.018,0.117,0.069,0.211,0.125,0.307c0.042,0.072,0.086,0.142,0.154,0.195c0.101,0.078,0.225,0.115,0.351,0.113
	c0.206-0.002,0.454-0.134,0.518-0.346C1127.646,503.597,1127.69,503.464,1127.672,503.32z"/><path fill="#CCC" d="M1134.814,537.777c0.058-0.508,0.11-1.017,0.146-1.526c0.077-1.089,0.065-2.172-0.032-3.26
	c-0.092-1.039-0.284-2.03-0.528-3.043c-0.246-1.025-0.655-1.953-1.047-2.924c-0.038-0.095-0.19-0.033-0.166,0.064
	c0.497,1.951,0.679,4.066,0.75,6.075c0.035,0.988,0.019,1.984-0.046,2.971c-0.035,0.526-0.085,1.05-0.168,1.57
	c-0.078,0.483-0.242,0.981-0.234,1.47c0.01,0.637,0.823,0.707,1.053,0.164C1134.74,538.87,1134.757,538.279,1134.814,537.777z"/><path fill="#CCC" d="M1115.421,569.451c0.331-0.389,0.658-0.783,0.972-1.186c0.671-0.861,1.264-1.767,1.79-2.724
	c0.502-0.914,0.895-1.844,1.258-2.821c0.367-0.989,0.545-1.987,0.76-3.012c0.021-0.101-0.14-0.133-0.173-0.039
	c-0.675,1.897-1.702,3.755-2.763,5.462c-0.522,0.84-1.09,1.658-1.694,2.441c-0.322,0.417-0.656,0.825-1.015,1.21
	c-0.333,0.358-0.747,0.68-1.013,1.091c-0.347,0.535,0.289,1.046,0.783,0.723C1114.75,570.318,1115.094,569.836,1115.421,569.451z"/><path fill="#BA8159" d="M1124.287,473.715c1.809-6.539-2.025-13.307-8.564-15.116c-6.539-1.809-13.307,2.025-15.115,8.564
	c-1.809,6.539,2.025,13.307,8.564,15.116C1115.71,484.089,1122.478,480.254,1124.287,473.715z"/><path fill="#A6734F" d="M1124.287,473.715c0.784-2.833,0.507-5.707-0.589-8.204c-0.073,0.594-0.19,1.19-0.354,1.784
	c-1.809,6.539-8.577,10.373-15.115,8.564c-3.707-1.026-6.542-3.645-7.975-6.911c-0.734,5.944,2.973,11.687,8.918,13.331
	C1115.71,484.089,1122.478,480.254,1124.287,473.715z"/><path fill="#8C532A" d="M1105.727,470.446c1.664-6.014-1.863-12.238-7.876-13.901c-6.014-1.664-12.237,1.862-13.901,7.876
	c-1.664,6.014,1.862,12.238,7.876,13.902C1097.839,479.986,1104.063,476.459,1105.727,470.446z"/><path fill="#82451A" d="M1105.727,470.446c1.13-4.087-0.137-8.268-2.952-11.052c0.699,2.067,0.808,4.359,0.182,6.621
	c-1.664,6.014-7.888,9.54-13.901,7.876c-1.927-0.533-3.597-1.537-4.924-2.849c1.159,3.43,3.942,6.243,7.694,7.281
	C1097.84,479.986,1104.063,476.459,1105.727,470.446z"/><path fill="#8C532A" d="M1122.264,486.743c1.058-3.826-1.185-7.786-5.011-8.844c-3.826-1.059-7.786,1.185-8.844,5.011
	c-1.059,3.826,1.185,7.786,5.011,8.844C1117.245,492.813,1121.205,490.569,1122.264,486.743z"/><path fill="#82451A" d="M1120.587,479.929c0.899,1.597,1.192,3.536,0.665,5.442c-1.059,3.826-5.019,6.069-8.844,5.011
	c-1.328-0.368-2.46-1.09-3.335-2.03c0.906,1.609,2.426,2.871,4.346,3.403c3.826,1.058,7.785-1.185,8.844-5.011
	C1122.954,484.246,1122.232,481.696,1120.587,479.929z"/><path fill="#BA8159" d="M1113.396,487.023c1.616-5.842-1.809-11.888-7.651-13.505c-5.842-1.617-11.888,1.809-13.504,7.651
	c-1.617,5.842,1.809,11.888,7.651,13.505C1105.734,496.29,1111.78,492.865,1113.396,487.023z"/><path fill="#BA8159" d="M1113.396,487.023c1.616-5.842-1.809-11.888-7.651-13.505c-5.842-1.617-11.888,1.809-13.504,7.651
	c-1.617,5.842,1.809,11.888,7.651,13.505C1105.734,496.29,1111.78,492.865,1113.396,487.023z"/><path fill="#A6734F" d="M1113.396,487.023c0.917-3.316,0.209-6.697-1.641-9.297c0.737,2.057,0.871,4.353,0.244,6.619
	c-1.616,5.842-7.662,9.267-13.504,7.651c-2.526-0.699-4.599-2.227-6.01-4.209c1.163,3.246,3.831,5.897,7.407,6.886
	C1105.734,496.29,1111.78,492.865,1113.396,487.023z"/><path fill="#F28D09" d="M801.126,349.275c-0.171,0.364-0.268,0.556-0.268,0.556H567.373c0,0-23.147-44.786,10.562-90.577
	c29.996-40.741,90.674-76.302,103.687-83.654l0.171-10.958c-3.521-1.006-6.046-4.195-5.929-7.887
	c0.128-3.606,2.718-6.56,6.164-7.416l0.664-42.677c-10.648-1.359-18.877-10.423-18.877-21.435c0-6.26,2.675-11.879,6.924-15.828
	c-0.214,1.209-0.342,2.44-0.342,3.713c0,11.943,9.685,21.628,21.628,21.628c5.683,0,10.841-2.215,14.704-5.8
	c-1.766,10.166-10.605,17.914-21.285,17.914c-0.599,0-1.199-0.043-1.787-0.096l1.787,42.442c4.034,0.642,7.052,4.077,6.913,8.112
	c-0.118,3.628-2.761,6.603-6.25,7.427l0.46,10.84c0,0,0,0,0.011,0.011c12.938,7.298,73.69,42.892,103.708,83.664
	C821.812,302.06,803.63,343.999,801.126,349.275z"/><path fill="#DE7E00" d="M801.126,349.275H583.443c0,0,156.851-4.534,168.171-67.821c9.536-53.315-63.785-104.954-65.037-105.864
	c12.938,7.298,73.69,42.892,103.708,83.664C821.812,302.06,803.63,343.999,801.126,349.275z"/><path fill="#F4AD1D" d="M810.244,357.836h-252.26v-0.13c0-8.768,7.108-15.875,15.875-15.875h220.509
	c8.768,0,15.875,7.108,15.875,15.875V357.836z"/><path fill="#EC911C" d="M820.138,373.345H548.09c-4.248,0-7.692-3.444-7.692-7.692v-0.126c0-4.248,3.444-7.692,7.692-7.692h272.049
	c4.248,0,7.692,3.444,7.692,7.692v0.126C827.83,369.901,824.386,373.345,820.138,373.345z"/><path fill="#EC911C" d="M836.339,478.015h-304.45c-4.67,0-8.456-3.786-8.456-8.456v-0.139c0-4.67,3.786-8.456,8.456-8.456h304.45
	c4.67,0,8.456,3.786,8.456,8.456v0.139C844.795,474.229,841.009,478.015,836.339,478.015z"/><rect width="258.59" height="87.62" x="554.819" y="373.345" fill="#FFD061"/><path fill="#FAB923" d="M554.819,373.345v8.525h229.527c12.192,0,22.076,9.884,22.076,22.076v57.018h6.986v-87.62H554.819z"/><rect width="291.905" height="107.209" x="536.442" y="478.015" fill="#FFD061"/><path fill="#FAB923" d="M536.442,478.015v9.844h252.997c14.673,0,26.567,11.895,26.567,26.567v70.798h12.341V478.015H536.442z"/><rect width="0" height="8.218" x="845.428" y="678.924" fill="#EC911C"/><rect width="381.152" height="211.801" x="493.538" y="589.701" fill="#FFD061"/><path fill="#FAB923" d="M493.538,589.701v25.378h301.355c31.837,0,57.646,25.809,57.646,57.646v128.778h22.152V589.701H493.538z"/><path fill="#F28D09" d="M548.189,554.85c-7.223-9.81-21.776-18.376-25.054-20.231l-0.059-1.171c0.741-0.256,1.277-0.953,1.277-1.781
	c0-0.896-0.624-1.641-1.459-1.838l-0.955-18.927v18.955c-0.789,0.228-1.37,0.947-1.37,1.81c0,0.862,0.581,1.582,1.37,1.81v1.056
	c-2.952,1.66-17.865,10.346-25.206,20.317c-8.17,11.096-2.561,21.948-2.561,21.948h28.289h28.288
	C550.749,576.798,556.358,565.946,548.189,554.85z"/><path fill="#F28D09" d="M871.156,554.85c-7.223-9.81-21.776-18.376-25.054-20.231l-0.059-1.171c0.741-0.256,1.277-0.953,1.277-1.781
	c0-0.896-0.624-1.641-1.459-1.838l-0.955-18.927v18.955c-0.789,0.228-1.37,0.947-1.37,1.81c0,0.862,0.581,1.582,1.37,1.81v1.056
	c-2.952,1.66-17.865,10.346-25.206,20.317c-8.17,11.096-2.561,21.948-2.561,21.948h28.289h28.289
	C873.717,576.798,879.326,565.946,871.156,554.85z"/><path fill="#F28D09" d="M764.176,554.85c-7.223-9.81-21.776-18.376-25.054-20.231l-0.059-1.171c0.741-0.256,1.277-0.953,1.277-1.781
	c0-0.896-0.624-1.641-1.459-1.838l-0.955-18.927v18.955c-0.789,0.228-1.37,0.947-1.37,1.81c0,0.862,0.581,1.582,1.37,1.81v1.056
	c-2.952,1.66-17.865,10.346-25.206,20.317c-8.17,11.096-2.561,21.948-2.561,21.948h28.289h28.289
	C766.737,576.798,772.346,565.946,764.176,554.85z"/><path fill="#F28D09" d="M654.635,554.85c-7.223-9.81-21.776-18.376-25.054-20.231l-0.059-1.171c0.741-0.256,1.277-0.953,1.277-1.781
	c0-0.896-0.624-1.641-1.459-1.838l-0.955-18.927v18.955c-0.789,0.228-1.37,0.947-1.37,1.81c0,0.862,0.581,1.582,1.37,1.81v1.056
	c-2.952,1.66-17.865,10.346-25.206,20.317c-8.17,11.096-2.561,21.948-2.561,21.948h28.289h28.289
	C657.196,576.798,662.804,565.946,654.635,554.85z"/><path fill="#EC911C" d="M877.444,598.07h-386.66c-6.678,0-12.092-5.414-12.092-12.092v-0.198c0-6.678,5.414-12.092,12.092-12.092
	h386.66c6.678,0,12.092,5.414,12.092,12.092v0.198C889.536,592.656,884.122,598.07,877.444,598.07z"/><path fill="#265170" d="M723.908,801.503h-85.851V673.779c0-23.707,19.218-42.925,42.925-42.925h0
	c23.707,0,42.925,19.218,42.925,42.925V801.503z M610.204,673.779c0-23.707-19.218-42.925-42.925-42.925h0
	c-23.707,0-42.925,19.218-42.925,42.925v127.723h85.851V673.779z M837.465,673.779c0-23.707-19.218-42.925-42.925-42.925h0
	c-23.707,0-42.925,19.218-42.925,42.925v127.723h85.851V673.779z M807.519,511.84c0-8.657-7.018-15.675-15.675-15.675h0
	c-8.657,0-15.675,7.018-15.675,15.675v46.639h31.349V511.84z M701.403,511.84c0-8.657-7.018-15.675-15.675-15.675h0
	c-8.657,0-15.675,7.018-15.675,15.675v46.639h31.349V511.84z M589.758,511.84c0-8.657-7.018-15.675-15.675-15.675h0
	c-8.657,0-15.675,7.018-15.675,15.675v46.639h31.349V511.84z M588.298,389.652l-9.741-9.875l-9.741,9.875v59.774h19.481V389.652z
	 M619.944,389.652l-9.741-9.875l-9.741,9.875v59.774h19.481V389.652z M768.014,389.652l-9.741-9.875l-9.741,9.875v59.774h19.481
	V389.652z M735.106,440.645c0-28.162-22.83-50.992-50.992-50.992h0c-28.162,0-50.992,22.83-50.992,50.992v8.781h101.985V440.645z
	 M799.661,389.652l-9.741-9.875l-9.741,9.875v59.774h19.481V389.652z"/><path fill="#1C3B52" d="M690.614,496.952c-1.539-0.505-3.178-0.787-4.885-0.787c-8.657,0-15.675,7.018-15.675,15.675v46.64h9.771
	v-46.64C679.825,504.891,684.352,499.007,690.614,496.952z"/><polygon fill="#1C3B52" points="610.234 389.652 615.089 384.73 610.204 379.778 600.463 389.652 600.463 449.426 610.234 449.426"/><path fill="#1C3B52" d="M568.179,511.84c0-6.949,4.527-12.833,10.789-14.888c-1.539-0.505-3.178-0.787-4.885-0.787h0
	c-8.657,0-15.675,7.018-15.675,15.675v46.64h9.771V511.84z"/><polygon fill="#1C3B52" points="789.95 389.652 794.805 384.73 789.92 379.778 780.179 389.652 780.179 449.426 789.95 449.426"/><path fill="#1C3B52" d="M785.941,511.84c0-6.949,4.527-12.833,10.789-14.888c-1.539-0.505-3.178-0.787-4.885-0.787
	c-8.657,0-15.675,7.018-15.675,15.675v46.64h9.771V511.84z"/><polygon fill="#1C3B52" points="578.588 389.652 583.443 384.73 578.557 379.778 568.817 389.652 568.817 449.426 578.588 449.426"/><path fill="#1C3B52" d="M799.425,631.138c-1.604-0.182-3.233-0.285-4.885-0.285h0c-23.707,0-42.925,19.219-42.925,42.926v127.723
	h9.771V673.779C761.385,651.725,778.02,633.565,799.425,631.138z"/><polygon fill="#1C3B52" points="758.304 389.652 763.159 384.73 758.273 379.778 748.533 389.652 748.533 449.426 758.304 449.426"/><path fill="#1C3B52" d="M685.868,631.138c-1.604-0.182-3.232-0.285-4.885-0.285h0c-23.707,0-42.925,19.219-42.925,42.926v127.723
	h9.771V673.779C647.828,651.725,664.463,633.565,685.868,631.138z"/><path fill="#1C3B52" d="M642.893,440.645c0-26.514,20.237-48.294,46.107-50.754c-1.609-0.153-3.237-0.238-4.885-0.238h0
	c-28.162,0-50.992,22.83-50.992,50.992v8.781h9.771V440.645z"/><path fill="#1C3B52" d="M572.164,631.138c-1.604-0.182-3.233-0.285-4.885-0.285h0c-23.707,0-42.925,19.219-42.925,42.926v127.723
	h9.771V673.779C534.124,651.725,550.758,633.565,572.164,631.138z"/><ellipse cx="649.129" cy="264.934" fill="#FF9509" rx="49.739" ry="30.744" transform="rotate(-45.001 649.129 264.943)"/><rect width="113.671" height="27.899" x="899.793" y="548.183" fill="#FFCA4D"/><rect width="74.654" height="39.938" x="919.27" y="375.386" fill="#FFD061"/><path fill="#F28D09" d="M994.277,365.905h-74.482c0,0-7.384-11.922,3.371-24.111c8.026-9.096,22.923-17.219,29.975-20.761
	c1.027-0.514,1.883-0.931,2.526-1.241c0.653-0.31,1.091-0.514,1.273-0.599c0.064-0.032,0.096-0.043,0.096-0.043
	s0.535,0.246,1.487,0.695c0.653,0.321,1.509,0.728,2.515,1.241c7.095,3.564,21.885,11.654,29.868,20.707
	C1001.661,353.983,994.277,365.905,994.277,365.905z"/><path fill="#F28D09" d="M997.883,369.897v1.487c0,2.194-1.766,3.981-3.96,4.002h-73.616c-2.205,0-3.992-1.798-3.992-4.002v-1.487
	c0-2.205,1.787-3.992,3.992-3.992h73.583C996.096,365.905,997.883,367.692,997.883,369.897z"/><path fill="#F28D09" d="M1002.357,423.318v1.488h-90.513v-1.488c0-4.42,3.574-7.994,7.983-7.994h74.547
	C998.782,415.324,1002.357,418.899,1002.357,423.318z"/><rect width="95.5" height="104.928" x="908.697" y="428.958" fill="#FFCA4D"/><polygon fill="#FFCA4D" points="1018.505 783.905 894.4 783.905 908.515 581.711 908.697 579.121 1004.197 579.121 1004.379 581.711"/><polygon fill="#265170" points="932.316 408.373 924.68 408.373 924.68 384.943 928.498 381.073 932.316 384.943"/><polygon fill="#265170" points="946.535 408.373 938.899 408.373 938.899 384.943 942.717 381.073 946.535 384.943"/><polygon fill="#265170" points="960.755 408.373 953.118 408.373 953.118 384.943 956.936 381.073 960.755 384.943"/><polygon fill="#265170" points="974.974 408.373 967.338 408.373 967.338 384.943 971.156 381.073 974.974 384.943"/><polygon fill="#265170" points="989.193 408.373 981.557 408.373 981.557 384.943 985.375 381.073 989.193 384.943"/><path fill="#F28D09" d="M1006.209,427.182v0.888c0,1.188-0.878,2.172-2.012,2.333c-0.118,0.021-0.235,0.032-0.353,0.032h-93.809
	c-0.492,0-0.963-0.15-1.338-0.417c-0.621-0.417-1.038-1.134-1.038-1.948v-0.888c0-1.316,1.07-2.376,2.376-2.376h93.809
	C1005.15,424.806,1006.209,425.865,1006.209,427.182z"/><path fill="#F28D09" d="M1011.677,541.869v1.487h-109.08v-1.487c0-4.409,3.574-7.983,7.983-7.983h93.103
	C1008.103,533.886,1011.677,537.461,1011.677,541.869z"/><path fill="#F28D09" d="M1016.311,545.733v0.888c0,1.306-1.059,2.365-2.365,2.365H899.932c-0.043,0-0.096,0-0.139-0.011
	c-1.252-0.064-2.237-1.092-2.237-2.354v-0.888c0-1.306,1.059-2.376,2.376-2.376h114.014
	C1015.252,543.357,1016.311,544.427,1016.311,545.733z"/><path fill="#F28D09" d="M1016.311,578.458v0.888c0,1.306-1.059,2.365-2.365,2.365H899.932c-1.316,0-2.376-1.059-2.376-2.365v-0.888
	c0-1.316,1.059-2.376,2.376-2.376h114.014C1015.252,576.082,1016.311,577.141,1016.311,578.458z"/><path fill="#265170" d="M916.271,555.943h-8.791c-1.481,0-2.681,1.2-2.681,2.681v8.791c0,1.481,1.2,2.681,2.681,2.681h8.791
	c1.481,0,2.681-1.2,2.681-2.681v-8.791C918.953,557.144,917.752,555.943,916.271,555.943z"/><path fill="#265170" d="M938.588,555.943h-8.791c-1.481,0-2.681,1.2-2.681,2.681v8.791c0,1.481,1.2,2.681,2.681,2.681h8.791
	c1.481,0,2.681-1.2,2.681-2.681v-8.791C941.269,557.144,940.068,555.943,938.588,555.943z"/><path fill="#265170" d="M960.904,555.943h-8.791c-1.481,0-2.681,1.2-2.681,2.681v8.791c0,1.481,1.201,2.681,2.681,2.681h8.791
	c1.481,0,2.681-1.2,2.681-2.681v-8.791C963.585,557.144,962.385,555.943,960.904,555.943z"/><path fill="#265170" d="M983.22,555.943h-8.791c-1.481,0-2.681,1.2-2.681,2.681v8.791c0,1.481,1.2,2.681,2.681,2.681h8.791
	c1.481,0,2.681-1.2,2.681-2.681v-8.791C985.902,557.144,984.701,555.943,983.22,555.943z"/><path fill="#265170" d="M1005.537,555.943h-8.791c-1.481,0-2.681,1.2-2.681,2.681v8.791c0,1.481,1.2,2.681,2.681,2.681h8.791
	c1.481,0,2.681-1.2,2.681-2.681v-8.791C1008.218,557.144,1007.018,555.943,1005.537,555.943z"/><path fill="#265170" d="M983.664,522.716h-53.059v-50.964c0-14.533,11.781-26.314,26.314-26.314h0.431
	c14.533,0,26.314,11.781,26.314,26.314V522.716z"/><polygon fill="#F28D09" points="958.62 323.174 955.559 323.174 955.666 319.792 955.976 309.337 956.501 292.065 956.586 289.4 957.603 289.4 957.678 292.065 958.202 309.337 958.523 319.846"/><path fill="#F28D09" d="M961.038,312.622v11.493h-7.898v-11.493c0-1.659,1.231-3.05,2.836-3.285
	c0.161-0.032,0.321-0.043,0.492-0.043h1.241c0.171,0,0.332,0.01,0.492,0.043C959.807,309.572,961.038,310.963,961.038,312.622z"/><path fill="#F28D09" d="M960.3,288.907c0,1.573-1.134,2.879-2.622,3.157c-0.193,0.032-0.385,0.053-0.589,0.053
	c-0.053,0-0.107,0-0.15-0.01c-0.15,0-0.3-0.021-0.439-0.043c-1.488-0.278-2.622-1.584-2.622-3.157c0-1.723,1.359-3.125,3.061-3.199
	c0.043-0.011,0.096-0.011,0.15-0.011C958.866,285.697,960.3,287.131,960.3,288.907z"/><path fill="#F2EAD3" d="M1018.505,783.905h-61.566V285.708c0.043-0.011,0.096-0.011,0.15-0.011c1.776,0,3.21,1.434,3.21,3.21
	c0,1.573-1.134,2.879-2.622,3.157l0.524,17.272c1.605,0.235,2.836,1.627,2.836,3.285v8.465c7.095,3.564,21.885,11.654,29.868,20.707
	c10.755,12.189,3.371,24.111,3.371,24.111h-0.385c2.205,0,3.992,1.787,3.992,3.992v1.487c0,2.194-1.766,3.981-3.96,4.002v39.938
	h0.449c4.409,0,7.983,3.574,7.983,7.994v1.488h1.487c1.306,0,2.365,1.059,2.365,2.376v0.888c0,1.188-0.878,2.172-2.012,2.333
	v103.483h-0.514c4.42,0,7.994,3.574,7.994,7.983v1.487h2.269c1.306,0,2.365,1.07,2.365,2.376v0.888c0,1.306-1.059,2.365-2.365,2.365
	h-0.482v27.096h0.482c1.306,0,2.365,1.059,2.365,2.376v0.888c0,1.306-1.059,2.365-2.365,2.365h-9.567L1018.505,783.905z"/><rect width="113.671" height="27.899" x="361.305" y="548.183" fill="#FFCA4D"/><rect width="74.654" height="39.938" x="380.782" y="375.386" fill="#FFD061"/><path fill="#F28D09" d="M455.788,365.905h-74.482c0,0-7.384-11.922,3.371-24.111c8.026-9.096,22.923-17.219,29.975-20.761
	c1.027-0.514,1.883-0.931,2.526-1.241c0.653-0.31,1.092-0.514,1.273-0.599c0.064-0.032,0.096-0.043,0.096-0.043
	s0.535,0.246,1.488,0.695c0.653,0.321,1.509,0.728,2.515,1.241c7.095,3.564,21.885,11.654,29.868,20.707
	C463.172,353.983,455.788,365.905,455.788,365.905z"/><path fill="#F28D09" d="M459.395,369.897v1.487c0,2.194-1.766,3.981-3.96,4.002H381.82c-2.204,0-3.992-1.798-3.992-4.002v-1.487
	c0-2.205,1.787-3.992,3.992-3.992h73.583C457.608,365.905,459.395,367.692,459.395,369.897z"/><path fill="#F28D09" d="M463.868,423.318v1.488h-90.513v-1.488c0-4.42,3.574-7.994,7.983-7.994h74.547
	C460.294,415.324,463.868,418.899,463.868,423.318z"/><rect width="95.5" height="104.928" x="370.209" y="428.958" fill="#FFCA4D"/><polygon fill="#FFCA4D" points="480.017 783.905 355.911 783.905 370.027 581.711 370.209 579.121 465.709 579.121 465.891 581.711"/><polygon fill="#265170" points="393.828 408.373 386.191 408.373 386.191 384.943 390.01 381.073 393.828 384.943"/><polygon fill="#265170" points="408.047 408.373 400.411 408.373 400.411 384.943 404.229 381.073 408.047 384.943"/><polygon fill="#265170" points="422.266 408.373 414.63 408.373 414.63 384.943 418.448 381.073 422.266 384.943"/><polygon fill="#265170" points="436.486 408.373 428.849 408.373 428.849 384.943 432.667 381.073 436.486 384.943"/><polygon fill="#265170" points="450.705 408.373 443.069 408.373 443.069 384.943 446.887 381.073 450.705 384.943"/><path fill="#F28D09" d="M467.721,427.182v0.888c0,1.188-0.878,2.172-2.012,2.333c-0.118,0.021-0.235,0.032-0.353,0.032h-93.809
	c-0.492,0-0.963-0.15-1.338-0.417c-0.621-0.417-1.038-1.134-1.038-1.948v-0.888c0-1.316,1.07-2.376,2.376-2.376h93.809
	C466.661,424.806,467.721,425.865,467.721,427.182z"/><path fill="#F28D09" d="M473.189,541.869v1.487h-109.08v-1.487c0-4.409,3.574-7.983,7.983-7.983h93.103
	C469.615,533.886,473.189,537.461,473.189,541.869z"/><path fill="#F28D09" d="M477.823,545.733v0.888c0,1.306-1.059,2.365-2.365,2.365H361.444c-0.043,0-0.096,0-0.139-0.011
	c-1.252-0.064-2.237-1.092-2.237-2.354v-0.888c0-1.306,1.059-2.376,2.376-2.376h114.014
	C476.763,543.357,477.823,544.427,477.823,545.733z"/><path fill="#F28D09" d="M477.823,578.458v0.888c0,1.306-1.059,2.365-2.365,2.365H361.444c-1.316,0-2.376-1.059-2.376-2.365v-0.888
	c0-1.316,1.059-2.376,2.376-2.376h114.014C476.763,576.082,477.823,577.141,477.823,578.458z"/><path fill="#265170" d="M377.783,555.943h-8.791c-1.481,0-2.681,1.2-2.681,2.681v8.791c0,1.481,1.2,2.681,2.681,2.681h8.791
	c1.481,0,2.681-1.2,2.681-2.681v-8.791C380.464,557.144,379.264,555.943,377.783,555.943z"/><path fill="#265170" d="M400.099,555.943h-8.791c-1.481,0-2.681,1.2-2.681,2.681v8.791c0,1.481,1.2,2.681,2.681,2.681h8.791
	c1.481,0,2.681-1.2,2.681-2.681v-8.791C402.781,557.144,401.58,555.943,400.099,555.943z"/><path fill="#265170" d="M422.416,555.943h-8.791c-1.481,0-2.681,1.2-2.681,2.681v8.791c0,1.481,1.2,2.681,2.681,2.681h8.791
	c1.481,0,2.681-1.2,2.681-2.681v-8.791C425.097,557.144,423.896,555.943,422.416,555.943z"/><path fill="#265170" d="M444.732,555.943h-8.791c-1.481,0-2.681,1.2-2.681,2.681v8.791c0,1.481,1.2,2.681,2.681,2.681h8.791
	c1.481,0,2.681-1.2,2.681-2.681v-8.791C447.413,557.144,446.213,555.943,444.732,555.943z"/><path fill="#265170" d="M467.048,555.943h-8.791c-1.481,0-2.681,1.2-2.681,2.681v8.791c0,1.481,1.2,2.681,2.681,2.681h8.791
	c1.481,0,2.681-1.2,2.681-2.681v-8.791C469.73,557.144,468.529,555.943,467.048,555.943z"/><path fill="#265170" d="M445.176,522.716h-53.059v-50.964c0-14.533,11.781-26.314,26.314-26.314h0.431
	c14.533,0,26.314,11.781,26.314,26.314V522.716z"/><polygon fill="#F28D09" points="420.131 323.174 417.07 323.174 417.177 319.792 417.488 309.337 418.012 292.065 418.098 289.4 419.114 289.4 419.189 292.065 419.714 309.337 420.035 319.846"/><path fill="#F28D09" d="M422.55,312.622v11.493h-7.898v-11.493c0-1.659,1.231-3.05,2.836-3.285c0.161-0.032,0.321-0.043,0.492-0.043
	h1.241c0.171,0,0.332,0.01,0.492,0.043C421.319,309.572,422.55,310.963,422.55,312.622z"/><path fill="#F28D09" d="M421.811,288.907c0,1.573-1.134,2.879-2.622,3.157c-0.193,0.032-0.385,0.053-0.589,0.053
	c-0.053,0-0.107,0-0.15-0.01c-0.15,0-0.3-0.021-0.439-0.043c-1.488-0.278-2.622-1.584-2.622-3.157c0-1.723,1.359-3.125,3.061-3.199
	c0.043-0.011,0.096-0.011,0.15-0.011C420.377,285.697,421.811,287.131,421.811,288.907z"/><path fill="#F2EAD3" d="M480.017,783.905h-61.566V285.708c0.043-0.011,0.096-0.011,0.15-0.011c1.776,0,3.21,1.434,3.21,3.21
	c0,1.573-1.134,2.879-2.622,3.157l0.524,17.272c1.605,0.235,2.836,1.627,2.836,3.285v8.465c7.095,3.564,21.885,11.654,29.868,20.707
	c10.755,12.189,3.371,24.111,3.371,24.111h-0.385c2.204,0,3.992,1.787,3.992,3.992v1.487c0,2.194-1.766,3.981-3.96,4.002v39.938
	h0.449c4.409,0,7.983,3.574,7.983,7.994v1.488h1.487c1.306,0,2.365,1.059,2.365,2.376v0.888c0,1.188-0.878,2.172-2.012,2.333
	v103.483h-0.514c4.42,0,7.994,3.574,7.994,7.983v1.487h2.269c1.306,0,2.365,1.07,2.365,2.376v0.888c0,1.306-1.059,2.365-2.365,2.365
	h-0.482v27.096h0.482c1.306,0,2.365,1.059,2.365,2.376v0.888c0,1.306-1.059,2.365-2.365,2.365h-9.567L480.017,783.905z"/><path fill="#FFCA4D" d="M682,798.383c-274.107,0-499.571-176.597-526.797-402.937c-1.823,15.159-2.759,30.542-2.759,46.109
	c0,248.002,237.09,449.047,529.556,449.047s529.556-201.045,529.556-449.047c0-15.568-0.936-30.95-2.759-46.109
	C1181.571,621.785,956.107,798.383,682,798.383z"/><path fill="#FFBE24" d="M685.729,859.112c-292.466,0-529.556-201.045-529.556-449.047c0-2.263,0.026-4.522,0.065-6.777
	c-0.368-2.608-0.719-5.221-1.035-7.843c-1.824,15.16-2.759,30.542-2.759,46.109c0,248.002,237.09,449.047,529.556,449.047
	c280.751,0,510.469-185.262,528.422-419.481C1175.293,690.24,953.772,859.112,685.729,859.112z"/></svg>