<svg xmlns="http://www.w3.org/2000/svg" enable-background="new 0 0 2450 2450" viewBox="0 0 2450 2450"><path fill="#E9EBFF" d="M1017.042,322.129c-37.958,18.925-637.828,358.215-564.634,668.022
			c73.193,309.807,522.81,774.518,533.266,900.377c10.456,125.859-83.65,222.674,52.281,271.081
			c135.931,48.408,648.285,193.631,899.234-571.207C2188.138,825.565,1696.697-16.723,1017.042,322.129z"/><path fill="#F4A48E" d="M1445.697,951.353c42.931-26.763,77.964-39.625,92.922-43.33c-6.793-12.327-17.201-32.904-15.594-40.599
				c2.344-11.29,38.087-116.645,50.317-213.066c12.23-96.419-149.892-210.006-334.419-128.58c0,0-32.196,12.086-56.463,30.357
				c-23.946,18.03-39.949,42.183-42.598,52.051c-5.344,19.869-2.92,93.529-3.884,101.282c-0.962,7.754-56.704,96.438-52.339,105.645
				c4.366,9.208,47.974,23.261,47.974,23.261l-7.271,62.515c0,0,45.455,120.33,55.806,124.102
				c10.338,3.756,127.454-35.279,134.035-31.04c4.692,3.002,16.181,23.221,22.48,34.739
				C1354.02,1015.234,1402.488,978.3,1445.697,951.353z"/><path fill="#C6C8E5" d="M1329.992,1033.899c0,0,5.585,11.749,10.545,24.621c4.975,12.872,7.447,32.115,7.447,32.115
				s76.639-52.435,130.632-84.15c53.992-31.714,101.981-46.898,101.981-46.898s-29.597-51.944-34.411-52.824
				c-4.831-0.882-46.753,11.091-100.489,44.59C1391.96,984.866,1329.992,1033.899,1329.992,1033.899z"/><path fill="#FFF" d="M1844.635,1508.722c-30.639-186.918-101.308-358.413-123.087-402.968
				c-17.387-35.568-107.426-114.855-143.112-145.455c-9.906,3.333-52.562,18.427-99.821,46.186
				c-49.745,29.22-118.559,75.925-129.103,83.109l-1.464,4.349c0,0-37.959,108.369-46.77,192.904
				c-8.827,84.52,2.68,262.851,20.127,385.86c17.463,122.99,5.857,341.592,5.857,341.592s-152.619,32.597-339.587,93.669
				c-5.273,1.723-10.434,3.422-15.538,5.11c9.91,19.345,29.684,35.665,65.817,48.532
				c123.984,44.154,561.095,168.709,827.406-390.088C1862.547,1672.574,1856.277,1579.702,1844.635,1508.722z"/><path fill="#1F1633" d="M1123.749,858.881c0,0,38.07-29.245,49.113-29.797c11.043-0.55,120.295,38.074,137.949,24.279
				c17.655-13.795,50.205-122.497,50.205-122.497l-18.634-32.649c0,0,0.93-49.677-1.043-64.496
				c-1.959-14.82-6.613-33.591-13.451-39.146c-6.853-5.553-108.547-41.23-120.327-40.743c-11.781,0.49-60.782,34.293-65.292,46.379
				c-4.493,12.089-6.949,52.991-6.949,52.991s-39.05-64.112-20.688-82.709c18.345-18.598,100.569-40.296,100.569-40.296
				s76.783-49.766,140.422-49.766c63.653,0,210.769,73.859,220.976,96.077c10.208,22.216,20.432,127.9,12.615,147.718
				c-7.8,19.815-58.245,121.896-60.653,135.708c-2.391,13.811-3.162,20.954-3.162,20.954l-38.921-5.252
				c0,0-48.198-80.291-62.643-86.463c-14.429-6.173-31.106,86.09-41.201,121.898c-10.112,35.811-9.406,29.901-21.17,46.091
				c-11.781,16.178-91.181,108.642-107.15,118.545c-15.954,9.903-79.769,18.73-85.596,7.881
				c-5.842-10.85-44.041-168.102-44.041-168.102s-10.592-9.295-9.854-13.444C1117.297,888.218,1123.749,858.881,1123.749,858.881z"/><path fill="#F4A48E" d="M1425.024,711.237c-19.292,15.951-40.655,86.344-40.655,86.344s20.656,31.515,52.034,22.947
				c31.394-8.566,60.059-64.664,52.066-91.541C1480.477,702.109,1447.622,692.545,1425.024,711.237z"/><path fill="#9B2337" d="M1419.604,804.552l-5.926-10.478c6.051-3.441,15.643-10.534,16.96-14.851
					c0.674-2.218-4.922-8.926-11.082-13.269c-1.458-1.026-2.382-2.633-2.539-4.396c-0.141-1.771,0.486-3.511,1.74-4.773
					l38.385-38.597l8.528,8.496l-33.684,33.863c5.627,5.117,12.758,13.628,10.156,22.186
					C1438.96,793.173,1422.801,802.741,1419.604,804.552z"/><path fill="#1F1633" d="M1150.348,681.719c0,0,48.704-11.797,62.1-7.434c13.381,4.359,36.246,21.911,36.246,21.911
				s-23.575-6.112-31.599-6.502c-8.008-0.388-44.463,7.602-52.745,6.036C1156.052,694.161,1150.348,681.719,1150.348,681.719z"/><path fill="#1F1633" d="M1172.99,729.45c-0.979-10.507,3.916-19.555,10.93-20.206c7.014-0.654,13.482,7.336,14.46,17.844
				c0.98,10.508-3.915,19.555-10.914,20.207C1180.454,747.948,1173.97,739.958,1172.99,729.45z"/><path fill="#FFF" d="M1597.401,1039.692c0,0-145.863,38.697-168.429,74.151c-22.566,35.455-41.105,207.929-44.33,220.817
				c-3.21,12.888-45.936,73.332-96.701,145.06c-50.783,71.727-105.577,134.595-105.577,134.595s-126.298-57.764-165.299-95.465
				c-39.002-37.718-98.516-110.424-98.516-110.424s-29.853,15.809-63.927,39.756c-34.058,23.93-66.271,53.382-66.271,53.382
				s135.59,210.272,254.168,301.644c118.577,91.356,163.053,111.114,182.97,109.396c19.918-1.701,218.056-194.317,294.052-284.246
				c75.98-89.928,104.919-132.381,112.125-139.844c7.223-7.463,92.064-129.636,104.406-210.063
				C1748.416,1198.01,1623.948,1054.041,1597.401,1039.692z"/><path fill="#8784AF" d="M1251.046,1687.953c-1.034-4.153-10.454-40.994-22.084-53.871c-10.172-11.246-34.294-21.23-41.693-24.114
				l-0.451-0.832c-2.801,3.276-4.455,5.179-4.455,5.179s-3.316-1.526-8.607-4.02l3.999,7.369c0.69,1.284,1.834,2.272,3.214,2.781
				c8.087,2.979,30.893,12.681,39.059,21.709c8.15,9.02,16.724,38.221,19.326,48.714L1251.046,1687.953z"/><path fill="#C6C8E5" d="M1735.893,1279.351c-12.818,80.435-97.028,201.729-104.224,209.165
				c-7.206,7.463-36.146,49.916-112.126,139.844c-42.343,50.105-122.535,132.002-188.747,195.066
				c0.216,15.586,0.275,30.994,0.221,45.935c54.329-54.118,191.944-194.303,281.328-312.665
				C1704.972,1434.032,1729.872,1317.831,1735.893,1279.351z"/><path fill="#F4A48E" d="M854.622,1448.182c14.648-10.294,28.338-18.952,39.389-25.63c0.656-20.579,1.161-51.84-1.238-64.058
				c-3.692-18.874-27.028-61.167-30.302-82.562c-3.258-21.378-4.462-66.125-7.464-72.915c-3.001-6.805-21.94-5.007-27.894,3.418
				c-5.938,8.443-3.884,41.971-2.247,50.911c1.621,8.957-2.936,28.393-2.936,28.393l-10.433-34.09c0,0-4.19-111.901-5.698-123.232
				c-1.526-11.316,1.524-45.55-19.277-31.331c-20.8,14.22-27.349,195.49-25.616,229.162c1.396,27.355,40.126,118.659,54.612,151.964
				C826.843,1468.884,840.497,1458.106,854.622,1448.182z"/><path fill="#C6C8E5" d="M1299.521,1422.701c-25.633,36.033-76.095,107.021-88.203,124.461
				c-16.402,23.625-44.844,47.299-44.844,47.299s-117.213-55.886-126.746-69.336c-9.534-13.434-113.297-129.732-113.297-129.732
				l-32.251,21.312c-0.053,1.994-0.109,4.004-0.168,5.847c14.658-8.855,24.538-14.126,24.538-14.126s59.513,72.706,98.516,110.424
				c39.003,37.702,165.299,95.465,165.299,95.465s54.795-62.867,105.577-134.595c4.521-6.387,8.955-12.655,13.323-18.833
				C1300.56,1447.926,1299.988,1435.193,1299.521,1422.701z"/><path fill="#CE7063" d="M855.007,1203.018c3.002,6.79,4.206,51.537,7.464,72.915c3.274,21.395,26.61,63.687,30.302,82.562
				c2.4,12.218,1.894,43.479,1.238,64.058c11.091-6.7,19.404-11.339,22.765-13.168c-0.784-13.641-3.23-53.677-5.627-67.101
				c-2.888-16.29-20.961-38.12-25.712-53.752c-4.767-15.615-15.295-83.924-16.98-91.531c-1.685-7.61-15.825-7.4-22.245-4.607
				c-2.342,1.019-4.143,3.797-5.501,6.901C847.089,1198.249,853.382,1199.334,855.007,1203.018z"/><path fill="#CE7063" d="M805.799,1128.418c1.508,11.331,5.698,123.232,5.698,123.232l10.433,34.09c0,0,4.558-19.436,2.936-28.393
				c-1.637-8.94-3.691-42.468,2.247-50.911c1.248-1.766,3.143-3.168,5.265-4.335l-2.312-4.188c0,0-9.823-84.582-10.304-94.726
				c-0.482-10.128-5.939-20.352-13.434-18.025c-7.496,2.326-5.954,0.386-9.823,7.817c-0.081,0.158-0.191,0.603-0.28,0.849
				C806.273,1095.509,804.574,1119.329,805.799,1128.418z"/><path fill="#FFF" d="M1209.954,530.572c0,0,69.336-135.53,93.202-148.588c23.866-13.059,109.863-15.76,183.708,4.502
				c73.847,20.263,139.587,82.399,139.587,82.399l-37.83,147.237c0,0-77.89-51.329-185.057-70.69
				C1296.399,526.068,1209.954,530.572,1209.954,530.572z"/></svg>