<svg xmlns="http://www.w3.org/2000/svg" enable-background="new 0 0 800 600" viewBox="0 0 800 600"><path fill="#37215c" d="M700,300c0,82.8-33.6,157.8-87.9,212.1c-8.63,8.63-17.7,16.65-27.3,24.23c-42.9,33.6-95.25,55.8-152.32,61.88
		c-10.65,1.2-21.52,1.8-32.48,1.8c-11.17,0-22.2-0.6-33.07-1.88c-57.15-6.23-109.43-28.57-152.32-62.33
		C144.77,480.9,100,395.7,100,300c0-82.8,33.6-157.8,87.9-212.1C242.2,33.6,317.2,0,400,0s157.8,33.6,212.1,87.9
		C666.4,142.2,700,217.2,700,300z"/><rect width="29.87" height="3.06" x="265.54" y="66.44" fill="#ffc90d"/><rect width="29.87" height="3.06" x="265.54" y="93.94" fill="#ffc90d"/><rect width="1.88" height="22.22" x="272.94" y="71.72" fill="#ffc90d"/><rect width=".94" height="24.45" x="268.54" y="69.49" fill="#ffc90d"/><rect width=".94" height="24.45" x="291.47" y="69.49" fill="#ffc90d"/><rect width="1.88" height="22.22" x="286.13" y="71.72" fill="#ffc90d"/><path fill="#ffc90d" d="M283.06,57.09h-5.17c-5.17,0-9.35,4.19-9.35,9.35h23.88C292.41,61.28,288.23,57.09,283.06,57.09z"/><path fill="#ffc90d" d="M268.54,96.94c0,2.78,4.19,5.02,9.35,5.02h5.17c5.17,0,9.35-2.25,9.35-5.02H268.54z"/><polygon fill="#ffc90d" points="279.22 69.49 273.88 76.18 268.54 69.49"/><polygon fill="#ffc90d" points="292.41 69.49 287.07 76.18 281.73 69.49"/><path fill="#ffc90d" d="M280.48,54.2c-1.11,0-2.01-0.9-2.01-2.01c0-1.11,0.9-2.01,2.01-2.01c1.11,0,2.01,0.9,2.01,2.01
				C282.48,53.3,281.58,54.2,280.48,54.2z M280.48,50.93c-0.69,0-1.26,0.56-1.26,1.26c0,0.69,0.56,1.26,1.26,1.26
				c0.69,0,1.26-0.56,1.26-1.26C281.73,51.5,281.17,50.93,280.48,50.93z"/><rect width="1.12" height="3.27" x="279.91" y="53.82" fill="#ffc90d"/><rect width="1.12" height="24.6" x="279.91" y="25.85" fill="#ffc90d"/><g><rect width="29.87" height="3.06" x="307.67" y="43.94" fill="#ffc90d"/><rect width="29.87" height="3.06" x="307.67" y="71.44" fill="#ffc90d"/><rect width="1.88" height="22.22" x="315.06" y="49.22" fill="#ffc90d"/><rect width=".94" height="24.45" x="310.66" y="46.99" fill="#ffc90d"/><rect width=".94" height="24.45" x="333.6" y="46.99" fill="#ffc90d"/><rect width="1.88" height="22.22" x="328.25" y="49.22" fill="#ffc90d"/><path fill="#ffc90d" d="M325.18,34.59h-5.17c-5.17,0-9.35,4.19-9.35,9.35h23.88C334.54,38.78,330.35,34.59,325.18,34.59z"/><path fill="#ffc90d" d="M310.66,74.44c0,2.78,4.19,5.02,9.35,5.02h5.17c5.17,0,9.35-2.25,9.35-5.02H310.66z"/><polygon fill="#ffc90d" points="321.34 46.99 316 53.68 310.66 46.99"/><polygon fill="#ffc90d" points="334.53 46.99 329.19 53.68 323.85 46.99"/><path fill="#ffc90d" d="M322.6,31.7c-1.11,0-2.01-0.9-2.01-2.01c0-1.11,0.9-2.01,2.01-2.01c1.11,0,2.01,0.9,2.01,2.01
				C324.61,30.8,323.71,31.7,322.6,31.7z M322.6,28.43c-0.69,0-1.26,0.56-1.26,1.26c0,0.69,0.56,1.26,1.26,1.26
				c0.69,0,1.26-0.56,1.26-1.26C323.86,29,323.29,28.43,322.6,28.43z"/><rect width="1.12" height="3.27" x="322.04" y="31.32" fill="#ffc90d"/><rect width="1.12" height="17.1" x="322.04" y="10.85" fill="#ffc90d"/></g><g><rect width="29.87" height="3.06" x="511.01" y="66.44" fill="#ffc90d"/><rect width="29.87" height="3.06" x="511.01" y="93.94" fill="#ffc90d"/><rect width="1.88" height="22.22" x="531.6" y="71.72" fill="#ffc90d"/><rect width=".94" height="24.45" x="536.94" y="69.49" fill="#ffc90d"/><rect width=".94" height="24.45" x="514.01" y="69.49" fill="#ffc90d"/><rect width="1.88" height="22.22" x="518.41" y="71.72" fill="#ffc90d"/><path fill="#ffc90d" d="M523.36,57.09h5.17c5.17,0,9.35,4.19,9.35,9.35h-23.88C514.01,61.28,518.19,57.09,523.36,57.09z"/><path fill="#ffc90d" d="M537.88,96.94c0,2.78-4.19,5.02-9.35,5.02h-5.17c-5.17,0-9.35-2.25-9.35-5.02H537.88z"/><polygon fill="#ffc90d" points="527.2 69.49 532.54 76.18 537.88 69.49"/><polygon fill="#ffc90d" points="514.01 69.49 519.35 76.18 524.69 69.49"/><path fill="#ffc90d" d="M523.94,52.19c0-1.11,0.9-2.01,2.01-2.01c1.11,0,2.01,0.9,2.01,2.01c0,1.11-0.9,2.01-2.01,2.01
				C524.84,54.2,523.94,53.3,523.94,52.19z M524.69,52.19c0,0.69,0.56,1.26,1.26,1.26c0.69,0,1.26-0.56,1.26-1.26
				c0-0.69-0.56-1.26-1.26-1.26C525.25,50.93,524.69,51.5,524.69,52.19z"/><rect width="1.12" height="3.27" x="525.38" y="53.82" fill="#ffc90d"/><rect width="1.12" height="20.85" x="525.38" y="29.6" fill="#ffc90d"/></g><g><rect width="29.87" height="3.06" x="468.89" y="43.94" fill="#ffc90d"/><rect width="29.87" height="3.06" x="468.89" y="71.44" fill="#ffc90d"/><rect width="1.88" height="22.22" x="489.48" y="49.22" fill="#ffc90d"/><rect width=".94" height="24.45" x="494.82" y="46.99" fill="#ffc90d"/><rect width=".94" height="24.45" x="471.88" y="46.99" fill="#ffc90d"/><rect width="1.88" height="22.22" x="476.29" y="49.22" fill="#ffc90d"/><path fill="#ffc90d" d="M481.24,34.59h5.17c5.17,0,9.35,4.19,9.35,9.35h-23.88C471.88,38.78,476.07,34.59,481.24,34.59z"/><path fill="#ffc90d" d="M495.76,74.44c0,2.78-4.19,5.02-9.35,5.02h-5.17c-5.17,0-9.35-2.25-9.35-5.02H495.76z"/><polygon fill="#ffc90d" points="485.08 46.99 490.42 53.68 495.76 46.99"/><polygon fill="#ffc90d" points="471.89 46.99 477.23 53.68 482.57 46.99"/><path fill="#ffc90d" d="M481.81,29.69c0-1.11,0.9-2.01,2.01-2.01c1.11,0,2.01,0.9,2.01,2.01c0,1.11-0.9,2.01-2.01,2.01
				C482.71,31.7,481.81,30.8,481.81,29.69z M482.56,29.69c0,0.69,0.56,1.26,1.26,1.26c0.69,0,1.26-0.56,1.26-1.26
				c0-0.69-0.56-1.26-1.26-1.26C483.13,28.43,482.56,29,482.56,29.69z"/><rect width="1.12" height="3.27" x="483.26" y="31.32" fill="#ffc90d"/><rect width="1.12" height="16.35" x="483.26" y="11.6" fill="#ffc90d"/></g><g><path fill="#9976b3" d="M188.29,121.42v13.15c0,0.22-0.18,0.4-0.4,0.4h-1.76c-0.22,0-0.4-0.18-0.4-0.4v-13.15
					c0-0.22,0.18-0.4,0.4-0.4h1.76C188.11,121.02,188.29,121.2,188.29,121.42z"/><path fill="#9976b3" d="M169.91,169.16v8.74h34.2v-8.74H169.91z M169.91,190.81v8.74h34.2v-8.74H169.91z"/><path fill="#7c5a9b" d="M169.91,199.55v269.17h34.2V199.55H169.91z M191.56,238.18h-9.1v-19.86c0-2.5,2.03-4.55,4.55-4.55
						c2.52,0,4.55,2.04,4.55,4.55V238.18z"/><rect width="34.2" height="12.91" x="169.91" y="177.9" fill="#9976b3"/><path fill="#9976b3" d="M211.09,195.15v0.06c0,2.39-1.94,4.33-4.33,4.33h-39.49c-2.39,0-4.33-1.94-4.33-4.33v-0.06
					c0-2.4,1.94-4.34,4.33-4.34h39.49C209.15,190.81,211.09,192.75,211.09,195.15z"/><path fill="#9976b3" d="M211.09,268.11v0.06c0,2.39-1.94,4.33-4.33,4.33h-39.49c-2.39,0-4.33-1.94-4.33-4.33v-0.06
					c0-2.4,1.94-4.34,4.33-4.34h39.49C209.15,263.76,211.09,265.71,211.09,268.11z"/><path fill="#9976b3" d="M211.09,173.5v0.05c0,2.4-1.94,4.35-4.33,4.35h-39.49c-2.39,0-4.33-1.94-4.33-4.35v-0.05
					c0-2.4,1.94-4.35,4.33-4.35h39.49C209.15,169.16,211.09,171.1,211.09,173.5z"/><path fill="#7c5a9b" d="M210.04,158.27c0,8.43-5.45,10.89-5.45,10.89h-35.16c0,0-5.44-2.46-5.44-10.89
							c0-9.02,7.71-13.04,15.56-18.96c5.75-4.33,7.46-9.97,7.46-9.97s1.7,5.64,7.46,9.97C202.32,145.23,210.04,149.25,210.04,158.27
							z"/><path fill="#9976b3" d="M195.65,169.16h-26.22c0,0-5.44-2.46-5.44-10.88c0-8.42,6.71-12.48,13.99-17.79
							c-5.87,5.07-9.39,13.48-6.14,19.93C175.08,166.87,183.3,169.16,195.65,169.16z" opacity=".05"/><path fill="#9976b3" d="M187.68,122.01c0,0.37-0.3,0.67-0.67,0.67c-0.37,0-0.67-0.3-0.67-0.67c0-0.37,0.3-0.67,0.67-0.67
						C187.38,121.35,187.68,121.65,187.68,122.01z"/><g><path fill="#9976b3" d="M613.39,121.42v13.15c0,0.22-0.18,0.4-0.4,0.4h-1.76c-0.22,0-0.4-0.18-0.4-0.4v-13.15
					c0-0.22,0.18-0.4,0.4-0.4h1.76C613.21,121.02,613.39,121.2,613.39,121.42z"/><path fill="#9976b3" d="M595.01,169.16v8.74h34.2v-8.74H595.01z M595.01,190.81v8.74h34.2v-8.74H595.01z"/><path fill="#7c5a9b" d="M595.01,199.55v269.17h34.2V199.55H595.01z M616.66,238.18h-9.1v-19.86c0-2.5,2.03-4.55,4.55-4.55
						c2.52,0,4.55,2.04,4.55,4.55V238.18z"/><rect width="34.2" height="12.91" x="595.01" y="177.9" fill="#9976b3"/><path fill="#9976b3" d="M636.19,195.15v0.06c0,2.39-1.94,4.33-4.33,4.33h-39.49c-2.39,0-4.33-1.94-4.33-4.33v-0.06
					c0-2.4,1.94-4.34,4.33-4.34h39.49C634.24,190.81,636.19,192.75,636.19,195.15z"/><path fill="#9976b3" d="M636.19,268.11v0.06c0,2.39-1.94,4.33-4.33,4.33h-39.49c-2.39,0-4.33-1.94-4.33-4.33v-0.06
					c0-2.4,1.94-4.34,4.33-4.34h39.49C634.24,263.76,636.19,265.71,636.19,268.11z"/><path fill="#9976b3" d="M636.19,173.5v0.05c0,2.4-1.94,4.35-4.33,4.35h-39.49c-2.39,0-4.33-1.94-4.33-4.35v-0.05
					c0-2.4,1.94-4.35,4.33-4.35h39.49C634.24,169.16,636.19,171.1,636.19,173.5z"/><path fill="#7c5a9b" d="M635.13,158.27c0,8.43-5.45,10.89-5.45,10.89h-35.16c0,0-5.44-2.46-5.44-10.89
							c0-9.02,7.71-13.04,15.56-18.96c5.75-4.33,7.46-9.97,7.46-9.97s1.7,5.64,7.46,9.97C627.41,145.23,635.13,149.25,635.13,158.27
							z"/><path fill="#9976b3" d="M620.75,169.16h-26.22c0,0-5.44-2.46-5.44-10.88c0-8.42,6.71-12.48,13.99-17.79
							c-5.87,5.07-9.39,13.48-6.14,19.93C600.18,166.87,608.4,169.16,620.75,169.16z" opacity=".05"/><path fill="#9976b3" d="M612.77,122.01c0,0.37-0.3,0.67-0.67,0.67c-0.37,0-0.67-0.3-0.67-0.67c0-0.37,0.3-0.67,0.67-0.67
						C612.48,121.35,612.77,121.65,612.77,122.01z"/></g><g><path fill="#9976b3" d="M332.43,318.76c0,24.61-15.9,31.78-15.9,31.78H213.91c0,0-15.89-7.17-15.89-31.78
							c0-26.33,22.52-38.07,45.42-55.33c16.8-12.65,21.78-29.11,21.78-29.11s4.97,16.46,21.77,29.11
							C309.9,280.68,332.43,292.42,332.43,318.76z"/><path fill="#9976b3" d="M290.45,350.53h-76.54c0,0-15.89-7.17-15.89-31.77c0-24.57,19.59-36.44,40.83-51.93
							c-17.12,14.8-27.41,39.35-17.92,58.18C230.41,343.84,254.39,350.53,290.45,350.53z" opacity=".05"/><path fill="#9976b3" d="M275.76,202.56c0,0.02-0.01,0.04-0.01,0.06c0,0,0,0,0,0c-0.64,3.57-3.18,6.68-6.87,7.87
						c-5.32,1.72-11.03-1.21-12.75-6.53c-1.72-5.32,1.21-11.03,6.53-12.75c1.64-0.53,3.31-0.62,4.9-0.33c0,0-0.01,0-0.01,0
						c-0.81,0.02-1.64,0.15-2.45,0.42c-4.52,1.46-7,6.3-5.54,10.82c1.46,4.52,6.3,7,10.82,5.54
						C272.94,206.83,274.86,204.9,275.76,202.56z"/><path fill="#9976b3" d="M268.35,231.19c0,1.72-1.4,3.12-3.12,3.12c-1.72,0-3.12-1.4-3.12-3.12c0-1.72,1.4-3.12,3.12-3.12
						C266.95,228.07,268.35,229.47,268.35,231.19z"/><path fill="#9976b3" d="M267.17,212.93c0,1.07-0.87,1.94-1.94,1.94s-1.94-0.87-1.94-1.94c0-1.07,0.87-1.94,1.94-1.94
						S267.17,211.85,267.17,212.93z"/><path fill="#9976b3" d="M265.22,228.07c-4.61-6.6,0-13.21,0-13.21S269.83,221.47,265.22,228.07z"/><path fill="#9976b3" d="M202.23,359.74v108.98h42.66v-41.6c0-11.24,9.1-20.32,20.34-20.32c11.22,0,20.32,9.09,20.32,20.32v41.6
					h42.66V359.74H202.23z M233.7,384.78h-8.45v-14.24c0-2.33,1.89-4.2,4.21-4.2c2.34,0,4.24,1.87,4.24,4.2V384.78z M251.58,384.78
					h-8.45v-14.24c0-2.33,1.89-4.2,4.21-4.2c2.34,0,4.24,1.87,4.24,4.2V384.78z M269.45,384.78H261v-14.24c0-2.33,1.89-4.2,4.21-4.2
					c2.34,0,4.24,1.87,4.24,4.2V384.78z M287.33,384.78h-8.45v-14.24c0-2.33,1.89-4.2,4.21-4.2c2.34,0,4.24,1.87,4.24,4.2V384.78z
					 M305.19,384.78h-8.45v-14.24c0-2.33,1.89-4.2,4.21-4.2c2.34,0,4.24,1.87,4.24,4.2V384.78z"/><path fill="#9976b3" d="M333.08,359.74H197.37c-0.8,0-1.44-0.64-1.44-1.44v-6.33c0-0.8,0.64-1.44,1.44-1.44h135.71
					c0.8,0,1.44,0.64,1.44,1.44v6.33C334.52,359.1,333.87,359.74,333.08,359.74z"/><g><path fill="#9976b3" d="M601.1,318.76c0,24.61-15.9,31.78-15.9,31.78H482.58c0,0-15.89-7.17-15.89-31.78
							c0-26.33,22.52-38.07,45.42-55.33c16.8-12.65,21.78-29.11,21.78-29.11s4.97,16.46,21.77,29.11
							C578.58,280.68,601.1,292.42,601.1,318.76z"/><path fill="#9976b3" d="M559.12,350.53h-76.54c0,0-15.89-7.17-15.89-31.77c0-24.57,19.59-36.44,40.83-51.93
							c-17.12,14.8-27.41,39.35-17.92,58.18C499.09,343.84,523.07,350.53,559.12,350.53z" opacity=".05"/><path fill="#9976b3" d="M544.43,202.56c0,0.02-0.01,0.04-0.01,0.06c0,0,0,0,0,0c-0.64,3.57-3.18,6.68-6.87,7.87
						c-5.32,1.72-11.03-1.21-12.75-6.53c-1.72-5.32,1.21-11.03,6.53-12.75c1.64-0.53,3.31-0.62,4.9-0.33c0,0-0.01,0-0.01,0
						c-0.81,0.02-1.64,0.15-2.45,0.42c-4.52,1.46-7,6.3-5.54,10.82c1.46,4.52,6.3,7,10.82,5.54
						C541.62,206.83,543.53,204.9,544.43,202.56z"/><path fill="#9976b3" d="M537.02,231.19c0,1.72-1.4,3.12-3.12,3.12c-1.72,0-3.12-1.4-3.12-3.12c0-1.72,1.4-3.12,3.12-3.12
						C535.62,228.07,537.02,229.47,537.02,231.19z"/><path fill="#9976b3" d="M535.84,212.93c0,1.07-0.87,1.94-1.94,1.94c-1.07,0-1.94-0.87-1.94-1.94c0-1.07,0.87-1.94,1.94-1.94
						C534.97,210.98,535.84,211.85,535.84,212.93z"/><path fill="#9976b3" d="M533.9,228.07c-4.61-6.6,0-13.21,0-13.21S538.51,221.47,533.9,228.07z"/><path fill="#9976b3" d="M470.9,359.74v108.98h42.66v-41.6c0-11.24,9.1-20.32,20.34-20.32c11.22,0,20.32,9.09,20.32,20.32v41.6
					h42.66V359.74H470.9z M502.38,384.78h-8.45v-14.24c0-2.33,1.89-4.2,4.21-4.2c2.34,0,4.24,1.87,4.24,4.2V384.78z M520.25,384.78
					h-8.45v-14.24c0-2.33,1.89-4.2,4.21-4.2c2.34,0,4.24,1.87,4.24,4.2V384.78z M538.13,384.78h-8.45v-14.24
					c0-2.33,1.89-4.2,4.21-4.2c2.34,0,4.24,1.87,4.24,4.2V384.78z M556,384.78h-8.45v-14.24c0-2.33,1.89-4.2,4.21-4.2
					c2.34,0,4.24,1.87,4.24,4.2V384.78z M573.86,384.78h-8.45v-14.24c0-2.33,1.89-4.2,4.21-4.2c2.34,0,4.24,1.87,4.24,4.2V384.78z"/><path fill="#9976b3" d="M601.75,359.74H466.04c-0.8,0-1.44-0.64-1.44-1.44v-6.33c0-0.8,0.64-1.44,1.44-1.44h135.71
					c0.8,0,1.44,0.64,1.44,1.44v6.33C603.19,359.1,602.55,359.74,601.75,359.74z"/></g></g><g><path fill="#9976b3" d="M489.59,233.17c0,32.97-21.3,42.57-21.3,42.57H330.81c0,0-21.29-9.6-21.29-42.57
						c0-35.28,30.17-51,60.85-74.12c22.5-16.95,29.18-39,29.18-39s6.66,22.06,29.17,39C459.41,182.17,489.59,197.9,489.59,233.17z"/><path fill="#9976b3" d="M433.35,275.74H330.81c0,0-21.29-9.6-21.29-42.56c0-32.91,26.25-48.81,54.7-69.57
						c-22.94,19.82-36.72,52.71-24.01,77.94C352.93,266.78,385.05,275.74,433.35,275.74z" opacity=".05"/><path fill="#ffc90d" d="M413.67,77.51c0,0.03-0.01,0.05-0.01,0.08c0,0,0,0,0,0c-0.86,4.78-4.25,8.94-9.2,10.54
					c-7.13,2.3-14.78-1.62-17.08-8.75c-2.3-7.13,1.62-14.78,8.75-17.08c2.19-0.71,4.44-0.83,6.56-0.44c-0.01,0-0.01,0-0.02,0
					c-1.09,0.03-2.19,0.2-3.28,0.56c-6.05,1.95-9.38,8.44-7.43,14.49c1.95,6.05,8.44,9.38,14.49,7.43
					C409.9,83.23,412.46,80.65,413.67,77.51z"/><path fill="#9976b3" d="M403.74,115.87c0,2.31-1.87,4.18-4.18,4.18c-2.31,0-4.18-1.87-4.18-4.18c0-2.31,1.87-4.18,4.18-4.18
					C401.87,111.69,403.74,113.56,403.74,115.87z"/><path fill="#9976b3" d="M402.16,91.39c0,1.44-1.16,2.6-2.6,2.6c-1.44,0-2.6-1.16-2.6-2.6c0-1.44,1.16-2.6,2.6-2.6
					C401,88.79,402.16,89.96,402.16,91.39z"/><path fill="#9976b3" d="M399.56,111.69c-6.17-8.84,0-17.69,0-17.69S405.73,102.85,399.56,111.69z"/><path fill="#7c5a9b" d="M321.93,315.03v153.69h52.57v-86.07c0-13.84,11.22-25.04,25.06-25.04s25.05,11.2,25.05,25.04v86.07h52.59
				V315.03H321.93z M362.18,394.59H336.3V356.4c0-7.15,5.79-12.94,12.94-12.94c3.57,0,6.81,1.45,9.15,3.79
				c2.34,2.34,3.79,5.58,3.79,9.15V394.59z M384,345.93h-8.45v-14.25c0-2.32,1.9-4.2,4.22-4.2c2.34,0,4.22,1.88,4.22,4.2V345.93z
				 M403.78,345.93h-8.45v-14.25c0-2.32,1.9-4.2,4.23-4.2c2.34,0,4.22,1.88,4.22,4.2V345.93z M423.56,345.93h-8.45v-14.25
				c0-2.32,1.9-4.2,4.23-4.2c2.34,0,4.22,1.88,4.22,4.2V345.93z M463.12,394.59h-25.87V356.4c0-7.15,5.79-12.94,12.94-12.94
				c3.57,0,6.81,1.45,9.15,3.79c2.34,2.34,3.79,5.58,3.79,9.15V394.59z"/><path fill="#9976b3" d="M481.16,315.03H317.95c-0.8,0-1.44-0.64-1.44-1.44v-6.33c0-0.8,0.64-1.44,1.44-1.44h163.21
				c0.8,0,1.44,0.64,1.44,1.44v6.33C482.6,314.38,481.96,315.03,481.16,315.03z"/><path fill="#9976b3" d="M481.16,284.95H317.95c-0.8,0-1.44-0.64-1.44-1.44v-6.33c0-0.8,0.64-1.44,1.44-1.44h163.21
				c0.8,0,1.44,0.64,1.44,1.44v6.33C482.6,284.31,481.96,284.95,481.16,284.95z"/><path fill="#9976b3" d="M321.93,284.95v20.86H477.2v-20.86H321.93z M344.44,302.1h-8.45v-9.24c0-2.32,1.9-4.2,4.22-4.2
				c2.34,0,4.23,1.88,4.23,4.2V302.1z M364.23,302.1h-8.45v-9.24c0-2.32,1.9-4.2,4.22-4.2c2.34,0,4.23,1.88,4.23,4.2V302.1z
				 M384,302.1h-8.45v-9.24c0-2.32,1.9-4.2,4.22-4.2c2.34,0,4.22,1.88,4.22,4.2V302.1z M403.79,302.1h-8.45v-9.24
				c0-2.32,1.9-4.2,4.22-4.2c2.34,0,4.23,1.88,4.23,4.2V302.1z M423.58,302.1h-8.45v-9.24c0-2.32,1.9-4.2,4.22-4.2
				c2.34,0,4.23,1.88,4.23,4.2V302.1z M443.35,302.1h-8.45v-9.24c0-2.32,1.9-4.2,4.23-4.2c2.34,0,4.22,1.88,4.22,4.2V302.1z
				 M463.14,302.1h-8.45v-9.24c0-2.32,1.9-4.2,4.22-4.2c2.34,0,4.22,1.88,4.22,4.2V302.1z"/></g></g><g><path fill="#ef4f3e" d="M503.67,229.42c-24.02,5.63-44.34,47.5-53,61.92c-8.66,14.42,1.73,31.28,1.73,31.28l40.2-20.96
			C492.6,301.66,506.12,228.84,503.67,229.42z"/><path fill="#e0eaf7" d="M584.8,536.33c-42.9,33.6-95.25,55.8-152.32,61.88c1.05-20.62,0.3-79.73,3.07-105.68
			c1.58-14.25,4.28-29.4,8.93-43.73c0.82-2.55,1.8-5.18,2.77-7.72l27.45,1.27l104.32,4.73L584.8,536.33z"/><path fill="#f0634e" d="M593.61,449.04c-0.47,10.26-1.05,17.58-1.7,20.41l-11.16,5.08l-3.05-14.2l-6.09,17.25
			c0,0-105.54,20.29-139.54-2.03c0,0,5.46-41.79,12.55-85.27c2.63-16.1,5.48-32.43,8.38-46.96c3.95-19.96,7.97-36.5,11.54-44.35
			c13.19-28.93,31.98-66.03,46.69-69.55c14.71-3.51,45.16,3.08,45.16,3.08l35.16,60.26l0.37,0.63
			C595.5,334.06,595.33,411.39,593.61,449.04z"/><path fill="#ef4f3e" d="M518.55,333.96c0.18,0.5-0.92,0.37-0.83-0.16c0.09-0.53,0.72-0.73,1.25-0.84
			c8.26-1.74,15.9-6.26,21.41-12.67c0.86-1,1.71-2.08,2.9-2.66c3.26-1.6,6.83,1.18,10.28,2.32c4.19,1.38,8.73,0.24,13.13,0.03
			c4.41-0.2,9.59,1.1,11.26,5.19c0.98,2.39,0.47,5.1,0.6,7.68c0.42,8.07,7.15,14.74,7.7,22.8c0.67,9.78-7.75,17.78-9.94,27.33
			c-0.31,1.36-0.53,2.82-1.46,3.87c-0.93,1.05-2.38,1.44-3.75,1.75c-12.02,2.73-24.59,3.31-36.71,1.07
			c-4.39-0.81-8.72-1.99-13.16-2.49c-5.32-0.6-10.73-0.23-16.02-1.04c-8.6-1.32-16.39-5.67-23.96-9.98
			c-1.36-0.77-2.76-1.58-3.7-2.84c-0.87-1.16-1.26-2.6-1.61-4.01c-1.47-5.97-2.44-12.25-0.99-18.23c1.8-7.41,7-12.16,14.41-13.17
			C499.07,336.58,508.81,335.27,518.55,333.96z"/><path fill="#e0eaf7" d="M366.93,598.12c-57.15-6.23-109.43-28.57-152.32-62.33c-0.15-25.5,0.22-49.8,1.72-61.95l0.6-3.67l4.65-29.1
			c0,0,71.02-8.48,103.95,9.15c5.55,3,10.05,6.68,12.9,11.33c6.3,9.98,11.55,24.22,15.83,39.08
			C360.62,522.6,364.82,569.77,366.93,598.12z"/><path fill="#653a31" d="M328.79,159.87c25.18,8.29,47.44-33.61,8.84-20.42c18.62-27.27-22.59-54.2-31.61-18.64
			c8.39-33.09-32.33-3.8-40.36,0.28c-7.98,4.27-15.21,10.2-20.04,17.85c-13.46,21.3-7.74,52.26,8.62,58.11
			C254.25,197.04,328.79,159.87,328.79,159.87z"/><path fill="#efa081" d="M450.42,163.47c0.47,2.04-10.26,6.24-16.33,16.05c-3.51,5.67-2.19,27.54-1.61,50.67
			c0.42,16.91,0.45,34.49-2.12,46.91c-6.07,29.42-20.55,36.43-55.1,22.42c-34.55-14.01-5.6-40.16-5.6-40.16
			c10.9-1.95,22.88,0.72,22.88,0.72s15.17-70.16,16.45-77.81c1.27-7.66-12.25-25.63-11.31-33.1c0.93-7.46,11.39,10.27,11.39,10.27
			s10.55-15.88,24.1-18.68c13.06-2.71,5.68,4.61,5.16,5.13c0.5-0.2,10.33-4.12,13.51-2.32c3.18,1.81-9.08,8.48-9.78,8.85
			c0.59-0.1,9.46-1.79,10.31,0.01c0.88,1.87-10.34,11.03-10.34,11.03S449.96,161.42,450.42,163.47z"/><path fill="#e9805d" d="M430.36,277.1c-6.07,29.42-20.55,36.43-55.1,22.42c-34.55-14.01-5.6-40.16-5.6-40.16
				c10.9-1.95,22.88,0.72,22.88,0.72c8.76,16.28,6.96,28.11,19.5,22.87c12.54-5.25,17.53-26.54,20.18-50.82
				c0.08-0.72,0.17-1.36,0.26-1.94C432.9,247.1,432.92,264.67,430.36,277.1z" opacity=".52"/><path fill="#ffc90d" d="M381.63,309.06l-41.52-8.01l1.79,37.89l2.32,48.69l2.79,58.64l1.52,32.08
			c-36.47,16.83-111.09,8.98-111.09,8.98l-13.3-22.45v18.51l-15.88-3.93c0,0-0.71-12.19-1.83-34.92
			c-1.13-22.5-2.67-55.34-4.35-96.92c-3.36-83.6,15.46-103.83,44.5-115.84c0,0,16.66-6.47,46.48-3.66
			c29.83,2.8,91.37,28.61,91.37,28.61L381.63,309.06z"/><path fill="#efa081" d="M263.4,228.25c1.5,8.72,9,22.27,21.83,21.86c12.83-0.41,20.38-10.84,17.38-20.56
			C302.61,229.55,276.68,223.83,263.4,228.25z"/><path fill="#dfab26" d="M238.64,369.75c2.7,3.6,5.86,6.82,8.7,10.31c5.62,6.9,9.9,14.78,15.08,22.02
			c3.67,5.13,7.79,9.94,12.31,14.35c2.29,2.24,4.98,4.5,8.18,4.59c3.9,0.11,7.05-2.99,9.63-5.92
			c10.52-11.97,19.87-24.97,27.87-38.75c3.28-5.65,6.43-11.85,5.87-18.35c-0.14-1.64-0.52-3.27-1.29-4.72
			c-0.61-1.15-1.45-2.18-2.39-3.09c-6.5-6.35-16.56-7.02-24.67-11.13c-5.27-2.67-9.67-6.78-14.77-9.76
			c-7.31-4.26-15.76-6.04-24.05-7.76c-4.98-1.03-10.06-2.07-15.11-1.49c-8.09,0.93-19.57,8.06-19.26,17.06
			C225.09,347.31,232.67,361.77,238.64,369.75z"/><path fill="#475776" d="M254.25,229.06c1.82,23.64,31.69,29.83,31.69,29.83v27.98h8.71v-31.04c0,0,16.47-7.65,17.35-24.17
			l-9.39-2.1c0,0,0.22,19.31-15.12,18.96c-15.34-0.35-24.08-20.26-24.08-20.26L254.25,229.06z"/><path fill="#653a31" d="M563.65,167.05c10.84,21.42-18.08,50.74-32.84,56.02c-14.76,5.28,11.91-72.06,11.91-72.06L563.65,167.05z"/><path fill="#1c2a3a" d="M553.39,205.48c2.3-5.91,4.1-13.25,4-21.56c-0.08-6.02-0.65-12.59-2.01-19.1
					c3.21,0.68,6.01,1.43,8.28,2.23C569.82,179.28,563.08,194.05,553.39,205.48z" opacity=".56"/><path fill="#efa081" d="M543.23,228.38l-33.14-0.04c0,0,0.16,14.49,0,15.05c-0.16,0.56,5.96,7.34,5.96,7.34s5.55-1.25,9.21-2.43
				c3.66-1.18,12.15-2.65,13.47-4.72c1.32-2.07,5.84-7.63,6.02-7.67C544.95,235.86,543.23,228.38,543.23,228.38z"/><path fill="#f27a6e" d="M503.67,229.42c-5.47,24.39,6.73,26.07,6.73,26.07l-4.07,39.13h7.1l8.33-36.67c0,0,27.8-3.52,33.26-28.24
				l-11.79-1.33c0,0-8.42,23.85-23.57,19.59c-15.15-4.26-6.23-24.65-6.23-24.65L503.67,229.42z"/><path fill="#efa081" d="M471.83,167.93c-2.7,28.64,5.02,53.92,23.58,58.49c11.93,2.94,20.63,1.92,20.63,1.92v7.56
				c0,5.07,4.11,9.19,9.19,9.19h0c5.07,0,9.19-4.11,9.19-9.19v-9.73c12.33-13.77,13.51-22.69,13.51-22.69s11.89-40.53,0-47.01
				c-11.89-6.48-62.68-5.4-62.68-5.4L471.83,167.93z"/><path fill="#653a31" d="M542.05,162.72c-1.44,7.44,1.64,28.07,1.64,28.07s7.4-12.98,12.02-14.03c4.62-1.05,1.98-11.42,1.98-11.42
				l-4.48-10.28l-10.54,0.92L542.05,162.72z"/><path fill="#efa081" d="M547.76,186.48c2.6-8.55,9.08-11.58,13.75-7.8c6.57,5.31-0.04,28.45-13.58,24.81L547.76,186.48z"/><path fill="#e0eaf7" d="M471.83,167.94c26.07-10.14,74.35-7.05,91.83-0.88c0,0-0.05-3.02-0.9-7.43
				c-2.42-12.28-11.16-35.38-42.89-33.98c-33.55,1.47-43.7,19.88-46.76,31.92C471.59,163.53,471.83,167.94,471.83,167.94z"/><polygon fill="#e9805d" points="516.05 228.34 528.01 228.34 516.05 235.91"/><path fill="#e9805d" d="M551.68,186.99c2.52-6.78,7.8-2.02,7.24,1.68c-0.56,3.7-5.13,8.23-7.24,8.37V186.99z"/><path fill="#bdd6ef" d="M471.83,167.94c26.07-10.14,74.35-7.05,91.83-0.88c0,0-0.05-3.02-0.9-7.43
				c-22.3-8.19-72.62-9.79-89.65-2.06C471.59,163.53,471.83,167.94,471.83,167.94z"/><g><path fill="#653a31" d="M246.51,167.05c-10.84,21.42,18.08,50.74,32.84,56.02c14.76,5.28-11.91-72.06-11.91-72.06L246.51,167.05z"/><path fill="#efa081" d="M338.33,167.93c2.7,28.64-5.02,53.92-23.58,58.49c-11.93,2.94-20.63,1.92-20.63,1.92v7.56
				c0,5.07-4.11,9.19-9.19,9.19h0c-5.07,0-9.19-4.11-9.19-9.19v-9.73c-12.33-13.77-13.51-22.69-13.51-22.69s-11.89-40.53,0-47.01
				c11.89-6.48,62.68-5.4,62.68-5.4L338.33,167.93z"/><path fill="#653a31" d="M268.12,162.72c1.44,7.44-1.64,28.07-1.64,28.07s-7.4-12.98-12.02-14.03c-4.62-1.05-1.98-11.42-1.98-11.42
				l4.48-10.28l10.54,0.92L268.12,162.72z"/><path fill="#efa081" d="M262.4,186.48c-2.6-8.55-9.08-11.58-13.75-7.8c-6.57,5.31,0.04,28.45,13.58,24.81L262.4,186.48z"/><polygon fill="#e9805d" points="294.11 228.34 282.16 228.34 294.11 235.91"/><path fill="#e9805d" d="M258.49,186.99c-2.52-6.78-7.8-2.02-7.24,1.68c0.56,3.7,5.13,8.23,7.24,8.37V186.99z"/></g><path fill="#653a31" d="M277.91,172.93c8.14,7.74,35.06,4.87,28.12-9.9c5.68,9.17,18.22,13.38,28.29,9.51
			c7.53-2.52,11.13-10.99,4.89-16.62c-9.29-10.99-22.24-19.1-36.44-21.45C269.47,130.61,238.62,149.62,277.91,172.93z"/><g><path fill="#ffc829" d="M495.92,338.78c-7.94,12.59-22.8,20.17-64.22,20.17s-56.28-7.58-64.22-20.17
					c-7.97-12.56-1.76-58.34,44.64-105.85h39.15C497.65,280.45,503.88,326.22,495.92,338.78z"/><path fill="#64bb46" d="M495.92,338.78c-7.94,12.59-22.8,20.17-64.22,20.17s-56.28-7.58-64.22-20.17
					c-7.97-12.56-1.76-58.34,44.64-105.85h39.15C497.65,280.45,503.88,326.22,495.92,338.78z"/><path fill="#4fa346" d="M495.92,338.78c-7.93,12.61-22.81,20.18-64.22,20.18s-56.29-7.57-64.22-20.18
					c-2.47-3.91-3.6-11.03-2.54-20.42c0.43,2.9,1.21,5.24,2.27,6.94c7.19,11.71,20.67,18.76,58.22,18.76
					c37.55,0,51.03-7.06,58.22-18.76c6.9-11.14,4.61-50.4-32.38-92.37l0,0C497.65,280.45,503.89,326.22,495.92,338.78z"/><g opacity=".1"><path fill="#4fa346" d="M418.64,232.94c0,0-10.3,28.65-6.33,30.26s14.02-30.26,14.02-30.26H418.64z"/><path fill="#4fa346" d="M433.9,232.94c0,0,1.86,13.89,3.97,14.14c2.11,0.25,1.74-14.14,1.74-14.14H433.9z"/><path fill="#4fa346" d="M442.7,232.94c0,0,4.84,22.45,8.19,22.45s-1.98-22.45-1.98-22.45H442.7z"/></g><g><path fill="#ffc829" d="M412.12,232.94c0,0-22.1-19.85-17.89-25.31c4.22-5.46,17.12,2.23,21.34,2.23s12.65-7.44,19.35-6.95
					c6.7,0.5,8.42,5.04,11.91,5.71c6.45,1.24,14.22-4.17,18.36-0.99c6.45,4.96-13.91,25.31-13.91,25.31H412.12z"/><path fill="#64bb46" d="M412.12,232.94c0,0-22.1-19.85-17.89-25.31c4.22-5.46,17.12,2.23,21.34,2.23s12.65-7.44,19.35-6.95
					c6.7,0.5,8.42,5.04,11.91,5.71c6.45,1.24,14.22-4.17,18.36-0.99c6.45,4.96-13.91,25.31-13.91,25.31H412.12z"/><path fill="#4fa346" d="M451.27,232.93h-39.14c0,0,27.88-0.56,39.23-7.8c11.35-7.24,17.15-15.19,11.8-18.38
					c0.74,0.13,1.42,0.4,2.02,0.88C471.63,212.6,451.27,232.93,451.27,232.93z"/></g><path fill="#4fa346" d="M456.31,236.29h-49.23c-0.59,0-1.06-0.48-1.06-1.06v-4.57c0-0.59,0.48-1.06,1.06-1.06h49.23
				c0.59,0,1.06,0.48,1.06,1.06v4.57C457.37,235.81,456.9,236.29,456.31,236.29z"/></g><path fill="#efa081" d="M480.29,350.34c-12.76-3.11-11.85-18.61-15.49-19.98c-3.65-1.37-3.19,11.85-3.19,11.85
			s-16.29-3.83-25.09-1.3c-7.17,2.06,3.21,6.77,3.21,6.77s-10.38-4.87-14.13-0.91c-3.66,3.88,12.3,10.43,12.3,10.43
			s-8.66-3.36-8.66,1.08c0,4.44,11.39,4.44,11.39,4.44s-4.1,0.91-4.1,4.56c0,3.65,22.12,9.81,36.12,4.68
			C486.67,366.82,480.29,350.34,480.29,350.34z"/><path fill="#f0634e" d="M548.78,229.45c24.36-1.01,52.77,21.82,49.22,63.93c-3.55,42.11-28.92,86.26-41.1,89.3
			s-84.23-3.04-84.23-5.07c0-2.03,6.6-31.46,6.6-31.46s48.2-5.07,52.26-9.13c4.06-4.06,18.77-57.34,21.82-69.01
			C556.39,256.34,548.78,229.45,548.78,229.45z"/><path fill="#efa081" d="M396.86,317.49c-5.75-1.28-21.05,4.46-21.05,4.46s-4.44,5.29-11.27,13.27
			c-20.82,24.32-63.93,73.62-71.48,74.11c-10.03,0.64-35.25-17.85-42.07-46.56c0,0,31.69-26.79,35.14-26.79
			c3.44,0,7.57,9.57,7.57,9.57s37.46-22.33,47.02-31.45c9.57-9.12,20.42-13.83,20.42-13.83s5.1-8.93,23.3-8.93
			c18.18,0,18.8,17.23,21.35,21.69C408.34,317.49,402.6,318.76,396.86,317.49z"/><path fill="#ffc90d" d="M219.55,257.24c10.62-15.59,39.01-11.93,47.72,14.23c8.72,26.16,23.86,63.33,23.86,63.33l-46.35,37.17
			C244.79,371.96,190.18,300.37,219.55,257.24z"/></g></svg>