<svg xmlns="http://www.w3.org/2000/svg" enable-background="new 0 0 3000 3000" viewBox="0 0 3000 3000"><path fill="#f2ebda" d="M255.54,2480.35c-32.418,0-128.861,62.457,344.277,69.172c473.138,6.715,543.094,76.671,750.37,87.034
		c207.276,10.364,334.313-75.138,458.639-57.001c124.326,18.136,539.456,44.046,675.193,12.955
		c135.737-31.092,327.635-56.522,284.717-98.774c-42.919-42.253-378.02-75.194-569.232-84.075
		c-191.213-8.881-1469.841-21.493-1527.494-7.414C614.356,2416.325,255.54,2480.35,255.54,2480.35z" class="svgShape colordae7f2-0"/><path fill="#eadec1" d="M1043.21 2518.781c124.608 0 425.431 53.317 480.003-16.823 33.995-43.693-443.057-30.092-499.667-10.998C966.937 2510.053 1043.21 2518.781 1043.21 2518.781zM1900.836 2502.895c102.943 41.302 410.142 45.502 461.408-6.742 31.936-32.545-366.575-8.206-422.698-8.206C1882.449 2487.947 1891.232 2499.041 1900.836 2502.895z" class="svgShape colorc1d9ea-1"/><path fill="#f2ebda" d="M1649.443 2645.444c98.923 11.414 166.145-43.723 133.11-50.524C1749.519 2588.119 1598.919 2639.614 1649.443 2645.444zM827.463 2570.163c86.32 0 224.327 25.262 227.784 41.78 3.458 16.517-239.687 0-277.944-20.89C739.046 2570.163 776.939 2570.163 827.463 2570.163z" class="svgShape colordae7f2-2"/><path fill="#6e86b2" d="M2366.932,2345.837c60.885,0,110.403-49.541,110.403-110.427V1202.755
				c0-60.874-49.518-110.402-110.403-110.402H633.07c-60.888,0-110.406,49.529-110.406,110.402V2235.41
				c0,60.886,49.517,110.427,110.406,110.427H2366.932z" class="svgShape color6f6eb2-3"/><linearGradient id="a" x1="3346.521" x2="-777.928" y1="736.675" y2="2930.929" gradientUnits="userSpaceOnUse"><stop offset="0" stop-color="#ffffff" class="svgShape stopColorffffff-5"/><stop offset=".099" stop-color="#fcfaf6" class="svgShape stopColorf6f7fc-6"/><stop offset=".263" stop-color="#f4eddc" class="svgShape stopColordce3f4-7"/><stop offset=".473" stop-color="#e7d8b3" class="svgShape stopColorb3c1e7-8"/><stop offset=".719" stop-color="#799ad5" class="svgShape stopColor7993d5-9"/><stop offset=".994" stop-color="#1367ff" class="svgShape stopColor3158be-10"/><stop offset="1" stop-color="#2f62bd" class="svgShape stopColor2f57bd-11"/></linearGradient><path fill="url(#a)" d="M565.686,1202.847v1032.561c0,37.26,30.234,67.301,67.302,67.301h1733.873
				c37.261,0,67.497-30.041,67.497-67.301V1202.847c0-37.258-30.236-67.498-67.497-67.498H632.988
				C595.92,1135.349,565.686,1165.589,565.686,1202.847z" class="svgShape colorgradient-12"/><path fill="#20342c" d="M776.955,1169.487l10.922,956.091c0.588,57.548,49.747,102.027,109.638,99.1
			l1536.844-72.572v-949.259c0-37.258-30.236-67.498-67.497-67.498h-97.348L776.955,1169.487z" opacity=".2" class="svgShape color202234-13"/><path fill="#eadec1" fill-rule="evenodd" d="M1790.683,649.781l-2.992-29.485h5.594
		c4.435,0,8.502-3,9.339-7.356c1.125-5.863-3.34-10.989-8.998-10.989h-6.591v-46.789l-11.137-11.137v57.927h-6.688
		c-4.967,0-9.419,3.72-9.678,8.68c-0.277,5.29,3.929,9.665,9.158,9.665h7.798l3.712,36.625l2.685,1.376
		c5.397,2.707,20.903,12.667,21.253,22.582c0.151,5.375-4.37,10.986-13.454,16.447c-14.196,8.518-18.214,6.267-18.868,5.679
		c-3.417-2.788-2.216-15.235,1.019-26.515c0.926-3.222-1.127-6.62-4.644-7.117c-2.782-0.393-5.403,1.518-6.175,4.219
		c-3,10.494-6.948,30.132,2.744,38.084c2.839,2.314,6.18,3.188,9.611,3.188c8.733,0,18.192-5.678,22.055-7.994
		c12.888-7.73,19.221-16.597,18.85-26.425C1814.706,665.069,1797.737,653.864,1790.683,649.781z" clip-rule="evenodd" class="svgShape colorc1d9ea-14"/><path fill="#eadec1" fill-rule="evenodd" d="M1235.961,522.522l539.936,0.624v74.625h11.137v-74.625
		c6.19,0,11.206-5.017,11.206-11.206v-55.978c0-7.792-5.786-14.371-13.514-15.367l-679.737-87.589l-373.198,89.332
		c-6.632,1.588-11.309,7.517-11.309,14.336v51.697c0,8.155,6.62,14.76,14.775,14.742l18.704-0.043v29.225
		c0,20.332,16.544,36.875,36.875,36.875c0.583,0,1.168-0.015,1.766-0.045c19.688-0.928,35.108-17.367,35.108-37.444v-28.78
		l165.899-0.379l-65.802,1024.444h-27.245v88.743h425.035v-88.743h-23.836L1235.961,522.522z M1764.694,471.035v18.566
		l-531.457-3.483l-4.3-77.108L1764.694,471.035z M1229.27,1098.443l-1.366,2.326l-105.849-161.917l88.226-136.055L1229.27,1098.443z
		 M1203.548,788.083l-90.027,137.714l-90.025-137.714l90.025-126.435L1203.548,788.083z M1036.636,532.708l0.655-10.185h154.987
		l0.446,6.955l-79.203,110.416L1036.636,532.708z M1219.394,1115.28l-105.873,180.536l-105.868-180.536l105.868-163.268
		L1219.394,1115.28z M1121.297,650.731l72.661-102.047l14.345,223.342L1121.297,650.731z M1054.204,484.489l66.899-31.714
		l36.352,15.268l39.224,16.446H1054.204z M1193.574,466.289l-55.56-21.53l51.495-24.411L1193.574,466.289z M1106.568,394.879
		l72.244,9.594l-61.885,29.104l-64.73-27.189L1106.568,394.879z M1036.024,417.091l25.116,10.612l21.273,8.825l14.919,6.265
		l-61.308,28.833V417.091z M1035.402,551.936l70.348,98.795l-84.234,117.431L1035.402,551.936z M1104.989,938.852l-104.73,160.204
		l18.801-292.717L1104.989,938.852z M806.219,552.082c0,8.275-6.372,15.405-14.637,15.793c-8.833,0.421-16.13-6.625-16.13-15.362
		v-14.354h30.767V552.082z M753.961,484.489v-14.852l248.519-52.698v67.551H753.961z M998.259,1130.228l105.703,181.892
		l-131.825,224.791L998.259,1130.228z M986.602,1546.966l126.919-218.398l126.923,218.398H986.602z M1123.082,1312.12
		l107.978-185.803l26.685,415.426L1123.082,1312.12z" clip-rule="evenodd" class="svgShape colorc1d9ea-15"/><polygon fill="#eadec1" fill-rule="evenodd" points="1258.037 1337.484 1258.077 1337.439 1258.079 1337.484" clip-rule="evenodd" class="svgShape colorc1d9ea-16"/><path fill="#6e86b2" d="M661.553,1071.044l2.989,59.003l1857.794-88.074l-2.99-59.003c-2.865-56.628-52.86-100.235-111.659-97.451
			L762.771,963.52C703.974,966.304,658.687,1014.456,661.553,1071.044z" class="svgShape color6f6eb2-17"/><path fill="#f9f7f2" d="M664.543,1130.046l49.258,968.862l2.988,59.003c2.866,56.628,52.862,100.235,111.659,97.451
			l1644.917-78.002c58.798-2.784,104.084-50.937,101.218-107.524l-2.989-59.002l-49.258-968.861L664.543,1130.046z" class="svgShape colorf2f4f9-18"/><path fill="#eadec1" d="M2473.37,2177.349l-1644.921,78.017c-58.788,2.782-108.785-40.828-111.669-97.452
			l-2.988-58.994l-49.241-968.863l138.487-6.558c-0.961,249.71,2.678,902.486,67.098,972.777
			c79.803,87.151,1437.756-1.58,1491.221-45.293c43.336-35.437,12.98-736.974-0.069-1001.381l161.049-7.623l49.241,968.862
			l3.022,58.993C2577.45,2126.425,2532.157,2174.568,2473.37,2177.349z" opacity=".5" class="svgShape colorc1d9ea-19"/><path fill="#fec332" d="M1753.862,1494.258l-130.038-225.231c-14.198-24.591-49.691-24.591-63.889,0l-130.036,225.231
					c-14.198,24.589,3.549,55.328,31.943,55.328h260.074C1750.312,1549.586,1768.058,1518.847,1753.862,1494.258z" class="svgShape colorfeaa32-20"/><path fill="#d8a425" d="M1616.437 1457.728l50.392-150.245c4.627-13.795-3.435-28.637-17.521-32.292-.232-.06-.462-.121-.692-.18-14.064-3.654-28.245 5.363-30.947 19.641l-29.542 156.047L1616.437 1457.728zM1597.504 1472.308c-11.751-2.918-24.287 4.176-27.339 16.459-2.917 11.752 4.843 23.887 16.594 26.805 12.284 3.05 24.821-4.042 27.739-15.795C1617.549 1487.494 1609.789 1475.358 1597.504 1472.308z" class="svgShape colord88225-21"/><path fill="#6e86b2" d="M1220.628 1799.087c-6.726 0-12.584-1.092-17.572-3.27-4.989-2.18-8.851-5.543-11.584-10.089-2.737-4.544-4.103-10.325-4.103-17.349v-45.228c0-.814.261-1.478.776-1.997.519-.514 1.185-.776 1.999-.776h14.3c.81 0 1.497.261 2.049.776.552.519.831 1.183.831 1.997v45.119c0 4.805 1.147 8.406 3.437 10.808 2.29 2.402 5.541 3.604 9.754 3.604 4.141 0 7.376-1.202 9.703-3.604 2.328-2.402 3.492-6.003 3.492-10.808v-45.119c0-.814.274-1.478.831-1.997.552-.514 1.197-.776 1.94-.776h14.41c.738 0 1.388.261 1.94.776.557.519.831 1.183.831 1.997v45.228c0 7.024-1.366 12.805-4.099 17.349-2.737 4.546-6.579 7.909-11.53 10.089C1233.081 1797.994 1227.279 1799.087 1220.628 1799.087zM1271.174 1797.978c-.814 0-1.476-.276-1.995-.831-.519-.555-.776-1.202-.776-1.94v-72.057c0-.814.258-1.478.776-1.997.519-.514 1.181-.776 1.995-.776h11.753c1.257 0 2.159.278 2.716.833.552.555.902.981 1.055 1.274l27.048 42.569v-41.903c0-.814.257-1.478.776-1.997.514-.514 1.181-.776 1.995-.776h13.301c.814 0 1.48.261 1.999.776.514.519.776 1.183.776 1.997v71.945c0 .814-.261 1.497-.776 2.052-.519.554-1.185.831-1.999.831h-11.859c-1.185 0-2.054-.295-2.606-.888-.552-.591-.907-.998-1.055-1.219l-27.048-41.017v40.353c0 .738-.261 1.385-.776 1.94-.519.554-1.185.831-1.995.831H1271.174zM1350.88 1797.978c-.814 0-1.476-.276-1.995-.831-.519-.555-.776-1.202-.776-1.94v-72.057c0-.814.257-1.478.776-1.997.519-.514 1.181-.776 1.995-.776h28.823c7.241 0 13.415 1.164 18.513 3.492 5.099 2.33 9.016 5.729 11.753 10.199 2.733 4.472 4.213 9.997 4.432 16.573.072 3.254.11 6.098.11 8.537 0 2.438-.038 5.248-.11 8.424-.295 6.874-1.754 12.565-4.377 17.073-2.627 4.508-6.431 7.854-11.42 10.032-4.989 2.18-11.103 3.27-18.344 3.27H1350.88zM1368.065 1782.014h11.639c3.176 0 5.82-.498 7.928-1.497 2.104-.997 3.694-2.566 4.766-4.71 1.071-2.142 1.645-4.951 1.72-8.426.143-2.142.236-4.063.274-5.765.038-1.699.038-3.397 0-5.099-.038-1.699-.13-3.584-.274-5.653-.152-5.027-1.463-8.704-3.939-11.032-2.475-2.328-6.153-3.492-11.027-3.492h-11.087V1782.014zM1430.253 1797.978c-.814 0-1.476-.276-1.994-.831-.519-.555-.776-1.202-.776-1.94v-72.057c0-.814.257-1.478.776-1.997.519-.514 1.181-.776 1.994-.776h51.773c.81 0 1.476.261 1.995.776.514.519.776 1.183.776 1.997v10.42c0 .814-.261 1.478-.776 1.995-.519.519-1.185.776-1.995.776h-35.364v14.966h32.922c.814 0 1.48.276 1.995.831.518.555.78 1.238.78 2.051v9.644c0 .74-.262 1.386-.78 1.94-.514.554-1.181.831-1.995.831h-32.922v15.409h36.25c.814 0 1.476.259 1.994.776.519.519.776 1.183.776 1.997v10.42c0 .738-.257 1.385-.776 1.94-.519.554-1.181.831-1.994.831H1430.253zM1501.087 1797.978c-.814 0-1.476-.276-1.995-.831-.518-.555-.776-1.202-.776-1.94v-72.057c0-.814.258-1.478.776-1.997.519-.514 1.181-.776 1.995-.776h30.156c9.607 0 17.142 2.201 22.612 6.597 5.47 4.396 8.207 10.625 8.207 18.677 0 5.25-1.261 9.684-3.77 13.305-2.513 3.62-5.841 6.355-9.977 8.202l15.186 27.272c.224.443.333.85.333 1.219 0 .592-.24 1.128-.721 1.607-.481.483-1.016.721-1.607.721h-14.743c-1.404 0-2.437-.35-3.104-1.052-.667-.702-1.147-1.349-1.443-1.942l-12.638-24.387h-11.306v24.61c0 .738-.278 1.385-.831 1.94-.557.554-1.24.831-2.054.831H1501.087zM1518.272 1754.854h12.748c3.475 0 6.077-.847 7.814-2.549 1.738-1.699 2.606-3.991 2.606-6.874 0-2.882-.831-5.21-2.492-6.983-1.666-1.773-4.31-2.661-7.928-2.661h-12.748V1754.854zM1601.301 1797.978c-.814 0-1.476-.276-1.995-.831-.519-.555-.776-1.202-.776-1.94v-72.057c0-.814.257-1.478.776-1.997.519-.514 1.181-.776 1.995-.776h30.156c9.606 0 17.142 2.201 22.612 6.597 5.469 4.396 8.207 10.625 8.207 18.677 0 5.25-1.261 9.684-3.77 13.305-2.514 3.62-5.841 6.355-9.978 8.202l15.186 27.272c.224.443.333.85.333 1.219 0 .592-.24 1.128-.721 1.607-.481.483-1.016.721-1.607.721h-14.743c-1.404 0-2.437-.35-3.104-1.052-.666-.702-1.147-1.349-1.442-1.942l-12.638-24.387h-11.306v24.61c0 .738-.279 1.385-.831 1.94-.557.554-1.24.831-2.054.831H1601.301zM1618.486 1754.854h12.748c3.475 0 6.077-.847 7.814-2.549 1.738-1.699 2.606-3.991 2.606-6.874 0-2.882-.831-5.21-2.492-6.983-1.666-1.773-4.31-2.661-7.928-2.661h-12.748V1754.854zM1677.904 1797.978c-.814 0-1.476-.276-1.994-.831-.519-.555-.776-1.202-.776-1.94v-72.057c0-.814.257-1.478.776-1.997.518-.514 1.181-.776 1.994-.776h51.773c.81 0 1.476.261 1.995.776.514.519.776 1.183.776 1.997v10.42c0 .814-.261 1.478-.776 1.995-.519.519-1.185.776-1.995.776h-35.364v14.966h32.922c.814 0 1.48.276 1.995.831.519.555.78 1.238.78 2.051v9.644c0 .74-.262 1.386-.78 1.94-.514.554-1.181.831-1.995.831h-32.922v15.409h36.25c.814 0 1.476.259 1.994.776.519.519.776 1.183.776 1.997v10.42c0 .738-.257 1.385-.776 1.94-.519.554-1.181.831-1.994.831H1677.904zM1748.738 1797.978c-.814 0-1.476-.276-1.995-.831-.519-.555-.776-1.202-.776-1.94v-72.057c0-.814.258-1.478.776-1.997.519-.514 1.181-.776 1.995-.776h31.042c6.131 0 11.475.943 16.016 2.827 4.546 1.885 8.093 4.711 10.644 8.481s3.825 8.535 3.825 14.3c0 5.693-1.274 10.384-3.825 14.078-2.551 3.696-6.098 6.431-10.644 8.205-4.542 1.773-9.885 2.661-16.016 2.661h-13.191v24.277c0 .738-.278 1.385-.835 1.94-.552.554-1.235.831-2.05.831H1748.738zM1766.255 1755.63h12.968c3.179 0 5.71-.812 7.595-2.437 1.885-1.626 2.826-4.103 2.826-7.428 0-2.809-.814-5.172-2.438-7.095-1.628-1.921-4.284-2.882-7.983-2.882h-12.968V1755.63zM1811.154 1797.978c-.595 0-1.13-.238-1.611-.721-.481-.479-.717-1.014-.717-1.607 0-.369.034-.702.11-.998l26.049-71.171c.224-.812.683-1.533 1.387-2.161.7-.626 1.678-.943 2.939-.943h16.404c1.257 0 2.235.316 2.939.943.7.628 1.164 1.349 1.383 2.161l25.943 71.171c.148.295.219.628.219.998 0 .592-.24 1.128-.721 1.607-.481.483-1.05.721-1.716.721h-13.634c-1.109 0-1.94-.276-2.496-.831-.552-.555-.907-1.054-1.055-1.497l-4.322-11.308h-29.599l-4.213 11.308c-.148.443-.481.943-.995 1.497-.519.554-1.405.831-2.661.831H1811.154zM1837.203 1768.378h20.622l-10.311-29.264L1837.203 1768.378zM1897.73 1797.978c-.814 0-1.476-.276-1.995-.831-.519-.555-.776-1.202-.776-1.94v-72.057c0-.814.257-1.478.776-1.997.519-.514 1.181-.776 1.995-.776h14.857c.814 0 1.497.261 2.049.776.557.519.831 1.183.831 1.997v72.057c0 .738-.274 1.385-.831 1.94-.552.554-1.235.831-2.049.831H1897.73zM1933.647 1797.978c-.814 0-1.476-.276-1.995-.831-.519-.555-.776-1.202-.776-1.94v-72.057c0-.814.257-1.478.776-1.997.519-.514 1.181-.776 1.995-.776h30.156c9.606 0 17.142 2.201 22.612 6.597 5.469 4.396 8.206 10.625 8.206 18.677 0 5.25-1.261 9.684-3.77 13.305-2.513 3.62-5.841 6.355-9.977 8.202l15.186 27.272c.224.443.333.85.333 1.219 0 .592-.24 1.128-.721 1.607-.481.483-1.016.721-1.607.721h-14.743c-1.404 0-2.437-.35-3.104-1.052-.667-.702-1.147-1.349-1.442-1.942l-12.639-24.387h-11.306v24.61c0 .738-.278 1.385-.831 1.94-.557.554-1.24.831-2.054.831H1933.647zM1950.831 1754.854h12.748c3.475 0 6.077-.847 7.814-2.549 1.737-1.699 2.606-3.991 2.606-6.874 0-2.882-.831-5.21-2.492-6.983-1.666-1.773-4.31-2.661-7.928-2.661h-12.748V1754.854z" class="svgShape color6f6eb2-22"/><g><path fill="#6e86b2" d="M1423.108 1684.608c-.574 0-1.042-.196-1.409-.588-.367-.39-.548-.848-.548-1.37v-40.568h-13.941c-.573 0-1.046-.196-1.409-.586-.367-.392-.548-.85-.548-1.37v-8.381c0-.573.181-1.044.548-1.409.363-.365.835-.548 1.409-.548h42.137c.573 0 1.042.183 1.408.548.367.365.548.835.548 1.409v8.381c0 .521-.181.978-.548 1.37-.367.39-.835.586-1.408.586h-13.942v40.568c0 .523-.181.98-.548 1.37-.367.392-.835.588-1.409.588H1423.108zM1460.387 1684.608c-.573 0-1.046-.181-1.409-.548-.367-.365-.548-.835-.548-1.411v-50.906c0-.573.181-1.044.548-1.409.363-.365.835-.548 1.409-.548h10.104c.573 0 1.058.183 1.45.548.388.365.586.835.586 1.409v18.876h19.268v-18.876c0-.573.181-1.044.548-1.409.363-.365.831-.548 1.408-.548h10.104c.573 0 1.042.183 1.409.548.363.365.548.835.548 1.409v50.906c0 .523-.186.98-.548 1.37-.367.392-.835.588-1.409.588h-10.104c-.578 0-1.046-.196-1.408-.588-.367-.39-.548-.848-.548-1.37v-19.5h-19.268v19.5c0 .523-.198.98-.586 1.37-.392.392-.877.588-1.45.588H1460.387zM1518.734 1684.608c-.573 0-1.046-.196-1.409-.588-.367-.39-.548-.848-.548-1.37v-50.906c0-.573.181-1.044.548-1.409.363-.365.835-.548 1.409-.548h10.496c.573 0 1.058.183 1.446.548.392.365.59.835.59 1.409v50.906c0 .523-.198.98-.59 1.37-.388.392-.873.588-1.446.588H1518.734zM1562.591 1685.391c-5.22 0-9.556-.742-13.001-2.231-3.445-1.489-6.056-3.433-7.831-5.834-1.775-2.402-2.716-4.961-2.817-7.675 0-.417.169-.797.506-1.137.342-.339.746-.508 1.214-.508h9.868c.73 0 1.295.13 1.683.39.392.264.746.601 1.059 1.018.417.785 1.003 1.542 1.763 2.271.755.731 1.763 1.32 3.015 1.763 1.252.445 2.766.666 4.542.666 3.028 0 5.314-.47 6.853-1.411 1.539-.94 2.311-2.218 2.311-3.837 0-1.2-.417-2.165-1.252-2.897-.835-.732-2.18-1.396-4.032-1.997-1.855-.601-4.322-1.214-7.405-1.841-3.968-.835-7.346-1.919-10.142-3.251-2.792-1.331-4.921-3.078-6.38-5.246-1.463-2.166-2.193-4.869-2.193-8.107 0-3.184.898-6.031 2.703-8.536 1.801-2.507 4.318-4.464 7.557-5.874 3.235-1.409 7.072-2.115 11.513-2.115 3.601 0 6.773.47 9.514 1.411 2.741.94 5.052 2.193 6.933 3.76 1.881 1.567 3.302 3.224 4.268 4.972.966 1.75 1.476 3.46 1.527 5.13 0 .42-.143.797-.43 1.137s-.692.508-1.215.508h-10.336c-.578 0-1.071-.103-1.489-.312s-.784-.548-1.096-1.019c-.312-1.149-1.135-2.155-2.467-3.015-1.333-.862-3.07-1.292-5.208-1.292-2.298 0-4.086.405-5.364 1.215-1.282.81-1.919 2.05-1.919 3.719 0 1.046.35 1.957 1.054 2.741.704.783 1.881 1.461 3.526 2.037 1.645.573 3.901 1.174 6.777 1.801 4.748.888 8.586 1.997 11.513 3.329 2.922 1.33 5.077 3.053 6.46 5.168s2.075 4.765 2.075 7.949c0 3.551-1.021 6.606-3.053 9.164-2.037 2.558-4.82 4.529-8.342 5.912C1571.325 1684.699 1567.238 1685.391 1562.591 1685.391zM1631.194 1685.391c-5.22 0-9.556-.742-13.001-2.231-3.445-1.489-6.056-3.433-7.831-5.834-1.775-2.402-2.716-4.961-2.817-7.675 0-.417.169-.797.506-1.137.342-.339.747-.508 1.215-.508h9.868c.73 0 1.295.13 1.683.39.392.264.747.601 1.059 1.018.417.785 1.003 1.542 1.763 2.271.755.731 1.763 1.32 3.015 1.763 1.252.445 2.766.666 4.542.666 3.028 0 5.314-.47 6.853-1.411 1.539-.94 2.311-2.218 2.311-3.837 0-1.2-.417-2.165-1.252-2.897s-2.18-1.396-4.032-1.997c-1.855-.601-4.322-1.214-7.405-1.841-3.968-.835-7.346-1.919-10.142-3.251-2.792-1.331-4.921-3.078-6.38-5.246-1.463-2.166-2.193-4.869-2.193-8.107 0-3.184.898-6.031 2.703-8.536 1.801-2.507 4.318-4.464 7.557-5.874 3.235-1.409 7.072-2.115 11.513-2.115 3.601 0 6.773.47 9.513 1.411 2.741.94 5.052 2.193 6.933 3.76 1.881 1.567 3.302 3.224 4.268 4.972.966 1.75 1.476 3.46 1.527 5.13 0 .42-.144.797-.43 1.137s-.692.508-1.214.508h-10.336c-.578 0-1.071-.103-1.489-.312-.417-.209-.784-.548-1.096-1.019-.312-1.149-1.135-2.155-2.467-3.015-1.333-.862-3.07-1.292-5.208-1.292-2.298 0-4.086.405-5.364 1.215-1.282.81-1.919 2.05-1.919 3.719 0 1.046.35 1.957 1.054 2.741.704.783 1.881 1.461 3.526 2.037 1.644.573 3.901 1.174 6.777 1.801 4.748.888 8.586 1.997 11.513 3.329 2.922 1.33 5.077 3.053 6.46 5.168 1.383 2.115 2.075 4.765 2.075 7.949 0 3.551-1.021 6.606-3.053 9.164-2.037 2.558-4.82 4.529-8.341 5.912C1639.927 1684.699 1635.841 1685.391 1631.194 1685.391zM1664.635 1684.608c-.573 0-1.046-.196-1.409-.588-.367-.39-.548-.848-.548-1.37v-50.906c0-.573.181-1.044.548-1.409.363-.365.835-.548 1.409-.548h10.496c.573 0 1.058.183 1.446.548.392.365.59.835.59 1.409v50.906c0 .523-.198.98-.59 1.37-.388.392-.873.588-1.446.588H1664.635zM1702.07 1684.608c-.573 0-1.042-.196-1.408-.588-.367-.39-.548-.848-.548-1.37v-40.568h-13.941c-.573 0-1.046-.196-1.409-.586-.367-.392-.548-.85-.548-1.37v-8.381c0-.573.181-1.044.548-1.409.363-.365.835-.548 1.409-.548h42.137c.573 0 1.042.183 1.408.548.367.365.548.835.548 1.409v8.381c0 .521-.181.978-.548 1.37-.367.39-.835.586-1.408.586h-13.942v40.568c0 .523-.181.98-.548 1.37-.367.392-.835.588-1.409.588H1702.07zM1739.349 1684.608c-.573 0-1.046-.196-1.409-.588-.367-.39-.548-.848-.548-1.37v-50.906c0-.573.181-1.044.548-1.409.363-.365.835-.548 1.409-.548h36.574c.573 0 1.046.183 1.413.548.363.365.548.835.548 1.409v7.363c0 .573-.186 1.044-.548 1.409-.367.367-.839.548-1.413.548h-24.982v10.574h23.261c.574 0 1.042.196 1.409.586.363.392.548.875.548 1.448v6.815c0 .523-.186.978-.548 1.37-.367.392-.835.586-1.409.586h-23.261v10.886h25.61c.573 0 1.042.183 1.409.548.367.367.548.837.548 1.41v7.361c0 .523-.181.98-.548 1.37-.367.392-.835.588-1.409.588H1739.349z" class="svgShape color6f6eb2-24"/></g><polygon fill="#ffffff" points="1884.841 910.322 1817.022 1075.422 1342.36 2230.983 937.2 2250.213 1411.862 1094.617 1411.896 1094.617 1479.68 929.517" opacity=".2" class="svgShape colorffffff-25"/><polygon fill="#ffffff" points="2143.342 898.063 2075.523 1063.163 1600.861 2218.724 1392.151 2228.614 1866.813 1073.052 1934.632 907.953" opacity=".2" class="svgShape colorffffff-26"/><path fill="#008d53" d="M1013.002,1019.49c1.102,0,2.22-0.295,3.225-0.918l757.707-314.895l294.77,243.107
		c0.5,3.357,3.639,5.67,6.98,5.169c3.355-0.5,5.67-3.625,5.168-6.98l-288.49-242.735c0,0-8.691-5.407-11.997-5.867
		c-9.182-1.277-15.409,2.314-15.409,2.314l-755.192,309.438c-2.885,1.786-3.777,5.57-1.994,8.455
		C1008.936,1018.456,1010.946,1019.49,1013.002,1019.49z" class="svgShape color0f4c86-27"/><path fill="#1c5940" fill-rule="evenodd" d="M1790.682,697.332c1.38-0.828,2.62-1.661,3.789-2.495
		c3.136,2.27,6.295,4.509,9.446,6.76c-2.202,1.808-4.665,3.573-7.501,5.275c-3.849,2.292-13.308,7.984-22.03,7.984
		c-3.357,0-6.592-0.818-9.376-2.988l8.926-8.189C1776.352,703.882,1781.307,702.941,1790.682,697.332z" clip-rule="evenodd" class="svgShape color1c2959-28"/><g><path fill="#008d53" fill-rule="evenodd" d="M2047.763,956.805
			c0,14.303,11.597,25.899,25.899,25.899s25.896-11.596,25.896-25.899c0-14.299-11.594-25.895-25.896-25.895
			S2047.763,942.506,2047.763,956.805z" clip-rule="evenodd" opacity=".25" class="svgShape color0f4c86-30"/><path fill="#008d53" fill-rule="evenodd" d="M2053.373,949.902c0,14.302,11.596,25.895,25.898,25.895
			c14.302,0,25.896-11.593,25.896-25.895c0-14.305-11.594-25.899-25.896-25.899C2064.969,924.003,2053.373,935.597,2053.373,949.902
			z" clip-rule="evenodd" class="svgShape color0f4c86-31"/></g><g><path fill="#008d53" fill-rule="evenodd" d="M985.979,1020.257
			c0,14.302,11.594,25.896,25.896,25.896c14.302,0,25.899-11.594,25.899-25.896c0-14.305-11.597-25.899-25.899-25.899
			C997.573,994.358,985.979,1005.952,985.979,1020.257z" clip-rule="evenodd" opacity=".25" class="svgShape color0f4c86-33"/><path fill="#008d53" fill-rule="evenodd" d="M991.589,1013.348c0,14.302,11.594,25.898,25.896,25.898
			c14.305,0,25.899-11.596,25.899-25.898s-11.594-25.896-25.899-25.896C1003.183,987.452,991.589,999.046,991.589,1013.348z" clip-rule="evenodd" class="svgShape color0f4c86-34"/></g><g><path fill="#6e86b2" d="M2361.351,1488.502c48.982,12.277,87.619,32.678,92.57,41.278c0,0,21.526-65.412,21.435-169.493
		C2475.355,1360.287,2404.678,1430.661,2361.351,1488.502z" class="svgShape color6f6eb2-36"/><path fill="#d7c28e" d="M2449.858,1523.001c-2.13,2.13-28.554,119.256-60.944,116.644c-66.944-5.399-57.765-160.137-57.765-160.137
		s-16.96-39.43-10.702-37.921c2.645,0.638,26.176,15.282,52.462,31.978c2.438,1.549-1.701,23.513,0.77,25.087
		C2407.597,1520.261,2449.858,1523.001,2449.858,1523.001z" class="svgShape colord7a28e-37"/><path fill="#c4ae7a" d="M2402.618,1464.246c-2.892,2.893-23.54,99.851-25.699,95.245c-2.159-4.606,18.588-89.686,18.427-92.48
		C2395.185,1464.217,2402.618,1464.246,2402.618,1464.246z" class="svgShape colorc48c7a-38"/><path fill="#008d53" d="M2362.781 1477.49c-3.445 1.169-6.577 13.873-6.645 19.36-.068 5.487 11.718 3.02 30.683 7.861 18.965 4.841 54.962 47.04 58.445 45.513 3.482-1.526 9.544-21.923 9.544-21.923C2434.196 1487.902 2366.225 1476.322 2362.781 1477.49zM2444.646 1385.173c1.703 1.842 4.439 3.932 4.414 4.558-.025.625-36.026 45.559-38.343 46.094-2.317.535-13.202-4.067-11.571-8.387C2400.777 1423.117 2444.646 1385.173 2444.646 1385.173z" class="svgShape color0f4c86-39"/><polygon fill="#d7c28e" points="2458.249 2395.665 2459.133 2466.604 2501.005 2467.885 2508.188 2395.832" class="svgShape colord7a28e-40"/><path fill="#008d53" d="M2501.769,2445.771c-16.254,13.835-42.028,4.529-43.049-9.014
					c-0.818-10.858-15.955,11.635-31.293,33.037c-10.123,14.123-73.16,13.867-62.1,45.988c6.435,18.69,116.016,1.169,142.028-19.743
					C2512.212,2492.135,2511.221,2437.643,2501.769,2445.771z" class="svgShape color0f4c86-41"/><path fill="#1c5940" d="M2507.369,2496.038c-26.039,20.912-135.597,38.427-142.041,19.734c-0.752-2.149-1.156-4.149-1.265-6.034
					c56.746,17.769,129.542-12.608,134.927-22.807c3.527-6.648,4.88-27.398,5.422-41.801
					C2511.35,2448.296,2511.712,2492.526,2507.369,2496.038z" class="svgShape color1c2959-42"/><path fill="#3f9c76" d="M2415.959,1744.813h185.285l-89.404,677.867c0,0-20.328,24.903-62.122-1.65L2415.959,1744.813z" class="svgShape color3f5d9c-43"/><path fill="#008d53" d="M2504.851 2053.16c-14.194-13.791-77.013-14.139-54.755-3.468C2472.355 2060.364 2511.604 2059.721 2504.851 2053.16zM2493.802 2063.657c-24.11-3.285-48.752 11.265-33.915 13.768C2474.725 2079.929 2502.987 2064.909 2493.802 2063.657zM2601.23 1744.82l-46.338 351.462c-9.346-88.45-53.042-271.273-72.846-351.462H2601.23z" opacity=".5" class="svgShape color0f4c86-44"/><polygon fill="#d7c28e" points="2650 2399.828 2658.333 2470.282 2700.107 2467.158 2699.682 2394.749" class="svgShape colord7a28e-45"/><path fill="#008d53" d="M2698.544,2445.086c-14.71,15.466-41.32,8.919-43.757-4.442c-1.954-10.711-14.645,13.247-27.649,36.141
					c-8.583,15.108-71.299,21.475-56.926,52.257c8.363,17.911,115.497-11.024,139.168-34.553
					C2713.8,2490.097,2707.09,2436.01,2698.544,2445.086z" class="svgShape color0f4c86-46"/><path fill="#1c5940" d="M2709.393,2494.487c-23.698,23.531-130.81,52.458-139.182,34.545c-0.974-2.058-1.585-4.005-1.892-5.868
					c58.298,11.709,127.501-26.146,131.784-36.854c2.809-6.981,1.975-27.759,1.001-42.139
					C2708.337,2446.591,2713.343,2490.537,2709.393,2494.487z" class="svgShape color1c2959-47"/><path fill="#3f9c76" d="M2502.799,1764.878l182.903-29.616l20.097,683.442c0,0-24.525,19.308-62.075,10.85L2502.799,1764.878z" class="svgShape color3f5d9c-48"/><path fill="#008d53" d="M2705.813 2418.706c0 0-7.538 8.233-23.197 10.848 18.33-170.335-30.067-564.965-45.977-686.347l49.065-7.955L2705.813 2418.706zM2587.455 2059.359c11.437-16.151 73.137-27.964 53.201-13.407C2620.72 2060.508 2582.013 2067.043 2587.455 2059.359zM2600.235 2067.663c23.105-7.633 49.989 2.173 35.858 7.344C2621.962 2080.177 2591.433 2070.571 2600.235 2067.663z" opacity=".5" class="svgShape color0f4c86-49"/><path fill="#6e86b2" d="M2412.055,1756.335c23.198,23.198,276.348,6.199,288.052-8.429s-79.357-388.421-87.23-393.444
		c-7.873-5.022-79.71-33.696-142.395,10.559C2443.125,1378.853,2412.055,1756.335,2412.055,1756.335z" class="svgShape color6f6eb2-50"/><path fill="#3f9c76" d="M2700.112,1747.919c-11.71,14.603-264.848,31.625-288.045,8.428
		c0,0,31.069-377.496,58.41-391.32c9.206-6.509,18.635-11.432,28.009-15.075c0.917,19.721,3.699,64.919,10.125,74.625
		c8.26,12.516,21.612,11.293,21.612,11.293s51.572-0.003,53.125-91.398c15.771,3.393,26.729,8.205,29.539,9.985
		C2620.758,1359.492,2711.822,1733.289,2700.112,1747.919z" opacity=".5" class="svgShape color3f5d9c-51"/><path fill="#1c5940" d="M2463.68,1205.912c0,0-11.393,12.736-7.411,24.027c3.981,11.29,67.823,25.251,67.823,25.251
							l9.941,47.795c0,0,10.593,8.721,14.463-7.454c0,0,13.094-0.44,8.716-22.644c0,0,6.316-8.399,10.013-25.214
							c-1.413-5.227,0.893-13.148-4.999-24.367C2556.335,1212.088,2494.098,1195.781,2463.68,1205.912z" class="svgShape color1c2959-52"/><path fill="#d7c28e" d="M2510.252,1279.624l-5.031,70.705c0,0,36.379,16.114,50.029-15.292l-12.39-68.029L2510.252,1279.624z" class="svgShape colord7a28e-53"/><path fill="#ceb884" d="M2533.699,1293.88c0,0,0.063,46.23-28.502,53.771l3.11-37.011L2533.699,1293.88z" class="svgShape colorce9784-54"/><path fill="#d7c28e" d="M2544.916,1231.274c-0.17,3.883-1.008,43.847-1.008,43.847l0.001,0.025
										c-6.867,26.48-24.07,47.576-53.091,45.114c-29.627-2.494-40.331-54.737-30.273-104.529
										c25.083-11.959,65.885,7.221,65.885,7.221C2530.373,1235.011,2538.669,1248.383,2544.916,1231.274z" class="svgShape colord7a28e-55"/><path fill="#1c5940" d="M2535.486,1226.497c0,0-4.237,45.314-9.844,57.328c-5.606,12.012-5.606,2.402-23.625-2.003
										c-18.02-4.405-44.047,0-39.642,12.013c4.404,12.012,7.607,31.633,40.442,30.031c32.834-1.602,42.044-56.86,42.044-56.86
										l0.386-34.593L2535.486,1226.497z" class="svgShape color1c2959-56"/><path fill="#008d53" d="M2554.436,1331.155c0,0-12.597,20.201-32.171,18.094c-16.016-1.726-16.235-10.84-16.235-10.84
				s-3.511,7.756-4.461,9.93c0.334,3.256,2.071,18.078,22.287,17.289c30.901-1.207,40.908-23.272,40.908-23.272L2554.436,1331.155z" class="svgShape color0f4c86-57"/><path fill="#eda800" d="M2573.208,1239.357c0,0,13.493-61.138-26.454-74.029c-39.945-12.891-68.89,3.172-68.89,3.172
				l-20.428,28.157C2457.436,1196.657,2539.842,1211.973,2573.208,1239.357z" class="svgShape coloreb962c-58"/><path fill="#d8a425" d="M2573.238,1239.387c-33.406-27.398-115.799-42.725-115.799-42.725l20.442-28.16
				c0,0,13.298-7.387,34.323-8.136c-18.808,11.201-26.566,32.342-19.951,35.841c9.407,5.017,64.818,22.988,72.312,15.352
				c5.624-5.601,2.361-23.217,0.464-33.276C2581.77,1200.55,2573.238,1239.387,2573.238,1239.387z" opacity=".5" class="svgShape colord88225-59"/><path fill="#eda800" d="M2518.19,1198.368c0,0,8.123-28.57,26.471-33.665c0,0-24.579-8.211-46.834-3.829
				c-18.913,3.724-29.38,33.09-29.38,33.09L2518.19,1198.368z" class="svgShape coloreb962c-60"/><path fill="#d8a425" d="M2481.396,1181.151l36.296,3.938c0,0,12.493-26.492,28.915-19.643l-9.04-11.609l-24.429-2.56
				l-18.543,9.528l-13.08,17.928L2481.396,1181.151z" class="svgShape colord88225-61"/><path fill="#eda800" d="M2496.773 1160.629c0 0 22.661 2.293 26.979 2.693-.485.758-7.287 12.867-7.614 17.286l-32.27-2.437c0 0 23.093-.144 26.204-2.787 3.111-2.643 5.899-4.78 2.469-8.108C2509.111 1163.947 2496.773 1160.629 2496.773 1160.629zM2499.449 1159.456c0 0 24.099 2.754 24.5 2.568.4-.187 12.366-7.469 12.14-7.493-.226-.023-22.215-2.557-22.215-2.557L2499.449 1159.456z" class="svgShape coloreb962c-62"/><path fill="#d8a425" d="M2524.359,1207.111c0,0,50.658,22.719,51.663,30.516c1.005,7.799-11.195,16.035-11.195,16.035
				l1.672-6.303c0,0-25.132-19.031-37.348-24.158C2516.935,1218.075,2524.359,1207.111,2524.359,1207.111z" class="svgShape colord88225-63"/><path fill="#d7c28e" d="M2540.067,1266.433c-4.897-6.765-0.252-26.508,4.957-33.034c3.508-4.394,16.458-3.85,20.119,6.298
				c3.843,10.643-5.359,23.363-15.628,28.061C2546.147,1269.298,2541.955,1269.041,2540.067,1266.433z" class="svgShape colord7a28e-64"/><path fill="#1c5940" d="M2546.335,1252.887c0.795-4.792,12.688-12.43,13.438-10.756c0,0-8.367,5.728-8.071,8.345
				c0.295,2.617,2.987,3.021,0.318,4.55C2549.351,1256.555,2545.681,1256.832,2546.335,1252.887z" class="svgShape color1c2959-65"/><path fill="#d8a425" d="M2438.237,1202.135c0,0-0.867-7.176,2.209-9.485c3.076-2.31,34.804-9.511,67.456-0.421
				c32.652,9.09,28.834,30.384,28.834,30.384l-1.25,3.884l-30.852-21.115L2438.237,1202.135z" class="svgShape colord88225-66"/><path fill="#fec332" d="M2456.36,1216.585c0,0,38.904-8.07,79.126,9.912c0,0,4.081-22.63-27.469-31.186
				c-23.719-6.433-63.705-6.71-69.118,2.439C2433.487,1206.901,2456.36,1216.585,2456.36,1216.585z" class="svgShape colorfeaa32-67"/><g><path fill="#1c5940" d="M2493.435 1247.174c-2.231 2.648-1.276 12.064-3.488 13.459-2.215 1.394-6.511-.892-6.356 2.499.156 3.391 7.043 8.406 7.803 7.094.76-1.31-3.015-5.037-3.015-5.037s3.396-.396 4.782-2.538C2494.546 1260.508 2495.431 1244.807 2493.435 1247.174zM2516.762 1246.659c-.461 2.616-3.033 4.403-5.69 3.892-2.611-.508-4.403-3.033-3.89-5.69.501-2.565 2.879-4.279 5.458-3.915-.465.418-.852.986-.971 1.674-.303 1.557.753 3.072 2.311 3.374 1.104.162 2.175-.239 2.776-1.065C2516.888 1245.456 2516.871 1246.063 2516.762 1246.659zM2487.241 1225.443c-1.578-1.05-3.311-1.528-5.11-1.896-1.798-.347-3.712-.607-5.545-.781-3.692-.32-7.313-.411-11.013.923-.284.096-1.227-1.163-.971-1.415 1.548-1.586 3.592-2.76 5.756-3.411 2.167-.669 4.447-.86 6.65-.678 2.216.187 4.332.697 6.402 1.619 2.043.919 4.059 2.409 5.176 4.469C2488.778 1224.621 2487.484 1225.602 2487.241 1225.443zM2477.495 1242.414c-.461 2.617-3.033 4.404-5.689 3.892-2.61-.508-4.403-3.033-3.891-5.689.502-2.567 2.879-4.279 5.459-3.915-.465.417-.852.985-.971 1.673-.303 1.558.752 3.071 2.311 3.373 1.105.163 2.174-.239 2.775-1.064C2477.621 1241.212 2477.604 1241.818 2477.495 1242.414zM2520.759 1228.957c-1.577-1.05-3.31-1.529-5.11-1.897-1.799-.346-3.712-.606-5.545-.779-3.691-.321-7.312-.412-11.012.922-.285.098-1.227-1.163-.972-1.414 1.548-1.586 3.592-2.76 5.756-3.411 2.167-.67 4.447-.862 6.649-.679 2.217.187 4.333.696 6.403 1.619 2.043.918 4.06 2.408 5.176 4.468C2522.297 1228.134 2521.003 1229.114 2520.759 1228.957z" class="svgShape color1c2959-69"/><path fill="#f9f7f2" d="M2480.787,1296.885c1.862,0.356,3.645,0.125,5.445-0.234c1.792-0.379,3.657-0.881,5.414-1.431
					c3.527-1.137,6.9-2.457,9.793-5.122c0.225-0.2,1.582,0.596,1.444,0.927c-0.811,2.062-2.24,3.938-3.982,5.377
					c-1.738,1.457-3.766,2.518-5.865,3.203c-2.116,0.687-4.264,1.039-6.531,0.991c-2.238-0.054-4.676-0.646-6.504-2.112
					C2479.689,1298.239,2480.501,1296.834,2480.787,1296.885z" class="svgShape colorf2f6f9-70"/></g><path fill="#fec332" d="M2518.954,1471.996c25.975,35.098-18.309,219.198-2.344,297.245c-54.934-1.335-106.278-4.451-108.114-9.679
		c-3.755-10.653,24.199-228.217,24.199-228.217c43.086-69.675,42.66-171.058,42.66-171.058s11.355-11.265,19.254-8.761
		c7.872,2.475-1.001,110.144,6.286,111.396C2504.066,1463.478,2512.621,1463.439,2518.954,1471.996z" class="svgShape colorfeaa32-71"/><path fill="#eda800" d="M2516.614,1769.25c-54.947-1.343-106.27-4.463-108.118-9.693c-0.36-1.032-0.432-4.007-0.24-8.518
		c22.938,4.895,64.305,3.839,75.558-1.44c12.237-5.759-5.039-5.759-20.971-12.717c-15.908-6.982,21.691-3.119,28.577-11.037
		c6.862-7.918-6.167-7.198-11.494-12.957c-5.326-5.758,15.404-16.556,11.494-34.912c-3.072-14.301-43.574-53.747-67.448-76.541
		c4.75-39.135,8.733-70.087,8.733-70.087c0.168-0.264,0.336-0.552,0.504-0.816c33.592,31.073,69.704,69.199,88.347,73.566
		C2515.726,1664.371,2508.6,1730.14,2516.614,1769.25z" class="svgShape coloreb962c-72"/><path fill="#fec332" d="M2708.306,1747.907c-3.029,12.754-31.958,15.409-57.631,19.832c-9.985,1.724-47.924,2.504-90.786,2.142
		c-16.216-79.785-19.799-243.652-8.283-286.765c2.033-7.611,13.485-12.74,21.69-16.69c13.545-22.92,15.854-121.743,15.854-121.743
		c3.561-4.339,23.364,6.954,23.364,6.954c-20.638,158.847,57.576,198.274,57.576,198.274s15.917,88.99,27.223,147.694
		c1.189,6.172,10.989,6.571,11.158,14.394c0.089,4.128-6.105,9.247-5.526,12.83
		C2705.269,1739.199,2711.707,1733.59,2708.306,1747.907z" class="svgShape colorfeaa32-73"/><path fill="#eda800" d="M2708.327,1747.919c-3.047,12.741-31.96,15.404-57.634,19.843c-9.982,1.703-47.941,2.495-90.794,2.135
		c-11.805-58.114-16.916-160.785-14.372-228.977c13.125,14.661,41.99,46.813,57.13,62.553c-0.144,18.403,0.36,33.016,10.581,43.261
		c10.462,10.461,47.317-1.871,72.99-8.182c1.368,7.366,2.735,14.852,4.127,22.219c-30.137,19.412-78.965,41.198-63.273,41.678
		c21.858,0.6,61.905-13.773,51.9-6.263c-10.03,7.51-86.547,15.62-66.728,23.778c19.771,8.11,54.803,10.558,37.287,15.308
		c-17.516,4.727-78.221,0.312-52.571,12.837c23.85,11.637,82.876,9.142,112.149-8.565
		C2709.455,1741.297,2709.287,1743.769,2708.327,1747.919z" class="svgShape coloreb962c-74"/><path fill="#d8a425" d="M2413.853 1670.799c15.182 11.606 45.105 8.762 45.105 13.768s8.761 27.536 0 28.162c-8.761.626-47.97-.449-50.269-5.544C2406.389 1702.09 2411.403 1668.926 2413.853 1670.799zM2691.317 1666.47c-15.182 11.606-47.957 7.291-47.957 12.298 0 5.006-8.761 27.536 0 28.162 8.761.626 51.803-2.317 54.103-7.412C2699.763 1694.424 2693.767 1664.598 2691.317 1666.47z" class="svgShape colord88225-75"/><g><path fill="#eadec1" d="M2233.253,1245.978c-16.333,7.078-18.487,29.359-3.787,39.399l78.138,35.229
			c12.006,8.2,1.916,35.861-8.783,45.702l-20.693,19.028c-5.686,5.228-13.647,7.19-21.11,5.199l-41.619-23.25
			c-7.852-2.093-16.223,0.192-21.922,5.984c-9.704,9.861-8.344,26.049,2.867,34.154l42.441,46.553
			c5.061,3.659,11.414,5.06,17.543,3.87l43.144-8.382c3.093-0.601,5.895-2.018,8.463-3.801c1.513,2.357,3.204,4.638,5.167,6.774
			l271.452,295.144c18.214,19.874,49.024,21.176,68.9,2.961c19.808-18.231,21.125-49.11,2.894-68.918l-271.501-295.228
			c-2.845-3.091-6.023-5.677-9.393-7.862c29.824-54.116,26.257-106.385-54.293-131.78
			C2280.043,1233.79,2251.695,1237.985,2233.253,1245.978z" class="svgShape colorc1d9ea-77"/><path fill="#f9f7f2" d="M2661.856,1737.748c-2.079,8.061-6.429,15.313-12.581,20.975c-17.569,16.099-44.958,14.925-61.043-2.626
			l-280.833-305.343c-1.595-1.74-3.098-3.712-4.585-6.023l-4.06-6.308l-6.159,4.277c-2.153,1.499-4.121,2.404-6.009,2.775
			l-44.626,8.67c-4.135,0.802-8.46-0.066-11.97-2.38l-43.859-48.109l-0.603-0.436c-5.424-3.922-7.846-10.65-6.172-17.139
			c0.7-2.714,2.125-5.223,4.12-7.253c3.873-3.93,9.495-5.604,14.851-4.462l42.983,24.012l0.878,0.234
			c10.168,2.711,20.861,0.075,28.601-7.047l21.41-19.682c6.602-6.076,12.666-16.974,15.45-27.762
			c3.613-14.005,0.996-25.241-7.182-30.826l-0.528-0.36l-80.783-36.422c-5.349-3.932-7.71-10.568-6.031-17.078
			c1.26-4.884,4.532-8.694,9.221-10.725c23.057-9.993,51.953-9.638,85.884,1.062c55.066,17.361,77.271,48.337,65.995,92.043
			c-0.001,0.003,0,0-0.001,0.003c-2.738,10.61-7.446,22.011-13.992,33.887l-3.253,5.903l5.659,3.665
			c3.161,2.05,5.966,4.394,8.333,6.964l280.868,305.418C2661.798,1708.474,2665.544,1723.459,2661.856,1737.748z" class="svgShape colorf2f6f9-78"/><path fill="#eadec1" d="M2224.583,1253.869c-1.149,0.499-2.173,1.155-3.035,1.95c-2.299,2.112-3.53,5.31-3.297,8.555
			c0.124,1.72,0.796,4.846,3.81,7.281l80.645,36.356l0.937,0.642c4.618,3.152,10.295,9.345,11.132,20.933
			c1.222,16.897-8.791,37.259-18.771,46.435l-21.407,19.684c-9.165,8.43-21.827,11.549-33.859,8.341l-1.554-0.416l-42.775-23.899
			c-3.093-0.43-6.209,0.528-8.545,2.675c-0.129,0.119-0.255,0.24-0.379,0.367c-2.943,2.993-3.13,6.453-2.98,8.25
			c0.152,1.796,0.913,5.176,4.316,7.636l1.077,0.778l43.724,47.967c2.182,1.258,4.773,1.703,7.267,1.219l44.632-8.672
			c1.912-0.372,21.946,0.167,27.185,5.862l280.845,305.407c5.563,6.05,12.748,9.715,20.281,11.027
			c11.016,3.378,23.459,1.119,32.582-7.217c10.535-9.748,13.315-24.721,8.213-37.354c-1.474-5.535-4.128-10.761-8.147-15.132
			c0,0-297.223-319.251-296.759-319.998c13.884-22.351,28.368-54.581,18.514-81.177c-7.455-20.122-28.212-35.678-61.691-46.235
			C2274.394,1244.999,2246.052,1244.562,2224.583,1253.869z" class="svgShape colorc1d9ea-79"/><path fill="#f9f7f2" d="M2371.852,1460.125c6.234-5.734,15.548-5.741,20.811-0.019l186.98,202.109
			c5.26,5.721,4.472,15.003-1.762,20.735c-6.227,5.729-15.544,5.736-20.804,0.017l-186.982-202.11
			C2364.834,1475.134,2365.621,1465.851,2371.852,1460.125z" class="svgShape colorf2f4f9-80"/></g><g><path fill="#6e86b2" d="M2729.473,1485.73c-49.426,10.347-70.704,38.912-75.989,47.311l-0.473-0.862
			c0,0-44.67-76.545-40.498-180.543C2612.514,1351.637,2688.447,1426.234,2729.473,1485.73z" class="svgShape color6f6eb2-82"/><path fill="#3f9c76" d="M2695.217,1497.452c1.057-3.449,1.14-6.759,0-9.874
			c-8.622-23.559-58.021-101.216-76.239-129.504c19.164,19.331,76.684,78.632,110.506,127.668
			C2716.078,1488.551,2704.729,1492.695,2695.217,1497.452z" opacity=".5" class="svgShape color3f5d9c-83"/><path fill="#d7c28e" d="M2753.324,1604.67c-12.683,18.775-193.084,122.098-193.084,122.098s-20.845,14.686-24.684,8.651
			c-3.56-5.647,0.012-6.649,1.82-8.039c-2.336,1.446-10.797,5.891-13.606,0.495c-2.781-5.312,2.424-9.895,4.761-11.62
			c-2.921,1.781-13.001,7.267-15.921,0.981c-3.004-6.425,7.994-12.802,9.691-13.831c-1.558,0.807-14.037,7.148-16.679,0.585
			c-1.641-4.061,16.095-20.194,28.472-27.509c-0.222-2.559-10.65-18.956-2.696-19.428c7.928-0.473,25.448,12.586,25.448,12.586
			l117.249-97.544l-20.61-39.052c5.285-8.399,26.562-36.964,75.989-47.311C2752.18,1521.567,2763.421,1589.733,2753.324,1604.67z" class="svgShape colord7a28e-84"/><path fill="#ceb884" d="M2753.321 1604.675c-2.364 3.505-10.597 9.958-22.391 18.135 21.278-45.392-5.591-99.77-25.339-129.977 7.121-2.809 15.048-5.228 23.892-7.092C2752.18 1521.567 2763.417 1589.739 2753.321 1604.675zM2676.58 1574.483c11.46-10.703 32.717-2.075 30.907 1.87C2705.677 1580.299 2674.593 1576.34 2676.58 1574.483z" class="svgShape colorce9784-85"/><path fill="#ceb884" d="M2679.091,1576.306c10.371-3.208,21.01,8.585,18.691,10.496
			C2695.462,1588.714,2677.292,1576.863,2679.091,1576.306z" class="svgShape colorce9784-86"/></g><path fill="#008d53" d="M2645.738 1528.21c0 0 5.394 9.321 9.448 10.296 4.055.975 25.694-30.108 45.957-37.826 20.263-7.719 33.614-7.093 32.78-12.516-.834-5.424-6.049-17.523-10.013-18.149C2719.947 1469.388 2662.9 1485.022 2645.738 1528.21zM2641.093 1378.853c-1.773 1.773-4.589 3.755-4.589 4.381 0 .626 34.211 46.937 36.506 47.563 2.294.626 13.351-3.547 11.891-7.927C2683.44 1418.488 2641.093 1378.853 2641.093 1378.853z" class="svgShape color0f4c86-87"/><g><path fill="#d7c28e" d="M2305.049,1457.732c0,0-10.426,2.395-8.658-11.865c1.77-14.261,11.368-14.959,13.455-10.799
					c2.088,4.16,3.737,6.673-0.427,13.401c0,0,5.812-3.683,8.848,0.632c3.035,4.316,1.525,9.341,1.525,9.341
					s4.486-4.338,6.872-3.088c2.386,1.25,4.877,7.577,1.799,13.705c0,0,6.315-3.046,7.883,5.121
					c1.568,8.167-0.952,7.168-0.952,7.168l6.538,7.191c0,0-12.121,5.34-18.501-8.729c0,0-9.982,0.557-8.057-11.016
					C2315.374,1468.794,2301.804,1470.859,2305.049,1457.732z" class="svgShape colord7a28e-89"/><path fill="#c4ae7a" d="M2341.932,1488.539c0.029,0.129-0.583,0.368-1.742,0.696c-1.15,0.367-2.877,0.691-5.086,0.868
				c-2.192,0.101-5,0.013-7.854-1.461c-1.379-0.782-2.725-1.952-3.596-3.529c-0.421-0.786-0.775-1.629-0.981-2.524
				c-0.117-0.445-0.192-0.9-0.246-1.365l-0.036-0.372l-0.004-0.009l-0.014,0.004c-0.024,0.002,0.056,0.007-0.283-0.001
				c-0.48,0.023-0.975-0.108-1.469-0.195c-0.499-0.064-0.986-0.234-1.47-0.444c-0.499-0.162-0.951-0.442-1.396-0.747
				c-1.855-1.232-2.858-3.242-3.299-5.088c-0.255-0.934-0.345-1.865-0.409-2.771c-0.014-0.454-0.029-0.903-0.011-1.348
				c0.008-0.258,0.013-0.113,0.023-0.199c-0.013-0.008-0.037-0.01-0.065-0.013l-0.863,0.017c-0.693,0.035-1.397-0.123-2.069-0.178
				c-1.353-0.191-2.631-0.664-3.736-1.321c-2.232-1.449-3.038-3.842-3.179-5.556c-0.207-3.559,0.874-5.401,1.017-5.333
				c0.283,0.045-0.323,2.029,0.204,5.159c0.303,1.519,1.097,3.287,2.846,4.286c0.898,0.452,1.934,0.796,3.109,0.91
				c0.596,0.017,1.182,0.144,1.817,0.086c1.027-0.05,2.069-0.101,3.127-0.153c-0.083,0.759-0.182,1.761-0.187,2.336
				c-0.007,0.391,0.017,0.786,0.036,1.184c0.074,0.789,0.165,1.597,0.39,2.364c0.396,1.549,1.179,3.003,2.472,3.845
				c0.311,0.214,0.625,0.422,0.997,0.533c0.347,0.154,0.702,0.29,1.096,0.334c0.384,0.065,0.75,0.185,1.156,0.162
				c0.779,0.021,1.551,0.041,2.318,0.062l-0.068,1.334c-0.008,0.22,0.008,0.421,0.018,0.62c0.004,0.093,0.007,0.186,0.021,0.28
				c0.038,0.375,0.09,0.745,0.179,1.105c0.15,0.727,0.42,1.4,0.731,2.03c0.649,1.254,1.659,2.19,2.755,2.886
				c2.281,1.314,4.831,1.61,6.904,1.684c2.094,0.013,3.803-0.087,4.975-0.221C2341.239,1488.402,2341.904,1488.41,2341.932,1488.539
				z" class="svgShape colorc48c7a-90"/><path fill="#ceb884" d="M2305.163 1457.669c.451.067 1.042-2.222 2.297-4.76 1.218-2.565 2.656-4.385 2.394-4.686-.272-.351-2.416 1.203-3.758 4.024C2304.72 1455.053 2304.783 1457.64 2305.163 1457.669zM2315.135 1469.005c.221.016.454-.586.859-1.517.404-.936.998-2.216 1.678-3.636 1.36-2.838 2.48-5.182 2.12-5.41-.345-.224-2.072 1.806-3.488 4.757-.706 1.474-1.179 2.904-1.341 3.995C2314.797 1468.288 2314.939 1468.994 2315.135 1469.005zM2323.432 1479.809c.23-.011.372-.678.725-1.672.363-.999.978-2.336 1.785-3.779 1.605-2.89 3.168-5.152 2.84-5.43-.3-.272-2.453 1.62-4.167 4.699-.858 1.53-1.38 3.088-1.503 4.272C2322.996 1479.094 2323.246 1479.825 2323.432 1479.809z" class="svgShape colorce9784-91"/></g></g><g><path fill="#3f9c76" d="M952.15,2026.353c-48.868-30.767-233.335,40.677-233.335,40.677l-207.429,10.676
				c0,0,34.786,153.382,90.919,178.977c83.608,38.123,278.805-51.881,278.805-51.881s96.904,166.879,142.436,230.342
				c6.652,9.272,61.474-32.573,59.664-43.433C1081.4,2380.85,1001.019,2057.122,952.15,2026.353z" class="svgShape color3f5d9c-93"/><path fill="#008d53" d="M511.396,2077.714c0,0,34.776,153.366,90.92,178.978
				c83.588,38.116,278.787-51.901,278.787-51.901s96.923,166.888,142.446,230.364c2.285,3.189,10.245,0.327,19.661-5.222
				c-62.849-66.464-145.861-264.789-145.861-264.789s-176.266,20.339-170.617-16.571c4.244-27.721,49.716-81.379,72.063-108.271
				c-44.217,12.881-79.973,26.716-79.973,26.716L511.396,2077.714z" opacity=".5" class="svgShape color0f4c86-94"/><path fill="#008d53" d="M446.688,2424.043c-8.236,0-30.384,12.829-36.72,1.426c-6.335-11.404-10.374-27.322-16.71-22.254
					c-6.336,5.068-140.605,60.821-148.546,75.393c-7.941,14.572,199.23,21.541,201.131,15.205S446.688,2424.043,446.688,2424.043z" class="svgShape color0f4c86-95"/><path fill="#1c5940" d="M388.507,2398.978c9.266-3.801,9.895,4.598,9.895,4.598c-2.257,3.667-130.745,74.161-142.862,76.774
					c-12.117,2.614-14.968,3.326-15.918-3.801C238.672,2469.422,379.241,2402.78,388.507,2398.978z" class="svgShape color1c2959-96"/><path fill="#3f9c76" d="M439.831,2423.451c9.45,0,199.251-36.921,199.251-36.921s-212.173-163.556-153.887-309.761h196.578
					c6.7,12.831-8.395,40.516,9.196,76.017c58.135,117.332,178.903,262.433,151.179,296.417
					c-65.102,79.803-415.312,45.877-415.312,45.877S430.381,2423.451,439.831,2423.451z" class="svgShape color3f5d9c-97"/><path fill="#008d53" d="M626.979 2349.443c-103.311-110.597-52.902-217.836-23.568-272.68H485.19c-53.81 134.989 123.744 279.635 150.459 306.371C667.77 2380.219 671.348 2396.938 626.979 2349.443zM426.845 2495.074c0 0 350.197 33.921 415.305-45.864-182.12 56.827-336.702 20.079-411.757 5.126C427.901 2473.723 426.845 2495.074 426.845 2495.074z" opacity=".5" class="svgShape color0f4c86-98"/><path fill="#008d53" d="M1023.546,2435.143c3.452,10.333,21.027,28.632,24.895,41.091c3.868,12.459,4.565,28.866,11.803,25.201
			c7.239-3.665,155.119-27.824,160.829-43.406c9.217-25.154-59.661-12.012-118.46-26.121c-7.965-9.954-18.219-42.381-19.404-40.198
			C1080.053,2397.522,1023.546,2435.143,1023.546,2435.143z" class="svgShape color0f4c86-99"/><path fill="#1c5940" d="M1064.03,2506.555c-9.848,1.825-8.745-6.525-8.745-6.525c2.959-3.127,143.152-45.843,155.548-45.922
			c12.395-0.079,15.331-0.194,14.803,6.978C1225.107,2468.258,1073.877,2504.73,1064.03,2506.555z" class="svgShape color1c2959-100"/><path fill="#6e86b2" d="M824.525,1833.583c-51.259,12.847-91.69,34.197-96.871,43.196c0,0-22.526-68.452-22.431-177.369
			C705.224,1699.41,779.185,1773.054,824.525,1833.583z" class="svgShape color6f6eb2-101"/><path fill="#d7c28e" d="M731.905,1869.684c2.229,2.229,29.881,124.798,63.776,122.065c70.054-5.649,58.825-124.058,58.825-124.058
			s17.57,1.878,20.689-4.094c4.412-8.447-6.651-49.448-22.632-60.518c-5.354-3.709-15.144,0.106-24.258,5.111
			c-2.06,1.132-9.273-16.602-11.206-15.422c-3.797,2.318-2.891,49.788-5.476,51.436
			C776.13,1866.817,731.905,1869.684,731.905,1869.684z" class="svgShape colord7a28e-102"/><path fill="#c4ae7a" d="M781.34,1808.2c3.027,3.027,24.633,104.49,26.893,99.67c2.26-4.819-19.451-93.852-19.283-96.777
			C789.119,1808.169,781.34,1808.2,781.34,1808.2z" class="svgShape colorc48c7a-103"/><path fill="#008d53" d="M823.028 1822.058c3.604 1.223 6.882 14.518 6.954 20.26.071 5.742-12.263 3.161-32.108 8.226-19.846 5.066-57.516 49.225-61.161 47.628-3.644-1.597-9.987-22.942-9.987-22.942C748.295 1832.954 819.424 1820.836 823.028 1822.058zM737.359 1725.452c-1.781 1.927-4.645 4.114-4.619 4.769.026.654 37.7 47.676 40.125 48.236 2.425.56 13.815-4.256 12.108-8.777C783.266 1765.16 737.359 1725.452 737.359 1725.452z" class="svgShape color0f4c86-104"/><path fill="#6e86b2" d="M771.054,2053.471c-24.276,24.276-278.037,38.586-290.286,23.277
			c-12.248-15.308,72.305-378.178,80.544-383.434c8.239-5.256,83.414-35.262,149.011,11.049
			C738.951,1718.838,771.054,2053.471,771.054,2053.471z" class="svgShape color6f6eb2-105"/><path fill="#3f9c76" d="M480.763,2076.762c12.254,15.281,266.016,0.983,290.291-23.292
			c0,0-32.113-334.634-60.726-349.1c-9.634-6.811-19.501-11.963-29.31-15.776c-0.96,20.637-3.871,67.936-10.595,78.093
			c-8.644,13.098-22.616,11.818-22.616,11.818s-53.968-0.003-55.594-95.645c-16.504,3.551-27.971,8.586-30.911,10.449
			C553.064,1698.578,468.508,2061.452,480.763,2076.762z" opacity=".5" class="svgShape color3f5d9c-106"/><path fill="#1c5940" d="M717.441,1537.862c0,0,11.922,13.328,7.755,25.144c-4.166,11.814-70.974,26.424-70.974,26.424
								l-10.403,50.016c0,0-11.086,9.127-15.135-7.801c0,0-13.702-0.461-9.121-23.696c0,0-6.61-8.79-10.479-26.386
								c1.478-5.47-0.935-13.759,5.231-25.499C620.481,1544.324,685.609,1527.26,717.441,1537.862z" class="svgShape color1c2959-107"/><path fill="#d7c28e" d="M668.705,1614.998l5.265,73.99c0,0-38.069,16.863-52.353-16.003l12.965-71.19L668.705,1614.998z" class="svgShape colord7a28e-108"/><path fill="#ceb884" d="M644.168,1629.917c0,0-0.066,48.378,29.827,56.27l-3.255-38.73L644.168,1629.917z" class="svgShape colorce9784-109"/><path fill="#d7c28e" d="M632.43,1564.402c0.178,4.063,1.055,45.885,1.055,45.885l-0.001,0.026
											c7.186,27.71,25.188,49.786,55.558,47.21c31.004-2.609,42.205-57.28,31.68-109.385
											c-26.248-12.515-68.946,7.557-68.946,7.557C647.65,1568.313,638.968,1582.306,632.43,1564.402z" class="svgShape colord7a28e-110"/><path fill="#1c5940" d="M652.6,1619.395c5.866,12.571,5.866,2.514,24.722-2.095c18.857-4.61,46.094,0,41.484,12.571
											c-4.609,12.57-7.961,33.103-42.322,31.427C642.124,1659.621,646.732,1606.823,652.6,1619.395z" class="svgShape color1c2959-111"/><path fill="#008d53" d="M622.467,1668.924c0,0,13.183,21.14,33.667,18.934c16.76-1.806,16.989-11.344,16.989-11.344
					s3.674,8.117,4.668,10.391c-0.35,3.407-2.167,18.917-23.323,18.092c-32.336-1.263-42.809-24.353-42.809-24.353L622.467,1668.924
					z" class="svgShape color0f4c86-112"/><path fill="#eda800" d="M602.823,1572.86c0,0-14.12-63.979,27.683-77.469c41.801-13.49,72.091,3.32,72.091,3.32l21.377,29.466
					C723.975,1528.177,637.74,1544.205,602.823,1572.86z" class="svgShape coloreb962c-113"/><path fill="#d8a425" d="M602.793,1572.892c34.958-28.671,121.179-44.71,121.179-44.71l-21.392-29.469
					c0,0-13.916-7.731-35.917-8.515c19.682,11.721,27.801,33.845,20.878,37.507c-9.844,5.25-67.83,24.056-75.673,16.066
					c-5.886-5.861-2.47-24.296-0.486-34.823C593.864,1532.251,602.793,1572.892,602.793,1572.892z" opacity=".5" class="svgShape colord88225-114"/><path fill="#eda800" d="M660.398,1529.967c0,0-8.5-29.898-27.701-35.229c0,0,25.722-8.592,49.011-4.007
					c19.791,3.897,30.745,34.628,30.745,34.628L660.398,1529.967z" class="svgShape coloreb962c-115"/><path fill="#d8a425" d="M698.901,1511.951l-37.982,4.121c0,0-13.074-27.723-30.259-20.555l9.461-12.149l25.564-2.678
					l19.405,9.971l13.688,18.761L698.901,1511.951z" class="svgShape colord88225-116"/><path fill="#eda800" d="M682.81 1490.475c0 0-23.714 2.4-28.232 2.818.507.794 7.625 13.465 7.968 18.09l33.769-2.551c0 0-24.166-.151-27.422-2.916-3.256-2.766-6.173-5.003-2.584-8.485C669.899 1493.947 682.81 1490.475 682.81 1490.475zM680.01 1489.248c0 0-25.219 2.882-25.639 2.687-.419-.196-12.941-7.816-12.704-7.841.236-.024 23.247-2.676 23.247-2.676L680.01 1489.248z" class="svgShape coloreb962c-117"/><path fill="#d8a425" d="M653.942,1539.117c0,0-53.012,23.774-54.063,31.934c-1.051,8.161,11.715,16.78,11.715,16.78l-1.75-6.596
					c0,0,26.299-19.916,39.083-25.281C661.711,1550.59,653.942,1539.117,653.942,1539.117z" class="svgShape colord88225-118"/><path fill="#d7c28e" d="M637.505,1601.195c5.125-7.079,0.264-27.739-5.187-34.569c-3.671-4.598-17.223-4.029-21.054,6.591
					c-4.021,11.138,5.608,24.449,16.354,29.365C631.142,1604.193,635.529,1603.924,637.505,1601.195z" class="svgShape colord7a28e-119"/><path fill="#1c5940" d="M630.945,1587.019c-0.832-5.015-13.277-13.007-14.062-11.255c0,0,8.756,5.994,8.446,8.733
					c-0.309,2.738-3.125,3.161-0.332,4.762C627.789,1590.858,631.629,1591.148,630.945,1587.019z" class="svgShape color1c2959-120"/><path fill="#d8a425" d="M744.066,1533.909c0,0,0.908-7.51-2.311-9.926c-3.219-2.417-36.421-9.953-70.59-0.44
					c-34.17,9.512-30.174,31.796-30.174,31.796l1.308,4.064l32.285-22.096L744.066,1533.909z" class="svgShape colord88225-121"/><path fill="#fec332" d="M725.101,1549.031c0,0-40.711-8.445-82.803,10.372c0,0-4.27-23.681,28.745-32.635
					c24.822-6.732,66.665-7.022,72.33,2.552C749.037,1538.896,725.101,1549.031,725.101,1549.031z" class="svgShape colorfeaa32-122"/><path fill="#1c5940" d="M686.304 1581.041c2.335 2.77 1.335 12.625 3.651 14.084 2.317 1.459 6.813-.933 6.651 2.615-.163 3.548-7.371 8.796-8.165 7.423-.796-1.371 3.155-5.271 3.155-5.271s-3.554-.415-5.004-2.656C685.141 1594.994 684.215 1578.564 686.304 1581.041zM661.892 1580.502c.482 2.737 3.174 4.608 5.954 4.072 2.732-.531 4.607-3.174 4.071-5.955-.525-2.684-3.013-4.477-5.712-4.097.487.438.892 1.032 1.016 1.751.318 1.629-.788 3.214-2.419 3.531-1.156.17-2.276-.25-2.905-1.114C661.761 1579.244 661.779 1579.878 661.892 1580.502zM692.786 1558.301c1.652-1.099 3.465-1.599 5.348-1.984 1.882-.363 3.885-.636 5.803-.817 3.863-.335 7.652-.43 11.525.966.297.101 1.284-1.217 1.016-1.481-1.62-1.66-3.758-2.888-6.023-3.57-2.268-.7-4.653-.901-6.959-.71-2.319.196-4.533.729-6.7 1.694-2.138.962-4.247 2.521-5.416 4.677C691.177 1557.44 692.531 1558.466 692.786 1558.301zM702.984 1576.059c.483 2.739 3.174 4.609 5.954 4.072 2.732-.531 4.608-3.174 4.072-5.953-.525-2.686-3.013-4.478-5.713-4.097.487.437.892 1.031 1.016 1.75.318 1.63-.787 3.214-2.418 3.53-1.156.171-2.275-.25-2.904-1.114C702.852 1574.802 702.87 1575.437 702.984 1576.059zM657.71 1561.977c1.651-1.099 3.464-1.6 5.346-1.985 1.882-.362 3.885-.635 5.803-.816 3.862-.335 7.652-.431 11.524.965.298.102 1.285-1.217 1.017-1.48-1.619-1.66-3.759-2.889-6.023-3.57-2.268-.7-4.654-.901-6.958-.71-2.32.196-4.534.728-6.701 1.694-2.138.961-4.248 2.521-5.416 4.676C656.1 1561.116 657.454 1562.142 657.71 1561.977z" class="svgShape color1c2959-123"/><path fill="#f9f7f2" d="M699.539 1633.061c-1.948.372-3.814.131-5.698-.244-1.876-.397-3.827-.922-5.666-1.497-3.69-1.19-7.22-2.572-10.248-5.36-.235-.209-1.655.624-1.511.97.849 2.158 2.344 4.12 4.167 5.626 1.819 1.525 3.941 2.635 6.138 3.353 2.214.719 4.462 1.087 6.834 1.037 2.342-.057 4.893-.676 6.806-2.21C700.688 1634.479 699.838 1633.008 699.539 1633.061zM686.465 1577.478c1.133 12.223 11.934 21.191 24.158 20.058 12.223-1.133 21.191-11.935 20.058-24.157-1.133-12.223-11.935-21.191-24.158-20.058C694.3 1554.454 685.332 1565.255 686.465 1577.478zM692.949 1576.877c-.801-8.645 5.531-16.272 14.175-17.073 8.645-.801 16.272 5.531 17.073 14.176s-5.531 16.271-14.176 17.073C701.377 1591.854 693.75 1585.521 692.949 1576.877z" class="svgShape colorf2f6f9-124"/><path fill="#f9f7f2" d="M643.449,1581.467c1.133,12.223,11.934,21.191,24.158,20.058c12.223-1.134,21.191-11.935,20.058-24.157
					c-1.133-12.223-11.934-21.191-24.158-20.058C651.283,1558.442,642.316,1569.244,643.449,1581.467z M649.932,1580.865
					c-0.801-8.644,5.531-16.272,14.176-17.073c8.645-0.802,16.271,5.531,17.073,14.176c0.801,8.644-5.531,16.271-14.176,17.073
					C658.36,1595.842,650.734,1589.51,649.932,1580.865z" class="svgShape colorf2f6f9-125"/><path fill="#fec332" d="M659.599,1816.31c-27.182,36.729,64.354,181.731,47.646,263.405
			c40.673-20.877,63.151-20.429,65.072-25.901c3.929-11.148-22.452-175.398-22.452-175.398
			c-45.088-72.912-44.643-179.006-44.643-179.006s-11.883-11.788-20.149-9.168c-8.237,2.59,1.047,115.262-6.578,116.572
			C675.178,1807.396,666.226,1807.355,659.599,1816.31z" class="svgShape colorfeaa32-126"/><path fill="#eda800" d="M707.248,2079.722c18.581-9.542,33.345-14.638,44.117-17.852c-16.748,1.08-33.621-2.586-32.542-18.756
			c1.457-22.272,13.182-80.299,40.828-100.989c-2.963-20.138-5.8-38.442-7.658-50.219l-0.025-0.175
			c-1.306-8.311-2.109-13.308-2.109-13.308c-0.401-0.653-0.778-1.281-1.155-1.934c-13.634-22.573-22.975-48.159-29.403-72.741
			l-59.434,65.761C675.51,1929.921,719.225,2021.118,707.248,2079.722z" class="svgShape coloreb962c-127"/><path fill="#fec332" d="M461.448,2073.389c3.17,12.348,33.444,14.918,60.309,19.2c10.449,1.669,50.151,2.424,95.005,2.074
			c16.969-77.245,20.719-235.895,8.668-277.635c-2.127-7.368-14.111-12.334-22.698-16.158
			c-14.175-22.19-16.591-117.867-16.591-117.867c-3.726-4.201-24.45,6.732-24.45,6.732c21.597,153.79-60.251,191.962-60.251,191.962
			s-16.657,86.156-28.488,142.992c-1.244,5.975-11.5,6.362-11.677,13.936c-0.093,3.996,6.389,8.953,5.783,12.421
			C464.627,2064.959,457.889,2059.528,461.448,2073.389z" class="svgShape colorfeaa32-128"/><path fill="#eda800" d="M461.426,2073.401c3.189,12.335,33.445,14.914,60.312,19.211c10.446,1.649,50.168,2.416,95.013,2.068
			c12.354-56.264,17.702-155.667,15.04-221.687c-13.735,14.194-43.941,45.322-59.785,60.562
			c0.151,17.817-0.377,31.964-11.073,41.884c-10.948,10.128-49.515-1.812-76.382-7.922c-1.431,7.132-2.862,14.38-4.319,21.511
			c31.537,18.793,82.634,39.886,66.213,40.351c-22.874,0.581-64.781-13.334-54.311-6.063c10.496,7.271,90.569,15.123,69.829,23.021
			c-20.69,7.852-57.349,10.222-39.019,14.821c18.329,4.576,81.855,0.302,55.014,12.428c-24.959,11.266-86.727,8.85-117.36-8.293
			C460.246,2066.99,460.422,2069.383,461.426,2073.401z" class="svgShape coloreb962c-129"/><path fill="#d8a425" d="M764.874 1995.894c-13.575 14.684-46.383 15.416-45.487 20.578.896 5.162-4.104 29.96 5.042 29.036 9.145-.923 44.911-7.841 46.37-13.506C772.258 2026.338 767.065 1993.525 764.874 1995.894zM479.226 1994.546c15.887 11.236 50.185 7.059 50.185 11.906 0 4.847 9.169 26.659 0 27.265-9.168.606-54.21-2.243-56.617-7.176C470.388 2021.609 476.663 1992.733 479.226 1994.546z" class="svgShape colord88225-130"/><g><path fill="#ffffff" d="M532.219,1870.581v45.133c0,2.691,2.051,4.94,4.732,5.187l38.083,3.506
					c3.94,18.995,11.468,36.668,21.76,52.341l-24.514,29.485c-1.721,2.07-1.581,5.111,0.324,7.015l31.915,31.89
					c1.904,1.903,4.945,2.042,7.014,0.319l29.458-24.514c12.879,12.91,43.784,19.996,52.312,21.761l0.596,37.98
					c0.045,2.845,2.364,5.128,5.208,5.128h50.908c2.845,0,5.163-2.283,5.208-5.128l0.596-37.98
					c19.018-3.954,36.642-11.473,52.331-21.761c0.004,0.001,0.006,0.001,0.011,0.001l29.458,24.514
					c2.069,1.722,5.109,1.583,7.014-0.319l31.913-31.889c1.906-1.904,2.045-4.947,0.322-7.017l-24.54-29.485
					c10.321-15.673,17.82-33.346,21.79-52.341l38.083-3.506c2.68-0.247,4.732-2.495,4.732-5.187v-45.133
					c0-2.691-2.051-4.94-4.732-5.187l-38.082-3.504c-3.97-18.967-11.468-36.639-21.79-52.342l24.539-29.456
					c1.724-2.07,1.586-5.113-0.319-7.018l-31.912-31.911c-1.905-1.906-4.948-2.044-7.018-0.319l-29.456,24.538
					c-15.732-10.321-33.345-17.819-52.341-21.79l-3.505-38.082c-0.247-2.681-2.495-4.732-5.187-4.732h-45.132
					c-2.691,0-4.94,2.051-5.187,4.732l-3.505,38.082c-18.967,3.971-36.61,11.468-52.312,21.79l-29.456-24.538
					c-2.07-1.724-5.113-1.586-7.017,0.319l-31.914,31.914c-1.904,1.904-2.044,4.945-0.321,7.015l24.512,29.457
					c-10.292,15.703-17.82,33.346-21.76,52.342l-38.082,3.504C534.27,1865.641,532.219,1867.89,532.219,1870.581z M645.371,1893.295
					c0-43.755,35.434-79.218,79.218-79.218c43.756,0,79.219,35.464,79.219,79.218s-35.463,79.247-79.219,79.247
					C680.805,1972.542,645.371,1937.05,645.371,1893.295z" class="svgShape colorffffff-132"/><path fill="#eadec1" d="M542.647,1887.214v11.851c0,6.746,5.105,12.346,11.825,12.971l29.198,2.683l1.562,7.553
					c3.595,17.347,10.419,33.73,20.264,48.758l4.246,6.433l-18.806,22.634c-4.323,5.157-3.959,12.762,0.808,17.529l8.361,8.386
					c4.766,4.74,12.372,5.105,17.555,0.782l23.988-19.951l6.72,6.72c8.517,8.543,30.656,15.549,47.039,18.935l8.178,1.693
					l0.443,28.364c0.13,7.111,5.912,12.84,13.023,12.84h15.029c7.11,0,12.893-5.73,12.997-12.84l0.469-28.364l8.152-1.693
					c16.878-3.516,32.896-10.079,47.586-19.535l7.657-4.922l22.556,18.753c5.183,4.323,12.788,3.959,17.529-0.782l8.386-8.386
					c4.767-4.741,5.105-12.346,0.808-17.529l-18.831-22.634l4.245-6.46c9.819-14.924,16.644-31.307,20.29-48.731l1.563-7.553
					l29.197-2.683c6.694-0.625,11.825-6.224,11.825-12.971v-11.851c0-6.745-5.131-12.371-11.825-12.971l-29.197-2.683l-1.563-7.553
					c-3.646-17.398-10.471-33.807-20.29-48.758l-4.245-6.433l18.805-22.608c4.323-5.183,3.985-12.789-0.782-17.555l-8.386-8.361
					c-4.741-4.767-12.346-5.105-17.529-0.807l-22.608,18.831l-6.433-4.245c-15.029-9.845-31.411-16.669-48.758-20.29l-7.553-1.589
					l-2.683-29.172c-0.625-6.72-6.225-11.825-12.971-11.825h-11.851c-6.746,0-12.372,5.105-12.971,11.825l-2.709,29.172
					l-7.527,1.589c-17.373,3.621-33.755,10.47-48.732,20.29l-6.433,4.245l-22.608-18.831c-5.183-4.297-12.788-3.959-17.555,0.807
					l-8.361,8.361c-4.766,4.767-5.105,12.372-0.808,17.555l18.806,22.581l-4.246,6.459c-9.845,15.054-16.669,31.437-20.264,48.758
					l-1.562,7.527l-29.198,2.709C547.752,1874.842,542.647,1880.468,542.647,1887.214z M635.135,1887.448
					c2.839-44.565,38.99-80.742,83.581-83.607c55.347-3.568,100.927,43.444,94.989,99.234c-4.428,41.569-37.845,74.96-79.413,79.362
					C678.58,1988.323,631.619,1942.77,635.135,1887.448z" class="svgShape colorc1d9ea-133"/><path fill="#f9f7f2" d="M734.291,1982.448c41.569-4.402,74.986-37.792,79.413-79.362
					c5.938-55.79-39.641-102.802-94.989-99.234c-44.59,2.866-80.742,39.043-83.581,83.607
					C631.619,1942.781,678.58,1988.335,734.291,1982.448z" opacity=".5" class="svgShape colorf2f4f9-134"/><path fill="#f2ebda" d="M730.732,1949.746c26.318-2.787,47.475-23.927,50.278-50.245c3.76-35.322-25.098-65.086-60.139-62.827
					c-28.231,1.814-51.119,24.719-52.917,52.933C665.728,1924.632,695.459,1953.473,730.732,1949.746z" class="svgShape colordae7f2-135"/><path fill="#f2ebda" d="M619.582,1893.283c0,57.988,47.019,105.007,105.007,105.007c57.959,0,104.977-47.02,104.977-105.007
					c0-57.987-47.019-104.977-104.977-104.977C666.602,1788.306,619.582,1835.296,619.582,1893.283z M645.371,1893.283
					c0-43.755,35.434-79.218,79.218-79.218c43.756,0,79.218,35.463,79.218,79.218c0,43.756-35.462,79.248-79.218,79.248
					C680.805,1972.531,645.371,1937.039,645.371,1893.283z" class="svgShape colordae7f2-136"/><path fill="#d7c28e" d="M864.269,1809.843c0,0,8.062-9.17-7.217-15.133c-15.282-5.96-21.19,3.3-18.145,7.653
							c3.045,4.354,4.674,7.374,13.689,6.842c0,0-10.22,2.886-7.533,8.276c2.687,5.389,11.921,7.551,11.921,7.551
							s-6.791,2.151-6.83,5.226c-0.04,3.075,4.963,9.009,12.787,9.243c0,0-6.485,4.689,0.865,10.695
							c7.351,6.006,7.716,2.933,7.716,2.933l2.594,8.76c0,0,13.019-7.569,2.351-21.609c0,0,5.975-9.722-6.691-14.068
							C869.776,1826.213,879.213,1813.707,864.269,1809.843z" class="svgShape colord7a28e-137"/><path fill="#ceb884" d="M864.145 1809.923c-.177.489-2.797-.159-6.027-.276-3.237-.169-5.844.288-6.004-.138-.205-.464 2.519-1.773 6.08-1.59C861.758 1808.059 864.321 1809.526 864.145 1809.923zM870.118 1826.087c-.103.231-.835.138-1.99.039-1.16-.103-2.767-.2-4.562-.288-3.588-.174-6.549-.321-6.583-.806-.038-.468 2.937-1.101 6.669-.922 1.863.09 3.556.391 4.739.821C869.582 1825.36 870.213 1825.884 870.118 1826.087zM876.467 1840.281c-.136.226-.883.005-2.073-.179-1.2-.177-2.876-.285-4.763-.258-3.772.044-6.892.386-6.994-.094-.111-.449 2.958-1.585 6.979-1.636 2.002-.031 3.85.29 5.105.809C875.984 1839.456 876.584 1840.103 876.467 1840.281z" class="svgShape colorce9784-138"/></g><g><path fill="#6e86b2" d="M439.297,1830.681c51.723,10.828,73.99,40.72,79.52,49.51l0.495-0.901c0,0,46.745-80.102,42.379-188.932
				C561.691,1690.358,482.23,1768.422,439.297,1830.681z" class="svgShape color6f6eb2-140"/><path fill="#3f9c76" d="M475.146,1842.948c-1.106-3.609-1.193-7.073,0-10.333
				c9.023-24.653,60.717-105.919,79.782-135.521c-20.055,20.229-80.248,82.285-115.641,133.6
				C453.316,1833.633,465.191,1837.97,475.146,1842.948z" opacity=".5" class="svgShape color3f5d9c-141"/><path fill="#d7c28e" d="M414.339,1955.148c13.273,19.647,202.056,127.771,202.056,127.771s21.813,15.368,25.83,9.052
				c3.726-5.909-0.012-6.958-1.904-8.413c2.445,1.513,11.298,6.165,14.238,0.517c2.911-5.559-2.537-10.355-4.982-12.16
				c3.056,1.863,13.605,7.605,16.661,1.027c3.143-6.724-8.366-13.397-10.141-14.474c1.63,0.844,14.689,7.48,17.454,0.612
				c1.717-4.249-16.843-21.132-29.795-28.787c0.233-2.678,11.145-19.836,2.821-20.331c-8.296-0.495-26.631,13.171-26.631,13.171
				l-122.697-102.077l21.568-40.866c-5.53-8.789-27.797-38.682-79.52-49.51C415.535,1868.183,403.773,1939.517,414.339,1955.148z" class="svgShape colord7a28e-142"/><path fill="#ceb884" d="M414.342 1955.154c2.474 3.668 11.09 10.42 23.431 18.978-22.267-47.502 5.85-104.406 26.516-136.016-7.451-2.939-15.746-5.472-25.002-7.422C415.535 1868.183 403.776 1939.524 414.342 1955.154zM494.648 1923.559c-11.992-11.2-34.238-2.172-32.343 1.957C464.199 1929.645 496.728 1925.502 494.648 1923.559z" class="svgShape colorce9784-143"/><path fill="#ceb884" d="M492.021,1925.466c-10.852-3.357-21.986,8.984-19.559,10.984
				C474.889,1938.451,493.904,1926.049,492.021,1925.466z" class="svgShape colorce9784-144"/></g><path fill="#008d53" d="M526.924 1875.135c0 0-5.645 9.754-9.888 10.774-4.244 1.021-26.888-31.506-48.092-39.583-21.205-8.077-35.176-7.422-34.303-13.098.873-5.676 6.33-18.337 10.478-18.992C449.267 1813.581 508.964 1829.941 526.924 1875.135zM531.784 1718.838c1.856 1.856 4.803 3.93 4.803 4.585 0 .655-35.801 49.118-38.203 49.773-2.401.655-13.971-3.711-12.443-8.296C487.469 1760.316 531.784 1718.838 531.784 1718.838z" class="svgShape color0f4c86-145"/></g><g><rect width="49.263" height="256.23" x="1548.994" y="2089.607" fill="#008d53" opacity=".2" class="svgShape color0f4c86-147"/><rect width="49.263" height="256.23" x="2017.091" y="2089.607" fill="#008d53" opacity=".2" class="svgShape color0f4c86-148"/><rect width="71.376" height="417.845" x="1502.225" y="2089.607" fill="#f2ebda" class="svgShape colordae7f2-149"/><rect width="71.377" height="417.845" x="1969.143" y="2089.607" fill="#f2ebda" class="svgShape colordae7f2-150"/><path fill="#1c5940" d="M1573.625,2089.608v24.606c-28.771-0.911-53.117-1.627-71.409-2.149v-22.457H1573.625z" class="svgShape color1c2959-151"/><rect width="71.409" height="24.18" x="1969.141" y="2089.608" fill="#1c5940" class="svgShape color1c2959-152"/><polygon fill="#fec332" points="1433.679 2069.197 1479.806 1970.822 1433.679 1970.822" class="svgShape colorfeaa32-153"/><polygon fill="#008d53" points="1479.806 1970.822 1433.679 2069.197 1433.679 2102.497 1507.483 2102.497 1569.156 1970.822" class="svgShape color0f4c86-154"/><polygon fill="#fec332" points="1658.075 1970.823 1596.334 2102.498 1506.915 2102.498 1568.655 1970.823" class="svgShape colorfeaa32-155"/><polygon fill="#008d53" points="1747.425 1970.823 1685.753 2102.498 1596.334 2102.498 1658.075 1970.823" class="svgShape color0f4c86-156"/><polygon fill="#fec332" points="1836.344 1970.823 1774.603 2102.498 1685.184 2102.498 1746.924 1970.823" class="svgShape colorfeaa32-157"/><polygon fill="#008d53" points="1925.694 1970.823 1864.021 2102.498 1774.603 2102.498 1836.344 1970.823" class="svgShape color0f4c86-158"/><polygon fill="#fec332" points="2014.613 1970.823 1952.872 2102.498 1863.453 2102.498 1925.194 1970.823" class="svgShape colorfeaa32-159"/><polygon fill="#008d53" points="2103.964 1970.823 2042.291 2102.498 1952.872 2102.498 2014.613 1970.823" class="svgShape color0f4c86-160"/><g><polygon fill="#fec332" points="2109.07 1970.822 2103.463 1970.822 2041.723 2102.497 2109.07 2102.497" class="svgShape colorfeaa32-162"/></g><g><path fill="#eda800" d="M1360.885,2498.939l4.895-30.376h181.925l4.894,30.376c0.108,0.364,0.177,0.728,0.177,1.098
			c0,10.352-42.996,18.744-96.034,18.744c-53.038,0-96.034-8.392-96.034-18.744
			C1360.708,2499.667,1360.778,2499.302,1360.885,2498.939z" class="svgShape coloreb962c-164"/><path fill="#d8a425" d="M1360.729,2500.036c0,10.342,42.993,18.725,96.001,18.725
			c53.054,0,96.047-8.383,96.047-18.725c0-0.372-0.047-0.745-0.186-1.117l-0.513-3.075c-43.133,24.734-117.52,15.092-127.861,6.707
			c-7.173-5.823-2.236-22.032,2.189-34.002h-60.647l-4.891,30.37C1360.776,2499.292,1360.729,2499.665,1360.729,2500.036z" opacity=".5" class="svgShape colord88225-165"/><ellipse cx="1456.743" cy="2468.563" fill="#d8a425" rx="90.962" ry="17.754" class="svgShape colord88225-166"/><path fill="#fec332" d="M1447.199,2261.845c3.644-11.635,15.278-11.635,18.922,0l63.75,203.531
			c-24.996,15.125-114.06,18.487-146.423,0L1447.199,2261.845z" class="svgShape colorfeaa32-167"/><path fill="#f1c457" d="M1528.679,2461.536c-16.914,6.937-44.974,10.834-73.191,10.834c-26.462,0-53.042-3.39-70.813-10.834
				l7.015-22.448c30.632,14.966,106.902,11.185,129.934,0L1528.679,2461.536z" class="svgShape colorf1d157-168"/><path fill="#d8a425" d="M1423.472,2476.235c-7.732-41.829,20.589-180.263,29.578-222.185
			c-2.469,1.211-4.611,3.82-5.869,7.779l-63.721,203.552C1392.916,2470.832,1407.309,2474.325,1423.472,2476.235z" opacity=".5" class="svgShape colord88225-169"/></g><g><path fill="#eda800" d="M2153.957,2491.944l4.895-30.376h181.925l4.894,30.376c0.107,0.364,0.177,0.728,0.177,1.098
			c0,10.352-42.996,18.744-96.034,18.744s-96.034-8.392-96.034-18.744C2153.78,2492.673,2153.849,2492.308,2153.957,2491.944z" class="svgShape coloreb962c-171"/><path fill="#d8a425" d="M2153.8,2493.042c0,10.342,42.993,18.725,96.001,18.725
			c53.054,0,96.047-8.384,96.047-18.725c0-0.372-0.047-0.745-0.186-1.116l-0.513-3.075c-43.133,24.734-117.519,15.092-127.861,6.708
			c-7.173-5.823-2.235-22.032,2.19-34.003h-60.647l-4.891,30.371C2153.847,2492.297,2153.8,2492.67,2153.8,2493.042z" opacity=".5" class="svgShape colord88225-172"/><path fill="#d8a425" d="M2158.852,2461.568c0,9.806,40.725,17.754,90.962,17.754c50.237,0,90.962-7.948,90.962-17.754
			c0-9.805-40.725-17.754-90.962-17.754C2199.577,2443.814,2158.852,2451.763,2158.852,2461.568z" class="svgShape colord88225-173"/><path fill="#fec332" d="M2240.271,2254.851c3.644-11.635,15.278-11.635,18.922,0l63.75,203.53
			c-24.996,15.125-114.06,18.487-146.423,0L2240.271,2254.851z" class="svgShape colorfeaa32-174"/><path fill="#f1c457" d="M2321.75,2454.541c-16.915,6.937-44.975,10.835-73.191,10.835c-26.462,0-53.042-3.39-70.813-10.835
				l7.015-22.448c30.632,14.966,106.902,11.185,129.934,0L2321.75,2454.541z" class="svgShape colorf1d157-175"/><path fill="#d8a425" d="M2216.543,2469.24c-7.732-41.829,20.588-180.263,29.578-222.185
			c-2.469,1.211-4.612,3.82-5.869,7.779l-63.72,203.553C2185.987,2463.838,2200.38,2467.331,2216.543,2469.24z" opacity=".5" class="svgShape colord88225-176"/></g></g></svg>