<svg width="200" height="200" viewBox="0 0 200 200" fill="none" xmlns="http://www.w3.org/2000/svg">
<rect width="200" height="200" fill="#253957"/>
<path fill-rule="evenodd" clip-rule="evenodd" d="M86.1006 49.4182C86.1006 42.0134 92.114 36 99.5251 36C106.933 36 112.95 42.0134 112.95 49.4182C116.654 43.0068 124.87 40.8039 131.288 44.5078C137.702 48.2118 139.905 56.425 136.201 62.8396C142.616 59.1356 150.835 61.3386 154.539 67.75C158.243 74.1646 156.043 82.3778 149.626 86.0818C157.034 86.0818 163.05 92.0952 163.05 99.5C163.05 106.905 157.034 112.921 149.626 112.921C156.043 116.622 158.243 124.835 154.539 131.25C150.835 137.665 142.616 139.864 136.201 136.16C139.905 142.575 137.702 150.788 131.288 154.492C124.87 158.196 116.654 155.996 112.95 149.582C112.95 156.987 106.933 163 99.5251 163C92.114 163 86.1006 156.987 86.1006 149.582C82.3966 155.996 74.1771 158.196 67.7594 154.492C61.3448 150.788 59.1419 142.575 62.849 136.16C56.4313 139.864 48.2149 137.665 44.511 131.25C40.8039 124.835 43.0068 116.622 49.4245 112.921C42.0134 112.921 36 106.905 36 99.5C36 92.0952 42.0134 86.0818 49.4245 86.0818C43.0068 82.3778 40.8039 74.1646 44.511 67.75C48.2149 61.3386 56.4313 59.1356 62.849 62.8396C59.1419 56.425 61.3448 48.2118 67.7594 44.5078C74.1771 40.8039 82.3966 43.0068 86.1006 49.4182Z" fill="#3D5479"/>
<path fill-rule="evenodd" clip-rule="evenodd" d="M100.381 112.188L101.145 112.774C101.396 112.99 101.775 112.962 101.991 112.711C102.207 112.464 102.179 112.082 101.932 111.865L97.9237 107.951C97.5759 107.651 97.062 107.647 96.711 107.942C96.3569 108.237 96.2692 108.744 96.5042 109.139C96.5042 109.139 97.1497 110.411 97.9457 112.194C98.5536 113.561 99.2618 115.221 99.7444 116.873C100.28 118.697 100.622 120.486 100.083 121.696C99.2336 123.613 96.8834 125.863 94.2135 127.762C91.6533 129.58 88.7767 131.068 86.4954 131.535C84.3363 131.983 81.4784 131.704 78.8524 131.027C76.9535 130.539 75.1767 129.837 73.8762 129.003C73.2464 128.599 72.7262 128.182 72.4159 127.725C72.043 127.204 71.924 126.496 71.9302 125.685C71.9334 124.86 72.0493 123.952 72.253 123.009C72.8829 120.069 74.1959 116.851 75.0482 114.786C75.161 114.56 75.067 114.291 74.8445 114.181C74.622 114.071 74.3494 114.162 74.2397 114.385C72.8797 116.738 70.636 120.624 69.8056 123.952C69.4829 125.243 69.4014 126.462 69.5737 127.496C69.6803 128.126 69.909 128.687 70.2193 129.185C71.2252 130.711 73.6099 132.178 76.5022 133.133C79.9398 134.271 84.0699 134.731 87.0344 134.102C89.5945 133.55 92.8379 131.892 95.6926 129.818C98.7542 127.596 101.355 124.892 102.311 122.667C103.01 121.034 102.756 118.618 101.982 116.19C101.543 114.808 100.967 113.413 100.381 112.188Z" fill="#EAD67F"/>
<path fill-rule="evenodd" clip-rule="evenodd" d="M105.363 82.5282C105.855 83.5059 106.222 84.2298 106.222 84.2298C106.347 84.5338 106.701 84.681 107.005 84.5526C107.312 84.4272 107.456 84.0762 107.331 83.7691C107.331 83.7691 106.363 80.7953 105.617 78.6362C105.191 77.411 104.837 76.4552 104.837 76.4552C104.633 75.9633 104.1 75.6906 103.58 75.8097C103.06 75.9319 102.703 76.4114 102.737 76.9441C102.737 76.9441 102.957 81.6665 103.298 87.9745C103.737 96.1533 104.329 106.999 104.693 113.695C104.752 114.761 104.799 115.72 104.865 116.544C104.899 116.989 104.946 117.393 104.981 117.76C105.097 118.888 105.144 120.386 105.172 121.896C105.232 125.061 105.185 128.239 105.185 128.239C105.159 128.486 105.341 128.709 105.589 128.734C105.836 128.759 106.059 128.577 106.084 128.329C106.084 128.329 106.67 125.171 107.077 122.003C107.278 120.426 107.413 118.86 107.45 117.672C107.453 116.989 107.469 116.155 107.441 115.2C107.369 112.627 107.14 109.174 106.911 105.382C106.573 99.8008 106.159 93.496 105.783 88.2283C105.633 86.1256 105.492 84.1891 105.363 82.5282Z" fill="#EAD67F"/>
<path fill-rule="evenodd" clip-rule="evenodd" d="M106.726 65.7727C106.726 65.8917 106.717 66.2051 106.654 66.4307C106.3 67.6654 105.247 69.3826 103.959 71.2001C100.769 75.7032 96.1376 80.742 96.1376 80.742C95.9621 80.9207 95.9653 81.2058 96.1439 81.3782C96.3256 81.5536 96.6108 81.5505 96.7831 81.3688C96.7831 81.3688 104.912 73.4438 107.673 68.6525C108.287 67.5902 108.625 66.6438 108.669 65.9387C108.707 65.3465 108.537 64.867 108.246 64.4973C107.97 64.1432 107.541 63.8831 106.924 63.7703C105.009 63.4256 99.0394 64.281 92.2519 65.8917C90.284 66.3587 88.2534 66.907 86.2291 67.4805C80.1655 69.1977 74.1959 71.2409 70.4669 73.0458C68.5773 73.9608 67.2267 74.8633 66.5906 75.6217C65.0269 77.4737 65.5533 79.5325 67.7594 81.5725C71.36 84.9004 80.0025 88.457 84.2047 91.5907C88.4351 94.7431 93.9284 99.149 98.7323 102.436C101.327 104.213 103.734 105.667 105.648 106.454C108.083 107.456 112.216 108.158 114.983 107.472C116.91 106.993 118.233 105.883 118.48 104.088C118.875 101.242 118.252 94.2511 117.271 86.7022C116.829 83.3054 116.337 79.7894 115.814 76.4991C115.08 71.9146 114.338 67.7688 113.818 64.9673L115.739 67.7876C115.917 68.0665 116.29 68.148 116.569 67.9662C116.845 67.7876 116.926 67.4178 116.748 67.1389L113.003 60.997C112.799 60.6836 112.407 60.5583 112.063 60.6899C111.718 60.8246 111.514 61.185 111.577 61.5485C111.577 61.5485 112.514 68.2451 113.598 76.3926C114.234 81.1901 114.952 86.4891 115.456 91.2303C116.042 96.7863 116.39 101.553 116.074 103.746C116.002 104.229 115.695 104.548 115.278 104.771C114.755 105.05 114.084 105.191 113.351 105.253C111.12 105.444 108.346 104.874 106.604 104.15C104.818 103.404 102.584 102.026 100.164 100.359C95.3981 97.0714 89.955 92.6655 85.759 89.5162C82.2023 86.8432 75.4306 83.8663 71.2973 80.9896C70.2757 80.2814 69.4265 79.5889 68.8781 78.8995C68.4425 78.3542 68.2044 77.8403 68.6274 77.3389C69.1946 76.6683 70.5452 75.9413 72.3533 75.1203C75.1329 73.8543 78.9496 72.5006 83.039 71.2252C86.1413 70.2538 89.4066 69.3513 92.4932 68.5334C96.288 67.5306 99.8165 66.6689 102.508 66.1832C104.404 65.8416 105.846 65.6504 106.607 65.7507C106.645 65.757 106.698 65.7664 106.726 65.7727Z" fill="#EAD67F"/>
<path fill-rule="evenodd" clip-rule="evenodd" d="M124.886 124.002C125.039 123.924 125.186 123.848 125.334 123.77C126.907 122.946 128.17 122.106 128.906 121.298C129.874 120.242 130.109 118.553 129.796 116.785C129.501 115.131 128.774 113.423 128.157 112.373C127.8 111.768 127.446 111.351 127.204 111.16C126.562 110.653 125.569 110.587 124.525 111.376C123.363 112.257 121.918 114.41 121.448 115.823C121.044 117.036 120.759 118.778 120.827 120.439C120.862 121.263 120.984 122.065 121.207 122.783C117.28 124.56 112.592 126.387 109.891 128.239C109.123 128.778 108.356 129.439 107.619 130.185C105.786 132.049 104.094 134.409 102.577 136.12C101.803 136.994 101.126 137.715 100.471 137.99C99.7193 138.307 98.7009 137.984 97.8548 137.448C96.9743 136.887 96.2002 136.095 96.2096 135.252C96.219 134.506 97.0087 133.108 97.9331 131.635C99.5814 129 101.744 126.211 101.744 126.211C101.903 126.017 101.875 125.732 101.684 125.575C101.493 125.415 101.208 125.44 101.048 125.635C101.048 125.635 98.0522 129.022 96.172 131.823C95.2602 133.183 94.6428 134.446 94.5864 135.186C94.4893 136.53 95.4576 138 96.8176 138.981C98.1838 139.968 99.9199 140.378 101.217 139.921C102.004 139.645 102.884 138.981 103.821 138.072C105.397 136.549 107.193 134.287 109.079 132.413C109.841 131.657 110.609 130.962 111.395 130.432C114.04 128.621 118.64 126.86 122.491 125.133C123.143 125.986 123.977 126.844 124.857 127.515C126.058 128.43 127.352 128.972 128.408 128.925C129.768 128.865 131.993 127.859 133.534 126.365C134.647 125.284 135.386 123.964 135.405 122.654C135.452 119.085 134.763 110.85 133.848 101.988C133.199 95.6738 132.475 89.0337 131.78 83.5561C131.335 80.0558 130.915 77.0287 130.601 74.8602L132.228 77.3358C132.4 77.6178 132.77 77.7056 133.052 77.5301C133.334 77.3577 133.425 76.988 133.249 76.7059L129.962 70.9902C129.765 70.6737 129.376 70.5327 129.022 70.6549C128.668 70.7802 128.448 71.1312 128.492 71.501C128.492 71.501 128.79 74.9605 129.266 80.1122C129.429 81.8545 129.614 83.788 129.821 85.8468C130.485 92.4744 131.319 100.393 131.933 107.34C132.522 114.021 132.939 119.797 132.886 122.614C132.87 123.513 132.099 124.328 131.25 124.995C130.263 125.772 129.088 126.34 128.301 126.371C127.568 126.399 126.716 125.769 125.917 125.055C125.547 124.729 125.199 124.369 124.886 124.002ZM125.866 113.708C125.766 113.796 125.663 113.896 125.578 113.987C124.892 114.751 124.199 115.861 123.933 116.654C123.657 117.471 123.453 118.59 123.425 119.715C123.41 120.383 123.447 121.053 123.585 121.655C123.754 121.57 123.924 121.482 124.09 121.398C125.331 120.746 126.355 120.129 126.941 119.493C127.418 118.976 127.33 118.114 127.179 117.246C126.982 116.118 126.534 114.955 126.098 114.112C126.032 113.981 125.948 113.84 125.866 113.708Z" fill="#EAD67F"/>
<path fill-rule="evenodd" clip-rule="evenodd" d="M139.908 85.1981L136.681 78.9747C136.521 78.6895 136.179 78.5516 135.863 78.6488C135.546 78.7428 135.339 79.0468 135.364 79.3758C135.364 79.3758 135.546 84.5808 135.803 90.9013C135.903 93.3737 135.997 96.0154 136.135 98.5818C136.314 101.86 136.533 105.009 136.703 107.522C136.762 108.365 136.809 109.136 136.875 109.813C136.931 110.393 137.007 110.9 137.057 111.333C137.169 112.182 137.248 113.31 137.307 114.454C137.436 116.86 137.492 119.27 137.492 119.27C137.47 119.518 137.655 119.737 137.906 119.759C138.153 119.781 138.373 119.596 138.392 119.345C138.392 119.345 138.852 116.945 139.172 114.529C139.332 113.322 139.438 112.129 139.473 111.217C139.482 110.775 139.504 110.258 139.495 109.666C139.485 108.979 139.438 108.202 139.391 107.353C139.25 104.837 139.043 101.678 138.764 98.4001C138.548 95.8368 138.266 93.2077 138.012 90.7446C137.674 87.4606 137.351 84.4836 137.119 82.3841L139.119 85.6431C139.244 85.8593 139.52 85.9376 139.736 85.8154C139.952 85.6901 140.03 85.4143 139.908 85.1981Z" fill="#EAD67F"/>
<path fill-rule="evenodd" clip-rule="evenodd" d="M122.664 69.533C123.184 70.4011 123.585 71.0466 123.585 71.0466C123.729 71.3443 124.086 71.4696 124.387 71.3286C124.685 71.1845 124.813 70.8272 124.669 70.5264C124.669 70.5264 123.955 68.4739 123.262 66.7065C122.739 65.3653 122.228 64.2059 122.228 64.2059C121.996 63.7233 121.457 63.4695 120.937 63.6011C120.417 63.7327 120.063 64.2121 120.091 64.748C120.091 64.748 120.198 68.2827 120.382 72.7858C120.69 80.388 121.191 90.7478 121.229 91.4904C121.225 91.6064 121.216 92.2613 121.263 93.1889C121.301 93.9221 121.379 94.8184 121.47 95.7647C121.752 98.773 122.169 102.201 122.169 102.201C122.169 102.452 122.372 102.652 122.623 102.652C122.871 102.649 123.074 102.446 123.071 102.198C123.071 102.198 123.453 98.7636 123.707 95.7553C123.786 94.8058 123.858 93.9096 123.886 93.1763C123.927 92.1485 123.905 91.4591 123.905 91.4591C123.905 91.4403 123.905 91.4184 123.905 91.3996C123.905 91.3996 123.334 80.5446 122.858 72.6604C122.789 71.5448 122.723 70.4919 122.664 69.533Z" fill="#EAD67F"/>
<path fill-rule="evenodd" clip-rule="evenodd" d="M85.709 92.5465C85.6557 92.6123 85.7309 92.628 85.8218 92.628L85.7967 92.5872L85.7904 92.5841L85.7403 92.5621L85.709 92.5465V92.5433C85.7278 92.5214 85.756 92.5402 85.7904 92.5841C85.8656 92.6092 85.9471 92.6217 86.0317 92.6186C86.0035 92.6154 85.9064 92.628 85.8218 92.628C85.8782 92.7126 85.9502 92.8379 86.0317 92.9444C86.7932 93.9315 88.219 96.2128 89.1497 98.4377C89.4505 99.1522 89.7012 99.8573 89.836 100.518C89.9644 101.139 90.0114 101.706 89.7921 102.139C89.4693 102.784 88.7548 103.323 87.8649 103.875C84.6561 105.858 79.2756 107.532 76.1044 109.794C73.0146 112.009 69.7023 115.867 67.067 118.22C66.2773 118.929 65.5691 119.493 64.9517 119.759C64.3877 120.003 63.6607 119.724 63.0277 119.345C62.6047 119.092 62.2224 118.766 61.9497 118.399C61.793 118.189 61.6458 117.985 61.5988 117.76C61.4264 116.976 61.6928 115.372 62.0375 113.652C62.683 110.443 63.667 106.924 63.667 106.924C63.7547 106.689 63.6325 106.428 63.4006 106.344C63.1656 106.256 62.9055 106.375 62.8177 106.61C62.8177 106.61 60.853 110.866 59.7781 114.269C59.2673 115.889 59.0229 117.34 59.1044 118.151C59.2767 119.449 60.2952 120.79 61.6364 121.63C63.0371 122.507 64.7449 122.77 66.0172 122.222C66.8382 121.865 67.8096 121.157 68.8563 120.21C71.4196 117.891 74.6033 114.062 77.6085 111.872C80.7077 109.597 86.0098 107.908 89.1403 105.896C90.4564 105.053 91.4247 104.132 91.8853 103.157C92.2238 102.433 92.3209 101.549 92.1517 100.572C91.9919 99.6254 91.6096 98.5662 91.0675 97.5352C89.8548 95.2383 87.962 93.0259 87.0094 92.0796C86.7305 91.8038 86.5206 91.6221 86.4046 91.5531C86.2009 91.4309 86.0411 91.409 85.9534 91.4184C85.6212 91.4403 85.3705 91.7286 85.3925 92.0576C85.4081 92.2707 85.5335 92.4525 85.709 92.5465Z" fill="#EAD67F"/>
<path fill-rule="evenodd" clip-rule="evenodd" d="M91.5405 87.0093C90.9138 86.9655 90.2682 86.931 89.6352 86.9216C88.0684 86.8965 86.5674 87.0344 85.4988 87.4606C84.3049 87.9337 83.0891 88.667 81.8701 89.5476C79.5073 91.2523 77.1226 93.521 74.8225 95.3135C72.6039 97.0464 70.0375 99.6504 67.8063 101.553C66.7127 102.483 65.7287 103.248 64.9171 103.549C64.3186 103.774 63.5164 103.574 62.8238 103.242C62.3914 103.035 61.9746 102.79 61.7051 102.458C61.5673 102.289 61.4356 102.12 61.4137 101.919C61.2884 100.891 61.6895 99.1208 62.241 97.1811C62.9962 94.5238 64.0397 91.6032 64.7197 89.723C64.8168 89.4943 64.7103 89.2279 64.4815 89.1308C64.2528 89.0305 63.9864 89.1371 63.8862 89.3689C62.8395 91.481 61.1129 94.9531 60.0443 97.8517C59.4145 99.5627 59.0541 101.095 59.076 102.085C59.1136 103.445 60.1822 104.777 61.6393 105.57C62.9899 106.3 64.6351 106.485 65.8384 106.059C66.5967 105.78 67.4992 105.225 68.4644 104.476C70.8992 102.59 73.9044 99.4029 76.4552 97.3942C78.7208 95.6049 81.0647 93.3393 83.3868 91.6346C84.4177 90.8794 85.4393 90.237 86.4515 89.8265C87.2631 89.4943 88.4131 89.4316 89.607 89.441C91.7222 89.4567 93.9691 89.745 95.163 89.7325C95.9558 89.7231 96.4885 89.5162 96.7204 89.3313C97.2218 88.9302 97.4067 88.4195 97.1622 87.7583C97.0933 87.5734 96.7987 87.1127 96.0968 86.8213C95.6079 86.6176 94.7149 86.3262 93.9816 85.9063C93.6996 85.7433 93.4144 85.5992 93.3141 85.3673C92.9632 84.5526 92.5276 82.9607 92.0732 81.1306C91.6596 79.4667 91.2522 77.6021 90.8605 75.9257C90.779 75.5716 90.6975 75.2269 90.6192 74.8916L91.6596 76.2641C91.8444 76.5398 92.2174 76.6088 92.4931 76.4239C92.7657 76.239 92.8378 75.8661 92.6529 75.5904L89.4817 70.3603C89.2373 70.0031 88.7766 69.8652 88.3755 70.0281C87.9744 70.1942 87.7457 70.6173 87.824 71.0434C87.824 71.0434 88.0904 73.0458 88.5479 75.6186C88.8017 77.0412 89.1276 78.6331 89.4598 80.1623C90.0207 82.7695 90.638 85.1887 91.0955 86.3011C91.1989 86.5455 91.3493 86.7837 91.5405 87.0093Z" fill="#EAD67F"/>
<path fill-rule="evenodd" clip-rule="evenodd" d="M127.515 103.618L128.975 105.372L127.75 107.688L125.265 105.842L127.515 103.618Z" fill="#EAD67F"/>
<path fill-rule="evenodd" clip-rule="evenodd" d="M122.341 103.643L124.698 105.667L122.651 108.243L120.552 106.372L122.341 103.643Z" fill="#EAD67F"/>
<path fill-rule="evenodd" clip-rule="evenodd" d="M142.409 93.0165C142.409 93.0165 141.384 96.5669 141.243 97.6073C141.168 98.1619 141.419 98.8451 141.56 99.2556C141.663 99.5595 141.907 100.092 142.089 100.07C142.274 100.048 142.525 99.1271 142.65 99.124C142.772 99.1208 142.957 99.7632 142.832 100.052C142.647 100.496 141.911 101.753 141.528 101.778C141.146 101.803 140.663 100.81 140.535 100.208C140.369 99.4311 140.272 98.1149 140.532 97.1153C140.842 95.9183 142.409 93.0165 142.409 93.0165Z" fill="#EAD67F"/>
<path fill-rule="evenodd" clip-rule="evenodd" d="M111.27 90.6287C111.27 90.6287 110.245 94.1791 110.104 95.2195C110.029 95.7741 110.277 96.4572 110.418 96.8677C110.524 97.1748 110.769 97.7044 110.95 97.6825C111.132 97.6606 111.386 96.7393 111.508 96.7361C111.633 96.733 111.815 97.3754 111.693 97.6668C111.505 98.1087 110.772 99.3653 110.389 99.3903C110.004 99.4154 109.525 98.422 109.396 97.8204C109.23 97.0432 109.13 95.7271 109.393 94.7275C109.703 93.5304 111.27 90.6287 111.27 90.6287Z" fill="#EAD67F"/>
<path fill-rule="evenodd" clip-rule="evenodd" d="M100.957 86.3011C100.957 86.3011 99.9324 89.8515 99.7914 90.8919C99.7162 91.4466 99.9638 92.1297 100.105 92.5402C100.211 92.8473 100.456 93.3769 100.637 93.3549C100.819 93.333 101.073 92.4117 101.195 92.4086C101.321 92.4055 101.502 93.0479 101.38 93.3393C101.192 93.7811 100.459 95.0377 100.077 95.0628C99.6911 95.0878 99.2117 94.0945 99.0832 93.4928C98.9171 92.7157 98.82 91.3996 99.0801 90.3999C99.3903 89.2029 100.957 86.3011 100.957 86.3011Z" fill="#EAD67F"/>
<path fill-rule="evenodd" clip-rule="evenodd" d="M109.922 70.6455C109.922 70.6455 108.898 74.1959 108.757 75.2362C108.682 75.7909 108.929 76.474 109.07 76.8845C109.177 77.1916 109.421 77.7212 109.603 77.6993C109.785 77.6773 110.038 76.7561 110.161 76.7529C110.286 76.7498 110.468 77.3922 110.346 77.6836C110.157 78.1255 109.424 79.382 109.042 79.4071C108.656 79.4322 108.177 78.4388 108.049 77.8372C107.882 77.06 107.785 75.7439 108.045 74.7443C108.356 73.5472 109.922 70.6455 109.922 70.6455Z" fill="#EAD67F"/>
<path fill-rule="evenodd" clip-rule="evenodd" d="M118.957 70.6016C118.957 70.6016 117.935 74.152 117.794 75.1924C117.716 75.7471 117.967 76.4302 118.108 76.8407C118.214 77.1447 118.459 77.6742 118.64 77.6523C118.822 77.6304 119.076 76.7091 119.198 76.7059C119.323 76.7059 119.505 77.3452 119.383 77.6366C119.195 78.0785 118.462 79.3351 118.076 79.3633C117.694 79.3883 117.215 78.395 117.086 77.7902C116.92 77.013 116.82 75.6969 117.08 74.7004C117.393 73.5034 118.957 70.6016 118.957 70.6016Z" fill="#EAD67F"/>
<path fill-rule="evenodd" clip-rule="evenodd" d="M94.5802 113.382C94.5802 113.382 93.5587 116.932 93.4176 117.973C93.3393 118.527 93.59 119.211 93.731 119.621C93.8376 119.925 94.082 120.455 94.2637 120.433C94.4455 120.411 94.6993 119.489 94.8215 119.486C94.9469 119.486 95.1286 120.126 95.0064 120.417C94.8184 120.859 94.0851 122.115 93.6997 122.141C93.3174 122.166 92.8379 121.175 92.7094 120.571C92.5434 119.793 92.4431 118.477 92.7032 117.481C93.0165 116.281 94.5802 113.382 94.5802 113.382Z" fill="#EAD67F"/>
<path fill-rule="evenodd" clip-rule="evenodd" d="M70.3509 102.881C70.3509 102.881 69.3262 106.432 69.1852 107.472C69.11 108.027 69.3607 108.71 69.5017 109.12C69.6051 109.427 69.8495 109.957 70.0313 109.935C70.2162 109.913 70.4669 108.992 70.5922 108.989C70.7144 108.985 70.8993 109.628 70.774 109.916C70.5891 110.361 69.8527 111.618 69.4704 111.643C69.0881 111.668 68.6055 110.675 68.477 110.073C68.3109 109.296 68.2138 107.98 68.4739 106.98C68.7841 105.783 70.3509 102.881 70.3509 102.881Z" fill="#EAD67F"/>
<path fill-rule="evenodd" clip-rule="evenodd" d="M70.2695 86.4547C70.2695 86.4547 69.2448 90.0051 69.1038 91.0454C69.0286 91.6001 69.2793 92.2832 69.4203 92.6937C69.5237 92.9977 69.7681 93.5273 69.9499 93.5053C70.1348 93.4834 70.3855 92.5621 70.5108 92.559C70.633 92.559 70.8179 93.1983 70.6925 93.4897C70.5077 93.9315 69.7713 95.1881 69.389 95.2163C69.0067 95.2382 68.5241 94.248 68.3956 93.6432C68.2295 92.8661 68.1324 91.55 68.3925 90.5535C68.7027 89.3533 70.2695 86.4547 70.2695 86.4547Z" fill="#EAD67F"/>
<path fill-rule="evenodd" clip-rule="evenodd" d="M98.3594 66.3242C98.3594 66.3242 97.3378 69.8746 97.1968 70.915C97.1185 71.4696 97.3692 72.1528 97.5102 72.5633C97.6167 72.8704 97.8612 73.4 98.0429 73.378C98.2247 73.3561 98.4785 72.4348 98.6007 72.4317C98.726 72.4285 98.9078 73.0709 98.7856 73.3623C98.5976 73.8042 97.8643 75.0608 97.4788 75.0858C97.0965 75.1109 96.6171 74.1176 96.4886 73.5159C96.3225 72.7388 96.2223 71.4226 96.4824 70.423C96.7957 69.2259 98.3594 66.3242 98.3594 66.3242Z" fill="#EAD67F"/>
<path fill-rule="evenodd" clip-rule="evenodd" d="M68.9126 64.7574C68.9126 64.7574 67.8911 68.3078 67.7469 69.3482C67.6717 69.9028 67.9224 70.5859 68.0634 70.9965C68.17 71.3035 68.4144 71.8331 68.5961 71.8112C68.7779 71.7893 69.0286 70.868 69.1539 70.8648C69.2793 70.8617 69.461 71.5041 69.3388 71.7924C69.1508 72.2374 68.4144 73.494 68.0321 73.519C67.6498 73.5441 67.1703 72.5507 67.0418 71.9491C66.8758 71.1719 66.7755 69.8558 67.0356 68.8562C67.3489 67.6591 68.9126 64.7574 68.9126 64.7574Z" fill="#EAD67F"/>
<path fill-rule="evenodd" clip-rule="evenodd" d="M107.268 141.541C107.268 141.541 109.311 139.159 109.785 138.407C110.038 138.006 110.079 137.392 110.111 137.028C110.132 136.756 110.123 136.261 109.973 136.217C109.819 136.17 109.299 136.793 109.199 136.753C109.101 136.712 109.18 136.154 109.377 135.972C109.678 135.697 110.7 134.982 111.01 135.095C111.323 135.208 111.358 136.138 111.248 136.649C111.11 137.304 110.731 138.354 110.179 139.034C109.515 139.849 107.268 141.541 107.268 141.541Z" fill="#EAD67F"/>
<path fill-rule="evenodd" clip-rule="evenodd" d="M64.3501 128.727C64.3501 128.727 66.3964 126.346 66.8695 125.594C67.1234 125.193 67.1641 124.578 67.1954 124.212C67.2174 123.942 67.208 123.447 67.0544 123.403C66.904 123.356 66.3838 123.98 66.2836 123.939C66.1864 123.898 66.2647 123.341 66.4622 123.159C66.763 122.88 67.7814 122.169 68.0948 122.282C68.4082 122.394 68.4426 123.325 68.3329 123.836C68.1951 124.491 67.8159 125.541 67.2612 126.221C66.6 127.035 64.3501 128.727 64.3501 128.727Z" fill="#EAD67F"/>
<path fill-rule="evenodd" clip-rule="evenodd" d="M56.726 112.235C56.726 112.235 58.111 109.43 58.3805 108.584C58.5278 108.136 58.4118 107.532 58.3492 107.171C58.3053 106.902 58.1706 106.425 58.0139 106.419C57.8541 106.41 57.5062 107.14 57.3997 107.124C57.2931 107.108 57.2305 106.551 57.3777 106.325C57.6002 105.983 58.4087 105.043 58.7409 105.078C59.0699 105.112 59.3363 106.005 59.3613 106.526C59.3895 107.196 59.2861 108.306 58.9195 109.098C58.4808 110.048 56.726 112.235 56.726 112.235Z" fill="#EAD67F"/>
<path fill-rule="evenodd" clip-rule="evenodd" d="M120.649 114.244C120.649 114.244 119.142 111.499 118.603 110.791C118.317 110.411 117.753 110.151 117.418 109.991C117.171 109.869 116.7 109.7 116.603 109.822C116.503 109.944 116.901 110.649 116.826 110.725C116.751 110.8 116.252 110.524 116.155 110.277C116.002 109.897 115.701 108.704 115.92 108.459C116.143 108.215 117.033 108.522 117.478 108.807C118.048 109.174 118.9 109.904 119.339 110.659C119.869 111.565 120.649 114.244 120.649 114.244Z" fill="#EAD67F"/>
<path fill-rule="evenodd" clip-rule="evenodd" d="M108.907 62.075C108.907 62.075 106.745 59.7937 106.043 59.2422C105.667 58.9476 105.056 58.8379 104.689 58.7627C104.42 58.7094 103.922 58.6593 103.856 58.8035C103.793 58.9476 104.357 59.5273 104.307 59.6213C104.254 59.7122 103.699 59.5712 103.539 59.355C103.298 59.0259 102.696 57.948 102.847 57.6534C103 57.362 103.94 57.4372 104.442 57.6033C105.087 57.8164 106.1 58.3115 106.72 58.9319C107.463 59.6777 108.907 62.075 108.907 62.075Z" fill="#EAD67F"/>
<path fill-rule="evenodd" clip-rule="evenodd" d="M118.277 117.161C118.744 117.431 117.396 118.358 116.757 118.694C115.867 119.164 112.912 120.003 112.928 119.972C112.99 119.853 110.922 120.567 110.844 120.339C110.769 120.107 112.47 118.596 112.47 118.596C112.47 118.596 111.389 117.606 111.323 117.077C111.261 116.547 111.737 115.917 112.082 115.419C112.448 114.892 112.931 114.244 113.514 113.921C114.1 113.601 115.156 113.438 115.582 113.492C115.886 113.526 116.331 114.071 116.08 114.241C115.679 114.51 113.749 114.789 113.169 115.102C112.824 115.29 112.473 115.798 112.602 116.127C112.733 116.459 113.401 116.986 113.946 117.083C114.889 117.258 117.807 116.895 118.277 117.161Z" fill="#EAD67F"/>
<path fill-rule="evenodd" clip-rule="evenodd" d="M86.3324 118.324L85.0508 121.072L87.4198 123.159L89.0148 120.492L86.3324 118.324Z" fill="#EAD67F"/>
<path fill-rule="evenodd" clip-rule="evenodd" d="M77.2262 100.055L75.3585 102.496L78.1725 104.918L80.2407 102.082L77.2262 100.055Z" fill="#EAD67F"/>
<path fill-rule="evenodd" clip-rule="evenodd" d="M82.2462 99.5094L80.5071 102.079L83.2051 104.41L84.9537 101.797L82.2462 99.5094Z" fill="#EAD67F"/>
<path fill-rule="evenodd" clip-rule="evenodd" d="M76.004 68.8311L75.183 67.0167C75.183 67.0167 79.3632 64.8733 81.5223 63.9489C84.9693 62.4698 95.865 58.1454 95.865 58.1454C95.865 58.1454 92.5527 58.5089 90.9953 59.051C87.4417 60.2826 77.3922 64.0241 74.5468 65.5439C73.7509 65.9701 73.9389 68.1574 73.9389 68.1574C73.9389 68.1574 74.8853 69.8997 75.1955 69.7117C75.5402 69.5017 76.004 68.8311 76.004 68.8311Z" fill="#EAD67F"/>
<path fill-rule="evenodd" clip-rule="evenodd" d="M78.1443 77.4612C78.1443 77.4612 77.1698 78.2916 77.3797 78.7428C77.6054 79.2223 78.8839 79.7017 79.4949 80.3347C80.294 81.162 82.1742 83.7159 82.1742 83.7159L83.0579 79.3445C83.0579 79.3445 83.3869 77.4894 83.6439 77.2136C83.8883 76.9535 84.6059 77.7056 84.6059 77.7056L85.1637 77.4674C85.1637 77.4674 84.8127 75.7377 84.5307 75.3867C84.3145 75.1141 83.6407 75.0514 83.4809 75.3585C83.0391 76.2077 81.889 80.4883 81.889 80.4883L78.1443 77.4612Z" fill="#EAD67F"/>
<path fill-rule="evenodd" clip-rule="evenodd" d="M115.344 132.983C115.344 132.983 114.366 133.816 114.579 134.265C114.802 134.744 116.083 135.223 116.694 135.856C117.493 136.687 119.374 139.238 119.374 139.238L120.257 134.866C120.257 134.866 120.583 133.011 120.843 132.735C121.088 132.475 121.802 133.227 121.802 133.227L122.36 132.989C122.36 132.989 122.009 131.259 121.73 130.908C121.514 130.636 120.837 130.573 120.677 130.88C120.238 131.729 119.085 136.01 119.085 136.01L115.344 132.983Z" fill="#EAD67F"/>
<path fill-rule="evenodd" clip-rule="evenodd" d="M85.8374 115.328C85.8374 115.328 94.0883 108.064 95.9496 106.595C96.2223 106.378 96.6861 106.673 97.0025 106.522C97.3222 106.369 97.8988 106.078 97.8612 105.683C97.811 105.134 96.9461 103.922 96.6923 103.238C96.4949 102.715 96.6986 101.866 96.3319 101.596C95.9622 101.327 94.856 101.318 94.48 101.625C94.1071 101.935 94.0319 102.831 94.0883 103.448C94.1509 104.163 94.8685 105.911 94.8685 105.911L88.103 112.646L85.8374 115.328Z" fill="#EAD67F"/>
<path fill-rule="evenodd" clip-rule="evenodd" d="M116.553 96.4635C116.553 96.4635 124.804 89.1966 126.665 87.73C126.941 87.5138 127.405 87.8084 127.722 87.658C128.041 87.5044 128.618 87.213 128.58 86.8181C128.527 86.2698 127.665 85.0539 127.408 84.3739C127.214 83.8475 127.418 83.0014 127.048 82.7319C126.681 82.4624 125.575 82.453 125.199 82.7601C124.826 83.0703 124.751 83.9665 124.804 84.5839C124.87 85.2983 125.587 87.0469 125.587 87.0469L118.819 93.7811L116.553 96.4635Z" fill="#EAD67F"/>
<path fill-rule="evenodd" clip-rule="evenodd" d="M56.1743 95.2821C56.1743 95.2821 64.4252 88.0152 66.2866 86.5487C66.5592 86.3293 67.023 86.6239 67.3395 86.4735C67.6591 86.3231 68.2357 86.0285 68.1981 85.6337C68.1479 85.0884 67.2831 83.8726 67.0292 83.1926C66.8318 82.6661 67.0355 81.8169 66.6689 81.5474C66.2991 81.281 65.1929 81.2685 64.82 81.5787C64.444 81.8858 64.3688 82.782 64.4252 83.3994C64.4879 84.1138 65.2055 85.8655 65.2055 85.8655L58.4399 92.5966L56.1743 95.2821Z" fill="#EAD67F"/>
</svg>
